# https://github.com/mikedh/trimesh
v -0.22629867 -0.43235293 -0.06176471
v -0.19040552 0.43235293 -0.06176471
v -0.19707963 0.55588233 -0.06176471
v -0.12352941 -0.92647058 -0.06176471
v -0.12352941 -0.80294120 -0.06176471
v -0.12352941 -0.67941177 -0.06176471
v -0.12352941 -0.55588233 -0.06176471
v -0.18529412 -0.47335750 -0.06176471
v -0.18529412 -0.43235293 -0.10276926
v -0.18529412 -0.35892797 -0.06176471
v -0.18529412 -0.43235293 -0.02076015
v -0.15386868 -0.30882353 -0.06176471
v -0.15033825 -0.18529412 -0.06176471
v -0.16046491 -0.06176471 -0.06176471
v -0.17295857 0.06176471 -0.06176471
v -0.17960906 0.18529412 -0.06176471
v -0.18514591 0.30882353 -0.06176471
v -0.18529412 0.31218785 -0.06176471
v -0.18529412 0.43235293 -0.06687611
v -0.18529412 0.43235293 -0.05665330
v -0.18529412 0.55588233 -0.07355022
v -0.18529412 0.58118808 -0.06176471
v -0.18529412 0.55588233 -0.04997919
v -0.13309297 0.67941177 -0.06176471
v -0.06176471 -0.98823529 -0.06176471
v -0.06176471 -0.92647058 -0.12352941
v 0.00000000 -0.92647058 -0.06176471
v -0.06176471 -0.92647058 0.00000000
v -0.06176471 -0.80294120 -0.12352941
v 0.00000000 -0.80294120 -0.06176471
v -0.06176471 -0.80294120 0.00000000
v -0.06176471 -0.67941177 -0.12352941
v 0.00000000 -0.67941177 -0.06176471
v -0.06176471 -0.67941177 0.00000000
v -0.06176471 -0.55588233 -0.12352941
v 0.00000000 -0.55588233 -0.06176471
v -0.06176471 -0.55588233 0.00000000
v -0.06176471 -0.43235293 -0.12352941
v -0.06176471 -0.43235293 0.00000000
v -0.06176471 -0.30882353 -0.12333579
v 0.02969592 -0.30882353 -0.06176471
v -0.06176471 -0.30882353 -0.00019367
v -0.06176471 -0.18529412 -0.12333579
v 0.02802354 -0.18529412 -0.06176471
v -0.06176471 -0.18529412 -0.00019367
v -0.06176471 -0.06176471 -0.12352941
v 0.03793121 -0.06176471 -0.06176471
v -0.06176471 -0.06176471 0.00000000
v -0.06176471 0.06176471 -0.12352941
v 0.04834510 0.06176471 -0.06176471
v -0.06176471 0.06176471 0.00000000
v -0.06176471 0.18529412 -0.12352941
v 0.05618950 0.18529412 -0.06176471
v -0.06176471 0.18529412 0.00000000
v -0.06176471 0.30882353 -0.12372185
v -0.06176471 0.30882353 0.00019238
v -0.06176471 0.43235293 -0.12352941
v -0.06176471 0.43235293 0.00000000
v -0.06176471 0.55588233 -0.12352941
v -0.06176471 0.55588233 0.00000000
v -0.06176471 0.67941177 -0.10607686
v 0.00865491 0.67941177 -0.06176471
v -0.06176471 0.74276924 -0.06176471
v -0.06176471 0.67941177 -0.01745261
v 0.06176471 -0.47068962 -0.06176471
v 0.06176471 -0.43235293 -0.10010140
v 0.10010140 -0.43235293 -0.06176471
v 0.06176471 -0.36273170 -0.06176471
v 0.06176471 -0.43235293 -0.02342801
v 0.06176471 0.28594768 -0.06176471
v 0.06176471 0.30882353 -0.06307761
v 0.06307755 0.30882353 -0.06176471
v 0.06176471 0.30882353 -0.06045187
v 0.06176471 0.43235293 -0.06894562
v 0.06894550 0.43235293 -0.06176471
v 0.06176471 0.43235293 -0.05458379
v 0.06176471 0.55588233 -0.07594582
v 0.07594582 0.55588233 -0.06176471
v 0.06176471 0.58492750 -0.06176471
v 0.06176471 0.55588233 -0.04758359
f 8 1 9
f 11 1 8
f 1 10 9
f 11 10 1
f 18 2 19
f 20 2 18
f 19 2 21
f 21 2 3
f 23 3 20
f 20 3 2
f 3 22 21
f 23 22 3
f 25 4 26
f 28 4 25
f 26 4 29
f 29 4 5
f 31 5 28
f 28 5 4
f 29 5 32
f 32 5 6
f 34 6 31
f 31 6 5
f 32 6 35
f 35 6 7
f 37 7 34
f 34 7 6
f 8 9 7
f 9 35 7
f 9 38 35
f 7 37 8
f 37 11 8
f 37 39 11
f 12 40 10
f 40 9 10
f 40 38 9
f 10 11 12
f 11 42 12
f 11 39 42
f 40 12 43
f 43 12 13
f 45 13 42
f 42 13 12
f 43 13 46
f 46 13 14
f 48 14 45
f 45 14 13
f 46 14 49
f 49 14 15
f 51 15 48
f 48 15 14
f 49 15 52
f 52 15 16
f 54 16 51
f 51 16 15
f 52 16 55
f 55 16 17
f 56 17 54
f 54 17 16
f 18 19 17
f 19 55 17
f 19 57 55
f 17 56 18
f 56 20 18
f 56 58 20
f 19 59 57
f 19 21 59
f 60 20 58
f 23 20 60
f 24 61 22
f 61 21 22
f 61 59 21
f 22 23 24
f 23 64 24
f 23 60 64
f 24 63 61
f 64 63 24
f 26 27 25
f 27 28 25
f 27 26 30
f 30 26 29
f 30 31 27
f 27 31 28
f 30 29 33
f 33 29 32
f 33 34 30
f 30 34 31
f 33 32 36
f 36 32 35
f 36 37 33
f 33 37 34
f 36 35 65
f 35 66 65
f 35 38 66
f 65 69 36
f 69 37 36
f 69 39 37
f 68 66 41
f 66 40 41
f 66 38 40
f 41 42 68
f 42 69 68
f 42 39 69
f 41 40 44
f 44 40 43
f 44 45 41
f 41 45 42
f 44 43 47
f 47 43 46
f 47 48 44
f 44 48 45
f 47 46 50
f 50 46 49
f 50 51 47
f 47 51 48
f 50 49 53
f 53 49 52
f 53 54 50
f 50 54 51
f 53 52 70
f 52 71 70
f 52 55 71
f 70 73 53
f 73 54 53
f 73 56 54
f 55 74 71
f 55 57 74
f 76 56 73
f 58 56 76
f 57 77 74
f 57 59 77
f 80 58 76
f 60 58 80
f 79 77 62
f 77 61 62
f 77 59 61
f 62 64 79
f 64 80 79
f 64 60 80
f 61 63 62
f 63 64 62
f 66 67 65
f 67 69 65
f 66 68 67
f 68 69 67
f 71 72 70
f 72 73 70
f 72 71 75
f 75 71 74
f 75 76 72
f 72 76 73
f 75 74 78
f 78 74 77
f 78 80 75
f 75 80 76
f 77 79 78
f 79 80 78

