# https://github.com/mikedh/trimesh
v -0.97484905 0.18529412 0.18529412
v -0.97354078 0.30882353 0.18529412
v -0.97513372 0.43235293 0.18529412
v -0.97513372 0.55588233 0.18529412
v -0.97583598 0.67941177 0.18529412
v -0.97541618 0.80294120 0.18529412
v -0.92647058 0.07169123 0.18529412
v -0.92647058 0.18529412 0.13691568
v -0.92647058 0.18529412 0.24891181
v -0.87984663 0.18529412 0.30882353
v -0.92647058 0.30882353 0.13822393
v -0.92647058 0.30882353 0.24737395
v -0.87969732 0.30882353 0.30882353
v -0.92647058 0.43235293 0.13663106
v -0.92647058 0.43235293 0.24920985
v -0.87984663 0.43235293 0.30882353
v -0.92647058 0.55588233 0.13663106
v -0.92647058 0.55588233 0.24952947
v -0.88014704 0.55588233 0.30882353
v -0.92647058 0.67941177 0.13592871
v -0.92647058 0.67941177 0.24994214
v -0.87984663 0.67941177 0.30882353
v -0.92647058 0.80294120 0.13634844
v -0.92647058 0.85188687 0.18529412
v -0.92647058 0.80294120 0.25047299
v -0.88075495 0.80294120 0.30882353
v -0.80294120 0.07347117 0.18529412
v -0.80294120 0.07223184 0.30882341
v -0.80294120 0.18529412 0.12352941
v -0.74117649 0.18529412 0.30882353
v -0.80294120 0.18529412 0.37058824
v -0.80294120 0.30882353 0.12352941
v -0.74117649 0.30882353 0.30882353
v -0.80294120 0.30882353 0.37058824
v -0.80294120 0.43235293 0.12352941
v -0.74117649 0.43235293 0.30882353
v -0.80294120 0.43235293 0.37058824
v -0.80294120 0.55588233 0.12352941
v -0.74117649 0.55588233 0.30882353
v -0.80294120 0.55588233 0.37058824
v -0.80294120 0.67941177 0.12352941
v -0.74117649 0.67941177 0.30882353
v -0.80294120 0.67941177 0.37058824
v -0.80294120 0.80294120 0.12352941
v -0.80294120 0.86470586 0.18529412
v -0.74117649 0.80294120 0.30882353
v -0.80294120 0.86470586 0.30882353
v -0.80294120 0.80294120 0.37058824
v -0.67941171 0.07441221 0.18529412
v -0.61764705 0.18529412 0.06176471
v -0.67941177 0.18529412 0.12352941
v -0.67941177 0.18529412 0.24705882
v -0.61764705 0.30882353 0.06176471
v -0.67941177 0.30882353 0.12352941
v -0.67941177 0.30882353 0.24705882
v -0.61764705 0.43235293 0.06176471
v -0.67941177 0.43235293 0.12352941
v -0.67941177 0.43235293 0.24705882
v -0.61764705 0.55588233 0.06176471
v -0.67941177 0.55588233 0.12352941
v -0.67941177 0.55588233 0.24705882
v -0.61764705 0.67941177 0.06176471
v -0.67941177 0.67941177 0.12352941
v -0.67941177 0.67941177 0.24705882
v -0.61764705 0.80294120 0.06176471
v -0.67941177 0.80294120 0.12352941
v -0.67941177 0.86470586 0.18529412
v -0.67941177 0.80294120 0.24705882
v -0.55588233 0.07587007 0.06176471
v -0.55588233 0.07549015 0.18529412
v -0.55588233 0.18529412 0.00000000
v -0.49411765 0.18529412 0.18529412
v -0.55588233 0.18529412 0.24705882
v -0.55588233 0.30882353 0.00000000
v -0.49411765 0.30882353 0.18529412
v -0.55588233 0.30882353 0.24705882
v -0.55588233 0.43235293 0.00000000
v -0.49392402 0.43235293 0.18529412
v -0.55588233 0.43235293 0.24705882
v -0.55588233 0.55588233 0.00000000
v -0.49411765 0.55588233 0.18529412
v -0.55588233 0.55588233 0.24705882
v -0.55588233 0.67941177 0.00000000
v -0.49411765 0.67941177 0.18529412
v -0.55588233 0.67941177 0.24705882
v -0.55588233 0.80294120 0.00000000
v -0.55588233 0.86470586 0.06176471
v -0.49392402 0.80294120 0.18529412
v -0.55588233 0.86470586 0.18529412
v -0.55588233 0.80294120 0.24705882
v -0.43235299 0.07706840 0.06176459
v -0.43235293 0.18529412 0.00000000
v -0.43235293 0.18529412 0.12352941
v -0.43235293 0.30882353 0.00000000
v -0.43235293 0.30882353 0.12352941
v -0.43235293 0.43235293 0.00000000
v -0.43235293 0.43235293 0.12372309
v -0.43235293 0.55588233 0.00000000
v -0.43235293 0.55588233 0.12352941
v -0.43235293 0.67941177 0.00000000
v -0.43235293 0.67941177 0.12352941
v -0.43235293 0.80294120 0.00000000
v -0.43235293 0.86470586 0.06176471
v -0.43235293 0.80294120 0.12372309
v -0.30882353 0.07669684 0.06176471
v -0.28717405 0.18529400 -0.06176471
v -0.30882353 0.18529400 -0.04011523
v -0.30882353 0.18529412 0.12352941
v -0.28863898 0.30882353 -0.06176471
v -0.30882353 0.30882353 -0.04158016
v -0.30882353 0.30882353 0.12352941
v -0.28850409 0.43235293 -0.06176471
v -0.30882353 0.43235293 -0.04144527
v -0.30882353 0.43235293 0.12352941
v -0.28783476 0.55588222 -0.06176471
v -0.30882353 0.55588222 -0.04077601
v -0.30882353 0.55588233 0.12352941
v -0.28870660 0.67941165 -0.06176471
v -0.30882353 0.67941165 -0.04164778
v -0.30882353 0.67941177 0.12352941
v -0.28931889 0.80294120 -0.06176471
v -0.30882353 0.80294120 -0.04226002
v -0.30882353 0.86470586 0.06176471
v -0.30882353 0.80294120 0.12352941
v -0.12352941 -0.92647058 -0.06176471
v -0.12352941 -0.80294120 -0.06176471
v -0.12352941 -0.67941177 -0.06176471
v -0.12352941 -0.55588233 -0.06176471
v -0.12352941 -0.43235293 -0.06176471
v -0.12352941 -0.30882353 -0.06176471
v -0.12352941 -0.18529412 -0.06176471
v -0.12352941 -0.06176471 -0.06176471
v -0.17327228 0.06176459 -0.06176471
v -0.18529418 0.07378654 -0.06176471
v -0.18529412 0.07439490 0.06176471
v -0.18529412 0.18529412 -0.12352941
v -0.13429578 0.18529400 0.06176471
v -0.18529412 0.18529400 0.11276305
v -0.18529412 0.30882353 -0.12352941
v -0.13551366 0.30882353 0.06176471
v -0.18529412 0.30882353 0.11154516
v -0.18529412 0.43235293 -0.12352941
v -0.13592871 0.43235293 0.06176471
v -0.18529412 0.43235293 0.11113013
v -0.18529412 0.55588233 -0.12352941
v -0.13565150 0.55588222 0.06176471
v -0.18529412 0.55588222 0.11140732
v -0.18529412 0.67941177 -0.12352941
v -0.13592871 0.67941177 0.06176471
v -0.18529412 0.67941177 0.11113013
v -0.18529412 0.80294120 -0.12352941
v -0.18529412 0.86470586 -0.06176471
v -0.13592871 0.80294120 0.06176471
v -0.18529412 0.85230660 0.06176471
v -0.18529412 0.80294120 0.11113013
v -0.06176471 -0.98823529 -0.06176471
v -0.06176471 -0.92647058 -0.12352941
v 0.00000000 -0.92647058 -0.06176471
v -0.06176471 -0.92647058 0.00000000
v -0.06176471 -0.80294120 -0.12352941
v 0.00000000 -0.80294120 -0.06176471
v -0.06176471 -0.80294120 0.00000000
v -0.06176471 -0.67941177 -0.12352941
v 0.00000000 -0.67941177 -0.06176471
v -0.06176471 -0.67941177 0.00000000
v -0.06176471 -0.55588233 -0.12352941
v 0.00000000 -0.55588233 -0.06176471
v -0.06176471 -0.55588233 0.00000000
v -0.06176471 -0.43235293 -0.12352941
v 0.00000000 -0.43235293 -0.06176471
v -0.06176471 -0.43235293 0.00000000
v -0.06176471 -0.30882353 -0.12352941
v 0.00000000 -0.30882353 -0.06176471
v -0.06176471 -0.30882353 0.00000000
v -0.06176471 -0.18529412 -0.12352941
v 0.00000000 -0.18529412 -0.06176471
v -0.06176471 -0.18529412 0.00000000
v -0.06176471 -0.06176471 -0.12352941
v 0.00000000 -0.06176471 -0.06176471
v -0.06176471 -0.06176471 0.00000000
v -0.06176471 0.06176471 -0.12352941
v 0.05005824 0.06176471 -0.06176471
v -0.06176471 0.06176471 0.00000000
v 0.00819888 0.18529412 -0.18529412
v -0.06176471 0.18529412 -0.12352941
v -0.06176471 0.18529412 0.00000000
v 0.00844734 0.30882353 -0.18529412
v -0.06176471 0.30882353 -0.12352941
v -0.06176471 0.30882353 0.00000000
v 0.00807519 0.43235293 -0.18529412
v -0.06176471 0.43235293 -0.12352941
v -0.06176471 0.43235293 0.00000000
v 0.00770704 0.55588233 -0.18529412
v -0.06176471 0.55588233 -0.12352941
v -0.06176471 0.55588233 0.00000000
v 0.00782932 0.67941177 -0.18529412
v -0.06176471 0.67941177 -0.12352941
v -0.06176471 0.67941177 0.00000000
v 0.00770704 0.80294120 -0.18529412
v -0.06176471 0.80294120 -0.12352941
v -0.06176471 0.86470586 -0.06176471
v -0.06176471 0.80294120 0.00000000
v 0.06176471 0.07119526 -0.18529412
v 0.06176471 0.07347117 -0.06176471
v 0.06176471 0.18529412 -0.23885994
v 0.16925460 0.18529412 -0.06176471
v 0.06176471 0.18529412 0.00000000
v 0.06176471 0.30882353 -0.23861143
v 0.16889046 0.30882353 -0.06176471
v 0.06176471 0.30882353 0.00000000
v 0.06176471 0.43235293 -0.23898357
v 0.16896315 0.43235293 -0.06176471
v 0.06176471 0.43235293 0.00000000
v 0.06176471 0.55588233 -0.23935184
v 0.16940092 0.55588233 -0.06176471
v 0.06176471 0.55588233 0.00000000
v 0.06176471 0.67941177 -0.23922950
v 0.16925460 0.67941177 -0.06176471
v 0.06176471 0.67941177 0.00000000
v 0.06176471 0.80294120 -0.23935184
v 0.06176471 0.85699886 -0.18529412
v 0.16824123 0.80294120 -0.06176471
v 0.06176471 0.86470586 -0.06176471
v 0.06176471 0.80294120 0.00000000
v 0.18529412 0.07526101 -0.18529412
v 0.18529412 0.18529412 -0.24705882
v 0.18529412 0.18529412 -0.07780422
v 0.18529412 0.30882353 -0.24705882
v 0.18529412 0.30882353 -0.07816836
v 0.18529412 0.43235293 -0.24705882
v 0.18529412 0.43235293 -0.07809573
v 0.18529412 0.55588233 -0.24705882
v 0.18529412 0.55588233 -0.07765785
v 0.18529412 0.67941177 -0.24705882
v 0.18529412 0.67941177 -0.07780422
v 0.18529412 0.80294120 -0.24705882
v 0.18529412 0.86470586 -0.18529412
v 0.18529412 0.80294120 -0.07881760
v 0.30882353 0.07639761 -0.18529412
v 0.37039456 0.18529412 -0.30882353
v 0.30882353 0.18529412 -0.24725243
v 0.30882353 0.18529412 -0.12352941
v 0.37039456 0.30882353 -0.30882353
v 0.30882353 0.30882353 -0.24686398
v 0.30882353 0.30882353 -0.12391794
v 0.37058824 0.43235293 -0.30882353
v 0.30882353 0.43235293 -0.24705882
v 0.30882353 0.43235293 -0.12352941
v 0.37039456 0.55588233 -0.30882353
v 0.30882353 0.55588233 -0.24705882
v 0.30882353 0.55588233 -0.12372309
v 0.37058824 0.67941177 -0.30882353
v 0.30882353 0.67941177 -0.24705882
v 0.30882353 0.67941177 -0.12352941
v 0.37039456 0.80294120 -0.30882353
v 0.30882353 0.80294120 -0.24725243
v 0.30882353 0.86470586 -0.18529412
v 0.30882353 0.80294120 -0.12352941
v 0.43235305 0.07571857 -0.30882347
v 0.43235293 0.07609685 -0.18529412
v 0.43235293 0.18529412 -0.37058824
v 0.49411765 0.18529412 -0.18529412
v 0.43235293 0.18529412 -0.12352941
v 0.43235293 0.30882353 -0.37058824
v 0.49411765 0.30882353 -0.18529412
v 0.43235293 0.30882353 -0.12352941
v 0.43235293 0.43235293 -0.37058824
v 0.49411765 0.43235293 -0.18529412
v 0.43235293 0.43235293 -0.12352941
v 0.43235293 0.55588233 -0.37058824
v 0.49411765 0.55588233 -0.18529412
v 0.43235293 0.55588233 -0.12352941
v 0.43235293 0.67941177 -0.37058824
v 0.49411765 0.67941177 -0.18529412
v 0.43235293 0.67941177 -0.12352941
v 0.43235293 0.80294120 -0.37058824
v 0.43235293 0.86470586 -0.30882353
v 0.49411765 0.80294120 -0.18529412
v 0.43235293 0.86470586 -0.18529412
v 0.43235293 0.80294120 -0.12352941
v 0.55588233 0.07564247 -0.30882353
v 0.61764705 0.18529412 -0.43235293
v 0.55588233 0.18529412 -0.37058824
v 0.55588233 0.18529412 -0.24705882
v 0.61764705 0.30882353 -0.43235293
v 0.55588233 0.30882353 -0.37058824
v 0.55588233 0.30882353 -0.24705882
v 0.61764705 0.43235293 -0.43235293
v 0.55588233 0.43235293 -0.37058824
v 0.55588233 0.43235293 -0.24705882
v 0.61764705 0.55588233 -0.43235293
v 0.55588233 0.55588233 -0.37058824
v 0.55588233 0.55588233 -0.24705882
v 0.61764705 0.67941177 -0.43235293
v 0.55588233 0.67941177 -0.37058824
v 0.55588233 0.67941177 -0.24705882
v 0.61764705 0.80294120 -0.43235293
v 0.55588233 0.80294120 -0.37058824
v 0.55588233 0.86470586 -0.30882353
v 0.55588233 0.80294120 -0.24705882
v 0.67941177 0.07503082 -0.43235293
v 0.67941177 0.07510763 -0.30882353
v 0.67941177 0.18529412 -0.49411765
v 0.75799906 0.18529412 -0.43235293
v 0.67941177 0.18529412 -0.24705882
v 0.67941177 0.30882353 -0.49411765
v 0.75831276 0.30882353 -0.43235293
v 0.67941177 0.30882353 -0.24705882
v 0.67941177 0.43235293 -0.49411765
v 0.75831276 0.43235293 -0.43235293
v 0.67941177 0.43235293 -0.24705882
v 0.67941177 0.55588233 -0.49411765
v 0.75815564 0.55588233 -0.43235293
v 0.67941177 0.55588233 -0.24705882
v 0.67941177 0.67941177 -0.49411765
v 0.75753313 0.67941177 -0.43235293
v 0.67941177 0.67941177 -0.24705882
v 0.67941177 0.80294120 -0.49411765
v 0.75799906 0.80294120 -0.43235293
v 0.67941177 0.86470586 -0.43235293
v 0.67941177 0.86470586 -0.30882353
v 0.67941177 0.80294120 -0.24705882
v 0.80294120 0.07265465 -0.30882353
v 0.80294120 0.18529412 -0.38085893
v 0.85784316 0.18529412 -0.30882353
v 0.80294132 0.18529412 -0.25392154
v 0.80294120 0.30882353 -0.38023448
v 0.85687643 0.30882353 -0.30882353
v 0.80294120 0.30882353 -0.25488815
v 0.80294120 0.43235293 -0.38165265
v 0.85831642 0.43235293 -0.30882353
v 0.80294120 0.43235293 -0.25344831
v 0.80294108 0.55588222 -0.38078794
v 0.85760403 0.55588233 -0.30882353
v 0.80294120 0.55588233 -0.25416070
v 0.80294120 0.67941177 -0.38083619
v 0.85831642 0.67941177 -0.30882353
v 0.80294120 0.67941177 -0.25344831
v 0.80294120 0.80294120 -0.38155317
v 0.85855061 0.80294120 -0.30882353
v 0.80294120 0.85855061 -0.30882353
v 0.80294120 0.80294120 -0.25321406
f 7 1 8
f 9 1 7
f 8 1 11
f 11 1 2
f 12 2 9
f 9 2 1
f 11 2 14
f 14 2 3
f 15 3 12
f 12 3 2
f 14 3 17
f 17 3 4
f 18 4 15
f 15 4 3
f 17 4 20
f 20 4 5
f 21 5 18
f 18 5 4
f 20 5 23
f 23 5 6
f 25 6 21
f 21 6 5
f 6 24 23
f 25 24 6
f 29 27 8
f 8 27 7
f 9 7 10
f 7 28 10
f 7 27 28
f 31 10 28
f 8 32 29
f 8 11 32
f 9 10 13
f 9 13 12
f 34 13 31
f 31 13 10
f 11 35 32
f 11 14 35
f 12 13 16
f 12 16 15
f 37 16 34
f 34 16 13
f 14 38 35
f 14 17 38
f 15 16 19
f 15 19 18
f 40 19 37
f 37 19 16
f 17 41 38
f 17 20 41
f 18 19 22
f 18 22 21
f 43 22 40
f 40 22 19
f 20 44 41
f 20 23 44
f 21 22 26
f 21 26 25
f 48 26 43
f 43 26 22
f 23 24 44
f 44 24 45
f 26 47 25
f 47 24 25
f 47 45 24
f 48 47 26
f 51 49 29
f 29 49 27
f 30 28 52
f 28 49 52
f 28 27 49
f 30 31 28
f 29 54 51
f 29 32 54
f 30 52 55
f 30 55 33
f 33 34 30
f 30 34 31
f 32 57 54
f 32 35 57
f 33 55 58
f 33 58 36
f 36 37 33
f 33 37 34
f 35 60 57
f 35 38 60
f 36 58 61
f 36 61 39
f 39 40 36
f 36 40 37
f 38 63 60
f 38 41 63
f 39 61 64
f 39 64 42
f 42 43 39
f 39 43 40
f 41 66 63
f 41 44 66
f 42 64 68
f 42 68 46
f 46 48 42
f 42 48 43
f 44 45 66
f 66 45 67
f 68 67 46
f 67 47 46
f 67 45 47
f 47 48 46
f 69 50 71
f 50 69 51
f 69 49 51
f 69 70 49
f 70 73 49
f 49 73 52
f 71 50 74
f 74 50 53
f 54 53 50
f 54 50 51
f 76 52 73
f 55 52 76
f 74 53 77
f 77 53 56
f 57 56 53
f 57 53 54
f 79 55 76
f 58 55 79
f 77 56 80
f 80 56 59
f 60 59 56
f 60 56 57
f 82 58 79
f 61 58 82
f 80 59 83
f 83 59 62
f 63 62 59
f 63 59 60
f 85 61 82
f 64 61 85
f 83 62 86
f 86 62 65
f 66 65 62
f 66 62 63
f 90 64 85
f 68 64 90
f 65 87 86
f 66 67 65
f 67 87 65
f 67 89 87
f 67 68 89
f 89 68 90
f 92 91 71
f 71 91 69
f 72 70 93
f 70 91 93
f 70 69 91
f 72 73 70
f 71 94 92
f 71 74 94
f 72 93 95
f 72 95 75
f 75 76 72
f 72 76 73
f 74 96 94
f 74 77 96
f 75 95 97
f 75 97 78
f 78 79 75
f 75 79 76
f 77 98 96
f 77 80 98
f 78 97 99
f 78 99 81
f 81 82 78
f 78 82 79
f 80 100 98
f 80 83 100
f 81 99 101
f 81 101 84
f 84 85 81
f 81 85 82
f 83 102 100
f 83 86 102
f 84 101 104
f 84 104 88
f 88 90 84
f 84 90 85
f 86 87 102
f 102 87 103
f 104 103 88
f 103 89 88
f 103 87 89
f 89 90 88
f 107 105 92
f 92 105 91
f 105 108 91
f 91 108 93
f 92 110 107
f 92 94 110
f 111 93 108
f 95 93 111
f 94 113 110
f 94 96 113
f 114 95 111
f 97 95 114
f 96 116 113
f 96 98 116
f 117 97 114
f 99 97 117
f 98 119 116
f 98 100 119
f 120 99 117
f 101 99 120
f 100 122 119
f 100 102 122
f 124 101 120
f 104 101 124
f 102 103 122
f 122 103 123
f 103 104 123
f 123 104 124
f 134 106 136
f 106 134 107
f 134 105 107
f 134 135 105
f 135 138 105
f 105 138 108
f 136 106 139
f 139 106 109
f 110 109 106
f 110 106 107
f 141 108 138
f 111 108 141
f 139 109 142
f 142 109 112
f 113 112 109
f 113 109 110
f 144 111 141
f 114 111 144
f 142 112 145
f 145 112 115
f 116 115 112
f 116 112 113
f 147 114 144
f 117 114 147
f 145 115 148
f 148 115 118
f 119 118 115
f 119 115 116
f 150 117 147
f 120 117 150
f 148 118 151
f 151 118 121
f 122 121 118
f 122 118 119
f 155 120 150
f 124 120 155
f 121 152 151
f 122 123 121
f 123 152 121
f 123 154 152
f 123 124 154
f 154 124 155
f 156 125 157
f 159 125 156
f 157 125 160
f 160 125 126
f 162 126 159
f 159 126 125
f 160 126 163
f 163 126 127
f 165 127 162
f 162 127 126
f 163 127 166
f 166 127 128
f 168 128 165
f 165 128 127
f 166 128 169
f 169 128 129
f 171 129 168
f 168 129 128
f 169 129 172
f 172 129 130
f 174 130 171
f 171 130 129
f 172 130 175
f 175 130 131
f 177 131 174
f 174 131 130
f 175 131 178
f 178 131 132
f 180 132 177
f 177 132 131
f 178 132 181
f 181 132 133
f 183 133 180
f 180 133 132
f 134 136 133
f 136 181 133
f 136 185 181
f 135 134 133
f 186 135 133
f 183 186 133
f 135 186 137
f 137 138 135
f 136 188 185
f 136 139 188
f 137 186 189
f 137 189 140
f 140 141 137
f 137 141 138
f 139 191 188
f 139 142 191
f 140 189 192
f 140 192 143
f 143 144 140
f 140 144 141
f 142 194 191
f 142 145 194
f 143 192 195
f 143 195 146
f 146 147 143
f 143 147 144
f 145 197 194
f 145 148 197
f 146 195 198
f 146 198 149
f 149 150 146
f 146 150 147
f 148 200 197
f 148 151 200
f 149 198 202
f 149 202 153
f 153 155 149
f 149 155 150
f 151 152 200
f 200 152 201
f 202 201 153
f 201 154 153
f 201 152 154
f 154 155 153
f 157 158 156
f 158 159 156
f 158 157 161
f 161 157 160
f 161 162 158
f 158 162 159
f 161 160 164
f 164 160 163
f 164 165 161
f 161 165 162
f 164 163 167
f 167 163 166
f 167 168 164
f 164 168 165
f 167 166 170
f 170 166 169
f 170 171 167
f 167 171 168
f 170 169 173
f 173 169 172
f 173 174 170
f 170 174 171
f 173 172 176
f 176 172 175
f 176 177 173
f 173 177 174
f 176 175 179
f 179 175 178
f 179 180 176
f 176 180 177
f 179 178 182
f 182 178 181
f 182 183 179
f 179 183 180
f 203 184 205
f 203 204 184
f 204 181 184
f 181 185 184
f 181 204 182
f 204 207 182
f 207 183 182
f 207 186 183
f 205 184 208
f 208 184 187
f 188 187 184
f 188 184 185
f 210 186 207
f 189 186 210
f 208 187 211
f 211 187 190
f 191 190 187
f 191 187 188
f 213 189 210
f 192 189 213
f 211 190 214
f 214 190 193
f 194 193 190
f 194 190 191
f 216 192 213
f 195 192 216
f 214 193 217
f 217 193 196
f 197 196 193
f 197 193 194
f 219 195 216
f 198 195 219
f 217 196 220
f 220 196 199
f 200 199 196
f 200 196 197
f 224 198 219
f 202 198 224
f 199 221 220
f 200 201 199
f 201 221 199
f 201 223 221
f 201 202 223
f 223 202 224
f 226 225 205
f 205 225 203
f 206 204 227
f 204 225 227
f 204 203 225
f 206 207 204
f 205 228 226
f 205 208 228
f 206 227 229
f 206 229 209
f 209 210 206
f 206 210 207
f 208 230 228
f 208 211 230
f 209 229 231
f 209 231 212
f 212 213 209
f 209 213 210
f 211 232 230
f 211 214 232
f 212 231 233
f 212 233 215
f 215 216 212
f 212 216 213
f 214 234 232
f 214 217 234
f 215 233 235
f 215 235 218
f 218 219 215
f 215 219 216
f 217 236 234
f 217 220 236
f 218 235 238
f 218 238 222
f 222 224 218
f 218 224 219
f 220 221 236
f 236 221 237
f 238 237 222
f 237 223 222
f 237 221 223
f 223 224 222
f 241 239 226
f 226 239 225
f 239 242 225
f 225 242 227
f 226 244 241
f 226 228 244
f 245 227 242
f 229 227 245
f 228 247 244
f 228 230 247
f 248 229 245
f 231 229 248
f 230 250 247
f 230 232 250
f 251 231 248
f 233 231 251
f 232 253 250
f 232 234 253
f 254 233 251
f 235 233 254
f 234 256 253
f 234 236 256
f 258 235 254
f 238 235 258
f 236 237 256
f 256 237 257
f 237 238 257
f 257 238 258
f 259 240 261
f 240 259 241
f 259 239 241
f 259 260 239
f 260 263 239
f 239 263 242
f 261 240 264
f 264 240 243
f 244 243 240
f 244 240 241
f 266 242 263
f 245 242 266
f 264 243 267
f 267 243 246
f 247 246 243
f 247 243 244
f 269 245 266
f 248 245 269
f 267 246 270
f 270 246 249
f 250 249 246
f 250 246 247
f 272 248 269
f 251 248 272
f 270 249 273
f 273 249 252
f 253 252 249
f 253 249 250
f 275 251 272
f 254 251 275
f 273 252 276
f 276 252 255
f 256 255 252
f 256 252 253
f 280 254 275
f 258 254 280
f 255 277 276
f 256 257 255
f 257 277 255
f 257 279 277
f 257 258 279
f 279 258 280
f 283 281 261
f 261 281 259
f 262 260 284
f 260 281 284
f 260 259 281
f 262 263 260
f 261 286 283
f 261 264 286
f 262 284 287
f 262 287 265
f 265 266 262
f 262 266 263
f 264 289 286
f 264 267 289
f 265 287 290
f 265 290 268
f 268 269 265
f 265 269 266
f 267 292 289
f 267 270 292
f 268 290 293
f 268 293 271
f 271 272 268
f 268 272 269
f 270 295 292
f 270 273 295
f 271 293 296
f 271 296 274
f 274 275 271
f 271 275 272
f 273 298 295
f 273 276 298
f 274 296 300
f 274 300 278
f 278 280 274
f 274 280 275
f 276 277 298
f 298 277 299
f 300 299 278
f 299 279 278
f 299 277 279
f 279 280 278
f 301 282 303
f 282 301 283
f 301 281 283
f 301 302 281
f 302 305 281
f 281 305 284
f 303 282 306
f 306 282 285
f 286 285 282
f 286 282 283
f 308 284 305
f 287 284 308
f 306 285 309
f 309 285 288
f 289 288 285
f 289 285 286
f 311 287 308
f 290 287 311
f 309 288 312
f 312 288 291
f 292 291 288
f 292 288 289
f 314 290 311
f 293 290 314
f 312 291 315
f 315 291 294
f 295 294 291
f 295 291 292
f 317 293 314
f 296 293 317
f 315 294 318
f 318 294 297
f 298 297 294
f 298 294 295
f 322 296 317
f 300 296 322
f 297 320 318
f 298 299 297
f 299 320 297
f 299 321 320
f 299 300 321
f 321 300 322
f 303 304 301
f 324 323 304
f 323 301 304
f 323 302 301
f 323 326 302
f 302 326 305
f 304 303 307
f 307 303 306
f 307 327 324
f 307 324 304
f 329 305 326
f 308 305 329
f 307 306 310
f 310 306 309
f 310 330 327
f 310 327 307
f 332 308 329
f 311 308 332
f 310 309 313
f 313 309 312
f 313 333 330
f 313 330 310
f 335 311 332
f 314 311 335
f 313 312 316
f 316 312 315
f 316 336 333
f 316 333 313
f 338 314 335
f 317 314 338
f 316 315 319
f 319 315 318
f 319 339 336
f 319 336 316
f 342 317 338
f 322 317 342
f 318 320 319
f 319 320 339
f 320 341 339
f 320 321 341
f 321 322 341
f 341 322 342
f 324 325 323
f 325 326 323
f 325 324 328
f 328 324 327
f 328 329 325
f 325 329 326
f 328 327 331
f 331 327 330
f 331 332 328
f 328 332 329
f 331 330 334
f 334 330 333
f 334 335 331
f 331 335 332
f 334 333 337
f 337 333 336
f 337 338 334
f 334 338 335
f 337 336 340
f 340 336 339
f 340 342 337
f 337 342 338
f 339 341 340
f 341 342 340

