# https://github.com/mikedh/trimesh
v -0.98823529 -0.67941177 -0.67941177
v -0.98705506 -0.67941177 -0.55588233
v -0.95577019 -0.67941177 -0.43235293
v -0.95577019 -0.67941177 -0.30882353
v -0.95588237 -0.67941177 -0.18529412
v -0.95531875 -0.67941177 -0.06176471
v -0.95554501 -0.67941177 0.06176471
v -0.95520526 -0.67941177 0.18529412
v -0.95577019 -0.67941177 0.30882353
v -0.98823529 -0.67941177 0.43235293
v -0.98823529 -0.67941177 0.55588233
v -0.98823529 -0.55588233 -0.67941177
v -0.98745346 -0.55588233 -0.55588233
v -0.95531875 -0.55588233 -0.43235293
v -0.95531875 -0.55588233 -0.30882353
v -0.95588237 -0.55588233 -0.18529412
v -0.95474839 -0.55588233 -0.06176471
v -0.95565772 -0.55588233 0.06176471
v -0.95474839 -0.55588233 0.18529412
v -0.95543200 -0.55588233 0.30882353
v -0.98823529 -0.55588233 0.43235293
v -0.98823529 -0.55588233 0.55588233
v -0.98823529 -0.43235293 -0.67941177
v -0.98685396 -0.43235293 -0.55588233
v -0.95509148 -0.43235293 -0.43235293
v -0.95520526 -0.43235293 -0.30882353
v -0.95520526 -0.43235293 -0.18529412
v -0.95463347 -0.43235293 -0.06176471
v -0.95520526 -0.43235293 0.06176471
v -0.95486301 -0.43235293 0.18529412
v -0.95543200 -0.43235293 0.30882353
v -0.98823529 -0.43235293 0.43235293
v -0.98823529 -0.43235293 0.55588233
v -0.98823529 -0.30882353 -0.67941177
v -0.98745346 -0.30882353 -0.55588233
v -0.95474839 -0.30882353 -0.43235293
v -0.95509148 -0.30882353 -0.30882353
v -0.95554501 -0.30882353 -0.18529412
v -0.95428711 -0.30882353 -0.06176471
v -0.95509148 -0.30882353 0.06176471
v -0.95393825 -0.30882353 0.18529412
v -0.95463347 -0.30882353 0.30882353
v -0.98823529 -0.30882353 0.43235293
v -0.98823529 -0.30882353 0.55588233
v -0.98823529 -0.18529412 -0.67941177
v -0.98624289 -0.18529412 -0.55588233
v -0.95428711 -0.18529412 -0.43235293
v -0.95440286 -0.18529412 -0.30882353
v -0.95463347 -0.18529412 -0.18529412
v -0.95382136 -0.18529412 -0.06176471
v -0.95451832 -0.18529412 0.06176471
v -0.95382136 -0.18529412 0.18529412
v -0.95417112 -0.18529412 0.30882353
v -0.98823529 -0.18529412 0.43235293
v -0.98823529 -0.18529412 0.55588233
v -0.98823529 -0.06176471 -0.67941177
v -0.98624289 -0.06176471 -0.55588233
v -0.95497739 -0.06176471 -0.43235293
v -0.95474839 -0.06176471 -0.30882353
v -0.95520526 -0.06176471 -0.18529412
v -0.95428711 -0.06176471 -0.06176471
v -0.95451832 -0.06176471 0.06176471
v -0.95417112 -0.06176471 0.18529412
v -0.95463347 -0.06176471 0.30882353
v -0.98823529 -0.06176471 0.43235293
v -0.98823529 -0.06176471 0.55588233
v -0.98823529 0.06176471 -0.67941177
v -0.98624289 0.06176471 -0.55588233
v -0.95497739 0.06176471 -0.43235293
v -0.95474839 0.06176471 -0.30882353
v -0.95486301 0.06176471 -0.18529412
v -0.95370424 0.06176471 -0.06176471
v -0.95451832 0.06176471 0.06176471
v -0.95370424 0.06176471 0.18529412
v -0.95440286 0.06176471 0.30882353
v -0.98823529 0.06176471 0.43235293
v -0.98823529 0.06176471 0.55588233
v -0.98823529 0.18529412 -0.67941177
v -0.98823529 0.18529412 -0.55588233
v -0.98823529 0.18529412 -0.43235293
v -0.98823529 0.18529412 -0.30882353
v -0.98823529 0.18529412 -0.18529412
v -0.98823529 0.18529412 -0.06176471
v -0.98823529 0.18529412 0.06176471
v -0.98823529 0.18529412 0.18529412
v -0.98823529 0.18529412 0.30882353
v -0.98823529 0.18529412 0.43235293
v -0.98823529 0.18529412 0.55588233
v -0.97156864 0.30882353 -0.67941177
v -0.98823529 0.30882353 -0.55588233
v -0.98823529 0.30882353 -0.43235293
v -0.98823529 0.30882353 -0.30882353
v -0.98823529 0.30882353 -0.18529412
v -0.98823529 0.30882353 -0.06176471
v -0.98823529 0.30882353 0.06176471
v -0.98823529 0.30882353 0.18529412
v -0.98823529 0.30882353 0.30882353
v -0.98823529 0.30882353 0.43235293
v -0.98823529 0.43235293 -0.55588233
v -0.98823529 0.43235293 -0.43235293
v -0.98823529 0.43235293 -0.30882353
v -0.98823529 0.43235293 -0.18529412
v -0.98823529 0.43235293 -0.06176471
v -0.98823529 0.43235293 0.06176471
v -0.98804170 0.43235293 0.18529412
v -0.98823529 0.43235293 0.30882353
v -0.98823529 0.55588233 -0.43235293
v -0.98823529 0.55588233 -0.30882353
v -0.98823529 0.55588233 -0.18529412
v -0.98823529 0.55588233 -0.06176471
v -0.98823529 0.55588233 0.06176471
v -0.98823529 0.55588233 0.18529412
v -0.92647058 -0.74117649 -0.67941177
v -0.92647058 -0.73999625 -0.55588233
v -0.92647058 -0.70871133 -0.43235293
v -0.92647058 -0.70871133 -0.30882353
v -0.92647058 -0.70882356 -0.18529412
v -0.92647058 -0.70825994 -0.06176471
v -0.92647058 -0.70848620 0.06176471
v -0.92647058 -0.70814645 0.18529412
v -0.92647058 -0.70871133 0.30882353
v -0.92647058 -0.74117649 0.43235293
v -0.92647058 -0.74117649 0.55588233
v -0.92647058 -0.67941177 -0.74117649
v -0.92647058 -0.67941177 0.61764705
v -0.92647058 -0.55588233 -0.74117649
v -0.92647058 -0.55588233 0.61764705
v -0.92647058 -0.43235293 -0.74117649
v -0.92647058 -0.43235293 0.61764705
v -0.92647058 -0.30882353 -0.74117649
v -0.92647058 -0.30882353 0.61764705
v -0.92647058 -0.18529412 -0.74117649
v -0.92647058 -0.18529412 0.61764705
v -0.92647058 -0.06176471 -0.74117649
v -0.92647058 -0.06176471 0.61764705
v -0.92647058 0.06176471 -0.74117649
v -0.92647058 0.06176471 0.61764705
v -0.92647058 0.18529412 -0.74117649
v -0.92647058 0.24705882 0.55588233
v -0.92647058 0.18529412 0.61764705
v -0.92647058 0.30882353 -0.72450984
v -0.92647058 0.35392150 -0.67941177
v -0.92647058 0.39257228 0.43235293
v -0.92647058 0.30882353 0.49411765
v -0.92647058 0.43235293 -0.61764705
v -0.92647058 0.49411765 -0.55588233
v -0.92647058 0.49392515 0.30882353
v -0.92647058 0.43235293 0.39257228
v -0.92647058 0.55588233 -0.49411765
v -0.92647058 0.61764705 -0.43235293
v -0.92647058 0.61764705 -0.30882353
v -0.92647058 0.61764705 -0.18529412
v -0.92647058 0.61764705 -0.06176471
v -0.92647058 0.61764705 0.06176471
v -0.92647058 0.61764705 0.18529412
v -0.92647058 0.55588222 0.24686633
v -0.80294120 -0.74117649 -0.67941177
v -0.80294120 -0.74117649 -0.55588233
v -0.80294120 -0.74117649 -0.43235293
v -0.80294120 -0.74117649 -0.30882353
v -0.80294120 -0.74117649 -0.18529412
v -0.80294120 -0.74117649 -0.06176471
v -0.80294120 -0.74117649 0.06176471
v -0.80294120 -0.74117649 0.18529412
v -0.80294120 -0.74117649 0.30882353
v -0.80294120 -0.74117649 0.43235293
v -0.80294120 -0.74117649 0.55588233
v -0.80294120 -0.67941177 -0.74117649
v -0.68538159 -0.67941177 -0.67941177
v -0.74117649 -0.67941177 0.55588233
v -0.80294120 -0.67941177 0.61764705
v -0.80294120 -0.55588233 -0.74117649
v -0.68633527 -0.55588233 -0.67941177
v -0.74117649 -0.55588233 0.55588233
v -0.80294120 -0.55588233 0.61764705
v -0.80294120 -0.43235293 -0.74117649
v -0.68573016 -0.43235293 -0.67941177
v -0.74117649 -0.43235293 0.55588233
v -0.80294120 -0.43235293 0.61764705
v -0.80294120 -0.30882353 -0.74117649
v -0.68577361 -0.30882353 -0.67941177
v -0.74117649 -0.30882353 0.55588233
v -0.80294120 -0.30882353 0.61764705
v -0.80294120 -0.18529412 -0.74117649
v -0.68555611 -0.18529412 -0.67941177
v -0.74117649 -0.18529412 0.55588233
v -0.80294120 -0.18529412 0.61764705
v -0.80294120 -0.06176471 -0.74117649
v -0.68693411 -0.06176471 -0.67941177
v -0.74117649 -0.06176471 0.55588233
v -0.80294120 -0.06176471 0.61764705
v -0.80294120 0.06176471 -0.74117649
v -0.68629223 0.06176471 -0.67941177
v -0.74117649 0.06176471 0.55588233
v -0.80294120 0.06176471 0.61764705
v -0.80294120 0.18529412 -0.74117649
v -0.74117649 0.18529412 0.55588233
v -0.80294120 0.24705882 0.55588233
v -0.80294120 0.18529412 0.61764705
v -0.80294120 0.30882353 -0.72618502
v -0.80294120 0.35559684 -0.67941177
v -0.80294120 0.39551085 0.43235293
v -0.80294120 0.30882353 0.49411765
v -0.80294120 0.43235293 -0.61764705
v -0.73616850 0.43235293 -0.55588233
v -0.80294120 0.49411765 -0.55588233
v -0.80294120 0.49411765 0.30882353
v -0.80294120 0.43235293 0.39551085
v -0.80294120 0.55588233 -0.49411765
v -0.74117649 0.55588233 -0.43235293
v -0.80294120 0.61764705 -0.43235293
v -0.80294120 0.61764705 -0.30882353
v -0.80294120 0.61764705 -0.18529412
v -0.80294120 0.61764705 -0.06176471
v -0.80294120 0.61764705 0.06176471
v -0.69632107 0.55588233 0.18529412
v -0.80294120 0.61764705 0.18529412
v -0.80294120 0.55588233 0.24705882
v -0.67941177 -0.74117649 -0.55588233
v -0.67941177 -0.74117649 -0.43235293
v -0.67941177 -0.74117649 -0.30882353
v -0.67941177 -0.74117649 -0.18529412
v -0.67941177 -0.74117649 -0.06176471
v -0.67941177 -0.74117649 0.06176471
v -0.67941177 -0.74117649 0.18529412
v -0.67941177 -0.74117649 0.30882353
v -0.67941177 -0.74117649 0.43235293
v -0.67941177 -0.67941177 -0.67344195
v -0.67941177 -0.67941177 0.49411765
v -0.67941177 -0.55588233 -0.67248827
v -0.67941177 -0.55588233 0.49411765
v -0.67941177 -0.43235293 -0.67309338
v -0.67941177 -0.43235293 0.49411765
v -0.67941177 -0.30882353 -0.67304993
v -0.67941177 -0.30882353 0.49411765
v -0.67941177 -0.18529406 -0.67326742
v -0.67941177 -0.18529412 0.49411765
v -0.67941177 -0.06176471 -0.67188942
v -0.67941177 -0.06176471 0.49411765
v -0.67941177 0.06864510 -0.67941177
v -0.67941177 0.06176471 -0.67253131
v -0.67941177 0.06176471 0.49411765
v -0.67941177 0.18529412 -0.74117649
v -0.67941177 0.18529412 0.49411765
v -0.67941177 0.30882353 -0.71919245
v -0.67941177 0.34860417 -0.67941177
v -0.67941177 0.37559620 -0.55588233
v -0.67941177 0.37058824 0.43235293
v -0.67941177 0.30882353 0.49411765
v -0.67941177 0.43235293 -0.49912557
v -0.67941177 0.49411765 -0.43235293
v -0.67941177 0.53897309 0.18529412
v -0.67941177 0.49411765 0.30882353
v -0.67941177 0.43235293 0.37058824
v -0.67941177 0.55588233 -0.37058824
v -0.67941177 0.61764705 -0.30882353
v -0.67941177 0.61764705 -0.18529412
v -0.67941177 0.61764705 -0.06176471
v -0.67941177 0.61764705 0.06176471
v -0.67941177 0.55588233 0.16838484
v -0.55588233 -0.74117649 -0.55588233
v -0.55588233 -0.74117649 -0.43235293
v -0.55588233 -0.74117649 -0.30882353
v -0.55588233 -0.74117649 -0.18529412
v -0.55588233 -0.74117649 -0.06176471
v -0.55588233 -0.74117649 0.06176471
v -0.55588233 -0.74117649 0.18529412
v -0.55588233 -0.74117649 0.30882353
v -0.55588233 -0.74117649 0.43235293
v -0.55588233 -0.67941177 -0.67390263
v -0.55588233 -0.67941177 0.49411765
v -0.55588233 -0.55588233 -0.67304993
v -0.55588233 -0.55588233 0.49411765
v -0.55588233 -0.43235293 -0.67313683
v -0.55588233 -0.43235293 0.49411765
v -0.55588233 -0.30882353 -0.67326742
v -0.55588233 -0.30882353 0.49411765
v -0.55588233 -0.18529418 -0.67421174
v -0.55588233 -0.18529412 0.49411765
v -0.55588233 -0.06176471 -0.67235941
v -0.55588233 -0.06176471 0.49411765
v -0.55588233 0.06680955 -0.67941177
v -0.55588233 0.06176471 -0.67436695
v -0.55588233 0.06176471 0.49411765
v -0.55588233 0.18529412 -0.74117649
v -0.55588233 0.18529412 0.49411765
v -0.55588233 0.30882353 -0.71847665
v -0.55588233 0.34788838 -0.67941177
v -0.55588233 0.37341407 -0.55588233
v -0.55588233 0.37058824 0.43235293
v -0.55588233 0.30882353 0.49411765
v -0.55588233 0.43235293 -0.49694347
v -0.55588233 0.49411765 -0.43235293
v -0.55588233 0.53797597 0.18529412
v -0.55588233 0.49411765 0.30882353
v -0.55588233 0.43235293 0.37058824
v -0.55588233 0.55588233 -0.37058824
v -0.55588233 0.61764705 -0.30882353
v -0.55588233 0.61764705 -0.18529412
v -0.55588233 0.61764705 -0.06176471
v -0.55588233 0.61764705 0.06176471
v -0.55588233 0.55588233 0.16738771
v -0.43235293 -0.74117649 -0.55588233
v -0.43235293 -0.74117649 -0.43235293
v -0.43235293 -0.74117649 -0.30882353
v -0.43235293 -0.74117649 -0.18529412
v -0.43235293 -0.74117649 -0.06176471
v -0.43235293 -0.74117649 0.06176471
v -0.43235293 -0.74117649 0.18529412
v -0.43235293 -0.74117649 0.30882353
v -0.43235293 -0.74117649 0.43235293
v -0.43235293 -0.67941177 -0.67410117
v -0.43235293 -0.67941177 0.49411765
v -0.43235287 -0.55588233 -0.67257434
v -0.43235293 -0.55588233 0.49411765
v -0.43235293 -0.43235293 -0.67331100
v -0.43235293 -0.43235293 0.49411765
v -0.43235293 -0.30882353 -0.67331100
v -0.43235293 -0.30882353 0.49411765
v -0.43235293 -0.18529406 -0.67331100
v -0.43235293 -0.18529412 0.49411765
v -0.43235293 -0.06176471 -0.67218810
v -0.43235293 -0.06176471 0.49411765
v -0.43235287 0.06727394 -0.67941177
v -0.43235287 0.06176471 -0.67390263
v -0.43235293 0.06176471 0.49411765
v -0.43235293 0.18529412 -0.74117649
v -0.43235293 0.18529412 0.49411765
v -0.43235293 0.30882353 -0.71901464
v -0.43235293 0.34842640 -0.67941177
v -0.43235293 0.37514806 -0.55588233
v -0.43235293 0.37058824 0.43235293
v -0.43235293 0.30882353 0.49411765
v -0.43235293 0.43235293 -0.49867749
v -0.43235293 0.49411765 -0.43235293
v -0.43235293 0.53811723 0.18529412
v -0.43235293 0.49411765 0.30882353
v -0.43235293 0.43235293 0.37058824
v -0.43235293 0.55588233 -0.37058824
v -0.43235293 0.61764705 -0.30882353
v -0.43235293 0.61764705 -0.18529412
v -0.43235293 0.61764705 -0.06176471
v -0.43235293 0.61764705 0.06176471
v -0.43235293 0.55588233 0.16752897
v -0.30882353 -0.74117649 -0.55588233
v -0.30882353 -0.74117649 -0.43235293
v -0.30882353 -0.74117649 -0.30882353
v -0.30882353 -0.74117649 -0.18529412
v -0.30882353 -0.74117649 -0.06176471
v -0.30882353 -0.74117649 0.06176471
v -0.30882353 -0.74117649 0.18529412
v -0.30882353 -0.74117649 0.30882353
v -0.30882353 -0.74117649 0.43235293
v -0.30882353 -0.67941177 -0.67399079
v -0.30882353 -0.67941177 0.49411765
v -0.30882353 -0.55588233 -0.67348570
v -0.30882353 -0.55588233 0.49411765
v -0.30882353 -0.43235293 -0.67279005
v -0.30882353 -0.43235293 0.49411765
v -0.30882359 -0.30882359 -0.67309338
v -0.30882353 -0.30882353 0.49411765
v -0.30882353 -0.18529418 -0.67304993
v -0.30882353 -0.18529412 0.49411765
v -0.30882353 -0.06176471 -0.67163467
v -0.30882353 -0.06176471 0.49411765
v -0.30882353 0.06790904 -0.67941177
v -0.30882353 0.06176471 -0.67326742
v -0.30882353 0.06176471 0.49411765
v -0.30882353 0.18529412 -0.74117649
v -0.30882353 0.18529412 0.49411765
v -0.30882353 0.30882353 -0.71865672
v -0.30882353 0.34806851 -0.67941177
v -0.30882353 0.37537131 -0.55588233
v -0.30882353 0.37058824 0.43235293
v -0.30882353 0.30882353 0.49411765
v -0.30882353 0.43235293 -0.49890077
v -0.30882353 0.49411765 -0.43235293
v -0.30882353 0.53897309 0.18529412
v -0.30882353 0.49411765 0.30882353
v -0.30882353 0.43235293 0.37058824
v -0.30882353 0.55588233 -0.37058824
v -0.30882353 0.61764705 -0.30882353
v -0.30882353 0.61764705 -0.18529412
v -0.30882353 0.61764705 -0.06176471
v -0.30882353 0.61764705 0.06176471
v -0.30882353 0.55588233 0.16838484
v -0.18529412 -0.74117649 -0.55588233
v -0.18529412 -0.74117649 -0.43235293
v -0.18529412 -0.74117649 -0.30882353
v -0.18529412 -0.74117649 -0.18529412
v -0.18529412 -0.74117649 -0.06176471
v -0.18529412 -0.74117649 0.06176471
v -0.18529412 -0.74117649 0.18529412
v -0.18529412 -0.74117649 0.30882353
v -0.18529412 -0.74117649 0.43235293
v -0.18529412 -0.67941177 -0.67573655
v -0.18529412 -0.67941177 0.49411765
v -0.18529412 -0.55588233 -0.67401284
v -0.18529412 -0.55588233 0.49411765
v -0.18529412 -0.43235293 -0.67348570
v -0.18529412 -0.43235293 0.49411765
v -0.18529418 -0.30882353 -0.67368281
v -0.18529412 -0.30882353 0.49411765
v -0.18529412 -0.18529412 -0.67410117
v -0.18529412 -0.18529412 0.49411765
v -0.18529412 -0.06176471 -0.67253131
v -0.18529412 -0.06176471 0.49411765
v -0.12352941 -0.06176471 0.55588233
v -0.18529412 0.06716368 -0.67941177
v -0.18529412 0.06176471 -0.67401284
v -0.18529412 0.06176471 0.49411765
v -0.12352941 0.06176471 0.55588233
v -0.18529412 0.18529412 -0.74117649
v -0.18529412 0.18529412 0.49411765
v -0.12352941 0.18529412 0.55588233
v -0.18529412 0.30882353 -0.71901464
v -0.18529412 0.34842640 -0.67941177
v -0.18529412 0.37559620 -0.55588233
v -0.18529412 0.37058824 0.43235293
v -0.18529412 0.30882353 0.49411765
v -0.10082956 0.30882353 0.55588233
v -0.18529412 0.43235293 -0.49912557
v -0.18529412 0.49411765 -0.43235293
v -0.18529412 0.53897309 0.18529412
v -0.18529412 0.49411765 0.30882353
v -0.18529412 0.43235293 0.37058824
v -0.18529412 0.55588233 -0.37058824
v -0.18529412 0.61764705 -0.30882353
v -0.18529412 0.61764705 -0.18529412
v -0.18529412 0.61764705 -0.06176471
v -0.18529412 0.61764705 0.06176471
v -0.18529412 0.55588233 0.16838484
v -0.06176471 -0.74117649 -0.55588233
v -0.06176471 -0.74117649 -0.43235293
v -0.06176471 -0.74117649 -0.30882353
v -0.06176471 -0.74117649 -0.18529412
v -0.06176471 -0.74117649 -0.06176471
v -0.06176471 -0.74117649 0.06176471
v -0.06176471 -0.74117649 0.18529412
v -0.06176471 -0.74117649 0.30882353
v -0.06176471 -0.74117649 0.43235293
v -0.06176471 -0.67941177 -0.67463386
v -0.06176471 -0.67941177 0.49411765
v -0.06176471 -0.55588233 -0.67357320
v -0.06176471 -0.55588233 0.49411765
v -0.06176471 -0.43235293 -0.67414534
v -0.06176471 -0.43235293 0.49411765
v -0.06176471 -0.30882359 -0.67359513
v -0.06176471 -0.30882353 0.49411765
v -0.06176471 -0.18529412 -0.67392462
v -0.06176471 -0.18529412 0.51302516
v -0.06176471 -0.14243700 0.55588233
v -0.06176471 -0.06176471 -0.67253131
v 0.00000000 -0.06176471 0.55588233
v -0.06176471 -0.06176471 0.61764705
v -0.06176471 0.06764704 -0.67941177
v -0.06176471 0.06176471 -0.67352939
v 0.00000000 0.06176471 0.55588233
v -0.06176471 0.06176471 0.61764705
v -0.06176471 0.18529412 -0.74117649
v 0.00000000 0.18529412 0.55588233
v -0.06176471 0.18529412 0.61764705
v -0.06176471 0.30882353 -0.71883607
v -0.06176471 0.34824783 -0.67941171
v -0.06176471 0.37514806 -0.55588233
v -0.06176471 0.37058824 0.43235293
v -0.02269984 0.30882353 0.55588233
v -0.06176471 0.34788838 0.55588233
v -0.06176471 0.30882353 0.59494722
v -0.06176471 0.43235293 -0.49867749
v -0.06176471 0.49411765 -0.43235293
v -0.06176471 0.53890121 0.18529412
v -0.06176471 0.49411765 0.30882353
v -0.06176471 0.43235293 0.37058824
v -0.06176471 0.55588233 -0.37058824
v -0.06176471 0.61764705 -0.30882353
v -0.06176471 0.61764705 -0.18529412
v -0.06176471 0.61764705 -0.06176471
v -0.06176471 0.61764705 0.06176471
v -0.06176471 0.55588233 0.16831297
v 0.06176471 -0.74117649 -0.55588233
v 0.06176471 -0.74117649 -0.43235293
v 0.06176471 -0.74117649 -0.30882353
v 0.06176471 -0.74117649 -0.18529412
v 0.06176471 -0.74117649 -0.06176471
v 0.06176471 -0.74117649 0.06176471
v 0.06176471 -0.74117649 0.18529412
v 0.06176471 -0.74117649 0.30882353
v 0.06176471 -0.74117649 0.43235293
v 0.06176471 -0.67941177 -0.67463386
v 0.06176471 -0.67941177 0.49411765
v 0.06176471 -0.55588233 -0.67322385
v 0.06176471 -0.55588233 0.49411765
v 0.06176471 -0.43235293 -0.67418963
v 0.06176471 -0.43235293 0.49411765
v 0.06176471 -0.30882353 -0.67339826
v 0.06176471 -0.30882353 0.49411765
v 0.06176471 -0.18529412 -0.67443353
v 0.06176471 -0.18529412 0.49411765
v 0.06176471 -0.06176471 -0.67240238
v 0.06176471 -0.06176471 0.49411765
v 0.06176471 0.06696470 -0.67941177
v 0.06176471 0.06176471 -0.67421174
v 0.06176471 0.06176471 0.49411765
v 0.06176471 0.18529412 -0.74117649
v 0.06176471 0.18529412 0.49411765
v 0.06176471 0.30882353 -0.71919245
v 0.06176471 0.34860417 -0.67941177
v 0.06176471 0.37582251 -0.55588233
v 0.06176471 0.37058824 0.43235293
v 0.06176471 0.30882353 0.49411765
v 0.06176471 0.43235293 -0.49935192
v 0.06176471 0.49411765 -0.43235293
v 0.06176471 0.53861481 0.18529412
v 0.06176471 0.49411765 0.30882353
v 0.06176471 0.43235293 0.37058824
v 0.06176471 0.55588233 -0.37058824
v 0.06176471 0.61764705 -0.30882353
v 0.06176471 0.61764705 -0.18529412
v 0.06176471 0.61764705 -0.06176471
v 0.06176471 0.61764705 0.06176471
v 0.06176471 0.55588233 0.16802658
v 0.18529412 -0.74117649 -0.55588233
v 0.18529412 -0.74117649 -0.43235293
v 0.18529412 -0.74117649 -0.30882353
v 0.18529412 -0.74117649 -0.18529412
v 0.18529412 -0.74117649 -0.06176471
v 0.18529412 -0.74117649 0.06176471
v 0.18529412 -0.74117649 0.18529412
v 0.18529412 -0.74117649 0.30882353
v 0.18529412 -0.74117649 0.43235293
v 0.18529412 -0.67941177 -0.67512643
v 0.18529412 -0.67941177 0.49411765
v 0.18529412 -0.55588233 -0.67383659
v 0.18529412 -0.55588233 0.49411765
v 0.18529412 -0.43235293 -0.67396873
v 0.18529412 -0.43235293 0.49411765
v 0.18529412 -0.30882353 -0.67401284
v 0.18529412 -0.30882353 0.49411765
v 0.18529412 -0.18529412 -0.67399079
v 0.18529412 -0.18529412 0.49411765
v 0.18529412 -0.06176471 -0.67223090
v 0.18529412 -0.06176471 0.49411765
v 0.18529412 0.06740577 -0.67941177
v 0.18529412 0.06176471 -0.67377067
v 0.18529412 0.06176471 0.49411765
v 0.18529412 0.18529412 -0.74117649
v 0.18529412 0.18529412 0.49411765
v 0.18529412 0.30882353 -0.71847665
v 0.18529412 0.34788838 -0.67941177
v 0.18529412 0.37605047 -0.55588233
v 0.18529412 0.37058824 0.43235293
v 0.18529412 0.30882353 0.49411765
v 0.18529412 0.43235293 -0.49957982
v 0.18529412 0.49411765 -0.43235293
v 0.18529412 0.53926146 0.18529412
v 0.18529412 0.49411765 0.30882353
v 0.18529412 0.43235293 0.37058824
v 0.18529412 0.55588233 -0.37058824
v 0.18529412 0.61764705 -0.30882353
v 0.18529412 0.61764705 -0.18529412
v 0.18529412 0.61764705 -0.06176471
v 0.18529412 0.61764705 0.06176471
v 0.18529412 0.55588233 0.16867322
v 0.30882353 -0.74117649 -0.55588233
v 0.30882353 -0.74117649 -0.43235293
v 0.30882353 -0.74117649 -0.30882353
v 0.30882353 -0.74117649 -0.18529412
v 0.30882353 -0.74117649 -0.06176471
v 0.30882353 -0.74117649 0.06176471
v 0.30882353 -0.74117649 0.18529412
v 0.30882353 -0.74117649 0.30882353
v 0.30882353 -0.74117649 0.43235293
v 0.30882365 -0.67941177 -0.67575926
v 0.30882353 -0.67941177 0.49411765
v 0.30882353 -0.55588233 -0.67381459
v 0.30882353 -0.55588233 0.49411765
v 0.30882353 -0.43235293 -0.67335463
v 0.30882353 -0.43235293 0.49411765
v 0.30882353 -0.30882353 -0.67383659
v 0.30882353 -0.30882353 0.49411765
v 0.30882353 -0.18529412 -0.67366087
v 0.30882353 -0.18529412 0.49411765
v 0.30882353 -0.06176471 -0.67313683
v 0.30882353 -0.06176471 0.49411765
v 0.30882365 0.06622958 -0.67941177
v 0.30882365 0.06176471 -0.67494684
v 0.30882353 0.06176471 0.49411765
v 0.30882353 0.18529412 -0.74117649
v 0.30882353 0.18529412 0.49411765
v 0.30882353 0.30882353 -0.71936947
v 0.30882353 0.34878126 -0.67941177
v 0.30882353 0.37559620 -0.55588233
v 0.30882353 0.37058824 0.43235293
v 0.30882353 0.30882353 0.49411765
v 0.30882353 0.43235293 -0.49912557
v 0.30882353 0.49411765 -0.43235293
v 0.30882353 0.53897309 0.18529412
v 0.30882353 0.49411765 0.30882353
v 0.30882353 0.43235293 0.37058824
v 0.30882353 0.55588233 -0.37058824
v 0.30882353 0.61764705 -0.30882353
v 0.30882353 0.61764705 -0.18529412
v 0.30882353 0.61764705 -0.06176471
v 0.30882353 0.61764705 0.06176471
v 0.30882353 0.55588233 0.16838484
v 0.43235293 -0.74117649 -0.55588233
v 0.43235293 -0.74117649 -0.43235293
v 0.43235293 -0.74117649 -0.30882353
v 0.43235293 -0.74117649 -0.18529412
v 0.43235293 -0.74117649 -0.06176471
v 0.43235293 -0.74117649 0.06176471
v 0.43235293 -0.74117649 0.18529412
v 0.43235293 -0.74117649 0.30882353
v 0.43235293 -0.74117649 0.43235293
v 0.43235293 -0.67941177 -0.67487967
v 0.43235293 -0.67941177 0.49411765
v 0.43235281 -0.55588233 -0.67447799
v 0.43235293 -0.55588233 0.49411765
v 0.43235281 -0.43235293 -0.67423391
v 0.43235293 -0.43235293 0.49411765
v 0.43235293 -0.30882353 -0.67425603
v 0.43235293 -0.30882353 0.49411765
v 0.43235305 -0.18529406 -0.67470080
v 0.43235293 -0.18529412 0.49411765
v 0.43235293 -0.06176471 -0.67339826
v 0.43235293 -0.06176471 0.49411765
v 0.43235293 0.06672072 -0.67941177
v 0.43235293 0.06176471 -0.67445576
v 0.43235293 0.06176471 0.49411765
v 0.43235293 0.18529412 -0.74117649
v 0.43235293 0.18529412 0.49411765
v 0.43235293 0.30882353 -0.71847665
v 0.43235293 0.34788838 -0.67941177
v 0.43235293 0.37448704 -0.55588233
v 0.43235293 0.37058824 0.43235293
v 0.43235293 0.30882353 0.49411765
v 0.43235293 0.43235293 -0.49801642
v 0.43235293 0.49411765 -0.43235293
v 0.43235293 0.53861481 0.18529412
v 0.43235293 0.49411765 0.30882353
v 0.43235293 0.43235293 0.37058824
v 0.43235293 0.55588233 -0.37058824
v 0.43235293 0.61764705 -0.30882353
v 0.43235293 0.61764705 -0.18529412
v 0.43235293 0.61764705 -0.06176471
v 0.43235293 0.61764705 0.06176471
v 0.43235293 0.55588233 0.16802658
v 0.55588233 -0.74117649 -0.55588233
v 0.55588233 -0.74117649 -0.43235293
v 0.55588233 -0.74117649 -0.30882353
v 0.55588233 -0.74117649 -0.18529412
v 0.55588233 -0.74117649 -0.06176471
v 0.55588233 -0.74117649 0.06176471
v 0.55588233 -0.74117649 0.18529412
v 0.55588233 -0.74117649 0.30882353
v 0.55588233 -0.74117649 0.43235293
v 0.56106019 -0.67941177 -0.67941177
v 0.55588233 -0.67941177 -0.67423391
v 0.55588233 -0.67941177 0.49411765
v 0.61764705 -0.67941177 0.55588233
v 0.56224418 -0.55588233 -0.67941177
v 0.55588233 -0.55588233 -0.67304993
v 0.55588233 -0.55588233 0.49411765
v 0.61764705 -0.55588233 0.55588233
v 0.56211376 -0.43235293 -0.67941177
v 0.55588233 -0.43235293 -0.67318034
v 0.55588233 -0.43235293 0.49411765
v 0.61764705 -0.43235293 0.55588233
v 0.56110448 -0.30882353 -0.67941177
v 0.55588233 -0.30882353 -0.67418963
v 0.55588233 -0.30882353 0.49411765
v 0.61764705 -0.30882353 0.55588233
v 0.56123716 -0.18529412 -0.67941177
v 0.55588233 -0.18529412 -0.67405695
v 0.55588233 -0.18529412 0.49411765
v 0.61764705 -0.18529412 0.55588233
v 0.56254727 -0.06176471 -0.67941177
v 0.55588233 -0.06176471 -0.67274684
v 0.55588233 -0.06176471 0.49411765
v 0.61764705 -0.06176471 0.55588233
v 0.56220078 0.06176471 -0.67941177
v 0.55588233 0.06808304 -0.67941177
v 0.55588233 0.06176471 -0.67309338
v 0.55588233 0.06176471 0.49411765
v 0.61764705 0.06176471 0.55588233
v 0.55588233 0.18529412 -0.74117649
v 0.55588233 0.18529412 0.49411765
v 0.61764705 0.18529412 0.55588233
v 0.55588233 0.30882353 -0.71936947
v 0.55588233 0.34878126 -0.67941177
v 0.55588233 0.37697771 -0.55588233
v 0.55588233 0.37058824 0.43235293
v 0.55588233 0.30882353 0.49431121
v 0.61125755 0.43235293 -0.55588233
v 0.55588233 0.43235293 -0.50050706
v 0.55588233 0.49411765 -0.43235293
v 0.55588233 0.53832996 0.18529412
v 0.55588233 0.49411765 0.30882353
v 0.55588233 0.43235293 0.37058824
v 0.61764705 0.55588233 -0.43235293
v 0.55588233 0.55588233 -0.37058824
v 0.55588233 0.61764705 -0.30882353
v 0.55588233 0.61764705 -0.18529412
v 0.55588233 0.61764705 -0.06176471
v 0.55588233 0.61764705 0.06176471
v 0.55588233 0.55588233 0.16774173
v 0.57343477 0.55588233 0.18529412
v 0.67941177 -0.74117649 -0.67941177
v 0.67941177 -0.74117649 -0.55588233
v 0.67941177 -0.74117649 -0.43235293
v 0.67941177 -0.74117649 -0.30882353
v 0.67941177 -0.74117649 -0.18529412
v 0.67941177 -0.74117649 -0.06176471
v 0.67941177 -0.74117649 0.06176471
v 0.67941177 -0.74117649 0.18529412
v 0.67941177 -0.74117649 0.30882353
v 0.67941177 -0.74117649 0.43235293
v 0.67941177 -0.74117649 0.55588233
v 0.67941177 -0.67941177 -0.74117649
v 0.67941177 -0.67941177 0.61764705
v 0.67941177 -0.55588233 -0.74117649
v 0.67941177 -0.55588233 0.61764705
v 0.67941177 -0.43235293 -0.74117649
v 0.67941177 -0.43235293 0.61764705
v 0.67941177 -0.30882353 -0.74117649
v 0.67941177 -0.30882353 0.61764705
v 0.67941177 -0.18529412 -0.74117649
v 0.67941177 -0.18529412 0.61764705
v 0.67941177 -0.06176471 -0.74117649
v 0.67941177 -0.06176471 0.61764705
v 0.67941177 0.06176471 -0.74117649
v 0.67941177 0.06176471 0.61764705
v 0.67941177 0.18529412 -0.74117649
v 0.67941177 0.24705882 0.55588233
v 0.67941177 0.18529412 0.61764705
v 0.67941177 0.30882353 -0.72677660
v 0.67941177 0.35618836 -0.67941177
v 0.67941177 0.39627802 0.43235293
v 0.67941177 0.30882353 0.49411765
v 0.67941177 0.43235293 -0.61764705
v 0.67941177 0.49411765 -0.55588233
v 0.67941177 0.49411765 0.30882353
v 0.67941177 0.43235293 0.39627802
v 0.67941177 0.55588233 -0.49411765
v 0.67941177 0.61764705 -0.43235293
v 0.67941177 0.61764705 -0.30882353
v 0.67941177 0.61764705 -0.18529412
v 0.67941177 0.61764705 -0.06176471
v 0.67941177 0.61764705 0.06176471
v 0.67941177 0.61764705 0.18529412
v 0.67941177 0.55588233 0.24705882
v 0.80294120 -0.74117649 -0.67941177
v 0.80294120 -0.73937750 -0.55588233
v 0.80294120 -0.71227741 -0.43235293
v 0.80294120 -0.71310163 -0.30882353
v 0.80294120 -0.71325541 -0.18529412
v 0.80294120 -0.71289694 -0.06176471
v 0.80294120 -0.71320361 0.06176471
v 0.80294120 -0.71269137 0.18529412
v 0.80294120 -0.71169293 0.30882353
v 0.80294120 -0.74117649 0.43235293
v 0.80294120 -0.74117649 0.55588233
v 0.80294120 -0.67941177 -0.74117649
v 0.86470586 -0.67941177 -0.67941177
v 0.86271340 -0.67941177 -0.55588233
v 0.83580679 -0.67941177 -0.43235293
v 0.83663112 -0.67941177 -0.30882353
v 0.83663112 -0.67941177 -0.18529412
v 0.83642638 -0.67941177 -0.06176471
v 0.83673298 -0.67941177 0.06176471
v 0.83622080 -0.67941177 0.18529412
v 0.83507299 -0.67941177 0.30882353
v 0.86470586 -0.67941177 0.43235293
v 0.86470586 -0.67941177 0.55588233
v 0.80294120 -0.67941177 0.61764705
v 0.80294120 -0.55588233 -0.74117649
v 0.86470586 -0.55588233 -0.67941177
v 0.86312211 -0.55588233 -0.55588233
v 0.83591062 -0.55588233 -0.43235293
v 0.83622080 -0.55588233 -0.30882353
v 0.83663112 -0.55588233 -0.18529412
v 0.83632362 -0.55588233 -0.06176471
v 0.83652884 -0.55588233 0.06176471
v 0.83611768 -0.55588233 0.18529412
v 0.83496743 -0.55588233 0.30882353
v 0.86470586 -0.55588233 0.43235293
v 0.86470586 -0.55588233 0.55588233
v 0.80294120 -0.55588233 0.61764705
v 0.80294120 -0.43235293 -0.74117649
v 0.86470586 -0.43235293 -0.67941177
v 0.86271340 -0.43235293 -0.55588233
v 0.83622080 -0.43235293 -0.43235293
v 0.83632362 -0.43235293 -0.30882359
v 0.83652884 -0.43235293 -0.18529412
v 0.83632362 -0.43235293 -0.06176471
v 0.83673298 -0.43235293 0.06176471
v 0.83642638 -0.43235287 0.18529424
v 0.83559841 -0.43235293 0.30882353
v 0.86470586 -0.43235293 0.43235293
v 0.86470586 -0.43235293 0.55588233
v 0.80294120 -0.43235293 0.61764705
v 0.80294120 -0.30882353 -0.74117649
v 0.86470586 -0.30882353 -0.67941177
v 0.86291850 -0.30882353 -0.55588233
v 0.83622080 -0.30882353 -0.43235293
v 0.83611768 -0.30882353 -0.30882353
v 0.83663112 -0.30882353 -0.18529412
v 0.83601427 -0.30882353 -0.06176471
v 0.83632362 -0.30882359 0.06176471
v 0.83601427 -0.30882353 0.18529412
v 0.83528411 -0.30882353 0.30882353
v 0.86470586 -0.30882353 0.43235293
v 0.86470586 -0.30882353 0.55588233
v 0.80294120 -0.30882353 0.61764705
v 0.80294120 -0.18529412 -0.74117649
v 0.86470586 -0.18529412 -0.67941177
v 0.86209047 -0.18529412 -0.55588233
v 0.83611768 -0.18529412 -0.43235293
v 0.83601427 -0.18529412 -0.30882353
v 0.83642638 -0.18529412 -0.18529412
v 0.83591062 -0.18529412 -0.06176471
v 0.83642638 -0.18529412 0.06176471
v 0.83611768 -0.18529412 0.18529412
v 0.83528411 -0.18529412 0.30882353
v 0.86470586 -0.18529412 0.43235293
v 0.86470586 -0.18529412 0.55588233
v 0.80294120 -0.18529412 0.61764705
v 0.80294120 -0.06176471 -0.74117649
v 0.86470586 -0.06176471 -0.67941177
v 0.86166823 -0.06176471 -0.55588233
v 0.83663112 -0.06176471 -0.43235293
v 0.83642638 -0.06176471 -0.30882353
v 0.83673298 -0.06176471 -0.18529412
v 0.83622080 -0.06176471 -0.06176471
v 0.83642638 -0.06176471 0.06176471
v 0.83611768 -0.06176471 0.18529412
v 0.83528411 -0.06176471 0.30882353
v 0.86470586 -0.06176471 0.43235293
v 0.86470586 -0.06176471 0.55588233
v 0.80294120 -0.06176471 0.61764705
v 0.80294120 0.06176471 -0.74117649
v 0.86470586 0.06176471 -0.67941177
v 0.86166823 0.06176471 -0.55588233
v 0.83611768 0.06176471 -0.43235293
v 0.83632362 0.06176471 -0.30882359
v 0.83642638 0.06176471 -0.18529412
v 0.83642638 0.06176471 -0.06176471
v 0.83642638 0.06176471 0.06176471
v 0.83601427 0.06176471 0.18529412
v 0.83486128 0.06176471 0.30882353
v 0.86470586 0.06176471 0.43235293
v 0.86470586 0.06176471 0.55588233
v 0.80294120 0.06176471 0.61764705
v 0.80294120 0.18529412 -0.74117649
v 0.86470586 0.18529412 -0.67941177
v 0.86470586 0.18529412 -0.55588233
v 0.86470586 0.18529412 -0.43235293
v 0.86470586 0.18529412 -0.30882353
v 0.86470586 0.18529412 -0.18529412
v 0.86470586 0.18529412 -0.06176471
v 0.86470586 0.18529412 0.06176471
v 0.86470586 0.18529412 0.18529412
v 0.86470586 0.18529412 0.30882353
v 0.86470586 0.18529412 0.43235293
v 0.86470586 0.18529412 0.55588233
v 0.80294120 0.24705882 0.55588233
v 0.80294120 0.18529412 0.61764705
v 0.80294120 0.30882353 -0.72603571
v 0.84956509 0.30882353 -0.67941177
v 0.80294120 0.35544747 -0.67941177
v 0.86470586 0.30882353 -0.55588233
v 0.86470586 0.30882353 -0.43235293
v 0.86470586 0.30882353 -0.30882353
v 0.86470586 0.30882353 -0.18529412
v 0.86470586 0.30882353 -0.06176471
v 0.86470586 0.30882353 0.06176471
v 0.86470586 0.30882353 0.18529412
v 0.86470586 0.30882353 0.30882353
v 0.86470586 0.30882353 0.43235293
v 0.80294120 0.39475700 0.43235293
v 0.80294120 0.30882353 0.49411765
v 0.80294120 0.43235293 -0.61764705
v 0.86470586 0.43235293 -0.55588233
v 0.80294120 0.49411765 -0.55588233
v 0.86470586 0.43235293 -0.43235293
v 0.86470586 0.43235293 -0.30882353
v 0.86470586 0.43235293 -0.18529412
v 0.86470586 0.43235293 -0.06176471
v 0.86470586 0.43235293 0.06176471
v 0.86470586 0.43235293 0.18529412
v 0.86470586 0.43235293 0.30882353
v 0.80294120 0.49392515 0.30882353
v 0.80294120 0.43235293 0.39475700
v 0.80294120 0.55588233 -0.49411765
v 0.86470586 0.55588233 -0.43235293
v 0.80294120 0.61764705 -0.43235293
v 0.86470586 0.55588233 -0.30882353
v 0.80294120 0.61764705 -0.30882353
v 0.86470586 0.55588233 -0.18529412
v 0.80294120 0.61764705 -0.18529412
v 0.86470586 0.55588233 -0.06176471
v 0.80294120 0.61764705 -0.06176471
v 0.86470586 0.55588233 0.06176471
v 0.80294120 0.61764705 0.06176471
v 0.86470586 0.55588233 0.18529412
v 0.80294120 0.61764705 0.18529412
v 0.80294120 0.55588222 0.24686633
f 113 1 124
f 114 2 113
f 113 2 1
f 115 3 114
f 114 3 2
f 116 4 115
f 115 4 3
f 117 5 116
f 116 5 4
f 118 6 117
f 117 6 5
f 119 7 118
f 118 7 6
f 120 8 119
f 119 8 7
f 121 9 120
f 120 9 8
f 122 10 121
f 121 10 9
f 123 11 122
f 122 11 10
f 125 11 123
f 124 1 126
f 126 1 12
f 2 12 1
f 13 12 2
f 3 13 2
f 14 13 3
f 4 14 3
f 15 14 4
f 5 15 4
f 16 15 5
f 6 16 5
f 17 16 6
f 7 17 6
f 18 17 7
f 8 18 7
f 19 18 8
f 9 19 8
f 20 19 9
f 10 20 9
f 21 20 10
f 11 21 10
f 22 21 11
f 127 22 125
f 125 22 11
f 126 12 128
f 128 12 23
f 13 23 12
f 24 23 13
f 14 24 13
f 25 24 14
f 15 25 14
f 26 25 15
f 16 26 15
f 27 26 16
f 17 27 16
f 28 27 17
f 18 28 17
f 29 28 18
f 19 29 18
f 30 29 19
f 20 30 19
f 31 30 20
f 21 31 20
f 32 31 21
f 22 32 21
f 33 32 22
f 129 33 127
f 127 33 22
f 128 23 130
f 130 23 34
f 24 34 23
f 35 34 24
f 25 35 24
f 36 35 25
f 26 36 25
f 37 36 26
f 27 37 26
f 38 37 27
f 28 38 27
f 39 38 28
f 29 39 28
f 40 39 29
f 30 40 29
f 41 40 30
f 31 41 30
f 42 41 31
f 32 42 31
f 43 42 32
f 33 43 32
f 44 43 33
f 131 44 129
f 129 44 33
f 130 34 132
f 132 34 45
f 35 45 34
f 46 45 35
f 36 46 35
f 47 46 36
f 37 47 36
f 48 47 37
f 38 48 37
f 49 48 38
f 39 49 38
f 50 49 39
f 40 50 39
f 51 50 40
f 41 51 40
f 52 51 41
f 42 52 41
f 53 52 42
f 43 53 42
f 54 53 43
f 44 54 43
f 55 54 44
f 133 55 131
f 131 55 44
f 132 45 134
f 134 45 56
f 46 56 45
f 57 56 46
f 47 57 46
f 58 57 47
f 48 58 47
f 59 58 48
f 49 59 48
f 60 59 49
f 50 60 49
f 61 60 50
f 51 61 50
f 62 61 51
f 52 62 51
f 63 62 52
f 53 63 52
f 64 63 53
f 54 64 53
f 65 64 54
f 55 65 54
f 66 65 55
f 135 66 133
f 133 66 55
f 134 56 136
f 136 56 67
f 57 67 56
f 68 67 57
f 58 68 57
f 69 68 58
f 59 69 58
f 70 69 59
f 60 70 59
f 71 70 60
f 61 71 60
f 72 71 61
f 62 72 61
f 73 72 62
f 63 73 62
f 74 73 63
f 64 74 63
f 75 74 64
f 65 75 64
f 76 75 65
f 66 76 65
f 77 76 66
f 137 77 135
f 135 77 66
f 136 67 138
f 138 67 78
f 68 78 67
f 79 78 68
f 69 79 68
f 80 79 69
f 70 80 69
f 81 80 70
f 71 81 70
f 82 81 71
f 72 82 71
f 83 82 72
f 73 83 72
f 84 83 73
f 74 84 73
f 85 84 74
f 75 85 74
f 86 85 75
f 76 86 75
f 87 86 76
f 77 87 76
f 88 87 77
f 140 88 137
f 137 88 77
f 138 78 141
f 141 78 89
f 79 89 78
f 90 89 79
f 80 90 79
f 91 90 80
f 81 91 80
f 92 91 81
f 82 92 81
f 93 92 82
f 83 93 82
f 94 93 83
f 84 94 83
f 95 94 84
f 85 95 84
f 96 95 85
f 86 96 85
f 97 96 86
f 87 97 86
f 98 97 87
f 144 98 139
f 98 88 139
f 98 87 88
f 140 139 88
f 89 142 141
f 142 89 145
f 89 99 145
f 89 90 99
f 91 99 90
f 100 99 91
f 92 100 91
f 101 100 92
f 93 101 92
f 102 101 93
f 94 102 93
f 103 102 94
f 95 103 94
f 104 103 95
f 96 104 95
f 105 104 96
f 97 105 96
f 106 105 97
f 148 106 143
f 106 98 143
f 106 97 98
f 144 143 98
f 99 146 145
f 146 99 149
f 99 107 149
f 99 100 107
f 101 107 100
f 108 107 101
f 102 108 101
f 109 108 102
f 103 109 102
f 110 109 103
f 104 110 103
f 111 110 104
f 105 111 104
f 112 111 105
f 156 112 147
f 112 106 147
f 112 105 106
f 148 147 106
f 107 150 149
f 108 151 107
f 107 151 150
f 109 152 108
f 108 152 151
f 110 153 109
f 109 153 152
f 111 154 110
f 110 154 153
f 112 155 111
f 111 155 154
f 156 155 112
f 168 157 124
f 124 157 113
f 158 113 157
f 158 114 113
f 159 114 158
f 159 115 114
f 160 115 159
f 160 116 115
f 161 116 160
f 161 117 116
f 162 117 161
f 162 118 117
f 163 118 162
f 163 119 118
f 164 119 163
f 164 120 119
f 165 120 164
f 165 121 120
f 166 121 165
f 166 122 121
f 167 122 166
f 167 123 122
f 167 171 123
f 123 171 125
f 124 172 168
f 124 126 172
f 175 125 171
f 127 125 175
f 126 176 172
f 126 128 176
f 179 127 175
f 129 127 179
f 128 180 176
f 128 130 180
f 183 129 179
f 131 129 183
f 130 184 180
f 130 132 184
f 187 131 183
f 133 131 187
f 132 188 184
f 132 134 188
f 191 133 187
f 135 133 191
f 134 192 188
f 134 136 192
f 195 135 191
f 137 135 195
f 136 196 192
f 136 138 196
f 199 137 195
f 140 137 199
f 138 200 196
f 138 141 200
f 198 203 144
f 198 144 139
f 139 140 198
f 198 140 199
f 141 142 200
f 200 142 201
f 204 201 142
f 204 142 145
f 202 208 148
f 202 148 143
f 143 144 202
f 202 144 203
f 145 146 204
f 204 146 206
f 209 206 146
f 209 146 149
f 207 218 156
f 207 156 147
f 147 148 207
f 207 148 208
f 149 150 209
f 209 150 211
f 150 212 211
f 151 212 150
f 151 213 212
f 152 213 151
f 152 214 213
f 153 214 152
f 153 215 214
f 154 215 153
f 154 217 215
f 155 217 154
f 155 156 217
f 217 156 218
f 168 169 157
f 228 219 169
f 219 157 169
f 219 158 157
f 220 158 219
f 220 159 158
f 221 159 220
f 221 160 159
f 222 160 221
f 222 161 160
f 223 161 222
f 223 162 161
f 224 162 223
f 224 163 162
f 225 163 224
f 225 164 163
f 226 164 225
f 226 165 164
f 227 165 226
f 227 166 165
f 170 167 229
f 167 227 229
f 167 166 227
f 170 171 167
f 169 168 173
f 173 168 172
f 173 230 228
f 173 228 169
f 170 229 231
f 170 231 174
f 174 175 170
f 170 175 171
f 173 172 177
f 177 172 176
f 177 232 230
f 177 230 173
f 174 231 233
f 174 233 178
f 178 179 174
f 174 179 175
f 177 176 181
f 181 176 180
f 181 234 232
f 181 232 177
f 178 233 235
f 178 235 182
f 182 183 178
f 178 183 179
f 181 180 185
f 185 180 184
f 185 236 234
f 185 234 181
f 182 235 237
f 182 237 186
f 186 187 182
f 182 187 183
f 185 184 189
f 189 184 188
f 189 238 236
f 189 236 185
f 186 237 239
f 186 239 190
f 190 191 186
f 186 191 187
f 189 188 193
f 193 188 192
f 193 241 238
f 193 238 189
f 190 239 242
f 190 242 194
f 194 195 190
f 190 195 191
f 193 192 240
f 192 243 240
f 192 196 243
f 240 241 193
f 194 242 244
f 194 244 197
f 197 199 194
f 194 199 195
f 196 245 243
f 196 200 245
f 203 198 197
f 244 203 197
f 249 203 244
f 198 199 197
f 200 201 245
f 245 201 246
f 201 204 205
f 247 201 205
f 246 201 247
f 205 250 247
f 248 254 208
f 248 208 202
f 202 203 248
f 248 203 249
f 204 206 205
f 209 210 206
f 206 210 205
f 210 251 205
f 251 250 205
f 210 255 251
f 216 252 260
f 252 216 218
f 207 252 218
f 253 252 207
f 207 208 253
f 253 208 254
f 209 211 210
f 210 211 255
f 211 256 255
f 211 212 256
f 212 257 256
f 213 257 212
f 213 258 257
f 214 258 213
f 214 259 258
f 215 259 214
f 260 259 216
f 259 217 216
f 259 215 217
f 217 218 216
f 270 261 228
f 228 261 219
f 262 219 261
f 262 220 219
f 263 220 262
f 263 221 220
f 264 221 263
f 264 222 221
f 265 222 264
f 265 223 222
f 266 223 265
f 266 224 223
f 267 224 266
f 267 225 224
f 268 225 267
f 268 226 225
f 269 226 268
f 269 227 226
f 269 271 227
f 227 271 229
f 228 272 270
f 228 230 272
f 273 229 271
f 231 229 273
f 230 274 272
f 230 232 274
f 275 231 273
f 233 231 275
f 232 276 274
f 232 234 276
f 277 233 275
f 235 233 277
f 234 278 276
f 234 236 278
f 279 235 277
f 237 235 279
f 236 280 278
f 236 238 280
f 281 237 279
f 239 237 281
f 238 283 280
f 238 241 283
f 284 239 281
f 242 239 284
f 285 282 243
f 243 282 240
f 241 240 282
f 241 282 283
f 286 242 284
f 244 242 286
f 243 287 285
f 243 245 287
f 291 244 286
f 249 244 291
f 245 246 287
f 287 246 288
f 246 289 288
f 247 289 246
f 292 289 247
f 292 247 250
f 290 296 254
f 290 254 248
f 248 249 290
f 290 249 291
f 250 251 292
f 292 251 293
f 297 293 251
f 297 251 255
f 294 302 260
f 294 260 252
f 252 295 294
f 253 295 252
f 253 254 295
f 295 254 296
f 255 256 297
f 297 256 298
f 256 299 298
f 257 299 256
f 257 300 299
f 258 300 257
f 258 301 300
f 259 301 258
f 259 260 301
f 301 260 302
f 312 303 270
f 270 303 261
f 304 261 303
f 304 262 261
f 305 262 304
f 305 263 262
f 306 263 305
f 306 264 263
f 307 264 306
f 307 265 264
f 308 265 307
f 308 266 265
f 309 266 308
f 309 267 266
f 310 267 309
f 310 268 267
f 311 268 310
f 311 269 268
f 311 313 269
f 269 313 271
f 270 314 312
f 270 272 314
f 315 271 313
f 273 271 315
f 272 316 314
f 272 274 316
f 317 273 315
f 275 273 317
f 274 318 316
f 274 276 318
f 319 275 317
f 277 275 319
f 276 320 318
f 276 278 320
f 321 277 319
f 279 277 321
f 278 322 320
f 278 280 322
f 323 279 321
f 281 279 323
f 280 325 322
f 280 283 325
f 326 281 323
f 284 281 326
f 327 324 285
f 285 324 282
f 283 282 324
f 283 324 325
f 328 284 326
f 286 284 328
f 285 329 327
f 285 287 329
f 333 286 328
f 291 286 333
f 287 288 329
f 329 288 330
f 288 331 330
f 289 331 288
f 334 331 289
f 334 289 292
f 332 338 296
f 332 296 290
f 290 291 332
f 332 291 333
f 292 293 334
f 334 293 335
f 339 335 293
f 339 293 297
f 336 344 302
f 336 302 294
f 294 337 336
f 295 337 294
f 295 296 337
f 337 296 338
f 297 298 339
f 339 298 340
f 298 341 340
f 299 341 298
f 299 342 341
f 300 342 299
f 300 343 342
f 301 343 300
f 301 302 343
f 343 302 344
f 354 345 312
f 312 345 303
f 346 303 345
f 346 304 303
f 347 304 346
f 347 305 304
f 348 305 347
f 348 306 305
f 349 306 348
f 349 307 306
f 350 307 349
f 350 308 307
f 351 308 350
f 351 309 308
f 352 309 351
f 352 310 309
f 353 310 352
f 353 311 310
f 353 355 311
f 311 355 313
f 312 356 354
f 312 314 356
f 357 313 355
f 315 313 357
f 314 358 356
f 314 316 358
f 359 315 357
f 317 315 359
f 316 360 358
f 316 318 360
f 361 317 359
f 319 317 361
f 318 362 360
f 318 320 362
f 363 319 361
f 321 319 363
f 320 364 362
f 320 322 364
f 365 321 363
f 323 321 365
f 322 367 364
f 322 325 367
f 368 323 365
f 326 323 368
f 369 366 327
f 327 366 324
f 325 324 366
f 325 366 367
f 370 326 368
f 328 326 370
f 327 371 369
f 327 329 371
f 375 328 370
f 333 328 375
f 329 330 371
f 371 330 372
f 330 373 372
f 331 373 330
f 376 373 331
f 376 331 334
f 374 380 338
f 374 338 332
f 332 333 374
f 374 333 375
f 334 335 376
f 376 335 377
f 381 377 335
f 381 335 339
f 378 386 344
f 378 344 336
f 336 379 378
f 337 379 336
f 337 338 379
f 379 338 380
f 339 340 381
f 381 340 382
f 340 383 382
f 341 383 340
f 341 384 383
f 342 384 341
f 342 385 384
f 343 385 342
f 343 344 385
f 385 344 386
f 396 387 354
f 354 387 345
f 388 345 387
f 388 346 345
f 389 346 388
f 389 347 346
f 390 347 389
f 390 348 347
f 391 348 390
f 391 349 348
f 392 349 391
f 392 350 349
f 393 350 392
f 393 351 350
f 394 351 393
f 394 352 351
f 395 352 394
f 395 353 352
f 395 397 353
f 353 397 355
f 354 398 396
f 354 356 398
f 399 355 397
f 357 355 399
f 356 400 398
f 356 358 400
f 401 357 399
f 359 357 401
f 358 402 400
f 358 360 402
f 403 359 401
f 361 359 403
f 360 404 402
f 360 362 404
f 405 361 403
f 363 361 405
f 362 406 404
f 362 364 406
f 407 363 405
f 365 363 407
f 364 410 406
f 364 367 410
f 411 365 407
f 368 365 411
f 413 409 369
f 369 409 366
f 367 366 409
f 367 409 410
f 414 368 411
f 370 368 414
f 369 416 413
f 369 371 416
f 420 370 414
f 375 370 420
f 371 372 416
f 416 372 417
f 372 418 417
f 373 418 372
f 422 418 373
f 422 373 376
f 419 426 380
f 419 380 374
f 374 375 419
f 419 375 420
f 376 377 422
f 422 377 423
f 427 423 377
f 427 377 381
f 424 432 386
f 424 386 378
f 378 425 424
f 379 425 378
f 379 380 425
f 425 380 426
f 381 382 427
f 427 382 428
f 382 429 428
f 383 429 382
f 383 430 429
f 384 430 383
f 384 431 430
f 385 431 384
f 385 386 431
f 431 386 432
f 442 433 396
f 396 433 387
f 434 387 433
f 434 388 387
f 435 388 434
f 435 389 388
f 436 389 435
f 436 390 389
f 437 390 436
f 437 391 390
f 438 391 437
f 438 392 391
f 439 392 438
f 439 393 392
f 440 393 439
f 440 394 393
f 441 394 440
f 441 395 394
f 441 443 395
f 395 443 397
f 396 444 442
f 396 398 444
f 445 397 443
f 399 397 445
f 398 446 444
f 398 400 446
f 447 399 445
f 401 399 447
f 400 448 446
f 400 402 448
f 449 401 447
f 403 401 449
f 402 450 448
f 402 404 450
f 451 403 449
f 405 403 451
f 404 453 450
f 404 406 453
f 451 452 408
f 407 451 408
f 405 451 407
f 455 408 452
f 406 457 453
f 406 410 457
f 407 408 412
f 407 412 411
f 459 412 455
f 455 412 408
f 460 456 413
f 413 456 409
f 410 409 456
f 410 456 457
f 411 412 415
f 411 415 414
f 462 415 459
f 459 415 412
f 413 463 460
f 413 416 463
f 414 415 421
f 414 421 420
f 469 421 462
f 462 421 415
f 416 417 463
f 463 417 464
f 417 465 464
f 418 465 417
f 470 465 418
f 470 418 422
f 466 474 426
f 466 426 419
f 421 468 420
f 468 419 420
f 468 466 419
f 469 468 421
f 422 423 470
f 470 423 471
f 475 471 423
f 475 423 427
f 472 480 432
f 472 432 424
f 424 473 472
f 425 473 424
f 425 426 473
f 473 426 474
f 427 428 475
f 475 428 476
f 428 477 476
f 429 477 428
f 429 478 477
f 430 478 429
f 430 479 478
f 431 479 430
f 431 432 479
f 479 432 480
f 490 481 442
f 442 481 433
f 482 433 481
f 482 434 433
f 483 434 482
f 483 435 434
f 484 435 483
f 484 436 435
f 485 436 484
f 485 437 436
f 486 437 485
f 486 438 437
f 487 438 486
f 487 439 438
f 488 439 487
f 488 440 439
f 489 440 488
f 489 441 440
f 489 491 441
f 441 491 443
f 442 492 490
f 442 444 492
f 493 443 491
f 445 443 493
f 444 494 492
f 444 446 494
f 495 445 493
f 447 445 495
f 446 496 494
f 446 448 496
f 497 447 495
f 449 447 497
f 448 498 496
f 448 450 498
f 499 449 497
f 451 449 499
f 450 500 498
f 450 453 500
f 501 454 452
f 451 501 452
f 499 501 451
f 454 455 452
f 453 503 500
f 453 457 503
f 454 501 504
f 454 504 458
f 458 459 454
f 454 459 455
f 505 502 460
f 460 502 456
f 457 456 502
f 457 502 503
f 458 504 506
f 458 506 461
f 461 462 458
f 458 462 459
f 460 507 505
f 460 463 507
f 461 506 511
f 461 511 467
f 467 469 461
f 461 469 462
f 463 464 507
f 507 464 508
f 464 509 508
f 465 509 464
f 512 509 465
f 512 465 470
f 510 516 474
f 510 474 466
f 511 510 467
f 510 468 467
f 510 466 468
f 468 469 467
f 470 471 512
f 512 471 513
f 517 513 471
f 517 471 475
f 514 522 480
f 514 480 472
f 472 515 514
f 473 515 472
f 473 474 515
f 515 474 516
f 475 476 517
f 517 476 518
f 476 519 518
f 477 519 476
f 477 520 519
f 478 520 477
f 478 521 520
f 479 521 478
f 479 480 521
f 521 480 522
f 532 523 490
f 490 523 481
f 524 481 523
f 524 482 481
f 525 482 524
f 525 483 482
f 526 483 525
f 526 484 483
f 527 484 526
f 527 485 484
f 528 485 527
f 528 486 485
f 529 486 528
f 529 487 486
f 530 487 529
f 530 488 487
f 531 488 530
f 531 489 488
f 531 533 489
f 489 533 491
f 490 534 532
f 490 492 534
f 535 491 533
f 493 491 535
f 492 536 534
f 492 494 536
f 537 493 535
f 495 493 537
f 494 538 536
f 494 496 538
f 539 495 537
f 497 495 539
f 496 540 538
f 496 498 540
f 541 497 539
f 499 497 541
f 498 542 540
f 498 500 542
f 543 499 541
f 501 499 543
f 500 545 542
f 500 503 545
f 546 501 543
f 504 501 546
f 547 544 505
f 505 544 502
f 503 502 544
f 503 544 545
f 548 504 546
f 506 504 548
f 505 549 547
f 505 507 549
f 553 506 548
f 511 506 553
f 507 508 549
f 549 508 550
f 508 551 550
f 509 551 508
f 554 551 509
f 554 509 512
f 552 558 516
f 552 516 510
f 510 511 552
f 552 511 553
f 512 513 554
f 554 513 555
f 559 555 513
f 559 513 517
f 556 564 522
f 556 522 514
f 514 557 556
f 515 557 514
f 515 516 557
f 557 516 558
f 517 518 559
f 559 518 560
f 518 561 560
f 519 561 518
f 519 562 561
f 520 562 519
f 520 563 562
f 521 563 520
f 521 522 563
f 563 522 564
f 574 565 532
f 532 565 523
f 566 523 565
f 566 524 523
f 567 524 566
f 567 525 524
f 568 525 567
f 568 526 525
f 569 526 568
f 569 527 526
f 570 527 569
f 570 528 527
f 571 528 570
f 571 529 528
f 572 529 571
f 572 530 529
f 573 530 572
f 573 531 530
f 573 575 531
f 531 575 533
f 532 576 574
f 532 534 576
f 577 533 575
f 535 533 577
f 534 578 576
f 534 536 578
f 579 535 577
f 537 535 579
f 536 580 578
f 536 538 580
f 581 537 579
f 539 537 581
f 538 582 580
f 538 540 582
f 583 539 581
f 541 539 583
f 540 584 582
f 540 542 584
f 585 541 583
f 543 541 585
f 542 587 584
f 542 545 587
f 588 543 585
f 546 543 588
f 589 586 547
f 547 586 544
f 545 544 586
f 545 586 587
f 590 546 588
f 548 546 590
f 547 591 589
f 547 549 591
f 595 548 590
f 553 548 595
f 549 550 591
f 591 550 592
f 550 593 592
f 551 593 550
f 596 593 551
f 596 551 554
f 594 600 558
f 594 558 552
f 552 553 594
f 594 553 595
f 554 555 596
f 596 555 597
f 601 597 555
f 601 555 559
f 598 606 564
f 598 564 556
f 556 599 598
f 557 599 556
f 557 558 599
f 599 558 600
f 559 560 601
f 601 560 602
f 560 603 602
f 561 603 560
f 561 604 603
f 562 604 561
f 562 605 604
f 563 605 562
f 563 564 605
f 605 564 606
f 616 607 574
f 574 607 565
f 608 565 607
f 608 566 565
f 609 566 608
f 609 567 566
f 610 567 609
f 610 568 567
f 611 568 610
f 611 569 568
f 612 569 611
f 612 570 569
f 613 570 612
f 613 571 570
f 614 571 613
f 614 572 571
f 615 572 614
f 615 573 572
f 615 617 573
f 573 617 575
f 574 618 616
f 574 576 618
f 619 575 617
f 577 575 619
f 576 620 618
f 576 578 620
f 621 577 619
f 579 577 621
f 578 622 620
f 578 580 622
f 623 579 621
f 581 579 623
f 580 624 622
f 580 582 624
f 625 581 623
f 583 581 625
f 582 626 624
f 582 584 626
f 627 583 625
f 585 583 627
f 584 629 626
f 584 587 629
f 630 585 627
f 588 585 630
f 631 628 589
f 589 628 586
f 587 586 628
f 587 628 629
f 632 588 630
f 590 588 632
f 589 633 631
f 589 591 633
f 637 590 632
f 595 590 637
f 591 592 633
f 633 592 634
f 592 635 634
f 593 635 592
f 638 635 593
f 638 593 596
f 636 642 600
f 636 600 594
f 594 595 636
f 636 595 637
f 596 597 638
f 638 597 639
f 643 639 597
f 643 597 601
f 640 648 606
f 640 606 598
f 598 641 640
f 599 641 598
f 599 600 641
f 641 600 642
f 601 602 643
f 643 602 644
f 602 645 644
f 603 645 602
f 603 646 645
f 604 646 603
f 604 647 646
f 605 647 604
f 605 606 647
f 647 606 648
f 659 649 616
f 616 649 607
f 650 607 649
f 650 608 607
f 651 608 650
f 651 609 608
f 652 609 651
f 652 610 609
f 653 610 652
f 653 611 610
f 654 611 653
f 654 612 611
f 655 612 654
f 655 613 612
f 656 613 655
f 656 614 613
f 657 614 656
f 657 615 614
f 657 660 615
f 615 660 617
f 616 663 659
f 616 618 663
f 664 617 660
f 619 617 664
f 618 667 663
f 618 620 667
f 668 619 664
f 621 619 668
f 620 671 667
f 620 622 671
f 672 621 668
f 623 621 672
f 622 675 671
f 622 624 675
f 676 623 672
f 625 623 676
f 624 679 675
f 624 626 679
f 680 625 676
f 627 625 680
f 626 684 679
f 626 629 684
f 685 627 680
f 630 627 685
f 687 683 631
f 631 683 628
f 629 628 683
f 629 683 684
f 688 630 685
f 632 630 688
f 631 690 687
f 631 633 690
f 694 632 688
f 637 632 694
f 633 634 690
f 690 634 691
f 634 692 691
f 635 692 634
f 696 692 635
f 696 635 638
f 693 700 642
f 693 642 636
f 636 637 693
f 693 637 694
f 638 639 696
f 696 639 697
f 702 697 639
f 702 639 643
f 698 707 648
f 698 648 640
f 640 699 698
f 641 699 640
f 641 642 699
f 699 642 700
f 643 644 702
f 702 644 703
f 644 704 703
f 645 704 644
f 645 705 704
f 646 705 645
f 646 706 705
f 647 706 646
f 647 648 706
f 706 648 707
f 709 658 720
f 658 709 659
f 709 649 659
f 709 710 649
f 711 649 710
f 711 650 649
f 712 650 711
f 712 651 650
f 713 651 712
f 713 652 651
f 714 652 713
f 714 653 652
f 715 653 714
f 715 654 653
f 716 654 715
f 716 655 654
f 717 655 716
f 717 656 655
f 718 656 717
f 718 657 656
f 660 657 661
f 657 719 661
f 657 718 719
f 721 661 719
f 720 658 722
f 722 658 662
f 663 662 658
f 663 658 659
f 660 661 665
f 660 665 664
f 723 665 721
f 721 665 661
f 722 662 724
f 724 662 666
f 667 666 662
f 667 662 663
f 664 665 669
f 664 669 668
f 725 669 723
f 723 669 665
f 724 666 726
f 726 666 670
f 671 670 666
f 671 666 667
f 668 669 673
f 668 673 672
f 727 673 725
f 725 673 669
f 726 670 728
f 728 670 674
f 675 674 670
f 675 670 671
f 672 673 677
f 672 677 676
f 729 677 727
f 727 677 673
f 728 674 730
f 730 674 678
f 679 678 674
f 679 674 675
f 676 677 681
f 676 681 680
f 731 681 729
f 729 681 677
f 730 678 732
f 732 678 682
f 684 682 678
f 684 678 679
f 680 681 686
f 680 686 685
f 733 686 731
f 731 686 681
f 683 687 682
f 687 732 682
f 687 734 732
f 684 683 682
f 685 686 689
f 685 689 688
f 736 689 733
f 733 689 686
f 687 737 734
f 687 690 737
f 688 689 735
f 740 688 735
f 694 688 740
f 736 735 689
f 690 691 737
f 737 691 738
f 692 695 741
f 738 692 741
f 691 692 738
f 696 695 692
f 739 744 700
f 739 700 693
f 693 694 739
f 739 694 740
f 695 742 741
f 697 701 745
f 697 745 742
f 696 697 742
f 695 696 742
f 702 701 697
f 708 707 698
f 743 752 708
f 698 743 708
f 699 743 698
f 699 700 743
f 743 700 744
f 701 746 745
f 702 703 701
f 703 746 701
f 703 747 746
f 703 748 747
f 704 748 703
f 704 749 748
f 705 749 704
f 705 750 749
f 706 750 705
f 708 751 707
f 751 706 707
f 751 750 706
f 752 751 708
f 764 753 720
f 720 753 709
f 754 709 753
f 754 710 709
f 755 710 754
f 755 711 710
f 756 711 755
f 756 712 711
f 757 712 756
f 757 713 712
f 758 713 757
f 758 714 713
f 759 714 758
f 759 715 714
f 760 715 759
f 760 716 715
f 761 716 760
f 761 717 716
f 762 717 761
f 762 718 717
f 763 718 762
f 763 719 718
f 763 776 719
f 719 776 721
f 720 777 764
f 720 722 777
f 789 721 776
f 723 721 789
f 722 790 777
f 722 724 790
f 802 723 789
f 725 723 802
f 724 803 790
f 724 726 803
f 815 725 802
f 727 725 815
f 726 816 803
f 726 728 816
f 828 727 815
f 729 727 828
f 728 829 816
f 728 730 829
f 841 729 828
f 731 729 841
f 730 842 829
f 730 732 842
f 854 731 841
f 733 731 854
f 732 855 842
f 732 734 855
f 868 733 854
f 736 733 868
f 734 869 855
f 734 737 869
f 867 882 740
f 867 740 735
f 735 736 867
f 867 736 868
f 737 738 869
f 869 738 871
f 883 871 738
f 883 738 741
f 881 894 744
f 881 744 739
f 739 740 881
f 881 740 882
f 741 742 883
f 883 742 885
f 895 885 742
f 895 742 745
f 893 908 752
f 893 752 743
f 743 744 893
f 893 744 894
f 745 746 895
f 895 746 897
f 746 899 897
f 747 899 746
f 747 901 899
f 748 901 747
f 748 903 901
f 749 903 748
f 749 905 903
f 750 905 749
f 750 907 905
f 751 907 750
f 751 752 907
f 907 752 908
f 764 765 753
f 753 765 754
f 754 765 766
f 754 766 755
f 755 766 767
f 755 767 756
f 756 767 768
f 756 768 757
f 757 768 769
f 757 769 758
f 758 769 770
f 758 770 759
f 759 770 771
f 759 771 760
f 760 771 772
f 760 772 761
f 761 772 773
f 761 773 762
f 762 773 774
f 762 774 763
f 763 774 775
f 775 776 763
f 765 764 778
f 778 764 777
f 778 766 765
f 778 779 766
f 779 767 766
f 779 780 767
f 780 768 767
f 780 781 768
f 781 769 768
f 781 782 769
f 782 770 769
f 782 783 770
f 783 771 770
f 783 784 771
f 784 772 771
f 784 785 772
f 785 773 772
f 785 786 773
f 786 774 773
f 786 787 774
f 787 775 774
f 787 788 775
f 788 789 775
f 775 789 776
f 778 777 791
f 791 777 790
f 791 779 778
f 791 792 779
f 792 780 779
f 792 793 780
f 793 781 780
f 793 794 781
f 794 782 781
f 794 795 782
f 795 783 782
f 795 796 783
f 796 784 783
f 796 797 784
f 797 785 784
f 797 798 785
f 798 786 785
f 798 799 786
f 799 787 786
f 799 800 787
f 800 788 787
f 800 801 788
f 801 802 788
f 788 802 789
f 791 790 804
f 804 790 803
f 804 792 791
f 804 805 792
f 805 793 792
f 805 806 793
f 806 794 793
f 806 807 794
f 807 795 794
f 807 808 795
f 808 796 795
f 808 809 796
f 809 797 796
f 809 810 797
f 810 798 797
f 810 811 798
f 811 799 798
f 811 812 799
f 812 800 799
f 812 813 800
f 813 801 800
f 813 814 801
f 814 815 801
f 801 815 802
f 804 803 817
f 817 803 816
f 817 805 804
f 817 818 805
f 818 806 805
f 818 819 806
f 819 807 806
f 819 820 807
f 820 808 807
f 820 821 808
f 821 809 808
f 821 822 809
f 822 810 809
f 822 823 810
f 823 811 810
f 823 824 811
f 824 812 811
f 824 825 812
f 825 813 812
f 825 826 813
f 826 814 813
f 826 827 814
f 827 828 814
f 814 828 815
f 817 816 830
f 830 816 829
f 830 818 817
f 830 831 818
f 831 819 818
f 831 832 819
f 832 820 819
f 832 833 820
f 833 821 820
f 833 834 821
f 834 822 821
f 834 835 822
f 835 823 822
f 835 836 823
f 836 824 823
f 836 837 824
f 837 825 824
f 837 838 825
f 838 826 825
f 838 839 826
f 839 827 826
f 839 840 827
f 840 841 827
f 827 841 828
f 830 829 843
f 843 829 842
f 843 831 830
f 843 844 831
f 844 832 831
f 844 845 832
f 845 833 832
f 845 846 833
f 846 834 833
f 846 847 834
f 847 835 834
f 847 848 835
f 848 836 835
f 848 849 836
f 849 837 836
f 849 850 837
f 850 838 837
f 850 851 838
f 851 839 838
f 851 852 839
f 852 840 839
f 852 853 840
f 853 854 840
f 840 854 841
f 843 842 856
f 856 842 855
f 856 844 843
f 856 857 844
f 857 845 844
f 857 858 845
f 858 846 845
f 858 859 846
f 859 847 846
f 859 860 847
f 860 848 847
f 860 861 848
f 861 849 848
f 861 862 849
f 862 850 849
f 862 863 850
f 863 851 850
f 863 864 851
f 864 852 851
f 864 865 852
f 865 853 852
f 865 866 853
f 866 868 853
f 853 868 854
f 856 855 870
f 870 855 869
f 870 857 856
f 870 872 857
f 872 858 857
f 872 873 858
f 873 859 858
f 873 874 859
f 874 860 859
f 874 875 860
f 875 861 860
f 875 876 861
f 876 862 861
f 876 877 862
f 877 863 862
f 877 878 863
f 878 864 863
f 878 879 864
f 879 865 864
f 879 880 865
f 867 866 882
f 866 880 882
f 866 865 880
f 867 868 866
f 869 871 870
f 883 884 871
f 884 870 871
f 884 872 870
f 884 873 872
f 884 886 873
f 886 874 873
f 886 887 874
f 887 875 874
f 887 888 875
f 888 876 875
f 888 889 876
f 889 877 876
f 889 890 877
f 890 878 877
f 890 891 878
f 891 879 878
f 891 892 879
f 881 880 894
f 880 892 894
f 880 879 892
f 881 882 880
f 883 885 884
f 895 896 885
f 896 884 885
f 896 886 884
f 896 887 886
f 896 898 887
f 898 888 887
f 898 900 888
f 900 889 888
f 900 902 889
f 902 890 889
f 902 904 890
f 904 891 890
f 904 906 891
f 893 892 908
f 892 906 908
f 892 891 906
f 893 894 892
f 895 897 896
f 896 897 898
f 898 897 899
f 898 899 900
f 900 899 901
f 900 901 902
f 902 901 903
f 902 903 904
f 904 903 905
f 904 905 906
f 906 905 907
f 907 908 906

