# https://github.com/mikedh/trimesh
v -0.72481984 -0.67941177 -0.30882353
v -0.74117649 -0.67941177 -0.18529412
v -0.74117649 -0.67941177 -0.06176471
v -0.74117649 -0.67941177 0.06176471
v -0.72692311 -0.67941177 0.18529412
v -0.74117649 -0.55588233 -0.18529412
v -0.74117649 -0.55588233 -0.06176471
v -0.74117649 -0.55588233 0.06176471
v -0.74117649 -0.43235293 -0.18529412
v -0.74117649 -0.43235293 -0.06176471
v -0.74117649 -0.43235293 0.06176471
v -0.73771113 -0.30882353 -0.30882353
v -0.74117649 -0.30882353 -0.18529412
v -0.74117649 -0.30882353 -0.06176471
v -0.74117649 -0.30882353 0.06176471
v -0.73938906 -0.30882353 0.18529412
v -0.74117649 -0.18529412 -0.30882353
v -0.74117649 -0.18529412 -0.18529412
v -0.74117649 -0.18529412 -0.06176471
v -0.74117649 -0.18529412 0.06176471
v -0.74117649 -0.18529412 0.18529412
v -0.74117649 -0.06176471 -0.30882353
v -0.74117649 -0.06176471 -0.18529412
v -0.74117649 -0.06176471 -0.06176471
v -0.74117649 -0.06176471 0.06176471
v -0.74117649 -0.06176471 0.18529412
v -0.74117649 0.06176471 -0.30882353
v -0.74117649 0.06176471 -0.18529412
v -0.74117649 0.06176471 -0.06176471
v -0.74117649 0.06176471 0.06176471
v -0.74117649 0.06176471 0.18529412
v -0.73856103 0.18529412 -0.30882353
v -0.74117649 0.18529412 -0.18529412
v -0.74117649 0.18529412 -0.06176471
v -0.74117649 0.18529412 0.06176471
v -0.73999625 0.18529412 0.18529412
v -0.74117649 0.30882353 -0.18529412
v -0.74117649 0.30882353 -0.06176471
v -0.74117649 0.30882353 0.06176471
v -0.68498695 0.30882353 0.18529412
v -0.74117649 0.43235293 -0.18529412
v -0.74117649 0.43235293 -0.06176471
v -0.74117649 0.43235293 0.06176471
v -0.72633380 0.55588233 -0.30882353
v -0.74117649 0.55588233 -0.18529412
v -0.74117649 0.55588233 -0.06176471
v -0.74117649 0.55588233 0.06176471
v -0.72863775 0.55588233 0.18529412
v -0.56437528 -0.92647058 -0.30882353
v -0.55948937 -0.92647058 0.18529412
v -0.61764705 -0.80294120 -0.30882353
v -0.67941177 -0.72481984 -0.30882353
v -0.61764705 -0.80294120 -0.18529412
v -0.67941177 -0.74117649 -0.18529412
v -0.62427235 -0.80294120 -0.06176471
v -0.67941177 -0.74780172 -0.06176471
v -0.61764705 -0.80294120 0.06176471
v -0.67941177 -0.74117649 0.06176471
v -0.61764705 -0.80294120 0.18529412
v -0.67941177 -0.72692311 0.18529412
v -0.61764705 -0.67941177 -0.43235293
v -0.67941177 -0.67941177 -0.35423160
v -0.67941177 -0.63382351 -0.30882353
v -0.67941177 -0.63134587 0.18529412
v -0.67941177 -0.67941177 0.23280537
v -0.61764705 -0.67941177 0.30882353
v -0.61764705 -0.55588233 -0.43235293
v -0.61784065 -0.55588233 -0.30882353
v -0.67941177 -0.55588233 -0.24725243
v -0.67941177 -0.55588233 0.12411397
v -0.61823153 -0.55588233 0.18529412
v -0.61764705 -0.55588233 0.30882353
v -0.61764705 -0.43235293 -0.43235293
v -0.67296314 -0.43235293 -0.30882353
v -0.67941177 -0.42518228 -0.30882353
v -0.67941177 -0.43235293 -0.30237490
v -0.67941177 -0.43235293 0.18421784
v -0.67833549 -0.43235293 0.18529412
v -0.67941177 -0.43121317 0.18529412
v -0.61764705 -0.43235293 0.30882353
v -0.61764705 -0.30882353 -0.43235293
v -0.67941177 -0.30882353 -0.36712289
v -0.67941177 -0.30882353 0.24527146
v -0.61764705 -0.30882353 0.30882353
v -0.61764705 -0.18529412 -0.43235293
v -0.67941177 -0.18529412 -0.37058824
v -0.67941177 -0.18529412 0.24705882
v -0.61764705 -0.18529412 0.30882353
v -0.59512728 -0.06176471 -0.55588233
v -0.61764705 -0.06176471 -0.43235293
v -0.67941177 -0.06176471 -0.37058824
v -0.67941177 -0.06176471 0.24705882
v -0.61764705 -0.06176471 0.30882353
v -0.59137297 -0.06176471 0.43235293
v -0.61764705 0.06176471 -0.43235293
v -0.67941177 0.06176471 -0.37058824
v -0.67941177 0.06176471 0.24705882
v -0.61764705 0.06176471 0.30882353
v -0.61764705 0.18529412 -0.43235293
v -0.67941177 0.18529412 -0.36797279
v -0.67941177 0.30727413 -0.30882353
v -0.67941177 0.18529412 0.24587864
v -0.61764705 0.18529412 0.30882353
v -0.61764705 0.30882353 -0.43235293
v -0.67798686 0.30882353 -0.30882353
v -0.67941177 0.30882353 -0.30739859
v -0.67941177 0.31467828 0.18529412
v -0.67941177 0.30882353 0.19086921
v -0.61764705 0.30882353 0.30882353
v -0.61764705 0.43235293 -0.43235293
v -0.61902839 0.43235293 -0.30882353
v -0.67941177 0.50765175 -0.30882353
v -0.67941177 0.43235293 -0.24844016
v -0.67941177 0.43235293 0.12511308
v -0.61923081 0.43235293 0.18529412
v -0.67941177 0.50512999 0.18529412
v -0.61764705 0.43235293 0.30882353
v -0.61764705 0.55588233 -0.43235293
v -0.67941177 0.55588233 -0.35574558
v -0.67941177 0.60280436 -0.30882353
v -0.67941177 0.61764705 -0.18529412
v -0.67941177 0.62356967 -0.06176471
v -0.67941177 0.61764705 0.06176471
v -0.67941177 0.60510826 0.18529412
v -0.67941177 0.55588233 0.23452017
v -0.61764705 0.55588233 0.30882353
v -0.61764705 0.67941177 -0.30882353
v -0.61764705 0.67941177 -0.18529412
v -0.62356973 0.67941177 -0.06176471
v -0.61764705 0.67941177 0.06176471
v -0.61764705 0.67941177 0.18529412
v -0.55948937 0.80294120 -0.30882353
v -0.55588233 -0.93496352 -0.30882353
v -0.55588233 -0.93007761 0.18529412
v -0.55588233 -0.92647058 -0.31731647
v -0.54738945 -0.92647058 -0.30882353
v -0.55588233 -0.92647058 -0.30033061
v -0.55588233 -0.86470586 -0.18529412
v -0.55588233 -0.86470586 -0.06176471
v -0.55588233 -0.86470586 0.06176471
v -0.55588233 -0.92647058 0.18168710
v -0.55227530 -0.92647058 0.18529424
v -0.55588233 -0.92647058 0.18890125
v -0.49823529 -0.80294120 -0.43235293
v -0.55588233 -0.74529409 -0.43235293
v -0.55588233 -0.80294120 -0.37470588
v -0.55588233 -0.80294120 0.24884619
v -0.49590507 -0.80294120 0.30882353
v -0.55588233 -0.74296385 0.30882353
v -0.49411765 -0.67941177 -0.55588233
v -0.55588233 -0.67941177 -0.49411765
v -0.55588233 -0.67941177 0.37058824
v -0.49411765 -0.67941177 0.43235293
v -0.49411765 -0.55588233 -0.55588233
v -0.55588233 -0.55588233 -0.49411765
v -0.55588233 -0.55588233 0.37058824
v -0.49411765 -0.55588233 0.43235293
v -0.49411765 -0.43235293 -0.55588233
v -0.55588233 -0.43235293 -0.49411765
v -0.55588233 -0.43235293 0.37058824
v -0.49411765 -0.43235293 0.43235293
v -0.49411765 -0.30882353 -0.55588233
v -0.55588233 -0.30882353 -0.49411765
v -0.55588233 -0.30882353 0.37058824
v -0.49411765 -0.30882353 0.43235293
v -0.52219248 -0.18529412 -0.55588233
v -0.55588233 -0.13018809 -0.55588233
v -0.55588233 -0.18529412 -0.52219248
v -0.55588233 -0.18529412 0.39221898
v -0.51574832 -0.18529418 0.43235281
v -0.55588233 -0.11807319 0.43235293
v -0.55588233 -0.06176471 -0.59512728
v -0.55588233 0.00985348 -0.55588233
v -0.55588233 0.00000000 0.43235293
v -0.55588233 -0.06176471 0.46784353
v -0.52471137 0.06176471 -0.55588233
v -0.55588233 0.06176471 -0.52471137
v -0.55588233 0.06176471 0.39686233
v -0.52039176 0.06176471 0.43235293
v -0.49411765 0.18529412 -0.55588233
v -0.55588233 0.18529412 -0.49411765
v -0.55588233 0.18529412 0.37058824
v -0.49411765 0.18529412 0.43235293
v -0.49411765 0.30882353 -0.55588233
v -0.55588233 0.30882353 -0.49411765
v -0.55588233 0.30882353 0.37058824
v -0.49411765 0.30882353 0.43235293
v -0.49411765 0.43235293 -0.55588233
v -0.55588233 0.43235293 -0.49411765
v -0.55588233 0.43235293 0.37058824
v -0.49411765 0.43235293 0.43235293
v -0.49411765 0.55588233 -0.55588233
v -0.55588233 0.55588233 -0.49411765
v -0.55588233 0.61923075 -0.43235293
v -0.55588233 0.61784059 0.30882353
v -0.55588233 0.55588233 0.37058824
v -0.49411765 0.55588233 0.43235293
v -0.49570137 0.67941177 -0.43235293
v -0.55588233 0.67941177 -0.37217197
v -0.55588233 0.74117649 -0.18529412
v -0.55588233 0.74117649 -0.06176471
v -0.55588233 0.74117649 0.06176471
v -0.55588233 0.80056316 0.18529412
v -0.55588233 0.67941177 0.24725249
v -0.49431127 0.67941177 0.30882353
v -0.55588233 0.80294120 -0.31243053
v -0.55227530 0.80294120 -0.30882353
v -0.55588233 0.80654818 -0.30882353
v -0.55588233 0.80294120 -0.30521646
v -0.31827092 -0.92647058 -0.55588233
v -0.43235293 -0.86470586 -0.43235293
v -0.43235293 -0.86470586 -0.30882353
v -0.43235293 -0.86470586 -0.18529412
v -0.43235293 -0.86470586 -0.06176471
v -0.43235293 -0.86470586 0.06176471
v -0.43235293 -0.86470586 0.18529412
v -0.43235293 -0.86470586 0.30882353
v -0.31566092 -0.92647058 0.43235293
v -0.37405357 -0.80294120 -0.55588233
v -0.43235293 -0.74464184 -0.55588233
v -0.43235293 -0.80294120 -0.49758300
v -0.43235293 -0.80294120 0.37383899
v -0.37383899 -0.80294120 0.43235293
v -0.43235293 -0.74442720 0.43235293
v -0.35529757 -0.67941177 -0.67941177
v -0.43235293 -0.67941177 -0.61764705
v -0.43235293 -0.67941177 0.49411765
v -0.35846615 -0.67941177 0.55588233
v -0.43235293 -0.55588233 -0.61764705
v -0.43235293 -0.55588233 0.49411765
v -0.43235293 -0.43235293 -0.61764705
v -0.43235293 -0.43235293 0.49411765
v -0.31151405 -0.43235293 0.55588233
v -0.37019977 -0.30882353 -0.67941177
v -0.43235293 -0.30882353 -0.61764705
v -0.43235293 -0.30882353 0.49411765
v -0.37058824 -0.30882353 0.55588233
v -0.37058824 -0.18529412 -0.67941177
v -0.43235293 -0.18529412 -0.61764705
v -0.43235293 -0.18529412 0.49411765
v -0.37058824 -0.18529412 0.55588233
v -0.37058824 -0.06176471 -0.67941177
v -0.43235293 -0.06176471 -0.61764705
v -0.43235293 -0.06176471 0.49570131
v -0.37217197 -0.06176471 0.55588222
v -0.37058824 0.06176471 -0.67941177
v -0.43235293 0.06176471 -0.61764705
v -0.43235293 0.06176471 0.49411765
v -0.37058824 0.06176471 0.55588233
v -0.37039462 0.18529412 -0.67941177
v -0.43235293 0.18529412 -0.61764705
v -0.43235293 0.18529412 0.49411765
v -0.37058824 0.18529412 0.55588233
v -0.31448662 0.30882353 -0.67941177
v -0.43235293 0.30882353 -0.61764705
v -0.43235293 0.30882353 0.49411765
v -0.32300463 0.30882353 0.55588233
v -0.43235293 0.43235293 -0.61764705
v -0.43235293 0.43235293 0.49411765
v -0.35748664 0.55588233 -0.67941177
v -0.43235293 0.55588233 -0.61764705
v -0.43235293 0.61984581 -0.55588233
v -0.43235293 0.61842883 0.43235293
v -0.43235293 0.55588233 0.49411765
v -0.36035034 0.55588233 0.55588233
v -0.37278697 0.67941177 -0.55588233
v -0.43235293 0.67941177 -0.49631640
v -0.43235293 0.74117649 -0.43235293
v -0.43235293 0.74117649 -0.30882353
v -0.43235293 0.74117649 -0.18529412
v -0.43235293 0.74117649 -0.06176471
v -0.43235293 0.74117649 0.06176471
v -0.43235293 0.74117649 0.18529412
v -0.43235293 0.74117649 0.30882353
v -0.43235293 0.67941177 0.37137011
v -0.37137005 0.67941177 0.43235293
v -0.31125960 0.80294120 -0.55588233
v -0.31604722 0.80294120 0.43235293
v -0.30882353 -0.93591803 -0.55588233
v -0.30882353 -0.93330801 0.43235293
v -0.30882353 -0.92647058 -0.56532973
v -0.29937613 -0.92647058 -0.55588233
v -0.30882353 -0.92647058 -0.54643494
v -0.30882353 -0.86470586 -0.43235293
v -0.30882353 -0.86470586 -0.30882353
v -0.30882353 -0.86470586 -0.18529412
v -0.30882353 -0.86470586 -0.06176471
v -0.30882353 -0.86470586 0.06176471
v -0.30882353 -0.86470586 0.18529412
v -0.30882353 -0.86470586 0.30882353
v -0.30882353 -0.92647058 0.42551556
v -0.30198607 -0.92647058 0.43235293
v -0.30882353 -0.92647058 0.43919033
v -0.30882353 -0.72588581 -0.67941177
v -0.30882353 -0.80294120 -0.61764705
v -0.30882353 -0.80294120 0.49411765
v -0.30882353 -0.72905445 0.55588233
v -0.30882353 -0.67941177 -0.72588581
v -0.30882353 -0.63238776 -0.67941177
v -0.30882353 -0.62784123 0.55588233
v -0.30882353 -0.67941177 0.60552496
v -0.24764332 -0.55588233 -0.67941177
v -0.30882353 -0.55588233 -0.61823153
v -0.30882353 -0.55588233 0.49610999
v -0.24905123 -0.55588233 0.55588233
v -0.30882353 -0.43521872 0.55588233
v -0.30623701 -0.43235299 -0.67941177
v -0.30882353 -0.42973432 -0.67941177
v -0.30882359 -0.43235299 -0.67682523
v -0.30882353 -0.43235293 0.55857295
v -0.30882353 -0.30882353 -0.74078798
v -0.30882353 -0.30882353 0.61764705
v -0.30882353 -0.18529412 -0.74117649
v -0.30882353 -0.18529412 0.61764705
v -0.30882353 -0.06176471 -0.74117649
v -0.30882353 -0.06176471 0.61764705
v -0.30882353 0.06176471 -0.74117649
v -0.30882353 0.06176471 0.61764705
v -0.30882353 0.18529412 -0.74098283
v -0.30882353 0.18529412 0.61764705
v -0.30882353 0.30882353 -0.68507487
v -0.30882353 0.31504303 -0.67941177
v -0.30882353 0.32560417 0.55588245
v -0.30882353 0.30882353 0.57006347
v -0.25009647 0.43235293 -0.67941177
v -0.30882353 0.50428766 -0.67941177
v -0.30882353 0.43235293 -0.62068468
v -0.30882353 0.43235293 0.50004029
v -0.25298151 0.43235293 0.55588233
v -0.30882353 0.49850252 0.55588233
v -0.30882353 0.55588233 -0.72807491
v -0.30882353 0.60454553 -0.67941177
v -0.30882353 0.60740930 0.55588245
v -0.30882353 0.55588245 0.60740930
v -0.30882353 0.67941177 -0.61764705
v -0.30882353 0.74117649 -0.43235293
v -0.30882353 0.74117649 -0.30882353
v -0.30882353 0.74117649 -0.18529412
v -0.30882353 0.74117649 -0.06176471
v -0.30882353 0.74117649 0.06176471
v -0.30882353 0.74117649 0.18529412
v -0.30882353 0.74117649 0.30882353
v -0.30882353 0.67941177 0.49411765
v -0.30882353 0.80294120 -0.55831844
v -0.30638745 0.80294108 -0.55588233
v -0.30882353 0.80537719 -0.55588233
v -0.30882353 0.80294108 -0.55344629
v -0.30882353 0.80294120 0.42512926
v -0.30159986 0.80294120 0.43235293
v -0.30882353 0.81016487 0.43235293
v -0.30882353 0.80294120 0.43957663
v -0.18529412 -0.86470586 -0.55588233
v -0.18529412 -0.86470586 -0.43235293
v -0.18529412 -0.86470586 -0.30882353
v -0.18529412 -0.86470586 -0.18529412
v -0.18529412 -0.86470586 -0.06176471
v -0.18529412 -0.86470586 0.06176471
v -0.18529412 -0.86470586 0.18529412
v -0.18529412 -0.86470586 0.30882353
v -0.18529412 -0.86470586 0.43235293
v -0.18529412 -0.74117649 -0.67941177
v -0.18529412 -0.80294120 -0.61764705
v -0.18529412 -0.80294120 0.49411765
v -0.18529412 -0.74117649 0.55588233
v -0.18529412 -0.67941177 -0.74117649
v -0.18529412 -0.67941177 0.61764705
v -0.18529412 -0.55588233 -0.74117649
v -0.18529412 -0.55588233 0.61764705
v -0.18529412 -0.43235293 -0.74117649
v -0.18529412 -0.43235293 0.61764705
v -0.18529412 -0.30882353 -0.74117649
v -0.18529412 -0.30882353 0.61764705
v -0.18529412 -0.18529412 -0.74117649
v -0.18529412 -0.18529412 0.61764705
v -0.18529412 -0.06176471 -0.74117649
v -0.18529412 -0.06176471 0.61764705
v -0.18529412 0.06176471 -0.74117649
v -0.18529412 0.06176471 0.61764705
v -0.18529412 0.18529412 -0.74117649
v -0.18529412 0.18529412 0.61764705
v -0.18529412 0.30882353 -0.74117649
v -0.18529412 0.30882353 0.61764705
v -0.18529412 0.43235293 -0.74117649
v -0.18529412 0.43235293 0.61764705
v -0.18529412 0.55588233 -0.74117649
v -0.18529412 0.61764705 -0.67941177
v -0.18529412 0.61764705 0.55588233
v -0.18529412 0.55588233 0.61764705
v -0.18529412 0.67941177 -0.61764705
v -0.18529412 0.74117649 -0.55588233
v -0.18529412 0.74117649 -0.43235293
v -0.18529412 0.74117649 -0.30882353
v -0.18529412 0.74117649 -0.18529412
v -0.18529412 0.74117649 -0.06176471
v -0.18529412 0.74117649 0.06176471
v -0.18529412 0.74117649 0.18529412
v -0.18529412 0.74117649 0.30882353
v -0.18529412 0.74117649 0.43235293
v -0.18529412 0.67941177 0.49411765
v -0.06176471 -0.86470586 -0.55588233
v -0.06176471 -0.86470586 -0.43235293
v -0.06176471 -0.86470586 -0.30882353
v -0.06176471 -0.86470586 -0.18529412
v -0.06176471 -0.86470586 -0.06176471
v -0.06176471 -0.86470586 0.06176471
v -0.06176471 -0.86470586 0.18529412
v -0.06176471 -0.86470586 0.30882353
v -0.06176471 -0.86470586 0.43235293
v -0.06176471 -0.74851912 -0.67941177
v -0.06176471 -0.80294120 -0.62498975
v -0.06176471 -0.80294120 0.50422454
v -0.06176471 -0.75128341 0.55588233
v -0.06176471 -0.67941177 -0.74117649
v -0.06176471 -0.67941177 0.61764705
v -0.06176471 -0.55588233 -0.74117649
v -0.06176471 -0.55588233 0.61764705
v -0.06176471 -0.43235293 -0.74117649
v -0.06176471 -0.43235293 0.61764705
v -0.06176471 -0.30882353 -0.74117649
v -0.06176471 -0.30882353 0.61764705
v -0.06176471 -0.18529412 -0.74117649
v -0.06176471 -0.18529412 0.61764705
v -0.06176471 -0.06176471 -0.74117649
v -0.06176471 -0.06176471 0.61764705
v -0.06176471 0.06176471 -0.74117649
v -0.06176471 0.06176471 0.61764705
v -0.06176471 0.18529412 -0.74117649
v -0.06176471 0.18529412 0.61764705
v -0.06176471 0.30882353 -0.74117649
v -0.06176471 0.30882353 0.61764705
v -0.06176471 0.43235293 -0.74117649
v -0.06176471 0.43235293 0.61764705
v -0.06176471 0.55588233 -0.74117649
v -0.06176471 0.62198508 -0.67941177
v -0.06176471 0.62634474 0.55588233
v -0.06176471 0.55588233 0.61764705
v -0.06176471 0.67941165 -0.62198508
v -0.06176471 0.74117649 -0.55588233
v -0.06176471 0.74117649 -0.43235293
v -0.06176471 0.74117649 -0.30882353
v -0.06176471 0.74117649 -0.18529412
v -0.06176471 0.74117649 -0.06176471
v -0.06176471 0.74117649 0.06176471
v -0.06176471 0.74117649 0.18529412
v -0.06176471 0.74117649 0.30882353
v -0.06176471 0.74117649 0.43235293
v -0.06176471 0.67941177 0.50281531
v 0.18082924 -0.92647058 -0.55588233
v 0.06176471 -0.86470586 -0.55588233
v 0.06176471 -0.86470586 -0.43235293
v 0.06176471 -0.86470586 -0.30882353
v 0.06176471 -0.86470586 -0.18529412
v 0.06176471 -0.86470586 -0.06176471
v 0.06176471 -0.86470586 0.06176471
v 0.06176471 -0.86470586 0.18529412
v 0.06176471 -0.86470586 0.30882353
v 0.06176471 -0.86470586 0.43235293
v 0.06176471 -0.74117649 -0.67941177
v 0.06176471 -0.80294120 -0.61764705
v 0.06176471 -0.80294120 0.49411765
v 0.06176471 -0.74117649 0.55588233
v 0.06176471 -0.67941177 -0.74117649
v 0.06176471 -0.67941177 0.61764705
v 0.06176471 -0.55588233 -0.74117649
v 0.12411397 -0.55588233 -0.67941177
v 0.12572816 -0.55588233 0.55588233
v 0.06176471 -0.55588233 0.61764705
v 0.06176471 -0.43235293 -0.74117649
v 0.18509243 -0.43235293 -0.67941177
v 0.06176471 -0.43235293 0.61764705
v 0.06176471 -0.30882353 -0.74117649
v 0.06176471 -0.30882353 0.61764705
v 0.06176471 -0.18529412 -0.74117649
v 0.06176471 -0.18529412 0.61764705
v 0.06176471 -0.06176471 -0.74117649
v 0.06176471 -0.06176471 0.61764705
v 0.06176471 0.06176471 -0.74117649
v 0.06176471 0.06176471 0.61764705
v 0.06176471 0.18529412 -0.74117649
v 0.06176471 0.18529412 0.61764705
v 0.06176471 0.30882353 -0.74117649
v 0.06176471 0.30882353 0.61764705
v 0.06176471 0.43235293 -0.74117649
v 0.12678017 0.43235293 -0.67941177
v 0.12876369 0.43235293 0.55588233
v 0.06176471 0.43235293 0.61764705
v 0.06176471 0.55588233 -0.74117649
v 0.06176471 0.61764705 -0.67941177
v 0.06176471 0.61764705 0.55588233
v 0.06176471 0.55588233 0.61764705
v 0.06176471 0.67941177 -0.61764705
v 0.06176471 0.74117649 -0.55588233
v 0.06176471 0.74117649 -0.43235293
v 0.06176471 0.74117649 -0.30882353
v 0.06176471 0.74117649 -0.18529412
v 0.06176471 0.74117649 -0.06176471
v 0.06176471 0.74117649 0.06176471
v 0.06176471 0.74117649 0.18529412
v 0.06176471 0.74117649 0.30882353
v 0.06176471 0.74117649 0.43235293
v 0.06176471 0.67941177 0.49411765
v 0.18193768 0.80294120 0.43235293
v 0.18529412 -0.93093550 -0.55588233
v 0.18529412 -0.92647058 -0.56034726
v 0.18975912 -0.92647058 -0.55588233
v 0.18529412 -0.92647058 -0.55141741
v 0.18529412 -0.86470586 -0.43235293
v 0.18529412 -0.86470586 -0.30882353
v 0.18529412 -0.86470586 -0.18529412
v 0.18529412 -0.86470586 -0.06176471
v 0.18529412 -0.86470586 0.06176471
v 0.18529412 -0.86470586 0.18529412
v 0.18529412 -0.86470586 0.30882353
v 0.18529412 -0.92644364 0.43235293
v 0.18529412 -0.72735912 -0.67941177
v 0.18529412 -0.80294120 -0.61764705
v 0.24946526 -0.80294120 -0.55588233
v 0.24884619 -0.80294120 0.43235293
v 0.18529412 -0.80294120 0.49411765
v 0.18529412 -0.72987390 0.55588233
v 0.18529412 -0.67941177 -0.72735912
v 0.23324150 -0.67941177 -0.67941177
v 0.18529412 -0.63090795 -0.67941177
v 0.23575620 -0.67941177 0.55588233
v 0.18529412 -0.62681061 0.55588233
v 0.18529412 -0.67941177 0.60634446
v 0.18529412 -0.55588233 -0.61823153
v 0.18529412 -0.55588233 0.49631640
v 0.18529412 -0.43703890 0.55588233
v 0.18529424 -0.43214989 -0.67941177
v 0.18529412 -0.43235293 -0.67921001
v 0.18966934 -0.43235293 0.55588233
v 0.18529412 -0.43235293 0.56025755
v 0.18529412 -0.30882353 -0.74098283
v 0.24686515 -0.30882353 -0.67941177
v 0.24705882 -0.30882353 0.55588233
v 0.18529412 -0.30882353 0.61764705
v 0.18529412 -0.18529412 -0.74117649
v 0.24705882 -0.18529412 -0.67941177
v 0.24705882 -0.18529412 0.55588233
v 0.18529412 -0.18529412 0.61764705
v 0.18529412 -0.06176471 -0.74117649
v 0.24705882 -0.06176471 -0.67941177
v 0.24764338 -0.06176471 0.55588233
v 0.18529412 -0.06176471 0.61764705
v 0.18529412 0.06176471 -0.74117649
v 0.24705882 0.06176471 -0.67941177
v 0.24705882 0.06176471 0.55588233
v 0.18529412 0.06176471 0.61764705
v 0.18529412 0.18529412 -0.74098283
v 0.24686515 0.18529412 -0.67941177
v 0.24705882 0.18529412 0.55588233
v 0.18529412 0.18529412 0.61764705
v 0.18529412 0.30882353 -0.68676364
v 0.19264597 0.30882353 -0.67941177
v 0.18529412 0.31693864 -0.67941177
v 0.20155241 0.30882353 0.55588233
v 0.18529424 0.32763410 0.55588233
v 0.18529412 0.30882353 0.57214063
v 0.18529412 0.50322247 -0.67941177
v 0.18529412 0.43235293 -0.62089783
v 0.18529412 0.43235293 0.49935192
v 0.18529412 0.49892569 0.55588233
v 0.18529412 0.55588233 -0.72891605
v 0.23479831 0.55588222 -0.67941177
v 0.18529400 0.60538656 -0.67941177
v 0.23708235 0.55588245 0.55588245
v 0.18529424 0.60767061 0.55588245
v 0.18529424 0.55588245 0.60767061
v 0.18529412 0.67941177 -0.61764705
v 0.24925756 0.67941177 -0.55588233
v 0.18529412 0.80178195 -0.55588233
v 0.18529412 0.74117649 -0.43235293
v 0.18529412 0.74117649 -0.30882353
v 0.18529412 0.74117649 -0.18529412
v 0.18529412 0.74117649 -0.06176471
v 0.18529412 0.74117649 0.06176471
v 0.18529412 0.74117649 0.18529412
v 0.18529412 0.74117649 0.30882353
v 0.24784070 0.67941177 0.43235293
v 0.18529412 0.67941177 0.49411765
v 0.18529412 0.80294120 0.42899650
v 0.18867105 0.80294120 0.43235293
v 0.18529412 0.80629760 0.43235293
v 0.18529412 0.80294120 0.43570939
v 0.30882353 -0.86470586 -0.43235293
v 0.42744145 -0.92647058 -0.30882353
v 0.30882353 -0.86470586 -0.30882353
v 0.30882353 -0.86470586 -0.18529412
v 0.30882353 -0.86470586 -0.06176471
v 0.30882353 -0.86470586 0.06176471
v 0.43205807 -0.92647058 0.18529412
v 0.30882353 -0.86470586 0.18529412
v 0.30882353 -0.86470586 0.30882353
v 0.30882353 -0.74358290 -0.55588233
v 0.30882353 -0.80294120 -0.49652410
v 0.37405363 -0.80294120 -0.43235293
v 0.37137011 -0.80294120 0.30882353
v 0.30882353 -0.80294120 0.37237561
v 0.30882353 -0.74296385 0.43235293
v 0.30882353 -0.67941177 -0.61764705
v 0.37058824 -0.67941177 -0.55588233
v 0.37058824 -0.67941177 0.43235293
v 0.30882353 -0.67941177 0.49411765
v 0.30882353 -0.55588233 -0.61764705
v 0.37058824 -0.55588233 -0.55588233
v 0.37058824 -0.55588233 0.43235293
v 0.30882353 -0.55588233 0.49411765
v 0.30882353 -0.43235293 -0.61764705
v 0.37058824 -0.43235293 -0.55588233
v 0.37058824 -0.43235293 0.43235293
v 0.30882353 -0.43235293 0.49411765
v 0.30882353 -0.30882353 -0.61764705
v 0.37058824 -0.30882353 -0.55588233
v 0.37058824 -0.30882353 0.43235293
v 0.30882353 -0.30882353 0.49411765
v 0.30882353 -0.18529412 -0.61764705
v 0.39785367 -0.18529412 -0.55588233
v 0.39239523 -0.18529412 0.43235293
v 0.30882353 -0.18529412 0.49411765
v 0.30882353 -0.06176471 -0.61764705
v 0.30882353 -0.06176471 0.49470219
v 0.30882353 0.06176471 -0.61764705
v 0.39948732 0.06176471 -0.55588233
v 0.39686233 0.06176471 0.43235293
v 0.30882353 0.06176471 0.49411765
v 0.30882353 0.18529412 -0.61764705
v 0.37058824 0.18529412 -0.55588233
v 0.37058824 0.18529412 0.43235293
v 0.30882353 0.18529412 0.49411765
v 0.30882353 0.30882353 -0.61764705
v 0.37058824 0.30882353 -0.55588233
v 0.37058824 0.30882353 0.43235293
v 0.30882353 0.30882353 0.49411765
v 0.30882353 0.43235293 -0.61764705
v 0.37058824 0.43235293 -0.55588233
v 0.37058824 0.43235293 0.43235293
v 0.30882353 0.43235293 0.49411765
v 0.30882353 0.55588233 -0.61764705
v 0.37058824 0.55588233 -0.55588233
v 0.30882353 0.61984581 -0.55588233
v 0.37058824 0.55588233 0.43235293
v 0.30882353 0.61842883 0.43235293
v 0.30882353 0.55588233 0.49411765
v 0.30882353 0.67941177 -0.49631640
v 0.37176841 0.67941177 -0.43235293
v 0.30882353 0.74117649 -0.43235293
v 0.30882353 0.74117649 -0.30882353
v 0.30882353 0.74117649 -0.18529412
v 0.30882353 0.74117649 -0.06176471
v 0.30882353 0.74117649 0.06176471
v 0.30882353 0.74117649 0.18529412
v 0.37078190 0.67941177 0.30882353
v 0.30882353 0.74117649 0.30882353
v 0.30882353 0.67941177 0.37137011
v 0.42938599 0.80294120 -0.30882353
v 0.43235293 -0.93138212 -0.30882353
v 0.43235293 -0.92676544 0.18529412
v 0.43235293 -0.92647058 -0.31376469
v 0.43726441 -0.92647058 -0.30882353
v 0.43235293 -0.92647058 -0.30391204
v 0.43235293 -0.86470586 -0.18529412
v 0.43235293 -0.86470586 -0.06176471
v 0.43235293 -0.86470586 0.06176471
v 0.43235293 -0.92647058 0.18499924
v 0.43264782 -0.92647058 0.18529412
v 0.43235293 -0.92647058 0.18559088
v 0.43235293 -0.74464184 -0.43235293
v 0.43235293 -0.80294120 -0.37405357
v 0.49411765 -0.80294120 -0.30882353
v 0.49411765 -0.80294120 -0.18529412
v 0.50409412 -0.80294120 -0.06176471
v 0.49411765 -0.80294120 0.06176471
v 0.49411765 -0.80294120 0.18529412
v 0.43235293 -0.80294120 0.24784070
v 0.43235293 -0.74195832 0.30882353
v 0.43235293 -0.67941177 -0.49411765
v 0.49431121 -0.67941177 -0.43235293
v 0.49431121 -0.67941177 0.30882353
v 0.43235293 -0.67941177 0.37058824
v 0.43235293 -0.55588233 -0.49411765
v 0.49411765 -0.55588233 -0.43235293
v 0.49549893 -0.55588233 -0.30882353
v 0.49590501 -0.55588233 0.18529412
v 0.49411765 -0.55588233 0.30882353
v 0.43235293 -0.55588233 0.37058824
v 0.43235293 -0.43235293 -0.49411765
v 0.49411765 -0.43235293 -0.43235293
v 0.49411765 -0.43235293 0.30882353
v 0.43235293 -0.43235293 0.37058824
v 0.43235293 -0.30882353 -0.49411765
v 0.49411765 -0.30882353 -0.43235293
v 0.49411765 -0.30882353 0.30882353
v 0.43235293 -0.30882353 0.37058824
v 0.43235293 -0.13019469 -0.55588233
v 0.43235293 -0.18529412 -0.52138317
v 0.49411765 -0.18529412 -0.43235293
v 0.49411765 -0.18529412 0.30882353
v 0.43235293 -0.18529412 0.39239523
v 0.43235293 -0.12012173 0.43235293
v 0.43235293 -0.06176471 -0.59601635
v 0.47248691 -0.06176471 -0.55588233
v 0.43235293 0.00869285 -0.55588233
v 0.49470219 -0.06176471 -0.43235293
v 0.49431121 -0.06176471 0.30882353
v 0.46938470 -0.06176471 0.43235293
v 0.43235293 0.00185758 0.43235293
v 0.43235293 -0.06176471 0.46938470
v 0.43235293 0.06176471 -0.52301675
v 0.49411765 0.06176471 -0.43235293
v 0.49411765 0.06176471 0.30882353
v 0.43235293 0.06176471 0.39686233
v 0.43235293 0.18529412 -0.49411765
v 0.49411765 0.18529412 -0.43235293
v 0.49411765 0.18529412 0.30882353
v 0.43235293 0.18529412 0.37058824
v 0.43235293 0.30882353 -0.49411765
v 0.49411765 0.30882353 -0.43235293
v 0.49411765 0.30882353 0.30882353
v 0.43235293 0.30882353 0.37058824
v 0.43235293 0.43235293 -0.49411765
v 0.49411765 0.43235293 -0.43235293
v 0.49779898 0.43235293 -0.30882353
v 0.49779898 0.43235293 0.18529412
v 0.49411765 0.43235293 0.30882353
v 0.43235293 0.43235293 0.37058824
v 0.43235293 0.55588233 -0.49411765
v 0.49411765 0.55588233 -0.43235293
v 0.43235293 0.61882722 -0.43235293
v 0.49411765 0.55588233 0.30882353
v 0.43235293 0.61784059 0.30882353
v 0.43235293 0.55588233 0.37058824
v 0.43235293 0.67941177 -0.37176841
v 0.49411765 0.67941177 -0.30882353
v 0.49411765 0.67941177 -0.18529412
v 0.43235293 0.74117649 -0.18529412
v 0.50383472 0.67941177 -0.06176471
v 0.43235293 0.74117649 -0.06176471
v 0.49411765 0.67941177 0.06176471
v 0.43235293 0.74117649 0.06176471
v 0.49411765 0.67941177 0.18529412
v 0.43235293 0.80048198 0.18529412
v 0.43235293 0.67941177 0.24725249
v 0.43235293 0.80294120 -0.31179050
v 0.43531990 0.80294120 -0.30882353
v 0.43235293 0.80590814 -0.30882353
v 0.43235293 0.80294120 -0.30585656
v 0.55588233 -0.72960275 -0.30882353
v 0.55588233 -0.74117649 -0.18529412
v 0.55588245 -0.75115299 -0.06176471
v 0.55588233 -0.74117649 0.06176471
v 0.55588233 -0.73080724 0.18529412
v 0.55588233 -0.67941177 -0.35920143
v 0.60607338 -0.67941177 -0.30882353
v 0.55588233 -0.62788236 -0.30882353
v 0.61764705 -0.67941177 -0.18529412
v 0.61764705 -0.67941177 -0.06176471
v 0.61764705 -0.67941177 0.06176471
v 0.60727769 -0.67941177 0.18529400
v 0.55588233 -0.62627083 0.18529412
v 0.55588233 -0.67941177 0.23687784
v 0.55588233 -0.43666297 -0.30882353
v 0.55588222 -0.55588233 -0.24844016
v 0.61764705 -0.55588233 -0.18529412
v 0.61764705 -0.55588233 -0.06176471
v 0.61764705 -0.55588233 0.06176471
v 0.55588233 -0.55588233 0.12531678
v 0.55588233 -0.44162241 0.18529412
v 0.55588233 -0.43235293 -0.31295130
v 0.56001008 -0.43235293 -0.30882353
v 0.61764705 -0.43235293 -0.18529412
v 0.61764705 -0.43235293 -0.06176471
v 0.61764705 -0.43235293 0.06176471
v 0.56466746 -0.43235293 0.18529412
v 0.55588233 -0.43235293 0.19407921
v 0.55588233 -0.30882353 -0.37039462
v 0.61745340 -0.30882353 -0.30882353
v 0.61764705 -0.30882353 -0.18529412
v 0.61764705 -0.30882353 -0.06176471
v 0.61764705 -0.30882353 0.06176471
v 0.61764705 -0.30882353 0.18529412
v 0.55588233 -0.30882353 0.24705882
v 0.55588233 -0.18529412 -0.37058824
v 0.61764705 -0.18529412 -0.30882353
v 0.61764705 -0.18529412 -0.18529412
v 0.61764705 -0.18529412 -0.06176471
v 0.61764705 -0.18529412 0.06176471
v 0.61764705 -0.18529412 0.18529412
v 0.55588233 -0.18529412 0.24705882
v 0.55588245 -0.06176471 -0.37117273
v 0.61764705 -0.06176471 -0.30882353
v 0.61764705 -0.06176471 -0.18529412
v 0.61764705 -0.06176471 -0.06176471
v 0.61764705 -0.06176471 0.06176471
v 0.61764705 -0.06176471 0.18529412
v 0.55588233 -0.06176471 0.24725249
v 0.55588233 0.06176471 -0.37058824
v 0.61764705 0.06176471 -0.30882353
v 0.61764705 0.06176471 -0.18529412
v 0.61764705 0.06176471 -0.06176471
v 0.61764705 0.06176471 0.06176471
v 0.61764705 0.06176471 0.18529412
v 0.55588233 0.06176471 0.24705882
v 0.55588233 0.18529412 -0.37058824
v 0.61764705 0.18529412 -0.30882353
v 0.61764705 0.18529412 -0.18529412
v 0.61764705 0.18529412 -0.06176471
v 0.61764705 0.18529412 0.06176471
v 0.61764705 0.18529412 0.18529412
v 0.55588233 0.18529412 0.24705882
v 0.55588233 0.30882353 -0.31912869
v 0.56618762 0.30882353 -0.30882353
v 0.55588233 0.32031345 -0.30882353
v 0.61764705 0.30882353 -0.18529412
v 0.61764705 0.30882353 -0.06176471
v 0.61764705 0.30882353 0.06176471
v 0.57228589 0.30882353 0.18529412
v 0.55588233 0.32700053 0.18529412
v 0.55588222 0.30882353 0.20169778
v 0.55588233 0.50141269 -0.30882353
v 0.55588233 0.43235293 -0.25074017
v 0.61764705 0.43235293 -0.18529412
v 0.61764705 0.43235293 -0.06176471
v 0.61764705 0.43235293 0.06176471
v 0.55588233 0.43235293 0.12721075
v 0.55588233 0.50034195 0.18529412
v 0.55588233 0.55588233 -0.35968858
v 0.60674733 0.55588233 -0.30882353
v 0.55588233 0.60674733 -0.30882353
v 0.61764705 0.55588233 -0.18529412
v 0.55588233 0.61764705 -0.18529412
v 0.61764705 0.55588233 -0.06176471
v 0.55588233 0.62736410 -0.06176471
v 0.61764705 0.55588233 0.06176471
v 0.55588233 0.61764705 0.06176471
v 0.60780042 0.55588222 0.18529400
v 0.55588222 0.60780042 0.18529400
v 0.55588222 0.55588222 0.23721218
f 52 1 62
f 54 2 52
f 52 2 1
f 56 3 54
f 54 3 2
f 58 4 56
f 56 4 3
f 60 5 58
f 58 5 4
f 65 5 60
f 1 63 62
f 63 1 69
f 1 6 69
f 1 2 6
f 3 6 2
f 7 6 3
f 4 7 3
f 8 7 4
f 70 8 64
f 8 5 64
f 8 4 5
f 65 64 5
f 69 6 76
f 76 6 9
f 7 9 6
f 10 9 7
f 8 10 7
f 11 10 8
f 77 11 70
f 70 11 8
f 75 12 82
f 76 9 75
f 9 12 75
f 9 13 12
f 10 13 9
f 14 13 10
f 11 14 10
f 15 14 11
f 79 16 77
f 16 11 77
f 16 15 11
f 83 16 79
f 82 12 86
f 86 12 17
f 13 17 12
f 18 17 13
f 14 18 13
f 19 18 14
f 15 19 14
f 20 19 15
f 16 20 15
f 21 20 16
f 87 21 83
f 83 21 16
f 86 17 91
f 91 17 22
f 18 22 17
f 23 22 18
f 19 23 18
f 24 23 19
f 20 24 19
f 25 24 20
f 21 25 20
f 26 25 21
f 92 26 87
f 87 26 21
f 91 22 96
f 96 22 27
f 23 27 22
f 28 27 23
f 24 28 23
f 29 28 24
f 25 29 24
f 30 29 25
f 26 30 25
f 31 30 26
f 97 31 92
f 92 31 26
f 96 27 100
f 100 27 32
f 28 32 27
f 33 32 28
f 29 33 28
f 34 33 29
f 30 34 29
f 35 34 30
f 31 35 30
f 36 35 31
f 102 36 97
f 97 36 31
f 32 101 100
f 101 32 106
f 32 37 106
f 32 33 37
f 34 37 33
f 38 37 34
f 35 38 34
f 39 38 35
f 36 39 35
f 40 39 36
f 108 40 102
f 102 40 36
f 106 37 113
f 113 37 41
f 38 41 37
f 42 41 38
f 39 42 38
f 43 42 39
f 114 43 107
f 43 40 107
f 43 39 40
f 108 107 40
f 112 44 119
f 113 41 112
f 41 44 112
f 41 45 44
f 42 45 41
f 46 45 42
f 43 46 42
f 47 46 43
f 116 48 114
f 48 43 114
f 48 47 43
f 125 48 116
f 44 120 119
f 45 121 44
f 44 121 120
f 46 122 45
f 45 122 121
f 47 123 46
f 46 123 122
f 48 124 47
f 47 124 123
f 125 124 48
f 133 49 135
f 137 49 133
f 134 50 141
f 143 50 134
f 135 49 146
f 146 49 51
f 138 53 137
f 53 49 137
f 53 51 49
f 139 55 138
f 138 55 53
f 140 57 139
f 139 57 55
f 141 50 140
f 50 57 140
f 50 59 57
f 147 59 143
f 143 59 50
f 145 61 151
f 52 62 51
f 51 62 146
f 62 61 146
f 61 145 146
f 52 51 53
f 52 53 54
f 54 53 55
f 54 55 56
f 56 55 57
f 56 57 58
f 58 57 59
f 58 59 60
f 66 65 60
f 66 60 59
f 149 66 59
f 147 149 59
f 152 66 149
f 151 61 155
f 155 61 67
f 61 62 63
f 68 61 63
f 67 61 68
f 69 68 63
f 71 70 64
f 71 64 65
f 66 71 65
f 72 71 66
f 156 72 152
f 152 72 66
f 155 67 159
f 159 67 73
f 68 73 67
f 74 73 68
f 76 74 68
f 76 68 69
f 70 71 78
f 70 78 77
f 72 78 71
f 80 78 72
f 160 80 156
f 156 80 72
f 159 73 163
f 163 73 81
f 74 75 82
f 81 74 82
f 73 74 81
f 76 75 74
f 79 77 78
f 84 83 79
f 78 84 79
f 80 84 78
f 164 84 160
f 160 84 80
f 163 81 168
f 168 81 85
f 86 85 81
f 86 81 82
f 83 84 88
f 83 88 87
f 169 88 164
f 164 88 84
f 167 89 172
f 168 85 167
f 85 89 167
f 85 90 89
f 91 90 85
f 91 85 86
f 87 88 93
f 87 93 92
f 171 94 169
f 94 88 169
f 94 93 88
f 175 94 171
f 89 173 172
f 173 89 177
f 89 95 177
f 89 90 95
f 96 95 90
f 96 90 91
f 92 93 98
f 92 98 97
f 178 98 174
f 98 94 174
f 98 93 94
f 175 174 94
f 177 95 181
f 181 95 99
f 100 99 95
f 100 95 96
f 97 98 103
f 97 103 102
f 182 103 178
f 178 103 98
f 181 99 185
f 185 99 104
f 99 100 101
f 105 99 101
f 104 99 105
f 106 105 101
f 102 103 109
f 102 109 108
f 186 109 182
f 182 109 103
f 185 104 189
f 189 104 110
f 105 110 104
f 111 110 105
f 113 111 105
f 113 105 106
f 115 114 107
f 115 107 108
f 109 115 108
f 117 115 109
f 190 117 186
f 186 117 109
f 189 110 193
f 193 110 118
f 111 112 119
f 118 111 119
f 110 111 118
f 113 112 111
f 116 114 115
f 126 125 116
f 115 126 116
f 117 126 115
f 196 126 190
f 190 126 117
f 118 194 193
f 120 127 199
f 120 199 194
f 119 120 194
f 118 119 194
f 127 120 121
f 127 121 128
f 128 121 122
f 128 122 129
f 129 122 123
f 129 123 130
f 130 123 124
f 130 124 131
f 195 204 131
f 195 131 124
f 126 195 124
f 125 126 124
f 196 195 126
f 199 127 206
f 206 127 132
f 209 132 200
f 132 128 200
f 132 127 128
f 129 201 128
f 128 201 200
f 130 202 129
f 129 202 201
f 131 203 130
f 130 203 202
f 204 203 131
f 132 208 206
f 209 208 132
f 135 136 133
f 136 137 133
f 141 142 134
f 142 143 134
f 211 144 221
f 211 212 144
f 212 135 144
f 135 146 144
f 135 212 136
f 138 137 136
f 212 138 136
f 213 138 212
f 214 138 213
f 214 139 138
f 215 139 214
f 215 140 139
f 216 142 141
f 140 216 141
f 215 216 140
f 147 143 142
f 217 147 142
f 216 217 142
f 148 147 217
f 222 148 217
f 220 150 226
f 145 151 144
f 144 151 221
f 151 150 221
f 150 220 221
f 146 145 144
f 149 147 148
f 153 152 149
f 153 149 148
f 224 153 148
f 222 224 148
f 227 153 224
f 226 150 229
f 229 150 154
f 155 154 150
f 155 150 151
f 152 153 157
f 152 157 156
f 230 157 227
f 227 157 153
f 229 154 231
f 231 154 158
f 159 158 154
f 159 154 155
f 156 157 161
f 156 161 160
f 232 161 230
f 230 161 157
f 231 158 235
f 235 158 162
f 163 162 158
f 163 158 159
f 160 161 165
f 160 165 164
f 236 165 232
f 232 165 161
f 235 162 239
f 239 162 166
f 168 166 162
f 168 162 163
f 164 165 170
f 164 170 169
f 240 170 236
f 236 170 165
f 167 172 166
f 172 239 166
f 172 243 239
f 168 167 166
f 171 169 170
f 170 240 171
f 240 175 171
f 240 244 175
f 176 247 173
f 247 172 173
f 247 243 172
f 177 176 173
f 179 178 174
f 174 175 179
f 175 248 179
f 175 244 248
f 247 176 251
f 251 176 180
f 181 180 176
f 181 176 177
f 178 179 183
f 178 183 182
f 252 183 248
f 248 183 179
f 251 180 255
f 255 180 184
f 185 184 180
f 185 180 181
f 182 183 187
f 182 187 186
f 256 187 252
f 252 187 183
f 255 184 258
f 258 184 188
f 189 188 184
f 189 184 185
f 186 187 191
f 186 191 190
f 259 191 256
f 256 191 187
f 258 188 261
f 261 188 192
f 193 192 188
f 193 188 189
f 190 191 197
f 190 197 196
f 264 197 259
f 259 197 191
f 192 262 261
f 194 198 267
f 194 267 262
f 193 194 262
f 192 193 262
f 199 198 194
f 205 204 195
f 263 275 205
f 263 205 195
f 197 263 195
f 196 197 195
f 264 263 197
f 198 268 267
f 199 206 198
f 206 269 198
f 269 268 198
f 206 207 269
f 269 207 209
f 200 269 209
f 270 269 200
f 200 271 270
f 201 271 200
f 201 272 271
f 202 272 201
f 202 273 272
f 203 273 202
f 205 274 204
f 274 203 204
f 274 273 203
f 275 274 205
f 206 208 207
f 208 209 207
f 279 210 281
f 283 210 279
f 280 218 291
f 293 218 280
f 281 210 295
f 295 210 219
f 284 211 283
f 211 219 283
f 219 210 283
f 211 221 219
f 285 211 284
f 285 212 211
f 286 212 285
f 286 213 212
f 287 213 286
f 287 214 213
f 288 214 287
f 288 215 214
f 289 215 288
f 289 216 215
f 290 216 289
f 290 217 216
f 218 223 291
f 223 217 291
f 217 290 291
f 217 223 222
f 296 223 293
f 293 223 218
f 294 225 298
f 220 226 219
f 219 226 295
f 226 225 295
f 225 294 295
f 221 220 219
f 224 222 223
f 228 227 224
f 228 224 223
f 297 228 223
f 296 297 223
f 301 228 297
f 225 299 298
f 303 299 225
f 226 303 225
f 229 303 226
f 227 228 300
f 304 227 300
f 230 227 304
f 301 300 228
f 229 309 303
f 229 231 309
f 304 306 233
f 232 304 233
f 230 304 232
f 310 233 306
f 308 234 311
f 235 234 308
f 309 235 308
f 231 235 309
f 232 233 237
f 232 237 236
f 312 237 310
f 310 237 233
f 311 234 313
f 313 234 238
f 239 238 234
f 239 234 235
f 236 237 241
f 236 241 240
f 314 241 312
f 312 241 237
f 313 238 315
f 315 238 242
f 243 242 238
f 243 238 239
f 240 241 245
f 240 245 244
f 316 245 314
f 314 245 241
f 315 242 317
f 317 242 246
f 247 246 242
f 247 242 243
f 244 245 249
f 244 249 248
f 318 249 316
f 316 249 245
f 317 246 319
f 319 246 250
f 251 250 246
f 251 246 247
f 248 249 253
f 248 253 252
f 320 253 318
f 318 253 249
f 319 250 321
f 321 250 254
f 255 254 250
f 255 250 251
f 252 253 257
f 252 257 256
f 324 257 320
f 320 257 253
f 254 322 321
f 327 322 254
f 255 327 254
f 258 327 255
f 256 257 323
f 328 256 323
f 259 256 328
f 324 323 257
f 326 260 331
f 261 260 326
f 327 261 326
f 258 261 327
f 328 330 265
f 264 328 265
f 259 328 264
f 334 265 330
f 260 332 331
f 262 266 335
f 262 335 332
f 261 262 332
f 260 261 332
f 267 266 262
f 276 275 263
f 333 343 276
f 333 276 263
f 265 333 263
f 264 265 263
f 334 333 265
f 335 266 344
f 344 266 277
f 277 266 267
f 336 277 267
f 268 336 267
f 277 336 347
f 268 337 336
f 269 337 268
f 269 338 337
f 270 338 269
f 270 339 338
f 271 339 270
f 271 340 339
f 272 340 271
f 272 341 340
f 273 341 272
f 273 342 341
f 274 342 273
f 342 274 275
f 278 342 275
f 276 278 275
f 348 342 278
f 351 278 343
f 343 278 276
f 277 346 344
f 347 346 277
f 278 350 348
f 351 350 278
f 281 282 279
f 282 283 279
f 291 292 280
f 292 293 280
f 282 281 352
f 281 362 352
f 281 295 362
f 284 283 282
f 352 284 282
f 353 284 352
f 354 284 353
f 354 285 284
f 355 285 354
f 355 286 285
f 356 286 355
f 356 287 286
f 357 287 356
f 357 288 287
f 358 288 357
f 358 289 288
f 359 289 358
f 359 290 289
f 360 292 291
f 290 360 291
f 359 360 290
f 360 363 292
f 363 293 292
f 363 296 293
f 365 361 298
f 298 361 294
f 295 294 361
f 295 361 362
f 297 296 363
f 297 363 364
f 364 366 297
f 297 366 301
f 302 367 299
f 367 298 299
f 367 365 298
f 303 302 299
f 305 304 300
f 300 301 305
f 301 368 305
f 301 366 368
f 367 302 369
f 369 302 307
f 309 307 302
f 309 302 303
f 306 304 305
f 305 368 306
f 368 310 306
f 368 370 310
f 308 311 307
f 311 369 307
f 311 371 369
f 309 308 307
f 372 310 370
f 312 310 372
f 311 373 371
f 311 313 373
f 374 312 372
f 314 312 374
f 313 375 373
f 313 315 375
f 376 314 374
f 316 314 376
f 315 377 375
f 315 317 377
f 378 316 376
f 318 316 378
f 317 379 377
f 317 319 379
f 380 318 378
f 320 318 380
f 319 381 379
f 319 321 381
f 382 320 380
f 324 320 382
f 325 383 322
f 383 321 322
f 383 381 321
f 327 325 322
f 329 328 323
f 323 324 329
f 324 384 329
f 324 382 384
f 326 331 325
f 331 383 325
f 331 385 383
f 327 326 325
f 330 328 329
f 329 384 330
f 384 334 330
f 384 388 334
f 331 332 385
f 385 332 386
f 389 386 332
f 389 332 335
f 387 399 343
f 387 343 333
f 333 334 387
f 387 334 388
f 390 389 345
f 389 344 345
f 389 335 344
f 390 345 347
f 336 390 347
f 391 390 336
f 336 392 391
f 337 392 336
f 337 393 392
f 338 393 337
f 338 394 393
f 339 394 338
f 339 395 394
f 340 395 339
f 340 396 395
f 341 396 340
f 341 397 396
f 342 397 341
f 342 348 349
f 398 342 349
f 397 342 398
f 349 351 398
f 351 399 398
f 351 343 399
f 344 346 345
f 346 347 345
f 348 350 349
f 350 351 349
f 410 400 362
f 362 400 352
f 401 352 400
f 401 353 352
f 402 353 401
f 402 354 353
f 403 354 402
f 403 355 354
f 404 355 403
f 404 356 355
f 405 356 404
f 405 357 356
f 406 357 405
f 406 358 357
f 407 358 406
f 407 359 358
f 408 359 407
f 408 360 359
f 408 411 360
f 360 411 363
f 413 409 365
f 365 409 361
f 362 361 409
f 362 409 410
f 364 363 411
f 364 411 412
f 412 414 364
f 364 414 366
f 365 415 413
f 365 367 415
f 416 366 414
f 368 366 416
f 367 417 415
f 367 369 417
f 418 368 416
f 370 368 418
f 369 419 417
f 369 371 419
f 420 370 418
f 372 370 420
f 371 421 419
f 371 373 421
f 422 372 420
f 374 372 422
f 373 423 421
f 373 375 423
f 424 374 422
f 376 374 424
f 375 425 423
f 375 377 425
f 426 376 424
f 378 376 426
f 377 427 425
f 377 379 427
f 428 378 426
f 380 378 428
f 379 429 427
f 379 381 429
f 430 380 428
f 382 380 430
f 381 431 429
f 381 383 431
f 432 382 430
f 384 382 432
f 383 433 431
f 383 385 433
f 436 384 432
f 388 384 436
f 385 386 433
f 433 386 434
f 437 434 386
f 437 386 389
f 435 447 399
f 435 399 387
f 387 388 435
f 435 388 436
f 389 390 437
f 437 390 438
f 390 439 438
f 391 439 390
f 391 440 439
f 392 440 391
f 392 441 440
f 393 441 392
f 393 442 441
f 394 442 393
f 394 443 442
f 395 443 394
f 395 444 443
f 396 444 395
f 396 445 444
f 397 445 396
f 397 446 445
f 398 446 397
f 398 399 446
f 446 399 447
f 459 449 410
f 410 449 400
f 450 400 449
f 450 401 400
f 451 401 450
f 451 402 401
f 452 402 451
f 452 403 402
f 453 403 452
f 453 404 403
f 454 404 453
f 454 405 404
f 455 405 454
f 455 406 405
f 456 406 455
f 456 407 406
f 457 407 456
f 457 408 407
f 457 460 408
f 408 460 411
f 462 458 413
f 413 458 409
f 410 409 458
f 410 458 459
f 412 411 460
f 412 460 461
f 461 463 412
f 412 463 414
f 413 464 462
f 413 415 464
f 467 414 463
f 416 414 467
f 415 468 464
f 415 417 468
f 470 416 467
f 418 416 470
f 417 471 468
f 417 419 471
f 472 418 470
f 420 418 472
f 419 473 471
f 419 421 473
f 474 420 472
f 422 420 474
f 421 475 473
f 421 423 475
f 476 422 474
f 424 422 476
f 423 477 475
f 423 425 477
f 478 424 476
f 426 424 478
f 425 479 477
f 425 427 479
f 480 426 478
f 428 426 480
f 427 481 479
f 427 429 481
f 482 428 480
f 430 428 482
f 429 483 481
f 429 431 483
f 486 430 482
f 432 430 486
f 431 487 483
f 431 433 487
f 490 432 486
f 436 432 490
f 433 434 487
f 487 434 488
f 491 488 434
f 491 434 437
f 489 501 447
f 489 447 435
f 435 436 489
f 489 436 490
f 437 438 491
f 491 438 492
f 438 493 492
f 439 493 438
f 439 494 493
f 440 494 439
f 440 495 494
f 441 495 440
f 441 496 495
f 442 496 441
f 442 497 496
f 443 497 442
f 443 498 497
f 444 498 443
f 444 499 498
f 445 499 444
f 445 500 499
f 446 500 445
f 446 447 500
f 500 447 501
f 503 448 504
f 506 448 503
f 449 459 448
f 459 504 448
f 459 516 504
f 449 448 506
f 507 449 506
f 450 449 507
f 508 450 507
f 508 451 450
f 509 451 508
f 509 452 451
f 510 452 509
f 510 453 452
f 511 453 510
f 511 454 453
f 512 454 511
f 512 455 454
f 513 455 512
f 513 456 455
f 514 456 513
f 514 457 456
f 514 519 457
f 457 519 460
f 521 515 462
f 462 515 458
f 459 458 515
f 459 515 516
f 461 460 519
f 461 519 520
f 520 526 461
f 461 526 463
f 523 521 465
f 521 464 465
f 521 462 464
f 465 527 523
f 466 525 528
f 466 467 525
f 467 526 525
f 467 463 526
f 465 464 469
f 469 464 468
f 469 531 527
f 469 527 465
f 529 466 528
f 529 533 466
f 533 467 466
f 533 470 467
f 469 468 530
f 468 534 530
f 468 471 534
f 530 531 469
f 537 470 533
f 472 470 537
f 471 538 534
f 471 473 538
f 541 472 537
f 474 472 541
f 473 542 538
f 473 475 542
f 545 474 541
f 476 474 545
f 475 546 542
f 475 477 546
f 549 476 545
f 478 476 549
f 477 550 546
f 477 479 550
f 553 478 549
f 480 478 553
f 479 554 550
f 479 481 554
f 559 480 553
f 482 480 559
f 556 554 484
f 554 483 484
f 554 481 483
f 484 561 556
f 485 558 562
f 485 486 558
f 486 559 558
f 486 482 559
f 484 483 560
f 483 564 560
f 483 487 564
f 560 561 484
f 563 485 562
f 563 569 485
f 569 486 485
f 569 490 486
f 487 488 564
f 564 488 566
f 570 566 488
f 570 488 491
f 568 581 501
f 568 501 489
f 489 490 568
f 568 490 569
f 491 492 570
f 570 492 572
f 492 573 572
f 493 573 492
f 493 574 573
f 494 574 493
f 494 575 574
f 495 575 494
f 495 576 575
f 496 576 495
f 496 577 576
f 497 577 496
f 497 578 577
f 498 578 497
f 498 579 578
f 499 579 498
f 500 502 582
f 579 500 582
f 499 500 579
f 500 501 502
f 501 585 502
f 501 581 585
f 502 584 582
f 585 584 502
f 504 505 503
f 505 506 503
f 505 504 517
f 517 504 516
f 505 517 506
f 517 586 506
f 586 507 506
f 586 517 596
f 588 507 586
f 588 508 507
f 589 508 588
f 589 509 508
f 590 509 589
f 590 510 509
f 591 510 590
f 591 511 510
f 593 511 591
f 593 512 511
f 594 512 593
f 594 513 512
f 518 514 599
f 514 594 599
f 514 513 594
f 518 519 514
f 521 522 515
f 601 595 522
f 522 595 515
f 595 517 515
f 517 516 515
f 595 596 517
f 600 518 599
f 524 520 604
f 604 520 600
f 520 519 600
f 519 518 600
f 524 526 520
f 521 523 522
f 601 522 523
f 527 601 523
f 605 601 527
f 528 525 524
f 604 528 524
f 608 528 604
f 525 526 524
f 527 609 605
f 527 531 609
f 612 532 529
f 528 612 529
f 608 612 528
f 532 533 529
f 534 535 530
f 531 530 535
f 613 531 535
f 609 531 613
f 532 612 616
f 532 616 536
f 536 537 532
f 532 537 533
f 535 534 539
f 539 534 538
f 539 617 613
f 539 613 535
f 536 616 620
f 536 620 540
f 540 541 536
f 536 541 537
f 539 538 543
f 543 538 542
f 543 621 617
f 543 617 539
f 540 620 622
f 540 622 544
f 544 545 540
f 540 545 541
f 543 542 547
f 547 542 546
f 547 623 621
f 547 621 543
f 544 622 626
f 544 626 548
f 548 549 544
f 544 549 545
f 547 546 551
f 551 546 550
f 551 627 623
f 551 623 547
f 548 626 630
f 548 630 552
f 552 553 548
f 548 553 549
f 551 550 555
f 555 550 554
f 555 631 627
f 555 627 551
f 552 630 634
f 552 634 557
f 557 559 552
f 552 559 553
f 554 556 555
f 631 555 556
f 561 631 556
f 635 631 561
f 562 558 557
f 634 562 557
f 638 562 634
f 558 559 557
f 564 565 560
f 561 560 565
f 639 561 565
f 635 561 639
f 644 567 563
f 562 644 563
f 638 644 562
f 567 569 563
f 564 566 565
f 570 571 566
f 566 571 565
f 571 641 565
f 641 639 565
f 571 645 641
f 580 643 655
f 581 568 567
f 581 567 644
f 580 581 644
f 643 580 644
f 568 569 567
f 570 572 571
f 571 572 645
f 572 647 645
f 572 573 647
f 573 648 647
f 574 648 573
f 574 649 648
f 575 649 574
f 575 650 649
f 576 650 575
f 576 651 650
f 577 651 576
f 577 652 651
f 578 652 577
f 578 654 652
f 579 654 578
f 583 580 655
f 579 583 655
f 654 579 655
f 583 579 582
f 583 585 580
f 580 585 581
f 582 584 583
f 584 585 583
f 657 587 659
f 661 587 657
f 658 592 665
f 667 592 658
f 596 597 586
f 669 659 597
f 659 588 597
f 588 586 597
f 659 587 588
f 588 587 661
f 662 588 661
f 589 588 662
f 663 589 662
f 663 590 589
f 664 590 663
f 664 591 590
f 664 665 592
f 593 664 592
f 591 664 593
f 594 593 592
f 675 594 592
f 667 675 592
f 594 675 598
f 598 599 594
f 601 602 595
f 677 668 602
f 602 668 595
f 668 597 595
f 597 596 595
f 668 669 597
f 676 598 675
f 603 600 680
f 680 600 676
f 600 599 676
f 599 598 676
f 603 604 600
f 602 601 606
f 606 601 605
f 606 681 677
f 606 677 602
f 603 680 686
f 603 686 607
f 607 608 603
f 603 608 604
f 606 605 610
f 610 605 609
f 610 687 681
f 610 681 606
f 607 686 690
f 607 690 611
f 611 612 607
f 607 612 608
f 610 609 614
f 614 609 613
f 614 691 687
f 614 687 610
f 611 690 694
f 611 694 615
f 615 616 611
f 611 616 612
f 614 613 618
f 618 613 617
f 618 696 691
f 618 691 614
f 615 694 699
f 615 699 619
f 619 620 615
f 615 620 616
f 618 617 695
f 617 701 695
f 617 621 701
f 695 696 618
f 700 619 699
f 700 708 619
f 708 620 619
f 708 622 620
f 703 701 624
f 701 623 624
f 701 621 623
f 624 709 703
f 625 707 712
f 625 626 707
f 626 708 707
f 626 622 708
f 624 623 628
f 628 623 627
f 628 713 709
f 628 709 624
f 625 712 716
f 625 716 629
f 629 630 625
f 625 630 626
f 628 627 632
f 632 627 631
f 632 717 713
f 632 713 628
f 629 716 720
f 629 720 633
f 633 634 629
f 629 634 630
f 632 631 636
f 636 631 635
f 636 721 717
f 636 717 632
f 633 720 726
f 633 726 637
f 637 638 633
f 633 638 634
f 636 635 640
f 640 635 639
f 640 727 721
f 640 721 636
f 637 726 732
f 637 732 642
f 642 644 637
f 637 644 638
f 639 641 640
f 645 646 641
f 641 646 640
f 646 729 640
f 729 727 640
f 646 733 729
f 653 731 743
f 655 643 642
f 655 642 732
f 653 655 732
f 731 653 732
f 643 644 642
f 645 647 646
f 647 648 646
f 648 744 646
f 744 733 646
f 744 648 656
f 736 747 656
f 648 736 656
f 649 736 648
f 649 738 736
f 650 738 649
f 650 740 738
f 651 740 650
f 651 742 740
f 652 742 651
f 743 742 653
f 742 654 653
f 742 652 654
f 654 655 653
f 656 746 744
f 747 746 656
f 659 660 657
f 660 661 657
f 665 666 658
f 666 667 658
f 660 659 670
f 670 659 669
f 661 660 662
f 660 671 662
f 660 670 671
f 662 671 663
f 663 671 672
f 663 672 664
f 664 672 673
f 664 673 665
f 673 666 665
f 673 674 666
f 674 675 666
f 666 675 667
f 677 678 668
f 753 748 678
f 678 748 668
f 748 670 668
f 670 669 668
f 749 671 670
f 749 670 748
f 750 672 671
f 750 671 749
f 751 673 672
f 751 672 750
f 752 674 673
f 752 673 751
f 679 676 761
f 761 676 752
f 676 675 752
f 675 674 752
f 679 680 676
f 678 677 682
f 682 677 681
f 683 755 753
f 678 683 753
f 682 683 678
f 683 763 755
f 684 760 767
f 679 761 760
f 684 679 760
f 685 679 684
f 685 686 679
f 679 686 680
f 682 681 688
f 688 681 687
f 688 769 762
f 683 688 762
f 682 688 683
f 762 763 683
f 768 684 767
f 684 768 775
f 689 684 775
f 685 684 689
f 689 690 685
f 685 690 686
f 688 687 692
f 692 687 691
f 692 776 769
f 692 769 688
f 689 775 782
f 689 782 693
f 693 694 689
f 689 694 690
f 692 691 697
f 697 691 696
f 697 783 776
f 697 776 692
f 693 782 789
f 693 789 698
f 698 699 693
f 693 699 694
f 701 702 695
f 695 702 696
f 702 697 696
f 702 704 697
f 704 790 783
f 704 783 697
f 698 789 796
f 698 796 705
f 699 698 700
f 698 706 700
f 698 705 706
f 706 708 700
f 701 703 702
f 709 710 703
f 710 702 703
f 710 704 702
f 710 797 790
f 710 790 704
f 705 796 803
f 705 803 711
f 707 706 712
f 706 711 712
f 706 705 711
f 707 708 706
f 710 709 714
f 714 709 713
f 714 804 797
f 714 797 710
f 711 803 810
f 711 810 715
f 715 716 711
f 711 716 712
f 714 713 718
f 718 713 717
f 718 811 804
f 718 804 714
f 715 810 819
f 715 819 719
f 719 720 715
f 715 720 716
f 718 717 722
f 722 717 721
f 723 813 811
f 718 723 811
f 722 723 718
f 723 821 813
f 724 818 825
f 719 819 818
f 724 719 818
f 725 719 724
f 725 726 719
f 719 726 720
f 722 721 728
f 728 721 727
f 728 827 820
f 723 728 820
f 722 728 723
f 820 821 723
f 826 724 825
f 724 826 838
f 730 724 838
f 725 724 730
f 730 732 725
f 725 732 726
f 727 729 728
f 733 734 729
f 729 734 728
f 734 829 728
f 829 827 728
f 735 831 829
f 735 829 734
f 737 833 831
f 737 831 735
f 739 835 833
f 739 833 737
f 741 837 835
f 741 835 739
f 743 731 730
f 743 730 838
f 741 743 838
f 837 741 838
f 731 732 730
f 734 733 745
f 745 733 744
f 736 735 747
f 735 745 747
f 735 734 745
f 735 736 737
f 737 736 738
f 737 738 739
f 739 738 740
f 739 740 741
f 741 740 742
f 742 743 741
f 744 746 745
f 746 747 745
f 753 754 748
f 748 754 749
f 749 754 756
f 749 756 750
f 750 756 757
f 750 757 751
f 751 757 758
f 751 758 752
f 752 758 759
f 759 761 752
f 753 755 754
f 763 764 755
f 764 754 755
f 764 756 754
f 764 757 756
f 764 765 757
f 765 758 757
f 765 766 758
f 760 759 767
f 759 766 767
f 759 758 766
f 760 761 759
f 769 770 762
f 762 770 763
f 770 764 763
f 770 771 764
f 771 765 764
f 771 772 765
f 772 766 765
f 772 773 766
f 767 766 768
f 766 774 768
f 766 773 774
f 774 775 768
f 770 769 777
f 777 769 776
f 777 771 770
f 777 778 771
f 778 772 771
f 778 779 772
f 779 773 772
f 779 780 773
f 780 774 773
f 780 781 774
f 781 782 774
f 774 782 775
f 777 776 784
f 784 776 783
f 784 778 777
f 784 785 778
f 785 779 778
f 785 786 779
f 786 780 779
f 786 787 780
f 787 781 780
f 787 788 781
f 788 789 781
f 781 789 782
f 784 783 791
f 791 783 790
f 791 785 784
f 791 792 785
f 792 786 785
f 792 793 786
f 793 787 786
f 793 794 787
f 794 788 787
f 794 795 788
f 795 796 788
f 788 796 789
f 791 790 798
f 798 790 797
f 798 792 791
f 798 799 792
f 799 793 792
f 799 800 793
f 800 794 793
f 800 801 794
f 801 795 794
f 801 802 795
f 802 803 795
f 795 803 796
f 798 797 805
f 805 797 804
f 805 799 798
f 805 806 799
f 806 800 799
f 806 807 800
f 807 801 800
f 807 808 801
f 808 802 801
f 808 809 802
f 809 810 802
f 802 810 803
f 805 804 812
f 812 804 811
f 812 806 805
f 812 814 806
f 814 807 806
f 814 815 807
f 815 808 807
f 815 816 808
f 816 809 808
f 816 817 809
f 817 819 809
f 809 819 810
f 811 813 812
f 821 822 813
f 822 812 813
f 822 814 812
f 822 815 814
f 822 823 815
f 823 816 815
f 823 824 816
f 818 817 825
f 817 824 825
f 817 816 824
f 818 819 817
f 827 828 820
f 820 828 821
f 828 822 821
f 828 830 822
f 830 823 822
f 830 832 823
f 832 824 823
f 832 834 824
f 825 824 826
f 824 836 826
f 824 834 836
f 836 838 826
f 827 829 828
f 828 829 830
f 830 829 831
f 830 831 832
f 832 831 833
f 832 833 834
f 834 833 835
f 834 835 836
f 836 835 837
f 837 838 836

