# https://github.com/mikedh/trimesh
v -0.61764705 -0.67941177 -0.18529412
v -0.61764705 -0.67941177 -0.06176471
v -0.61764705 -0.67941177 0.06176471
v -0.61764705 -0.55588233 -0.30882353
v -0.61764705 -0.55588233 -0.18529412
v -0.61764705 -0.55588233 -0.06176471
v -0.61764705 -0.55588233 0.06176471
v -0.61764705 -0.55588233 0.18529412
v -0.61764705 -0.43235293 -0.30882353
v -0.61764705 -0.43235293 -0.18529412
v -0.61764705 -0.43235293 -0.06176471
v -0.61764705 -0.43235293 0.06176471
v -0.61764705 -0.43235293 0.18529412
v -0.61764705 -0.30882353 -0.30882353
v -0.61764705 -0.30882353 -0.18529412
v -0.61764705 -0.30882353 -0.06176471
v -0.61764705 -0.30882353 0.06176471
v -0.61764705 -0.30882353 0.18529412
v -0.61764705 -0.18529412 -0.18529412
v -0.61764705 -0.18529412 -0.06176471
v -0.61764705 -0.18529412 0.06176471
v -0.46583810 -0.80294120 -0.30882353
v -0.49411765 -0.80294120 -0.18529412
v -0.55588233 -0.74117649 -0.18529412
v -0.49411765 -0.80294120 -0.06176471
v -0.55588233 -0.74117649 -0.06176471
v -0.49411765 -0.80294120 0.06176471
v -0.55588233 -0.74117649 0.06176471
v -0.46976161 -0.80294120 0.18529412
v -0.49333581 -0.67941177 -0.43235293
v -0.49694347 -0.67941177 -0.30882353
v -0.55588233 -0.62047291 -0.30882353
v -0.55588233 -0.67941177 -0.24988465
v -0.55588233 -0.67941177 0.12742823
v -0.49801642 -0.67941177 0.18529412
v -0.55588233 -0.62154579 0.18529412
v -0.49191889 -0.67941177 0.30882353
v -0.49411765 -0.55588233 -0.43235293
v -0.55588233 -0.55588233 -0.37058824
v -0.55588233 -0.55588233 0.24705882
v -0.49411765 -0.55588233 0.30882353
v -0.49411765 -0.43235293 -0.43235293
v -0.55588233 -0.43235293 -0.37058824
v -0.55588233 -0.43235293 0.24705882
v -0.49411765 -0.43235293 0.30882353
v -0.49411765 -0.30882353 -0.43235293
v -0.55588233 -0.30882353 -0.37058824
v -0.55588233 -0.24506642 -0.30882353
v -0.55588233 -0.24506642 0.18529412
v -0.55588233 -0.30882353 0.24705882
v -0.49411765 -0.30882353 0.30882353
v -0.48933452 -0.18529412 -0.43235293
v -0.49611005 -0.18529412 -0.30882353
v -0.55588233 -0.18529412 -0.24905123
v -0.55588233 -0.12352941 -0.18529412
v -0.55588233 -0.12352941 -0.06176471
v -0.55588233 -0.12352941 0.06176471
v -0.55588233 -0.18529412 0.12552176
v -0.49611005 -0.18529412 0.18529412
v -0.48819503 -0.18529412 0.30882353
v -0.49411765 -0.06176471 -0.30882353
v -0.49411765 -0.06176471 -0.18529412
v -0.49411765 -0.06176471 -0.06176471
v -0.49411765 -0.06176471 0.06176471
v -0.49411765 -0.06176471 0.18529412
v -0.43235293 -0.83642638 -0.30882353
v -0.37058824 -0.92647058 -0.18529412
v -0.43235293 -0.86470586 -0.18529412
v -0.37058824 -0.92647058 -0.06176471
v -0.43235293 -0.86470586 -0.06176471
v -0.37058824 -0.92647058 0.06176471
v -0.43235293 -0.86470586 0.06176471
v -0.43235293 -0.84034985 0.18529412
v -0.34401909 -0.80294120 -0.43235293
v -0.43235293 -0.74039465 -0.43235293
v -0.43235293 -0.80294120 -0.34230870
v -0.43235293 -0.80294120 0.22270285
v -0.34189662 -0.80294120 0.30882353
v -0.43235293 -0.73897773 0.30882353
v -0.43235293 -0.67941177 -0.49333581
v -0.43235293 -0.67941177 0.36838949
v -0.37058824 -0.55588233 -0.55588233
v -0.43235293 -0.55588233 -0.49411765
v -0.43235293 -0.55588233 0.37058824
v -0.37058824 -0.55588233 0.43235293
v -0.37058824 -0.43235293 -0.55588233
v -0.43235293 -0.43235293 -0.49411765
v -0.43235293 -0.43235293 0.37058824
v -0.37058824 -0.43235293 0.43235293
v -0.37058824 -0.30882353 -0.55588233
v -0.43235293 -0.30882353 -0.49411765
v -0.43235293 -0.30882353 0.37058824
v -0.37058824 -0.30882353 0.43235293
v -0.43235293 -0.18529412 -0.48933452
v -0.43235293 -0.12831254 -0.43235293
v -0.43235293 -0.12945203 0.30882353
v -0.43235293 -0.18529412 0.36466563
v -0.37058824 -0.06176471 -0.43235293
v -0.43235293 -0.06176471 -0.37058824
v -0.43235293 0.00000000 -0.30882353
v -0.43235293 0.00000000 -0.18529412
v -0.43235293 0.02588369 -0.06176471
v -0.43235293 0.00000000 0.06176471
v -0.43235293 0.00000000 0.18529412
v -0.43235293 -0.06176471 0.24705882
v -0.37019977 -0.06176471 0.30882353
v -0.35559678 0.06176471 -0.30882353
v -0.37058824 0.06176471 -0.18529412
v -0.39647186 0.06176483 -0.06176471
v -0.37058824 0.06176471 0.06176471
v -0.35818896 0.06176471 0.18529412
v -0.30882353 -0.98823529 -0.18529412
v -0.30882353 -0.98823529 -0.06176471
v -0.30882353 -0.98823529 0.06176471
v -0.30882353 -0.83813667 -0.43235293
v -0.24705882 -0.92647058 -0.30882353
v -0.30882353 -0.86470586 -0.30882353
v -0.30882353 -0.92647058 -0.24705882
v -0.30882353 -0.92647058 0.12352941
v -0.24705882 -0.92647058 0.18529412
v -0.30882353 -0.86470586 0.18529412
v -0.30882353 -0.83601427 0.30882353
v -0.30882353 -0.80294120 -0.46754849
v -0.30882353 -0.80294120 0.34189662
v -0.24823901 -0.67941177 -0.55588233
v -0.30882353 -0.61882728 -0.55588233
v -0.30882353 -0.67941177 -0.49529785
v -0.30882353 -0.67941177 0.37217191
v -0.24864256 -0.67941177 0.43235293
v -0.30882353 -0.61923081 0.43235293
v -0.30882353 -0.55588233 -0.61764705
v -0.30882353 -0.55588233 0.49411765
v -0.30882353 -0.43235293 -0.61764705
v -0.30882353 -0.43235293 0.49411765
v -0.30882353 -0.30882353 -0.61764705
v -0.30882353 -0.24647427 -0.55588233
v -0.30882353 -0.24647427 0.43235293
v -0.30882353 -0.30882353 0.49411765
v -0.24764332 -0.18529412 -0.55588233
v -0.30882353 -0.18529412 -0.49470216
v -0.30882353 -0.18529412 0.37117279
v -0.24764332 -0.18529412 0.43235293
v -0.30882353 -0.06176471 -0.49411765
v -0.30882353 0.00000000 -0.43235293
v -0.30882353 -0.00038853 0.30882353
v -0.30882353 -0.06176471 0.37019971
v -0.30882353 0.06176471 -0.35559678
v -0.30882353 0.10853802 -0.30882353
v -0.30882353 0.12352941 -0.18529412
v -0.30882353 0.12352941 -0.06176471
v -0.30882353 0.12352941 0.06176471
v -0.30882353 0.11113013 0.18529412
v -0.30882353 0.06176471 0.23465954
v -0.24705882 0.18529412 -0.18529412
v -0.24705882 0.18529412 -0.06176471
v -0.24705882 0.18529412 0.06176471
v -0.24705882 0.30882353 -0.06176471
v -0.24686521 0.43235293 -0.06176471
v -0.23324150 0.55588233 -0.06176471
v -0.20205945 0.67941177 -0.18529412
v -0.24705882 0.67941177 -0.06176471
v -0.20466168 0.67941177 0.06176471
v -0.18529412 -0.98823529 -0.30882353
v -0.18529412 -0.98823529 -0.18529412
v -0.18529412 -0.98823529 -0.06176471
v -0.18529412 -0.98823529 0.06176471
v -0.18529412 -0.98823529 0.18529412
v -0.18529412 -0.86470586 -0.43235293
v -0.18529412 -0.92647058 -0.37058824
v -0.18529412 -0.92647058 0.24705882
v -0.18529412 -0.86470586 0.30882353
v -0.18529412 -0.74117649 -0.55588233
v -0.18529412 -0.80294120 -0.49411765
v -0.18529412 -0.80294120 0.37058824
v -0.18529412 -0.74117649 0.43235293
v -0.18529412 -0.67941177 -0.61764705
v -0.18529412 -0.67941177 0.49411765
v -0.18529412 -0.55588233 -0.61764705
v -0.18529412 -0.55588233 0.49411765
v -0.18529412 -0.43235293 -0.61764705
v -0.18529412 -0.43235293 0.49411765
v -0.18529412 -0.30882353 -0.61764705
v -0.18529412 -0.30882353 0.49411765
v -0.18529412 -0.18529412 -0.61764705
v -0.18529412 -0.12352941 -0.55588233
v -0.18529412 -0.12352941 0.43235293
v -0.18529412 -0.18529412 0.49411765
v -0.18529412 -0.06176471 -0.49411765
v -0.18529412 0.00000000 -0.43235293
v -0.18529412 0.00000000 0.30882353
v -0.18529412 -0.06176471 0.37058824
v -0.18529412 0.06176471 -0.37058824
v -0.18529412 0.12352941 -0.30882353
v -0.18529412 0.12352941 0.18529412
v -0.18529412 0.06176471 0.24705882
v -0.18529412 0.18529412 -0.24705882
v -0.18529412 0.24705882 -0.18529412
v -0.18529412 0.24705882 0.06176471
v -0.18529412 0.18529412 0.12352941
v -0.12352941 0.30882353 -0.18529412
v -0.18529412 0.30882353 -0.12352941
v -0.18529412 0.30882353 0.00000000
v -0.12352941 0.30882353 0.06176471
v -0.12274759 0.43235293 -0.18529412
v -0.18529412 0.43235293 -0.12333579
v -0.18529412 0.43235293 -0.00019367
v -0.12314095 0.43235293 0.06176471
v -0.10942192 0.55588233 -0.18529412
v -0.18529412 0.66264641 -0.18529412
v -0.18529412 0.55588233 -0.10971209
v -0.18529412 0.55588233 -0.01381733
v -0.10898250 0.55588233 0.06176471
v -0.18529412 0.66004419 0.06176471
v -0.18529412 0.67941177 -0.20205945
v -0.18529412 0.69617707 -0.18529412
v -0.18529412 0.76193660 -0.06176471
v -0.18529412 0.69877934 0.06176471
v -0.18529412 0.67941177 0.08113238
v -0.14428957 0.80294120 -0.06176471
v -0.06176471 -0.98823529 -0.30882353
v -0.06176471 -0.98823529 -0.18529412
v -0.06176471 -0.98823529 -0.06176471
v -0.06176471 -0.98823529 0.06176471
v -0.06176471 -0.98823529 0.18529412
v -0.06176471 -0.86470586 -0.43235293
v -0.06176471 -0.92647058 -0.37058824
v -0.06176471 -0.92647058 0.24705882
v -0.06176471 -0.86470586 0.30882353
v -0.06176471 -0.74117649 -0.55588233
v -0.06176471 -0.80294120 -0.49411765
v -0.06176471 -0.80294120 0.37058824
v -0.06176471 -0.74117649 0.43235293
v -0.06176471 -0.67941177 -0.61764705
v -0.06176471 -0.67941177 0.49411765
v -0.06176471 -0.55588233 -0.61764705
v -0.06176471 -0.55588233 0.49411765
v -0.06176471 -0.43235293 -0.61784065
v -0.06176471 -0.43235293 0.49392515
v -0.06176471 -0.30882353 -0.61764705
v -0.06176471 -0.30882353 0.49411765
v -0.06176471 -0.18529412 -0.61764705
v -0.06176471 -0.12352941 -0.55588233
v -0.06176471 -0.12352941 0.43235293
v -0.06176471 -0.18529412 0.49411765
v -0.06176471 -0.06176471 -0.49411765
v -0.06176471 0.02076015 -0.43235293
v -0.06176471 0.01874330 0.30882353
v -0.06176471 -0.06176471 0.37058824
v -0.06176471 0.06176471 -0.39134839
v -0.06176471 0.12352941 -0.30882353
v -0.06176471 0.12352941 0.18529412
v -0.06176471 0.06176471 0.26580212
v -0.06176471 0.18529412 -0.24705882
v -0.06176471 0.18529412 0.12352941
v -0.06176471 0.30882353 -0.24705882
v 0.00000000 0.30882353 -0.18529412
v 0.00000000 0.30882353 0.06176471
v -0.06176471 0.30882353 0.12352941
v -0.06176471 0.43235293 -0.24627700
v -0.00078188 0.43235293 -0.18529412
v -0.00038853 0.43235293 0.06176471
v -0.06176471 0.43235293 0.12314089
v -0.06176471 0.55588233 -0.23295134
v -0.01410749 0.55588233 -0.18529412
v -0.01454690 0.55588233 0.06176471
v -0.06176471 0.55588233 0.10898250
v -0.06176471 0.67941177 -0.24705882
v -0.06176471 0.76423883 -0.18529412
v -0.06176471 0.76572061 0.06176471
v -0.06176471 0.67941177 0.12352941
v -0.06176471 0.80294120 -0.14659175
v 0.01874330 0.80294120 -0.06176471
v -0.06176471 0.86470586 -0.06176471
v -0.06176471 0.80294120 0.02454411
v 0.06176471 -0.98823529 -0.30882353
v 0.06176471 -0.98823529 -0.18529412
v 0.06176471 -0.98823529 -0.06176471
v 0.06176471 -0.98823529 0.06176471
v 0.06176471 -0.98823529 0.18529412
v 0.06176471 -0.86470586 -0.43235293
v 0.06176471 -0.92647058 -0.37058824
v 0.12352941 -0.92647058 -0.30882353
v 0.12352941 -0.92647058 0.18529412
v 0.06176471 -0.92647058 0.24705882
v 0.06176471 -0.86470586 0.30882353
v 0.06176471 -0.74117649 -0.55588233
v 0.06176471 -0.80294120 -0.49411765
v 0.06176471 -0.80294120 0.37058824
v 0.06176471 -0.74117649 0.43235293
v 0.06176471 -0.67941177 -0.61764705
v 0.12511308 -0.67941177 -0.55588233
v 0.12635525 -0.67941177 0.43235293
v 0.06176471 -0.67941177 0.49411765
v 0.06176471 -0.55588233 -0.61764705
v 0.06176471 -0.55588233 0.49411765
v 0.06176471 -0.43235293 -0.61764705
v 0.06176471 -0.43235293 0.49411765
v 0.06176471 -0.30882353 -0.61764705
v 0.06176471 -0.30882353 0.49411765
v 0.06176471 -0.18529412 -0.61764705
v 0.12450980 -0.18529412 -0.55588233
v 0.06176471 -0.12352941 -0.55588233
v 0.12431130 -0.18529412 0.43235293
v 0.06176471 -0.12352941 0.43235293
v 0.06176471 -0.18529412 0.49411765
v 0.06176471 -0.06176471 -0.49411765
v 0.06176471 0.00000000 -0.43235293
v 0.06176471 0.00000000 0.30882353
v 0.06176471 -0.06176471 0.37058824
v 0.06176471 0.06176471 -0.37058824
v 0.06176471 0.12352941 -0.30882353
v 0.06176471 0.12352941 0.18529412
v 0.06176471 0.06176471 0.24705882
v 0.06176471 0.18529412 -0.24705882
v 0.12352941 0.18529412 -0.18529412
v 0.06176471 0.24705882 -0.18529412
v 0.12352941 0.18529412 -0.06176471
v 0.12352941 0.18529412 0.06176471
v 0.06176471 0.24705882 0.06176471
v 0.06176471 0.18529412 0.12352941
v 0.06176471 0.30882353 -0.12352941
v 0.12352941 0.30882353 -0.06176471
v 0.06176471 0.30882353 0.00000000
v 0.06176471 0.43235293 -0.12274759
v 0.12274753 0.43235293 -0.06176471
v 0.06176471 0.43235293 -0.00078188
v 0.06176471 0.66794306 -0.18529412
v 0.06176471 0.55588233 -0.10670684
v 0.10670684 0.55588233 -0.06176471
v 0.06176471 0.55588233 -0.01682258
v 0.06176471 0.66530627 0.06176471
v 0.06176471 0.67941177 -0.19676284
v 0.07323332 0.67941177 -0.18529412
v 0.06176471 0.69088048 -0.18529412
v 0.12352941 0.67941177 -0.06176471
v 0.06176471 0.75991964 -0.06176471
v 0.07587007 0.67941165 0.06176471
v 0.06176471 0.69351715 0.06176471
v 0.06176471 0.67941165 0.07587007
v 0.18529412 -0.98823529 -0.18529412
v 0.18529412 -0.98823529 -0.06176471
v 0.18529412 -0.98823529 0.06176471
v 0.18529412 -0.83901614 -0.43235293
v 0.18529412 -0.86470586 -0.30882353
v 0.18529412 -0.92647058 -0.24705882
v 0.24705882 -0.92647058 -0.18529412
v 0.24705882 -0.92647058 -0.06176471
v 0.24705882 -0.92647058 0.06176471
v 0.18529412 -0.92647058 0.12352941
v 0.18529412 -0.86470586 0.18529412
v 0.18529412 -0.83734000 0.30882353
v 0.18529412 -0.80294120 -0.46842793
v 0.22136904 -0.80294120 -0.43235293
v 0.21969301 -0.80294120 0.30882353
v 0.18529412 -0.80294120 0.34322241
v 0.18529412 -0.61923081 -0.55588233
v 0.18529412 -0.67941177 -0.49570137
v 0.18529412 -0.67941177 0.37341407
v 0.18529412 -0.62047291 0.43235293
v 0.18529412 -0.55588233 -0.61764705
v 0.24705882 -0.55588233 -0.55588233
v 0.24705882 -0.55588233 0.43235293
v 0.18529412 -0.55588233 0.49411765
v 0.18529412 -0.43235293 -0.61764705
v 0.24705882 -0.43235293 -0.55588233
v 0.24705882 -0.43235293 0.43235293
v 0.18529412 -0.43235293 0.49411765
v 0.18529412 -0.30882353 -0.61764705
v 0.24705882 -0.30882353 -0.55588233
v 0.18529412 -0.24607843 -0.55588233
v 0.24705882 -0.30882353 0.43235293
v 0.18529412 -0.24627700 0.43235293
v 0.18529412 -0.30882353 0.49411765
v 0.18529412 -0.18529412 -0.49509802
v 0.18529412 -0.18529412 0.37137011
v 0.18529412 -0.06176471 -0.49411765
v 0.24705882 -0.06176471 -0.43235293
v 0.18529412 0.00000000 -0.43235293
v 0.24705882 -0.06176471 0.30882353
v 0.18529412 0.00000000 0.30882353
v 0.18529412 -0.06176471 0.37058824
v 0.18529412 0.06176471 -0.35633484
v 0.23280537 0.06176471 -0.30882353
v 0.18529412 0.10927597 -0.30882353
v 0.24705882 0.06176471 -0.18529412
v 0.18529412 0.12352941 -0.18529412
v 0.27141479 0.06176471 -0.06176471
v 0.18529412 0.12352941 -0.06176471
v 0.24705882 0.06176471 0.06176471
v 0.18529412 0.12352941 0.06176471
v 0.23655765 0.06176471 0.18529412
v 0.18529412 0.11302823 0.18529412
v 0.18529412 0.06176471 0.23655765
v 0.30882353 -0.83279902 -0.30882353
v 0.30882353 -0.86470586 -0.18529412
v 0.30882353 -0.86470586 -0.06176471
v 0.30882353 -0.86470586 0.06176471
v 0.30882353 -0.83774012 0.18529412
v 0.30882353 -0.73813885 -0.43235293
v 0.30882353 -0.80294120 -0.33868131
v 0.33868131 -0.80294120 -0.30882353
v 0.37058824 -0.80294120 -0.18529412
v 0.37058824 -0.80294120 -0.06176471
v 0.37058824 -0.80294120 0.06176471
v 0.34362248 -0.80294120 0.18529412
v 0.30882353 -0.80294120 0.22009307
v 0.30882353 -0.73661667 0.30882353
v 0.30882353 -0.67941177 -0.49108005
v 0.36755058 -0.67941177 -0.43235299
v 0.37383899 -0.67941177 -0.30882353
v 0.37514806 -0.67941177 0.18529412
v 0.36602840 -0.67941177 0.30882353
v 0.30882353 -0.67941177 0.36602840
v 0.30882353 -0.55588233 -0.49411765
v 0.37058824 -0.55588233 -0.43235293
v 0.37058824 -0.55588233 0.30882353
v 0.30882353 -0.55588233 0.37058824
v 0.30882353 -0.43235293 -0.49411765
v 0.37058824 -0.43235293 -0.43235293
v 0.37058824 -0.43235293 0.30882353
v 0.30882353 -0.43235293 0.37058824
v 0.30882353 -0.30882353 -0.49411765
v 0.37058824 -0.30882353 -0.43235293
v 0.37058824 -0.30882353 0.30882353
v 0.30882353 -0.30882353 0.37058824
v 0.30882353 -0.18529412 -0.48772821
v 0.36419874 -0.18529412 -0.43235293
v 0.30882353 -0.12991890 -0.43235293
v 0.37258059 -0.18529412 -0.30882353
v 0.37196952 -0.18529412 0.18529412
v 0.36201590 -0.18529412 0.30882353
v 0.30882353 -0.13210174 0.30882353
v 0.30882353 -0.18529412 0.36201590
v 0.30882353 -0.06176471 -0.37039462
v 0.37039456 -0.06176471 -0.30882353
v 0.30882353 -0.00019367 -0.30882353
v 0.37058824 -0.06176471 -0.18529412
v 0.30882353 0.00000000 -0.18529412
v 0.37058824 -0.06176471 -0.06176471
v 0.30882353 0.02435597 -0.06176471
v 0.37058824 -0.06176471 0.06176471
v 0.30882353 0.00000000 0.06176471
v 0.37058824 -0.06176471 0.18529412
v 0.30882353 0.00000000 0.18529412
v 0.30882353 -0.06176471 0.24705882
v 0.43235293 -0.74117649 -0.18529412
v 0.43235293 -0.74117649 -0.06176471
v 0.43235293 -0.74117649 0.06176471
v 0.43235293 -0.62089783 -0.30882353
v 0.43235293 -0.67941177 -0.25030959
v 0.49411765 -0.67941177 -0.18529412
v 0.49411765 -0.67941177 -0.06176471
v 0.49411765 -0.67941177 0.06176471
v 0.43235293 -0.67941177 0.12808925
v 0.43235293 -0.62220687 0.18529412
v 0.43235293 -0.55588233 -0.37058824
v 0.49411765 -0.55588233 -0.30882353
v 0.49411765 -0.55588233 -0.18529412
v 0.49411765 -0.55588233 -0.06176471
v 0.49411765 -0.55588233 0.06176471
v 0.49411765 -0.55588233 0.18529412
v 0.43235293 -0.55588233 0.24705882
v 0.43235293 -0.43235293 -0.37058824
v 0.49411765 -0.43235293 -0.30882353
v 0.49411765 -0.43235293 -0.18529412
v 0.49570131 -0.43235293 -0.06176471
v 0.49411765 -0.43235293 0.06176471
v 0.49411765 -0.43235293 0.18529412
v 0.43235293 -0.43235293 0.24705882
v 0.43235293 -0.30882353 -0.37058824
v 0.49411765 -0.30882353 -0.30882353
v 0.43235293 -0.24506642 -0.30882353
v 0.49411765 -0.30882353 -0.18529412
v 0.49411765 -0.30882353 -0.06176471
v 0.49411765 -0.30882353 0.06176471
v 0.49411765 -0.30882353 0.18529412
v 0.43235293 -0.24567755 0.18529412
v 0.43235293 -0.30882353 0.24705882
v 0.43235293 -0.18529412 -0.24905123
v 0.49411765 -0.18529412 -0.18529412
v 0.43235293 -0.12352941 -0.18529412
v 0.49411765 -0.18529412 -0.06176471
v 0.43235293 -0.12352941 -0.06176471
v 0.49411765 -0.18529412 0.06176471
v 0.43235293 -0.12352941 0.06176471
v 0.43235293 -0.18529412 0.12491070
f 24 1 33
f 26 2 24
f 24 2 1
f 28 3 26
f 26 3 2
f 34 3 28
f 32 4 39
f 33 1 32
f 1 4 32
f 1 5 4
f 2 5 1
f 6 5 2
f 3 6 2
f 7 6 3
f 36 8 34
f 8 3 34
f 8 7 3
f 40 8 36
f 39 4 43
f 43 4 9
f 5 9 4
f 10 9 5
f 6 10 5
f 11 10 6
f 7 11 6
f 12 11 7
f 8 12 7
f 13 12 8
f 44 13 40
f 40 13 8
f 43 9 47
f 47 9 14
f 10 14 9
f 15 14 10
f 11 15 10
f 16 15 11
f 12 16 11
f 17 16 12
f 13 17 12
f 18 17 13
f 50 18 44
f 44 18 13
f 14 48 47
f 48 14 54
f 14 19 54
f 14 15 19
f 16 19 15
f 20 19 16
f 17 20 16
f 21 20 17
f 58 21 49
f 21 18 49
f 21 17 18
f 50 49 18
f 19 55 54
f 20 56 19
f 19 56 55
f 21 57 20
f 20 57 56
f 58 57 21
f 66 22 76
f 68 23 66
f 66 23 22
f 70 25 68
f 68 25 23
f 72 27 70
f 70 27 25
f 73 29 72
f 72 29 27
f 77 29 73
f 75 30 80
f 76 22 75
f 22 30 75
f 22 31 30
f 23 24 33
f 31 23 33
f 22 23 31
f 24 23 25
f 24 25 26
f 26 25 27
f 26 27 28
f 35 34 28
f 27 35 28
f 29 35 27
f 79 37 77
f 37 29 77
f 37 35 29
f 81 37 79
f 80 30 83
f 83 30 38
f 31 32 39
f 38 31 39
f 30 31 38
f 33 32 31
f 36 34 35
f 41 40 36
f 35 41 36
f 37 41 35
f 84 41 81
f 81 41 37
f 83 38 87
f 87 38 42
f 43 42 38
f 43 38 39
f 40 41 45
f 40 45 44
f 88 45 84
f 84 45 41
f 87 42 91
f 91 42 46
f 47 46 42
f 47 42 43
f 44 45 51
f 44 51 50
f 92 51 88
f 88 51 45
f 91 46 94
f 94 46 52
f 46 47 48
f 53 46 48
f 52 46 53
f 54 53 48
f 59 58 49
f 59 49 50
f 51 59 50
f 60 59 51
f 97 60 92
f 92 60 51
f 52 95 94
f 95 52 99
f 52 61 99
f 52 53 61
f 53 54 55
f 62 53 55
f 61 53 62
f 62 55 56
f 62 56 63
f 63 56 57
f 63 57 64
f 64 57 58
f 59 64 58
f 65 64 59
f 105 65 96
f 65 60 96
f 65 59 60
f 97 96 60
f 61 100 99
f 62 101 61
f 61 101 100
f 63 102 62
f 62 102 101
f 64 103 63
f 63 103 102
f 65 104 64
f 64 104 103
f 105 104 65
f 112 67 118
f 113 69 112
f 112 69 67
f 114 71 113
f 113 71 69
f 119 71 114
f 115 74 123
f 74 115 76
f 115 66 76
f 115 117 66
f 117 118 67
f 68 117 67
f 66 117 68
f 68 67 69
f 68 69 70
f 70 69 71
f 70 71 72
f 72 71 119
f 121 72 119
f 73 72 121
f 77 73 78
f 73 122 78
f 73 121 122
f 124 78 122
f 75 80 74
f 80 123 74
f 80 127 123
f 76 75 74
f 79 77 78
f 78 124 79
f 124 81 79
f 124 128 81
f 126 82 131
f 83 82 126
f 127 83 126
f 80 83 127
f 128 130 85
f 84 128 85
f 81 128 84
f 132 85 130
f 131 82 133
f 133 82 86
f 87 86 82
f 87 82 83
f 84 85 89
f 84 89 88
f 134 89 132
f 132 89 85
f 133 86 135
f 135 86 90
f 91 90 86
f 91 86 87
f 88 89 93
f 88 93 92
f 138 93 134
f 134 93 89
f 90 136 135
f 140 136 90
f 91 140 90
f 94 140 91
f 92 93 137
f 141 92 137
f 97 92 141
f 138 137 93
f 98 143 95
f 143 94 95
f 143 140 94
f 99 98 95
f 106 105 96
f 96 97 106
f 97 146 106
f 97 141 146
f 98 144 143
f 100 107 147
f 100 147 144
f 99 100 144
f 98 99 144
f 107 100 101
f 107 101 108
f 108 101 102
f 108 102 109
f 109 102 103
f 109 103 110
f 110 103 104
f 110 104 111
f 145 153 111
f 145 111 104
f 106 145 104
f 105 106 104
f 146 145 106
f 107 148 147
f 108 149 107
f 107 149 148
f 109 150 108
f 108 150 149
f 110 151 109
f 109 151 150
f 111 152 110
f 110 152 151
f 153 152 111
f 163 116 169
f 116 163 118
f 163 112 118
f 163 164 112
f 165 112 164
f 165 113 112
f 166 113 165
f 166 114 113
f 119 114 120
f 114 167 120
f 114 166 167
f 170 120 167
f 173 168 123
f 123 168 115
f 168 169 116
f 117 168 116
f 115 168 117
f 118 117 116
f 121 119 120
f 121 120 170
f 171 121 170
f 122 121 171
f 171 174 122
f 122 174 124
f 172 125 176
f 127 125 172
f 173 127 172
f 123 127 173
f 174 175 129
f 128 174 129
f 124 174 128
f 177 129 175
f 126 131 125
f 131 176 125
f 131 178 176
f 127 126 125
f 130 128 129
f 129 177 130
f 177 132 130
f 177 179 132
f 131 180 178
f 131 133 180
f 181 132 179
f 134 132 181
f 133 182 180
f 133 135 182
f 183 134 181
f 138 134 183
f 139 184 136
f 184 135 136
f 184 182 135
f 140 139 136
f 142 141 137
f 137 138 142
f 138 187 142
f 138 183 187
f 139 185 184
f 188 185 139
f 140 188 139
f 143 188 140
f 141 142 186
f 191 141 186
f 146 141 191
f 187 186 142
f 143 144 188
f 188 144 189
f 192 189 144
f 192 144 147
f 190 195 153
f 190 153 145
f 145 146 190
f 190 146 191
f 147 148 192
f 192 148 193
f 149 154 196
f 193 149 196
f 148 149 193
f 154 149 150
f 154 150 155
f 155 150 151
f 155 151 156
f 194 199 156
f 151 194 156
f 152 194 151
f 152 153 194
f 194 153 195
f 154 197 196
f 197 154 201
f 154 157 201
f 154 155 157
f 202 157 198
f 157 156 198
f 157 155 156
f 199 198 156
f 201 157 205
f 205 157 158
f 206 158 202
f 202 158 157
f 205 158 210
f 210 158 159
f 211 159 206
f 206 159 158
f 209 160 214
f 210 159 209
f 159 160 209
f 159 161 160
f 213 162 211
f 162 159 211
f 162 161 159
f 218 162 213
f 160 215 214
f 161 216 160
f 160 216 215
f 162 217 161
f 161 217 216
f 218 217 162
f 226 220 169
f 169 220 163
f 221 163 220
f 221 164 163
f 222 164 221
f 222 165 164
f 223 165 222
f 223 166 165
f 224 166 223
f 224 167 166
f 224 227 167
f 167 227 170
f 230 225 173
f 173 225 168
f 169 168 225
f 169 225 226
f 171 170 227
f 171 227 228
f 228 231 171
f 171 231 174
f 233 229 176
f 176 229 172
f 173 172 229
f 173 229 230
f 175 174 231
f 175 231 232
f 232 234 175
f 175 234 177
f 176 235 233
f 176 178 235
f 236 177 234
f 179 177 236
f 178 237 235
f 178 180 237
f 238 179 236
f 181 179 238
f 180 239 237
f 180 182 239
f 240 181 238
f 183 181 240
f 182 241 239
f 182 184 241
f 244 183 240
f 187 183 244
f 184 185 241
f 241 185 242
f 245 242 185
f 245 185 188
f 243 248 191
f 243 191 186
f 186 187 243
f 243 187 244
f 188 189 245
f 245 189 246
f 249 246 189
f 249 189 192
f 247 252 195
f 247 195 190
f 190 191 247
f 247 191 248
f 192 193 249
f 249 193 250
f 253 250 193
f 253 193 196
f 251 254 199
f 251 199 194
f 194 195 251
f 251 195 252
f 200 255 197
f 255 196 197
f 255 253 196
f 201 200 197
f 203 202 198
f 198 199 203
f 199 258 203
f 199 254 258
f 255 200 259
f 259 200 204
f 205 204 200
f 205 200 201
f 202 203 207
f 202 207 206
f 262 207 258
f 258 207 203
f 259 204 263
f 263 204 208
f 210 208 204
f 210 204 205
f 206 207 212
f 206 212 211
f 266 212 262
f 262 212 207
f 209 214 208
f 214 263 208
f 214 267 263
f 210 209 208
f 213 211 212
f 212 266 213
f 266 218 213
f 266 270 218
f 214 215 267
f 267 215 268
f 216 219 271
f 268 216 271
f 215 216 268
f 269 274 219
f 216 269 219
f 217 269 216
f 217 218 269
f 269 218 270
f 219 273 271
f 274 273 219
f 281 275 226
f 226 275 220
f 276 220 275
f 276 221 220
f 277 221 276
f 277 222 221
f 278 222 277
f 278 223 222
f 279 223 278
f 279 224 223
f 279 284 224
f 224 284 227
f 287 280 230
f 230 280 225
f 226 225 280
f 226 280 281
f 228 227 284
f 228 284 285
f 285 288 228
f 228 288 231
f 290 286 233
f 233 286 229
f 230 229 286
f 230 286 287
f 232 231 288
f 232 288 289
f 289 293 232
f 232 293 234
f 233 294 290
f 233 235 294
f 295 234 293
f 236 234 295
f 235 296 294
f 235 237 296
f 297 236 295
f 238 236 297
f 237 298 296
f 237 239 298
f 299 238 297
f 240 238 299
f 239 300 298
f 239 241 300
f 305 240 299
f 244 240 305
f 241 242 300
f 300 242 302
f 306 302 242
f 306 242 245
f 304 309 248
f 304 248 243
f 243 244 304
f 304 244 305
f 245 246 306
f 306 246 307
f 310 307 246
f 310 246 249
f 308 313 252
f 308 252 247
f 247 248 308
f 308 248 309
f 249 250 310
f 310 250 311
f 314 311 250
f 314 250 253
f 312 320 254
f 312 254 251
f 251 252 312
f 312 252 313
f 316 314 256
f 314 255 256
f 314 253 255
f 256 321 316
f 257 319 323
f 257 258 319
f 258 320 319
f 258 254 320
f 256 255 260
f 260 255 259
f 260 324 321
f 260 321 256
f 257 323 326
f 257 326 261
f 261 262 257
f 257 262 258
f 260 259 264
f 264 259 263
f 264 328 324
f 264 324 260
f 261 326 330
f 261 330 265
f 265 266 261
f 261 266 262
f 264 263 327
f 263 332 327
f 263 267 332
f 327 328 264
f 331 265 330
f 331 339 265
f 339 266 265
f 339 270 266
f 267 268 332
f 332 268 334
f 268 271 272
f 336 268 272
f 334 268 336
f 336 272 274
f 269 336 274
f 338 336 269
f 269 270 338
f 338 270 339
f 271 273 272
f 273 274 272
f 281 282 275
f 345 340 282
f 340 275 282
f 340 276 275
f 341 276 340
f 341 277 276
f 342 277 341
f 342 278 277
f 283 279 349
f 279 342 349
f 279 278 342
f 283 284 279
f 352 343 287
f 287 343 280
f 344 282 281
f 280 344 281
f 343 344 280
f 344 345 282
f 350 283 349
f 285 284 283
f 350 285 283
f 351 285 350
f 351 355 285
f 285 355 288
f 290 291 286
f 287 286 291
f 357 287 291
f 352 287 357
f 358 292 289
f 288 358 289
f 355 358 288
f 292 293 289
f 291 290 356
f 290 360 356
f 290 294 360
f 356 357 291
f 359 292 358
f 359 363 292
f 363 293 292
f 363 295 293
f 294 364 360
f 294 296 364
f 367 295 363
f 297 295 367
f 296 368 364
f 296 298 368
f 373 297 367
f 299 297 373
f 370 368 301
f 368 300 301
f 368 298 300
f 301 374 370
f 303 372 375
f 303 305 372
f 305 373 372
f 305 299 373
f 300 302 301
f 374 301 302
f 306 374 302
f 376 374 306
f 309 304 303
f 375 309 303
f 381 309 375
f 304 305 303
f 306 307 376
f 376 307 378
f 382 378 307
f 382 307 310
f 380 393 313
f 380 313 308
f 308 309 380
f 380 309 381
f 310 311 382
f 382 311 384
f 311 314 315
f 386 311 315
f 384 311 386
f 317 388 386
f 317 386 315
f 318 390 388
f 318 388 317
f 390 318 320
f 312 390 320
f 392 390 312
f 312 313 392
f 392 313 393
f 314 316 315
f 321 322 316
f 322 315 316
f 322 317 315
f 319 318 323
f 318 322 323
f 318 317 322
f 319 320 318
f 322 321 325
f 325 321 324
f 325 326 322
f 322 326 323
f 325 324 329
f 329 324 328
f 329 330 325
f 325 330 326
f 332 333 327
f 327 333 328
f 333 329 328
f 333 335 329
f 330 329 331
f 329 337 331
f 329 335 337
f 337 339 331
f 332 334 333
f 333 334 335
f 335 334 336
f 335 336 337
f 337 336 338
f 338 339 337
f 345 346 340
f 340 346 341
f 341 346 347
f 341 347 342
f 342 347 348
f 348 349 342
f 352 353 343
f 400 394 353
f 394 343 353
f 394 344 343
f 395 346 345
f 344 395 345
f 394 395 344
f 396 347 346
f 396 346 395
f 397 348 347
f 397 347 396
f 350 349 348
f 397 350 348
f 398 350 397
f 354 351 406
f 351 398 406
f 351 350 398
f 354 355 351
f 353 352 399
f 352 408 399
f 352 357 408
f 399 400 353
f 407 354 406
f 407 413 354
f 413 355 354
f 413 358 355
f 360 361 356
f 357 356 361
f 414 357 361
f 408 357 414
f 417 362 359
f 358 417 359
f 413 417 358
f 362 363 359
f 361 360 365
f 365 360 364
f 365 418 414
f 365 414 361
f 362 417 421
f 362 421 366
f 366 367 362
f 362 367 363
f 365 364 369
f 369 364 368
f 369 422 418
f 369 418 365
f 366 421 425
f 366 425 371
f 371 373 366
f 366 373 367
f 368 370 369
f 422 369 370
f 374 422 370
f 426 422 374
f 375 372 371
f 425 375 371
f 433 375 425
f 372 373 371
f 428 426 377
f 426 376 377
f 426 374 376
f 377 434 428
f 379 432 445
f 379 381 432
f 381 433 432
f 381 375 433
f 376 378 377
f 382 383 378
f 378 383 377
f 383 436 377
f 436 434 377
f 385 438 436
f 385 436 383
f 387 440 438
f 387 438 385
f 389 442 440
f 389 440 387
f 391 444 442
f 391 442 389
f 393 380 379
f 393 379 445
f 391 393 445
f 444 391 445
f 380 381 379
f 382 384 383
f 383 384 385
f 385 384 386
f 385 386 387
f 387 386 388
f 387 388 389
f 389 388 390
f 389 390 391
f 391 390 392
f 392 393 391
f 400 401 394
f 394 401 395
f 395 401 402
f 395 402 396
f 396 402 403
f 396 403 397
f 397 403 404
f 397 404 398
f 398 404 405
f 405 406 398
f 408 409 399
f 399 409 400
f 409 401 400
f 409 410 401
f 410 450 446
f 402 410 446
f 401 410 402
f 447 403 402
f 447 402 446
f 448 404 403
f 448 403 447
f 404 448 454
f 411 404 454
f 405 404 411
f 406 405 407
f 405 412 407
f 405 411 412
f 412 413 407
f 409 408 415
f 415 408 414
f 415 456 449
f 410 415 449
f 409 415 410
f 449 450 410
f 455 411 454
f 411 455 462
f 416 411 462
f 412 411 416
f 416 417 412
f 412 417 413
f 415 414 419
f 419 414 418
f 419 463 456
f 419 456 415
f 416 462 469
f 416 469 420
f 420 421 416
f 416 421 417
f 419 418 423
f 423 418 422
f 423 470 463
f 423 463 419
f 420 469 478
f 420 478 424
f 424 425 420
f 420 425 421
f 423 422 427
f 427 422 426
f 429 472 470
f 423 429 470
f 427 429 423
f 429 479 472
f 430 477 486
f 424 478 477
f 430 424 477
f 431 424 430
f 431 433 424
f 424 433 425
f 426 428 427
f 434 435 428
f 435 427 428
f 435 429 427
f 437 481 479
f 429 437 479
f 435 437 429
f 439 483 481
f 439 481 437
f 441 485 483
f 441 483 439
f 430 486 485
f 441 430 485
f 443 430 441
f 432 431 445
f 431 443 445
f 431 430 443
f 432 433 431
f 434 436 435
f 435 436 437
f 437 436 438
f 437 438 439
f 439 438 440
f 439 440 441
f 441 440 442
f 441 442 443
f 443 442 444
f 444 445 443
f 450 451 446
f 446 451 447
f 447 451 452
f 447 452 448
f 448 452 453
f 453 454 448
f 456 457 449
f 449 457 450
f 457 451 450
f 457 458 451
f 458 452 451
f 458 459 452
f 459 453 452
f 459 460 453
f 454 453 455
f 453 461 455
f 453 460 461
f 461 462 455
f 457 456 464
f 464 456 463
f 464 458 457
f 464 465 458
f 465 459 458
f 465 466 459
f 466 460 459
f 466 467 460
f 467 461 460
f 467 468 461
f 468 469 461
f 461 469 462
f 464 463 471
f 471 463 470
f 471 465 464
f 471 473 465
f 473 466 465
f 473 474 466
f 474 467 466
f 474 475 467
f 475 468 467
f 475 476 468
f 476 478 468
f 468 478 469
f 470 472 471
f 479 480 472
f 480 471 472
f 480 473 471
f 480 474 473
f 480 482 474
f 482 475 474
f 482 484 475
f 477 476 486
f 476 484 486
f 476 475 484
f 477 478 476
f 479 481 480
f 480 481 482
f 482 481 483
f 482 483 484
f 484 483 485
f 485 486 484

