# https://github.com/mikedh/trimesh
v -0.98823529 -0.18529412 -0.06176471
v -0.98823529 -0.06176471 -0.06176471
v -0.98823529 0.06176471 -0.06176471
v -0.85001141 -0.55588233 -0.06176471
v -0.86470586 -0.43235293 -0.06176471
v -0.91397887 -0.30882353 -0.06176471
v -0.92647058 -0.29633176 -0.06176471
v -0.92647058 -0.18529412 -0.12352941
v -0.92647058 -0.18529412 0.00000000
v -0.92647058 -0.06176471 -0.12352941
v -0.92647058 -0.06176471 0.00000000
v -0.92647058 0.06176471 -0.12352941
v -0.92647058 0.16962121 -0.06176471
v -0.92647058 0.06176471 0.00000000
v -0.91079772 0.18529412 -0.06176471
v -0.86470586 0.30882353 -0.06176471
v -0.85160428 0.43235293 -0.06176471
v -0.74117649 -0.67941177 -0.06176471
v -0.80294120 -0.60295254 -0.06176471
v -0.80294120 -0.55588233 -0.10883489
v -0.80294120 -0.55588233 -0.01469452
v -0.80294120 -0.43235293 -0.12352941
v -0.74117649 -0.43235293 -0.06176471
v -0.80294120 -0.43235293 0.00000000
v -0.80294120 -0.30882353 -0.12352941
v -0.74098283 -0.30882353 -0.06176471
v -0.80294120 -0.30882353 0.00000000
v -0.80294120 -0.18529412 -0.12352941
v -0.74098283 -0.18529412 -0.06176471
v -0.80294120 -0.18529412 0.00000000
v -0.80294120 -0.06176471 -0.06711949
v -0.79755414 -0.06176471 -0.06176471
v -0.80294120 -0.06176471 -0.05640991
v -0.80294120 0.06176471 -0.12352941
v -0.74078798 0.06176471 -0.06176471
v -0.80294120 0.06176471 0.00000000
v -0.80294120 0.18529412 -0.12352941
v -0.74117649 0.18529412 -0.06176471
v -0.80294120 0.18529412 0.00000000
v -0.80294120 0.30882353 -0.12352941
v -0.74117649 0.30882353 -0.06176471
v -0.80294120 0.30882353 0.00000000
v -0.80294120 0.43235293 -0.11042782
v -0.80294120 0.48101610 -0.06176471
v -0.80294120 0.43235293 -0.01310153
v -0.74117649 0.55588233 -0.06176471
v -0.59366465 -0.80294120 -0.06176471
v -0.67941177 -0.74117649 -0.06176471
v -0.67941177 -0.67941177 -0.12352941
v -0.67941177 -0.67941177 0.00000000
v -0.67941177 -0.55588233 -0.12352941
v -0.61764705 -0.55588233 -0.06176471
v -0.67941177 -0.49411765 -0.06176471
v -0.67941177 -0.55588233 0.00000000
v -0.67941177 0.37058824 -0.06176471
v -0.67941177 0.43235293 -0.12352941
v -0.61745346 0.43235293 -0.06176471
v -0.67941177 0.43235293 0.00000000
v -0.67941177 0.55588233 -0.12352941
v -0.67941177 0.61764705 -0.06176471
v -0.67941177 0.55588222 -0.00019250
v -0.60397398 0.67941177 -0.06176471
v -0.55588233 -0.84072351 -0.06176471
v -0.55588233 -0.80294120 -0.09954701
v -0.55588233 -0.80294120 -0.02398241
v -0.55588233 -0.67941177 -0.12352941
v -0.49411765 -0.67941177 -0.06176471
v -0.55588233 -0.61764705 -0.06176471
v -0.55588233 -0.67941177 0.00038841
v -0.55588233 0.49392396 -0.06176471
v -0.55588233 0.55588233 -0.12352941
v -0.49411765 0.55588233 -0.06176471
v -0.55588233 0.55588233 0.00000000
v -0.55588233 0.67941177 -0.10985628
v -0.55588233 0.72750336 -0.06176471
v -0.55588233 0.67941177 -0.01367313
v -0.43235293 -0.86470586 -0.06176471
v -0.43235293 -0.80294120 -0.12352941
v -0.43235293 -0.74117649 -0.06176471
v -0.43235293 -0.80294120 0.00000000
v -0.43235293 0.61764705 -0.06176471
v -0.43235293 0.67941177 -0.12352941
v -0.43235293 0.74117649 -0.06176471
v -0.43235293 0.67941177 0.00000000
v -0.30612144 -0.92647058 -0.06176471
v -0.30882353 -0.92376852 -0.06176471
v -0.30882353 -0.80294120 -0.12352941
v -0.20746607 -0.80294120 -0.06176471
v -0.30882353 -0.74098283 -0.06176471
v -0.30882353 -0.80294120 0.00000000
v -0.24182449 -0.18529412 0.06176471
v -0.24090359 -0.06176471 0.06176471
v -0.24066934 0.06176471 0.06176471
v -0.30882353 0.61764705 -0.06176471
v -0.30882353 0.67941177 -0.12352941
v -0.22344680 0.67941177 -0.06176471
v -0.30882353 0.78808373 -0.06176471
v -0.30882353 0.67941177 0.00000000
v -0.29396603 0.80294120 -0.06176471
v -0.18529412 -0.98823529 -0.06176471
v -0.18529412 -0.92647058 -0.12352941
v -0.18529412 -0.82511312 -0.06176471
v -0.18529412 -0.92647058 0.00000000
v -0.18529412 -0.24182449 0.06176471
v -0.18529412 -0.18529412 0.00523428
v -0.18529412 -0.18529412 0.11829513
v -0.18529412 -0.06176471 0.00615529
v -0.18529412 -0.06176471 0.11737412
v -0.18529412 0.06176471 0.00638949
v -0.18529412 0.11713992 0.06176471
v -0.18529412 0.06176471 0.11713992
v -0.18529412 0.71756446 -0.06176471
v -0.18529412 0.80294120 -0.12352941
v -0.18529412 0.86470586 -0.06176471
v -0.18529412 0.80294120 -0.00019250
v -0.06176471 -0.98823529 -0.06176471
v -0.06176471 -0.92647058 -0.12352941
v -0.06176471 -0.86470586 -0.06176471
v -0.06176471 -0.92647058 0.00000000
v -0.06176471 -0.24159665 0.06176471
v -0.06176471 -0.18529412 0.00546223
v -0.06176471 -0.18529406 0.11806730
v -0.06176471 -0.06176471 0.00691078
v -0.06176471 -0.06176471 0.11642755
v -0.06176471 0.06176471 0.00734266
v -0.06176471 0.14705072 0.06176471
v -0.06176471 0.06176471 0.11618675
v -0.06176471 0.74117649 -0.06176471
v -0.06176471 0.80294120 -0.12352941
v -0.06176471 0.86470586 -0.06176471
v -0.06176471 0.80294120 0.00000000
v 0.06176471 -0.98823529 -0.06176471
v 0.06176471 -0.92647058 -0.12352941
v 0.18488827 -0.92647058 -0.06176471
v 0.06176471 -0.82652265 -0.06176471
v 0.06176471 -0.92647058 0.00000000
v 0.08534621 -0.80294120 -0.06176471
v 0.06176471 -0.24136722 0.06176471
v 0.06176471 -0.18529412 0.00569160
v 0.11783781 -0.18529412 0.06176471
v 0.06176471 -0.18529412 0.11783781
v 0.06176471 -0.06176471 0.00615529
v 0.11737412 -0.06176471 0.06176471
v 0.06176471 -0.06176471 0.11737412
v 0.06176471 0.06176471 0.00569160
v 0.11783781 0.06176471 0.06176471
v 0.06176471 0.11783781 0.06176471
v 0.06176471 0.06176471 0.11783781
v 0.10010140 0.67941177 -0.06176471
v 0.06176471 0.71774846 -0.06176471
v 0.06176471 0.80294120 -0.12352941
v 0.17233655 0.80294120 -0.06176471
v 0.06176471 0.86470586 -0.06176471
v 0.06176459 0.80294120 -0.00019250
v 0.18529412 -0.92606479 -0.06176471
v 0.18529412 -0.80294120 -0.12352941
v 0.18529412 -0.74098283 -0.06176471
v 0.18529412 -0.80294120 0.00000000
v 0.18529412 0.61764705 -0.06176471
v 0.18529412 0.67941177 -0.12352941
v 0.18529412 0.78998363 -0.06176471
v 0.18529412 0.67941177 0.00000000
v 0.30882353 -0.86470586 -0.06176471
v 0.30882353 -0.80294120 -0.12352941
v 0.30882353 -0.74117649 -0.06176471
v 0.30882353 -0.80294120 0.00000000
v 0.37058824 -0.67941177 -0.06176471
v 0.37058824 0.55588233 -0.06176471
v 0.30882353 0.61764705 -0.06176471
v 0.30882353 0.67941177 -0.12352941
v 0.30882353 0.74117649 -0.06176471
v 0.30882353 0.67941177 0.00000000
v 0.43235293 -0.84342563 -0.06176471
v 0.43235293 -0.80294120 -0.10224914
v 0.47283739 -0.80294120 -0.06176471
v 0.43235293 -0.80294120 -0.02128027
v 0.43235293 -0.67941177 -0.12352941
v 0.43235293 -0.61764705 -0.06176471
v 0.43235293 -0.67941177 0.00000000
v 0.49411765 -0.55588233 -0.06176471
v 0.49411765 0.43235293 -0.06176471
v 0.43235293 0.49411765 -0.06176471
v 0.43235293 0.55588233 -0.12352941
v 0.43235293 0.55588233 0.00019367
v 0.43235293 0.67941177 -0.11236162
v 0.48294991 0.67941177 -0.06176471
v 0.43235293 0.73000872 -0.06176471
v 0.43235293 0.67941177 -0.01116773
v 0.55588233 -0.74117649 -0.06176471
v 0.55588233 -0.67941177 -0.12352941
v 0.61764705 -0.67941177 -0.06176471
v 0.55588233 -0.67941177 0.00000000
v 0.55588233 -0.55588233 -0.12352941
v 0.55588233 -0.49411765 -0.06176471
v 0.55588233 -0.55588233 0.00000000
v 0.61764705 -0.43235293 -0.06176471
v 0.61725855 -0.30882353 -0.06176471
v 0.61725855 -0.18529418 -0.06176471
v 0.65908206 -0.06176471 -0.06176471
v 0.61725855 0.06176471 -0.06176471
v 0.61745340 0.18529412 -0.06176471
v 0.61764705 0.30882353 -0.06176471
v 0.55588233 0.37058824 -0.06176471
v 0.55588233 0.43235293 -0.12352941
v 0.55588233 0.43235293 0.00019367
v 0.55588233 0.55588233 -0.12352941
v 0.61764705 0.55588233 -0.06176471
v 0.55588233 0.61764705 -0.06176471
v 0.55588222 0.55588222 -0.00019250
v 0.67941177 -0.59906745 -0.06176471
v 0.67941177 -0.55588233 -0.10494980
v 0.72259682 -0.55588233 -0.06176471
v 0.67941177 -0.55588233 -0.01857967
v 0.67941177 -0.43235293 -0.12352941
v 0.74117649 -0.43235293 -0.06176471
v 0.67941177 -0.43235293 0.00000000
v 0.67941177 -0.30882353 -0.12352941
v 0.79985934 -0.30882353 -0.06176471
v 0.67941177 -0.30882353 0.00000000
v 0.67941177 -0.18529412 -0.12352941
v 0.67941177 -0.18529412 0.00019367
v 0.67941177 -0.06176471 -0.08188163
v 0.67941165 -0.06176471 -0.04164778
v 0.67941177 0.06176471 -0.12352941
v 0.67941177 0.06176471 0.00000000
v 0.67941177 0.18529412 -0.12352941
v 0.79631948 0.18529412 -0.06176471
v 0.67941177 0.18529412 0.00000000
v 0.67941177 0.30882353 -0.12352941
v 0.74117649 0.30882353 -0.06176471
v 0.67941177 0.30882353 0.00000000
v 0.67941177 0.43235293 -0.11014314
v 0.72779018 0.43235293 -0.06176471
v 0.67941177 0.48073137 -0.06176471
v 0.67941177 0.43235293 -0.01338627
v 0.80294120 -0.30574176 -0.06176471
v 0.80294120 -0.18529412 -0.12352941
v 0.86470586 -0.18529412 -0.06176471
v 0.80294120 -0.18529412 -0.00019250
v 0.80294120 -0.06176471 -0.12352941
v 0.86470586 -0.06176471 -0.06176471
v 0.80294120 -0.06176471 0.00000000
v 0.80294120 0.06176471 -0.12352941
v 0.86470586 0.06176471 -0.06176471
v 0.80294120 0.17867243 -0.06176471
v 0.80294120 0.06176471 0.00000000
f 7 1 8
f 9 1 7
f 8 1 10
f 10 1 2
f 11 2 9
f 9 2 1
f 10 2 12
f 12 2 3
f 14 3 11
f 11 3 2
f 3 13 12
f 14 13 3
f 19 4 20
f 21 4 19
f 20 4 22
f 22 4 5
f 24 5 21
f 21 5 4
f 22 5 25
f 25 5 6
f 27 6 24
f 24 6 5
f 7 8 6
f 8 25 6
f 8 28 25
f 6 27 7
f 27 9 7
f 27 30 9
f 8 31 28
f 8 10 31
f 33 9 30
f 11 9 33
f 10 34 31
f 10 12 34
f 36 11 33
f 14 11 36
f 15 37 13
f 37 12 13
f 37 34 12
f 13 14 15
f 14 39 15
f 14 36 39
f 37 15 40
f 40 15 16
f 42 16 39
f 39 16 15
f 40 16 43
f 43 16 17
f 45 17 42
f 42 17 16
f 17 44 43
f 45 44 17
f 48 18 49
f 50 18 48
f 19 20 18
f 20 49 18
f 20 51 49
f 18 50 19
f 50 21 19
f 50 54 21
f 53 51 23
f 51 22 23
f 51 20 22
f 23 24 53
f 24 54 53
f 24 21 54
f 23 22 26
f 26 22 25
f 26 27 23
f 23 27 24
f 26 25 29
f 29 25 28
f 29 30 26
f 26 30 27
f 29 28 32
f 32 28 31
f 32 33 29
f 29 33 30
f 32 31 35
f 35 31 34
f 35 36 32
f 32 36 33
f 35 34 38
f 38 34 37
f 38 39 35
f 35 39 36
f 38 37 41
f 41 37 40
f 41 42 38
f 38 42 39
f 41 40 55
f 40 56 55
f 40 43 56
f 55 58 41
f 58 42 41
f 58 45 42
f 46 59 44
f 59 43 44
f 59 56 43
f 44 45 46
f 45 61 46
f 45 58 61
f 46 60 59
f 61 60 46
f 63 47 64
f 65 47 63
f 48 49 47
f 49 64 47
f 49 66 64
f 47 65 48
f 65 50 48
f 65 69 50
f 68 66 52
f 66 51 52
f 66 49 51
f 52 54 68
f 54 69 68
f 54 50 69
f 51 53 52
f 53 54 52
f 56 57 55
f 57 58 55
f 57 56 70
f 56 71 70
f 56 59 71
f 70 73 57
f 73 58 57
f 73 61 58
f 62 74 60
f 74 59 60
f 74 71 59
f 60 61 62
f 61 76 62
f 61 73 76
f 62 75 74
f 76 75 62
f 78 77 64
f 64 77 63
f 77 80 63
f 63 80 65
f 79 78 67
f 78 66 67
f 78 64 66
f 67 69 79
f 69 80 79
f 69 65 80
f 66 68 67
f 68 69 67
f 71 72 70
f 72 73 70
f 72 71 81
f 71 82 81
f 71 74 82
f 81 84 72
f 84 73 72
f 84 76 73
f 74 75 82
f 82 75 83
f 75 76 83
f 83 76 84
f 87 86 78
f 78 86 77
f 86 90 77
f 77 90 80
f 78 79 87
f 87 79 89
f 79 80 89
f 89 80 90
f 95 94 82
f 82 94 81
f 94 98 81
f 81 98 84
f 82 83 95
f 95 83 97
f 83 84 97
f 97 84 98
f 100 85 101
f 103 85 100
f 102 101 85
f 87 88 86
f 85 103 102
f 90 86 88
f 87 89 88
f 89 90 88
f 104 91 105
f 106 91 104
f 105 91 107
f 107 91 92
f 108 92 106
f 106 92 91
f 107 92 109
f 109 92 93
f 111 93 108
f 108 93 92
f 93 110 109
f 111 110 93
f 95 96 94
f 96 98 94
f 99 113 112
f 95 97 96
f 97 98 96
f 115 99 112
f 99 114 113
f 115 114 99
f 117 116 101
f 101 116 100
f 116 119 100
f 100 119 103
f 101 102 117
f 117 102 118
f 102 103 118
f 118 103 119
f 121 120 105
f 105 120 104
f 120 122 104
f 104 122 106
f 105 123 121
f 105 107 123
f 124 106 122
f 108 106 124
f 107 125 123
f 107 109 125
f 127 108 124
f 111 108 127
f 109 110 125
f 125 110 126
f 110 111 126
f 126 111 127
f 129 128 113
f 113 128 112
f 128 131 112
f 112 131 115
f 113 114 129
f 129 114 130
f 114 115 130
f 130 115 131
f 133 132 117
f 117 132 116
f 132 136 116
f 116 136 119
f 117 118 133
f 133 118 135
f 118 119 135
f 135 119 136
f 139 138 121
f 121 138 120
f 138 141 120
f 120 141 122
f 121 142 139
f 121 123 142
f 144 122 141
f 124 122 144
f 123 145 142
f 123 125 145
f 148 124 144
f 127 124 148
f 125 126 145
f 145 126 147
f 126 127 147
f 147 127 148
f 151 150 129
f 129 150 128
f 150 154 128
f 128 154 131
f 129 130 151
f 151 130 153
f 130 131 153
f 153 131 154
f 133 134 132
f 134 136 132
f 137 156 155
f 133 135 134
f 135 136 134
f 158 137 155
f 137 157 156
f 158 157 137
f 139 140 138
f 140 141 138
f 140 139 143
f 143 139 142
f 143 144 140
f 140 144 141
f 143 142 146
f 146 142 145
f 146 148 143
f 143 148 144
f 145 147 146
f 147 148 146
f 159 149 160
f 162 149 159
f 161 160 149
f 151 152 150
f 149 162 161
f 154 150 152
f 151 153 152
f 153 154 152
f 164 163 156
f 156 163 155
f 163 166 155
f 155 166 158
f 156 157 164
f 164 157 165
f 157 158 165
f 165 158 166
f 170 169 160
f 160 169 159
f 169 172 159
f 159 172 162
f 160 161 170
f 170 161 171
f 161 162 171
f 171 162 172
f 174 173 164
f 164 173 163
f 173 176 163
f 163 176 166
f 167 177 165
f 177 164 165
f 177 174 164
f 165 166 167
f 166 179 167
f 166 176 179
f 167 178 177
f 179 178 167
f 182 168 183
f 184 168 182
f 169 170 168
f 170 183 168
f 170 185 183
f 168 184 169
f 184 172 169
f 184 188 172
f 170 171 185
f 185 171 187
f 171 172 187
f 187 172 188
f 174 175 173
f 175 176 173
f 175 174 189
f 174 190 189
f 174 177 190
f 189 192 175
f 192 176 175
f 192 179 176
f 180 193 178
f 193 177 178
f 193 190 177
f 178 179 180
f 179 195 180
f 179 192 195
f 180 194 193
f 195 194 180
f 203 181 204
f 205 181 203
f 182 183 181
f 183 204 181
f 183 206 204
f 181 205 182
f 205 184 182
f 205 209 184
f 208 206 186
f 206 185 186
f 206 183 185
f 186 188 208
f 188 209 208
f 188 184 209
f 185 187 186
f 187 188 186
f 190 191 189
f 191 192 189
f 191 190 210
f 190 211 210
f 190 193 211
f 210 213 191
f 213 192 191
f 213 195 192
f 196 214 194
f 214 193 194
f 214 211 193
f 194 195 196
f 195 216 196
f 195 213 216
f 214 196 217
f 217 196 197
f 219 197 216
f 216 197 196
f 217 197 220
f 220 197 198
f 221 198 219
f 219 198 197
f 220 198 222
f 222 198 199
f 223 199 221
f 221 199 198
f 222 199 224
f 224 199 200
f 225 200 223
f 223 200 199
f 224 200 226
f 226 200 201
f 228 201 225
f 225 201 200
f 226 201 229
f 229 201 202
f 231 202 228
f 228 202 201
f 203 204 202
f 204 229 202
f 204 232 229
f 202 231 203
f 231 205 203
f 231 235 205
f 234 232 207
f 232 206 207
f 232 204 206
f 207 209 234
f 209 235 234
f 209 205 235
f 206 208 207
f 208 209 207
f 211 212 210
f 212 213 210
f 212 211 215
f 215 211 214
f 215 216 212
f 212 216 213
f 215 214 218
f 218 214 217
f 218 219 215
f 215 219 216
f 218 217 236
f 217 237 236
f 217 220 237
f 236 239 218
f 239 219 218
f 239 221 219
f 220 240 237
f 220 222 240
f 242 221 239
f 223 221 242
f 222 243 240
f 222 224 243
f 246 223 242
f 225 223 246
f 245 243 227
f 243 226 227
f 243 224 226
f 227 228 245
f 228 246 245
f 228 225 246
f 227 226 230
f 230 226 229
f 230 231 227
f 227 231 228
f 230 229 233
f 233 229 232
f 233 235 230
f 230 235 231
f 232 234 233
f 234 235 233
f 237 238 236
f 238 239 236
f 238 237 241
f 241 237 240
f 241 242 238
f 238 242 239
f 241 240 244
f 244 240 243
f 244 246 241
f 241 246 242
f 243 245 244
f 245 246 244

