# https://github.com/mikedh/trimesh
v -0.18859787 -0.43615386 -0.04846154
v -0.19037794 -0.43615386 -0.01615385
v -0.18692310 -0.43615386 0.01615385
v -0.16382636 -0.46846154 -0.04846154
v -0.17769231 -0.45051283 -0.04846154
v -0.16401462 -0.46846154 -0.01615385
v -0.17769231 -0.45123079 -0.01615385
v -0.16290253 -0.46846154 0.01615385
v -0.17769231 -0.44853526 0.01615385
v -0.17769231 -0.43615386 -0.05923079
v -0.15705663 -0.43615386 -0.04846154
v -0.17769231 -0.42435193 -0.04846154
v -0.14946868 -0.43615386 -0.01615385
v -0.17769231 -0.42161179 -0.01615385
v -0.15893771 -0.43615386 0.01615385
v -0.17769231 -0.42606756 0.01615385
v -0.17769225 -0.43615386 0.02538458
v -0.15897197 -0.40384614 -0.01615385
v -0.15639155 -0.37153846 -0.01615385
v -0.13481113 -0.50076926 -0.04846154
v -0.14538461 -0.48942214 -0.04846160
v -0.13531016 -0.50076926 -0.01615385
v -0.14538455 -0.49060732 -0.01615385
v -0.13404992 -0.50076926 0.01615385
v -0.14538461 -0.48862284 0.01615385
v -0.14538461 -0.46846154 -0.06312684
v -0.12426952 -0.46846154 -0.04846154
v -0.14538461 -0.44435537 -0.04846154
v -0.14538461 -0.43890169 -0.01615385
v -0.12485579 -0.46846154 0.01615385
v -0.14538461 -0.44503486 0.01615385
v -0.14538461 -0.46846154 0.03013096
v -0.14210503 -0.43615386 -0.01615385
v -0.14538461 -0.43162110 -0.01615385
v -0.14538461 -0.40384614 -0.02778463
v -0.14538461 -0.40384614 -0.00452306
v -0.14538461 -0.37153846 -0.02527384
v -0.12228763 -0.37153846 -0.01615385
v -0.14538461 -0.36254182 -0.01615385
v -0.14538461 -0.37153846 -0.00715715
v -0.11388294 -0.04846154 -0.01615385
v -0.11488768 -0.01615385 -0.01615385
v -0.11530912 0.01615385 -0.01615385
v -0.11550464 0.04846154 -0.01615385
v -0.11542891 0.08076923 -0.01615385
v -0.11561224 0.11307693 -0.01615385
v -0.11583562 0.14538461 -0.01615385
v -0.11600354 0.17769231 -0.01615385
v -0.11628269 0.20999999 -0.01615385
v -0.11636440 0.24230769 -0.01615385
v -0.11636440 0.27461538 -0.01615385
v -0.11615926 0.30692309 -0.01615385
v -0.11640507 0.33923078 -0.01615385
v -0.11660670 0.37153846 -0.01615385
v -0.11662672 0.40384614 -0.01615385
v -0.11644562 0.43615386 -0.01615385
v -0.11613861 0.46846154 -0.01615385
v -0.11626217 0.50076926 -0.01615385
v -0.11622112 0.53307694 -0.01615385
v -0.11609720 0.56538463 -0.01615385
v -0.11566573 0.59769231 -0.01615385
v -0.11668662 0.63000000 -0.01615385
v -0.09158587 -0.69461536 -0.04846154
v -0.09445894 -0.69461536 -0.01615385
v -0.08985109 -0.69461536 0.01615385
v -0.09391771 -0.66230768 -0.04846154
v -0.09723495 -0.66230768 -0.01615385
v -0.09231319 -0.66230768 0.01615385
v -0.08395448 -0.56538463 -0.04846154
v -0.08482976 -0.56538463 -0.01615385
v -0.08441867 -0.56538463 0.01615385
v -0.10149494 -0.53307694 -0.04846160
v -0.11307693 -0.52750045 -0.04846154
v -0.10903575 -0.53307694 -0.01615385
v -0.11307698 -0.52903569 -0.01615385
v -0.10107695 -0.53307694 0.01615385
v -0.11307698 -0.52735835 0.01615385
v -0.11307693 -0.50076926 -0.06607305
v -0.08237066 -0.50076926 -0.04846154
v -0.11307693 -0.47888577 -0.04846154
v -0.08711624 -0.50076926 0.01615385
v -0.11307693 -0.47943988 0.01615385
v -0.11307693 -0.50076926 0.03213145
v -0.11307693 -0.46846160 -0.03498406
v -0.11307693 -0.46846154 0.00273220
v -0.11307693 -0.43615386 -0.03068672
v -0.11307693 -0.43615386 -0.00167107
v -0.08411728 -0.40384614 -0.04846154
v -0.11307693 -0.40384614 -0.03555061
v -0.11307693 -0.37584764 -0.01615385
v -0.11307693 -0.40384614 0.00179493
v -0.08087978 -0.40384614 0.01615385
v -0.10208448 -0.37153846 -0.01615385
v -0.09550374 -0.33923078 -0.01615385
v -0.09398007 -0.30692309 -0.01615385
v -0.09544815 -0.27461538 -0.01615385
v -0.09703548 -0.24230769 -0.01615385
v -0.09852673 -0.20999999 -0.01615385
v -0.10001632 -0.17769231 -0.01615385
v -0.10317457 -0.14538461 -0.01615385
v -0.10740086 -0.11307693 -0.01615385
v -0.11207052 -0.08076923 -0.01615385
v -0.11307693 -0.07140084 -0.01615385
v -0.11307693 -0.04846154 -0.01695986
v -0.11307693 -0.04846154 -0.01534783
v -0.11307693 -0.01615385 -0.01796461
v -0.11307693 -0.01615385 -0.01434314
v -0.11307693 0.01615385 -0.01838604
v -0.11307686 0.01615385 -0.01392165
v -0.11307693 0.04846154 -0.01858157
v -0.11307693 0.04846154 -0.01372618
v -0.11307693 0.08076923 -0.01850584
v -0.11307693 0.08076923 -0.01380186
v -0.11307693 0.11307693 -0.01868916
v -0.11307693 0.11307693 -0.01361859
v -0.11307693 0.14538461 -0.01891254
v -0.11307693 0.14538461 -0.01339515
v -0.11307693 0.17769231 -0.01908046
v -0.11307686 0.17769231 -0.01322717
v -0.11307693 0.20999999 -0.01935961
v -0.11307693 0.20999999 -0.01294802
v -0.11307693 0.24230769 -0.01944132
v -0.11307693 0.24230769 -0.01286643
v -0.11307693 0.27461538 -0.01944132
v -0.11307693 0.27461538 -0.01286643
v -0.11307693 0.30692309 -0.01923618
v -0.11307693 0.30692309 -0.01307151
v -0.11307693 0.33923078 -0.01948199
v -0.11307693 0.33923078 -0.01282576
v -0.11307693 0.37153846 -0.01968362
v -0.11307693 0.37153846 -0.01262401
v -0.11307693 0.40384614 -0.01970365
v -0.11307693 0.40384614 -0.01260405
v -0.11307693 0.43615386 -0.01952254
v -0.11307693 0.43615386 -0.01278522
v -0.11307693 0.46846154 -0.01921554
v -0.11307693 0.46846154 -0.01309222
v -0.11307693 0.50076926 -0.01933909
v -0.11307693 0.50076926 -0.01296860
v -0.11307693 0.53307694 -0.01929805
v -0.11307698 0.53307694 -0.01300964
v -0.11307693 0.56538463 -0.01917413
v -0.11307693 0.56538463 -0.01313350
v -0.11307693 0.59769231 -0.01874265
v -0.11307693 0.59769231 -0.01356510
v -0.11307693 0.63000000 -0.01976354
v -0.11307693 0.64409631 -0.01615385
v -0.11307693 0.63000000 -0.01254415
v -0.09506086 0.66230768 -0.01615385
v -0.08372851 0.69461536 -0.01615385
v -0.08561753 0.72692305 -0.01615385
v -0.06129944 -0.92076921 -0.01615385
v -0.05197079 -0.88846153 -0.04846154
v -0.06414792 -0.88846153 -0.01615385
v -0.05071777 -0.88846153 0.01615385
v -0.04891261 -0.85615385 -0.01615385
v -0.08076923 -0.70501953 -0.04846154
v -0.08076923 -0.70795339 -0.01615385
v -0.08076923 -0.70353287 0.01615385
v -0.08076923 -0.69461536 -0.05886568
v -0.08076923 -0.69461536 0.02507129
v -0.08076923 -0.66230768 -0.05988343
v -0.08076917 -0.65093172 -0.04846154
v -0.08076923 -0.64770281 -0.01615385
v -0.08076923 -0.65204364 0.01615385
v -0.08076923 -0.66230768 0.02641786
v -0.06025643 -0.63000000 -0.01615385
v -0.08076923 -0.56856990 -0.04846154
v -0.06077220 -0.59769231 -0.01615385
v -0.08076923 -0.56944513 -0.01615385
v -0.08076923 -0.56903404 0.01615385
v -0.04854602 -0.56538463 -0.08076923
v -0.08076923 -0.56538463 -0.05369658
v -0.08076923 -0.56538463 0.02176207
v -0.08076923 -0.53307694 -0.06375058
v -0.08076923 -0.50472957 -0.04846154
v -0.08076923 -0.51375091 0.01615385
v -0.08076923 -0.53307694 0.02942551
v -0.07928235 -0.50076926 -0.04846154
v -0.08076923 -0.50076926 -0.04697466
v -0.08076923 -0.50076926 0.01059505
v -0.07521043 -0.50076926 0.01615385
v -0.07975302 -0.46846154 -0.04846154
v -0.08076929 -0.46846154 -0.04748847
v -0.08076923 -0.46846154 0.01096342
v -0.07464758 -0.46846154 0.01615385
v -0.07954449 -0.43615386 -0.04846154
v -0.08076923 -0.42625681 -0.04846160
v -0.08076923 -0.43615380 -0.04739967
v -0.08076923 -0.43615386 0.01213190
v -0.07577772 -0.43615386 0.01615385
v -0.08076923 -0.40445843 0.01615385
v -0.08076923 -0.40384614 -0.05077009
v -0.08076923 -0.40056705 -0.04846154
v -0.08076923 -0.40372673 0.01615372
v -0.08076923 -0.40384614 0.01624233
v -0.08076923 -0.37153846 -0.02599562
v -0.08076923 -0.37153846 -0.00687455
v -0.08076923 -0.33923078 -0.02436258
v -0.08076923 -0.33923078 -0.00794505
v -0.08076923 -0.30692309 -0.02390460
v -0.08076923 -0.30692309 -0.00840303
v -0.08076923 -0.27461538 -0.02410709
v -0.08076923 -0.27461538 -0.00820054
v -0.08076923 -0.24230769 -0.02433442
v -0.08076923 -0.24230769 -0.00797328
v -0.08076923 -0.20999999 -0.02461270
v -0.08076917 -0.20999993 -0.00769499
v -0.08076923 -0.17769231 -0.02452988
v -0.08076923 -0.17769231 -0.00777769
v -0.08076923 -0.14538461 -0.02452988
v -0.08076923 -0.14538461 -0.00777769
v -0.08076923 -0.11307693 -0.02433442
v -0.08076923 -0.11307693 -0.00797328
v -0.08076923 -0.08076923 -0.02407838
v -0.08076923 -0.08076923 -0.00822925
v -0.08076923 -0.04846154 -0.02396284
v -0.08076923 -0.04846148 -0.00834486
v -0.08076923 -0.01615385 -0.02390460
v -0.08076923 -0.01615385 -0.00840303
v -0.08076923 0.01615385 -0.02384613
v -0.08076923 0.01615385 -0.00846157
v -0.08076923 0.04846154 -0.02384613
v -0.08076923 0.04846154 -0.00846157
v -0.08076923 0.08076923 -0.02381679
v -0.08076923 0.08076923 -0.00849090
v -0.08076923 0.11307693 -0.02384613
v -0.08076923 0.11307693 -0.00846157
v -0.08076923 0.14538461 -0.02390460
v -0.08076923 0.14538461 -0.00840303
v -0.08076923 0.17769231 -0.02393375
v -0.08076923 0.17769231 -0.00837394
v -0.08076923 0.20999999 -0.02407838
v -0.08076923 0.20999999 -0.00822925
v -0.08076923 0.24230769 -0.02419281
v -0.08076923 0.24230769 -0.00811476
v -0.08076923 0.27461538 -0.02419281
v -0.08076923 0.27461538 -0.00811476
v -0.08076923 0.30692309 -0.02422128
v -0.08076923 0.30692309 -0.00808641
v -0.08076923 0.33923078 -0.02422128
v -0.08076923 0.33923078 -0.00808641
v -0.08076923 0.37153846 -0.02407838
v -0.08076923 0.37153846 -0.00822925
v -0.08076923 0.40384614 -0.02413575
v -0.08076923 0.40384614 -0.00817194
v -0.08076923 0.43615386 -0.02410709
v -0.08076923 0.43615386 -0.00820054
v -0.08076923 0.46846154 -0.02399180
v -0.08076923 0.46846154 -0.00831589
v -0.08076923 0.50076926 -0.02399180
v -0.08076923 0.50076926 -0.00831589
v -0.08076923 0.53307694 -0.02402076
v -0.08076923 0.53307694 -0.00828693
v -0.08076923 0.56538463 -0.02396284
v -0.08076923 0.56538463 -0.00834486
v -0.08076923 0.59769231 -0.02342894
v -0.08076923 0.59769231 -0.00887875
v -0.08076923 0.63000000 -0.02205422
v -0.08076923 0.63000000 -0.01025341
v -0.08076923 0.66230768 -0.01984297
v -0.08076923 0.66230756 -0.01246478
v -0.08076923 0.69461536 -0.01894415
v -0.08076923 0.69461536 -0.01336360
v -0.08076923 0.72692305 -0.02100214
v -0.08076923 0.74112844 -0.01615385
v -0.08076923 0.72692305 -0.01130555
v -0.05850938 0.75923079 -0.01615385
v -0.04965010 0.79153848 -0.01615385
v -0.05224932 0.82384616 -0.01615385
v -0.04846154 -0.93448538 -0.01615385
v -0.04256252 -0.92076921 -0.04846154
v -0.04846154 -0.90482652 -0.04846154
v -0.04846154 -0.92076921 -0.04355858
v -0.04846154 -0.92076921 0.00923505
v -0.03988092 -0.92076921 0.01615385
v -0.04846154 -0.89794046 0.01615385
v -0.04846154 -0.88846153 -0.05195119
v -0.04846154 -0.88375062 -0.04846154
v -0.04846154 -0.88552725 0.01615385
v -0.04846154 -0.88846153 0.01839701
v -0.01749252 -0.85615385 -0.04846154
v -0.04846154 -0.85615385 -0.01678615
v -0.04846154 -0.83016431 -0.01615385
v -0.04846154 -0.85615385 -0.01555266
v -0.01752900 -0.85615385 0.01615385
v -0.02211923 -0.82384616 -0.04846154
v -0.04835068 -0.82384616 -0.01615385
v -0.01959839 -0.82384616 0.01615385
v -0.03468162 -0.79153848 -0.01615385
v -0.03599737 -0.75923079 -0.01615385
v -0.04846154 -0.70802277 -0.04846154
v -0.03687222 -0.72692305 -0.01615385
v -0.04846154 -0.71250141 -0.01615385
v -0.04846154 -0.70812589 0.01615385
v -0.04846154 -0.69461536 -0.06253798
v -0.04846154 -0.69461536 0.02986376
v -0.04846154 -0.66230768 -0.06467245
v -0.04846154 -0.63831973 -0.04846154
v -0.04846154 -0.63948333 0.01615385
v -0.04846154 -0.66230768 0.03186512
v -0.03807878 -0.63000000 -0.04846154
v -0.04846154 -0.63000000 -0.03719672
v -0.04846154 -0.63000000 0.00353033
v -0.03536082 -0.63000000 0.01615385
v -0.04846154 -0.56546307 -0.08076923
v -0.04066315 -0.59769231 -0.04846160
v -0.04846154 -0.58986938 -0.04846154
v -0.04846154 -0.59769231 -0.03938239
v -0.04846154 -0.59769231 0.00538466
v -0.03827813 -0.59769231 0.01615385
v -0.04846148 -0.58794558 0.01615385
v -0.04846154 -0.56538463 -0.08081705
v -0.04846148 -0.56523639 -0.08076917
v -0.04846154 -0.56538463 0.04829849
v -0.04812545 -0.56538463 0.04846154
v -0.01938007 -0.53307694 -0.11307693
v -0.04059462 -0.53307694 -0.08076923
v -0.04846154 -0.53307694 -0.06933384
v -0.04846154 -0.53307694 0.03541936
v -0.03958328 -0.53307694 0.04846154
v -0.01688770 -0.53307694 0.08076923
v -0.02277594 -0.50076926 -0.11307693
v -0.04621844 -0.50076926 -0.08076923
v -0.04846154 -0.50076926 -0.07852612
v -0.04846154 -0.50076926 0.04451723
v -0.04451723 -0.50076926 0.04846154
v -0.02280779 -0.50076926 0.08076923
v -0.01873199 -0.46846154 -0.08076923
v -0.04846154 -0.46846154 -0.06425410
v -0.04846154 -0.46846154 0.03069788
v -0.01666007 -0.46846154 0.04846154
v -0.04846154 -0.43615386 -0.06342281
v -0.04846154 -0.43615386 0.03029204
v -0.04846154 -0.40384614 -0.06353848
v -0.04846154 -0.38603875 -0.04846154
v -0.04846154 -0.38714474 0.01615385
v -0.04846154 -0.40384614 0.03013096
v -0.04846154 -0.37153846 -0.03244819
v -0.04846154 -0.37153846 0.00014050
v -0.04846154 -0.33923078 -0.03009842
v -0.04846154 -0.33923078 -0.00220927
v -0.04846154 -0.30692309 -0.03016337
v -0.04846154 -0.30692309 -0.00214432
v -0.04846154 -0.27461538 -0.03009842
v -0.04846154 -0.27461538 -0.00220927
v -0.04846154 -0.24230769 -0.03016337
v -0.04846154 -0.24230769 -0.00214432
v -0.04846154 -0.20999999 -0.03025999
v -0.04846160 -0.20999999 -0.00204770
v -0.04846154 -0.17769231 -0.03025999
v -0.04846160 -0.17769231 -0.00204770
v -0.04846154 -0.14538461 -0.03013096
v -0.04846154 -0.14538461 -0.00217674
v -0.04846154 -0.11307693 -0.02996698
v -0.04846154 -0.11307693 -0.00234077
v -0.04846154 -0.08076923 -0.02969849
v -0.04846154 -0.08076917 -0.00260920
v -0.04846154 -0.04846154 -0.02959571
v -0.04846160 -0.04846160 -0.00271199
v -0.04846154 -0.01615385 -0.02956120
v -0.04846154 -0.01615385 -0.00274649
v -0.04846154 0.01615385 -0.02966435
v -0.04846148 0.01615385 -0.00264334
v -0.04846154 0.04846154 -0.02966435
v -0.04846148 0.04846154 -0.00264334
v -0.04846154 0.08076923 -0.02973245
v -0.04846154 0.08076923 -0.00257531
v -0.04846154 0.11307693 -0.02973245
v -0.04846154 0.11307693 -0.00257531
v -0.04846154 0.14538461 -0.02973245
v -0.04846154 0.14538461 -0.00257531
v -0.04846154 0.17769231 -0.02966435
v -0.04846148 0.17769231 -0.00264334
v -0.04846154 0.20999999 -0.02966435
v -0.04846148 0.20999999 -0.00264334
v -0.04846154 0.24230769 -0.02959571
v -0.04846160 0.24230757 -0.00271199
v -0.04846154 0.27461538 -0.02956120
v -0.04846154 0.27461538 -0.00274649
v -0.04846154 0.30692309 -0.02952663
v -0.04846154 0.30692309 -0.00278113
v -0.04846154 0.33923078 -0.02945706
v -0.04846160 0.33923078 -0.00285076
v -0.04846154 0.37153846 -0.02938693
v -0.04846154 0.37153846 -0.00292076
v -0.04846154 0.40384614 -0.02935162
v -0.04846160 0.40384603 -0.00295613
v -0.04846154 0.43615386 -0.02942206
v -0.04846154 0.43615398 -0.00288564
v -0.04846154 0.46846154 -0.02949187
v -0.04846160 0.46846154 -0.00281588
v -0.04846154 0.50076926 -0.02952663
v -0.04846154 0.50076926 -0.00278113
v -0.04846154 0.53307694 -0.02956120
v -0.04846154 0.53307682 -0.00274649
v -0.04846154 0.56538463 -0.02956120
v -0.04846154 0.56538451 -0.00274649
v -0.04846154 0.59769231 -0.02906477
v -0.04846154 0.59769231 -0.00324292
v -0.04846154 0.63000000 -0.02794867
v -0.04846154 0.62999988 -0.00435902
v -0.04846154 0.66230768 -0.02705688
v -0.04846154 0.66230768 -0.00525081
v -0.04846154 0.69461536 -0.02568961
v -0.04846154 0.69461536 -0.00661808
v -0.04846154 0.72692305 -0.02360950
v -0.04846148 0.72692305 -0.00869820
v -0.04846154 0.75923079 -0.01913259
v -0.04846154 0.75923067 -0.01317516
v -0.04846154 0.79153848 -0.01729225
v -0.04846154 0.79153848 -0.01501544
v -0.04846154 0.82384616 -0.01994163
v -0.04846154 0.83261991 -0.01615385
v -0.04846154 0.82384616 -0.01236606
v -0.01881906 0.85615385 -0.01615385
v -0.01695875 0.88846153 -0.01615385
v -0.01624825 0.92076921 -0.01615385
v -0.01615385 -0.93349653 -0.04846154
v -0.01615385 -0.95148134 -0.01615385
v -0.01615385 -0.93226123 0.01615385
v -0.01615385 -0.92076921 -0.05962721
v 0.01204501 -0.92076921 -0.04846154
v 0.00842472 -0.92076921 0.01615385
v -0.01615385 -0.92076921 0.02687805
v -0.01615385 -0.88846153 -0.06317706
v -0.01615385 -0.88846153 0.03050032
v -0.01615385 -0.85615385 -0.04942272
v -0.01478041 -0.85615385 -0.04846154
v -0.01473900 -0.85615385 0.01615385
v -0.01615385 -0.85615385 0.01719205
v -0.01615385 -0.82384616 -0.05286517
v -0.00986655 -0.82384616 -0.04846154
v -0.01615385 -0.81688863 -0.04846160
v -0.01264472 -0.82384616 0.01615385
v -0.01615385 -0.81960666 0.01615385
v -0.01615385 -0.82384616 0.01883847
v -0.01615385 -0.79153848 -0.03666671
v 0.00234077 -0.79153848 -0.01615385
v -0.01615385 -0.79153848 0.00403846
v -0.01615385 -0.75923079 -0.03872698
v 0.00448177 -0.75923079 -0.01615385
v -0.01615385 -0.75923079 0.00574971
v -0.01615385 -0.71763706 -0.04846154
v -0.01615385 -0.72692305 -0.04100589
v 0.00632106 -0.72692305 -0.01615385
v -0.01615385 -0.72692305 0.00747697
v -0.01615385 -0.71624470 0.01615385
v -0.01615385 -0.69461536 -0.06985024
v -0.01615385 -0.69461536 0.03778318
v -0.01615385 -0.66230768 -0.07402014
v -0.01615385 -0.66230768 0.04109586
v -0.01615385 -0.63000000 -0.06118883
v 0.00678126 -0.63000000 -0.04846154
v 0.00373664 -0.63000000 0.01615385
v -0.01615385 -0.63000005 0.02749107
v -0.01615385 -0.58559948 -0.08076923
v -0.01615385 -0.59769231 -0.07376397
v 0.00964964 -0.59769231 -0.04846154
v 0.00685397 -0.59769231 0.01615385
v -0.01615385 -0.59769231 0.04062765
v -0.01615385 -0.58529413 0.04846154
v -0.01615385 -0.53630316 -0.11307693
v -0.01615385 -0.56538463 -0.08914527
v -0.01615385 -0.56538463 0.05672628
v -0.01615385 -0.53381079 0.08076923
v -0.01615385 -0.53307694 -0.11630315
v -0.01292769 -0.53307694 -0.11307693
v 0.00831589 -0.53307694 -0.08076923
v 0.00782242 -0.53307694 0.04846154
v -0.01542005 -0.53307694 0.08076923
v -0.01615385 -0.53307694 0.08150315
v -0.01615385 -0.50076926 -0.11966623
v -0.00953170 -0.50076926 -0.11307693
v -0.01615385 -0.49414715 -0.11307693
v 0.01454687 -0.50076926 -0.08076923
v 0.01385621 -0.50076926 0.04846154
v -0.00949990 -0.50076926 0.08076923
v -0.01615385 -0.49411529 0.08076923
v -0.01615385 -0.50076926 0.08742318
v -0.01615385 -0.46846154 -0.08334737
v -0.01356079 -0.46846154 -0.08076923
v -0.01615385 -0.46390477 -0.08076923
v -0.01564768 -0.46846154 0.04846154
v -0.01615385 -0.46760038 0.04846154
v -0.01615385 -0.46846154 0.04896782
v -0.01615385 -0.43615386 -0.06960356
v -0.01615385 -0.43615386 0.03658562
v -0.01615385 -0.40384614 -0.06854989
v -0.01615385 -0.38604853 -0.04846154
v -0.01615385 -0.38671657 0.01615385
v -0.01615385 -0.40384614 0.03534418
v -0.01615385 -0.37153846 -0.03410250
v -0.01615385 -0.37153846 0.00107691
v -0.01615385 -0.33923078 -0.03451696
v -0.01615385 -0.33923078 0.00015282
v -0.01615385 -0.30692309 -0.03438744
v -0.01615385 -0.30692309 0.00046746
v -0.01615385 -0.27461538 -0.03441966
v -0.01615385 -0.27461538 0.00052108
v -0.01615385 -0.24230769 -0.03429149
v -0.01615385 -0.24230769 0.00041422
v -0.01615385 -0.20999999 -0.03416510
v -0.01615385 -0.20999999 0.00036123
v -0.01615385 -0.17769225 -0.03410250
v -0.01615385 -0.17769231 0.00030873
v -0.01615385 -0.14538461 -0.03413380
v -0.01615385 -0.14538461 0.00025647
v -0.01615385 -0.11307686 -0.03413380
v -0.01615385 -0.11307693 0.00025647
v -0.01615385 -0.08076923 -0.03422808
v -0.01615385 -0.08076923 0.00015282
v -0.01615385 -0.04846154 -0.03404044
v -0.01615385 -0.04846154 0.00015282
v -0.01615385 -0.01615385 -0.03397876
v -0.01615385 -0.01615385 0.00010155
v -0.01615385 0.01615385 -0.03404044
v -0.01615385 0.01615385 0.00015282
v -0.01615385 0.04846154 -0.03416510
v -0.01615385 0.04846154 0.00015282
v -0.01615385 0.08076923 -0.03413380
v -0.01615385 0.08076923 0.00010155
v -0.01615385 0.11307693 -0.03404044
v -0.01615385 0.11307693 0.00005065
v -0.01615385 0.14538461 -0.03391751
v -0.01615385 0.14538461 0.00005065
v -0.01615385 0.17769231 -0.03397876
v -0.01615385 0.17769231 0.00005065
v -0.01615385 0.20999999 -0.03397876
v -0.01615385 0.20999999 0.00005065
v -0.01615385 0.24230769 -0.03397876
v -0.01615385 0.24230769 0.00005065
v -0.01615385 0.27461538 -0.03397876
v -0.01615385 0.27461538 0.00005065
v -0.01615385 0.30692309 -0.03391751
v -0.01615385 0.30692309 0.00005065
v -0.01615385 0.33923078 -0.03391751
v -0.01615385 0.33923078 0.00005065
v -0.01615385 0.37153846 -0.03385669
v -0.01615385 0.37153846 0.00010155
v -0.01615385 0.40384614 -0.03385669
v -0.01615385 0.40384614 0.00015282
v -0.01615385 0.43615386 -0.03385669
v -0.01615385 0.43615386 0.00015282
v -0.01615385 0.46846154 -0.03373621
v -0.01615385 0.46846154 0.00015282
v -0.01615385 0.50076926 -0.03373621
v -0.01615385 0.50076926 0.00010155
v -0.01615385 0.53307694 -0.03373621
v -0.01615385 0.53307694 0.00015282
v -0.01615385 0.56538475 -0.03373621
v -0.01615385 0.56538463 0.00015282
v -0.01615385 0.59769231 -0.03361741
v -0.01615385 0.59769231 0.00005065
v -0.01615385 0.63000000 -0.03251215
v -0.01615385 0.63000000 0.00000000
v -0.01615385 0.66230768 -0.03173633
v -0.01615385 0.66230756 -0.00052108
v -0.01615385 0.69461536 -0.03069788
v -0.01615385 0.69461536 -0.00160981
v -0.01615385 0.72692305 -0.02938693
v -0.01615385 0.72692323 -0.00292076
v -0.01615385 0.75923079 -0.02790794
v -0.01615385 0.75923079 -0.00439981
v -0.01615385 0.79153848 -0.02603537
v -0.01615385 0.79153848 -0.00627226
v -0.01615385 0.82384616 -0.02324580
v -0.01615385 0.82384616 -0.00906189
v -0.01615385 0.85615385 -0.01715656
v -0.01267713 0.85615396 -0.01615385
v -0.01615385 0.85615385 -0.01515113
v -0.01615385 0.88846153 -0.01695382
v -0.01527918 0.88846153 -0.01615385
v -0.01615385 0.88846153 -0.01535387
v -0.01615385 0.92076921 -0.01624825
v -0.01605944 0.92076921 -0.01615385
v -0.01615385 0.92086363 -0.01615385
v -0.01615385 0.92076921 -0.01605944
v 0.01615385 -0.93625921 -0.01615385
v 0.01615385 -0.91007239 -0.04846154
v 0.01615385 -0.92076921 -0.04551083
v 0.03016337 -0.92076921 -0.01615385
v 0.01615385 -0.92076921 0.01067799
v 0.01615385 -0.90165228 0.01615385
v 0.01615385 -0.88846153 -0.05280854
v 0.02057252 -0.88846153 -0.04846154
v 0.01615385 -0.88252503 -0.04846154
v 0.03235859 -0.88846153 -0.01615385
v 0.01933391 -0.88846153 0.01615385
v 0.01615385 -0.88427913 0.01615385
v 0.01615385 -0.88846153 0.01929805
v 0.01615385 -0.85615385 -0.01824733
v 0.01762920 -0.85615385 -0.01615385
v 0.01615385 -0.85615385 -0.01415347
v 0.01615385 -0.82384616 -0.01889479
v 0.01799832 -0.82384616 -0.01615385
v 0.01615385 -0.82142347 -0.01615385
v 0.01615385 -0.82384616 -0.01372175
v 0.01615385 -0.70798814 -0.04846154
v 0.01615385 -0.71456492 -0.01615385
v 0.01615385 -0.70812589 0.01615385
v 0.01615385 -0.69461536 -0.06255721
v 0.01615385 -0.69461536 0.02991454
v 0.01615385 -0.66230768 -0.06490279
v 0.01615385 -0.63740206 -0.04846154
v 0.01615385 -0.63863671 0.01615385
v 0.01615385 -0.66230768 0.03230769
v 0.01615385 -0.63000000 -0.03921521
v 0.02902829 -0.63000000 -0.01615385
v 0.01615385 -0.63000000 0.00524995
v 0.01615385 -0.56633008 -0.08076923
v 0.01615385 -0.59129369 -0.04846154
v 0.01615385 -0.59769231 -0.04175823
v 0.02976628 -0.59769231 -0.01615385
v 0.01615385 -0.59769231 0.00740697
v 0.01615385 -0.58899987 0.01615385
v 0.01615385 -0.56569892 0.04846154
v 0.01615385 -0.56538463 -0.08136080
v 0.01716901 -0.56538463 -0.08076923
v 0.01615385 -0.56360680 -0.08076923
v 0.01648266 -0.56538463 0.04846154
v 0.01615385 -0.56481469 0.04846141
v 0.01615385 -0.56538463 0.04866058
v 0.01615385 -0.53307694 -0.06971233
v 0.01615385 -0.53307694 0.03642109
v 0.01615385 -0.50076926 -0.07916225
v 0.04483200 -0.50076926 0.01615385
v 0.01615385 -0.50076926 0.04616390
v 0.01615385 -0.46846154 -0.06451315
v 0.04372046 -0.46846154 0.01615385
v 0.01615385 -0.46846154 0.03128797
v 0.01615385 -0.43615386 -0.06376518
v 0.04482387 -0.43615386 0.01615385
v 0.01615385 -0.43615386 0.03081915
v 0.01615385 -0.40384614 -0.06430672
v 0.01615385 -0.38568780 -0.04846154
v 0.01615385 -0.38631296 0.01615385
v 0.01615385 -0.40384614 0.03140135
v 0.01615372 -0.37153846 -0.03273369
v 0.01615385 -0.37153846 0.00039241
v 0.01615385 -0.33923078 -0.03057494
v 0.01615385 -0.33923078 -0.00173281
v 0.01615385 -0.30692309 -0.03063663
v 0.01615385 -0.30692309 -0.00167107
v 0.01615385 -0.27461538 -0.03063663
v 0.01615385 -0.27461538 -0.00167107
v 0.01615385 -0.24230769 -0.03075870
v 0.01615385 -0.24230769 -0.00154905
v 0.01615385 -0.20999999 -0.03081915
v 0.01615385 -0.20999999 -0.00148854
v 0.01615385 -0.17769231 -0.03081915
v 0.01615385 -0.17769225 -0.00148854
v 0.01615385 -0.14538461 -0.03075870
v 0.01615385 -0.14538461 -0.00154905
v 0.01615385 -0.11307693 -0.03057494
v 0.01615385 -0.11307693 -0.00173281
v 0.01615385 -0.08076923 -0.03032389
v 0.01615385 -0.08076923 -0.00198386
v 0.01615385 -0.04846154 -0.03025999
v 0.01615385 -0.04846160 -0.00204770
v 0.01615385 -0.01615385 -0.03032389
v 0.01615385 -0.01615385 -0.00198386
v 0.01615385 0.01615385 -0.03038730
v 0.01615385 0.01615385 -0.00192039
v 0.01615385 0.04846154 -0.03035563
v 0.01615385 0.04846154 -0.00195206
v 0.01615385 0.08076923 -0.03045028
v 0.01615385 0.08076923 -0.00185741
v 0.01615385 0.11307693 -0.03045028
v 0.01615385 0.11307693 -0.00185741
v 0.01615385 0.14538461 -0.03048158
v 0.01615385 0.14538461 -0.00182611
v 0.01615385 0.17769231 -0.03048158
v 0.01615385 0.17769231 -0.00182611
v 0.01615385 0.20999999 -0.03045028
v 0.01615385 0.20999999 -0.00185741
v 0.01615385 0.24230769 -0.03038730
v 0.01615385 0.24230769 -0.00192039
v 0.01615385 0.27461538 -0.03029204
v 0.01615385 0.27461538 -0.00201566
v 0.01615385 0.30692309 -0.03022795
v 0.01615385 0.30692309 -0.00207974
v 0.01615385 0.33923078 -0.03019572
v 0.01615385 0.33923078 -0.00211203
v 0.01615385 0.37153846 -0.03009842
v 0.01615385 0.37153846 -0.00220927
v 0.01615385 0.40384614 -0.03013096
v 0.01615385 0.40384614 -0.00217674
v 0.01615385 0.43615386 -0.03025999
v 0.01615385 0.43615386 -0.00204770
v 0.01615385 0.46846154 -0.03025999
v 0.01615385 0.46846142 -0.00204770
v 0.01615385 0.50076926 -0.03029204
v 0.01615385 0.50076926 -0.00201566
v 0.01615385 0.53307694 -0.03025999
v 0.01615385 0.53307694 -0.00204770
v 0.01615385 0.56538463 -0.03038730
v 0.01615385 0.56538463 -0.00192039
v 0.01615385 0.59769231 -0.03038730
v 0.01615385 0.59769231 -0.00192039
v 0.01615385 0.63000000 -0.02913730
v 0.01615385 0.62999988 -0.00317045
v 0.01615385 0.66230768 -0.02790794
v 0.01615385 0.66230768 -0.00439981
v 0.01615385 0.69461536 -0.02637078
v 0.01615385 0.69461524 -0.00593691
v 0.01615385 0.72692305 -0.02461270
v 0.01615385 0.72692305 -0.00769499
v 0.01615385 0.75923079 -0.02036793
v 0.02785772 0.75923079 -0.01615385
v 0.01615385 0.75923091 -0.01193976
v 0.01615385 0.79153848 -0.01763499
v 0.01769945 0.79153848 -0.01615385
v 0.01615385 0.79153848 -0.01467270
v 0.01615385 0.82384616 -0.01919483
v 0.01919477 0.82384604 -0.01615385
v 0.01615385 0.83293045 -0.01615385
v 0.01615385 0.82384604 -0.01311292
v 0.04846154 -0.70578104 -0.04846154
v 0.04846154 -0.70812589 -0.01615385
v 0.04846154 -0.70439923 0.01615385
v 0.04846154 -0.69461536 -0.05962721
v 0.06030542 -0.69461536 -0.04846154
v 0.06253503 -0.69461536 -0.01615385
v 0.05878508 -0.69461542 0.01615385
v 0.04846154 -0.69461536 0.02593770
v 0.04846154 -0.66230768 -0.06041794
v 0.06261969 -0.66230768 -0.04846154
v 0.04846154 -0.65035129 -0.04846154
v 0.06581899 -0.66230768 -0.01615385
v 0.04846154 -0.64740485 -0.01615385
v 0.06112055 -0.66230768 0.01615385
v 0.04846154 -0.65140468 0.01615385
v 0.04846154 -0.66230768 0.02705688
v 0.04846154 -0.56771487 -0.04846154
v 0.04846154 -0.56793064 -0.01615385
v 0.04846154 -0.56757295 0.01615385
v 0.04846154 -0.56538463 -0.05230910
v 0.05079184 -0.56538463 -0.04846154
v 0.05100764 -0.56538463 -0.01615385
v 0.05064986 -0.56538463 0.01615385
v 0.04846154 -0.56538463 0.01962736
v 0.04846154 -0.53307694 -0.06371410
v 0.06682774 -0.53307694 -0.04846154
v 0.07421117 -0.53307694 -0.01615385
v 0.06798562 -0.53307694 0.01615385
v 0.04846154 -0.50862789 0.01615385
v 0.04846154 -0.53307694 0.03014279
v 0.04846154 -0.50076926 -0.04874611
v 0.04846154 -0.50076926 0.01252431
v 0.05246907 -0.50076926 0.01615385
v 0.04846154 -0.46846154 -0.04878018
v 0.04919619 -0.46846154 -0.04846154
v 0.04846154 -0.46846154 0.01190168
v 0.04846154 -0.43615386 -0.04932141
v 0.04933201 -0.43615386 -0.04846154
v 0.04846154 -0.43615386 0.01307151
v 0.04846154 -0.41218933 0.01615385
v 0.04846154 -0.40384614 -0.05290276
v 0.05467920 -0.40384614 -0.04846154
v 0.04846154 -0.39762843 -0.04846154
v 0.04988464 -0.40384614 0.01615385
v 0.04846154 -0.40224946 0.01615385
v 0.04846154 -0.40384614 0.01729817
v 0.04846154 -0.37153846 -0.02619473
v 0.06735671 -0.37153846 -0.01615385
v 0.04846154 -0.37153846 -0.00648658
v 0.04846154 -0.33923078 -0.02499168
v 0.06535128 -0.33923078 -0.01615385
v 0.04846154 -0.33923078 -0.00731601
v 0.04846154 -0.30692309 -0.02501830
v 0.06425650 -0.30692309 -0.01615385
v 0.04846166 -0.30692309 -0.00728939
v 0.04846154 -0.27461538 -0.02525511
v 0.06481085 -0.27461538 -0.01615385
v 0.04846154 -0.27461544 -0.00705264
v 0.04846154 -0.24230769 -0.02548718
v 0.06560442 -0.24230769 -0.01615385
v 0.04846154 -0.24230769 -0.00682057
v 0.04846154 -0.20999999 -0.02558880
v 0.06590378 -0.20999999 -0.01615385
v 0.04846154 -0.20999999 -0.00671890
v 0.04846154 -0.17769231 -0.02548718
v 0.06550003 -0.17769231 -0.01615385
v 0.04846154 -0.17769231 -0.00682057
v 0.04846154 -0.14538461 -0.02543597
v 0.06526673 -0.14538461 -0.01615385
v 0.04846154 -0.14538461 -0.00687172
v 0.04846154 -0.11307693 -0.02535882
v 0.06595295 -0.11307693 -0.01615385
v 0.04846154 -0.11307693 -0.00694887
v 0.04846154 -0.08076923 -0.02509779
v 0.06632922 -0.08076923 -0.01615385
v 0.04846154 -0.08076923 -0.00720990
v 0.04846154 -0.04846154 -0.02499168
v 0.06722336 -0.04846154 -0.01615385
v 0.04846154 -0.04846154 -0.00731601
v 0.04846154 -0.01615385 -0.02504486
v 0.06934130 -0.01615385 -0.01615385
v 0.04846154 -0.01615385 -0.00726290
v 0.04846154 0.01615385 -0.02509779
v 0.07063352 0.01615385 -0.01615385
v 0.04846154 0.01615385 -0.00720990
v 0.04846154 0.04846154 -0.02509779
v 0.07130532 0.04846154 -0.01615385
v 0.04846154 0.04846154 -0.00720990
v 0.04846154 0.08076923 -0.02512417
v 0.07190601 0.08076923 -0.01615385
v 0.04846154 0.08076923 -0.00718353
v 0.04846154 0.11307693 -0.02517673
v 0.07373692 0.11307693 -0.01615385
v 0.04846154 0.11307693 -0.00713102
v 0.04846154 0.14538461 -0.02525511
v 0.07549229 0.14538461 -0.01615385
v 0.04846154 0.14538461 -0.00705264
v 0.04846154 0.17769231 -0.02525511
v 0.07674137 0.17769231 -0.01615385
v 0.04846154 0.17769231 -0.00705264
v 0.04846154 0.20999999 -0.02530706
v 0.07778475 0.20999999 -0.01615385
v 0.04846154 0.20999987 -0.00700063
v 0.04846154 0.24230769 -0.02528112
v 0.07865732 0.24230769 -0.01615385
v 0.04846154 0.24230769 -0.00702664
v 0.04846154 0.27461538 -0.02520292
v 0.07952927 0.27461538 -0.01615385
v 0.04846154 0.27461538 -0.00710477
v 0.04846154 0.30692309 -0.02515048
v 0.08063798 0.30692309 -0.01615385
v 0.04846154 0.30692309 -0.00715715
v 0.04846154 0.33923078 -0.02515048
v 0.04846154 0.33923078 -0.00715715
v 0.04846154 0.37153846 -0.02504486
v 0.04846154 0.37153834 -0.00726290
v 0.04846154 0.40384614 -0.02512417
v 0.04846154 0.40384614 -0.00718353
v 0.04846154 0.43615386 -0.02517673
v 0.04846154 0.43615386 -0.00713102
v 0.04846154 0.46846154 -0.02522905
v 0.04846154 0.46846154 -0.00707865
v 0.04846154 0.50076926 -0.02533300
v 0.04846154 0.50076926 -0.00697475
v 0.04846154 0.53307694 -0.02530706
v 0.04846154 0.53307694 -0.00700063
v 0.04846154 0.56538463 -0.02522905
v 0.04846154 0.56538463 -0.00707865
v 0.04846154 0.59769231 -0.02493831
v 0.04846154 0.59769231 -0.00736938
v 0.04846154 0.63000000 -0.02333768
v 0.04846154 0.63000000 -0.00896995
v 0.04846154 0.66230768 -0.02059507
v 0.05766651 0.66230780 -0.01615385
v 0.04846154 0.66230768 -0.01171262
v 0.04846154 0.69461536 -0.01907005
v 0.05141126 0.69461548 -0.01615385
v 0.04846154 0.69461536 -0.01323764
v 0.04846154 0.72692305 -0.01988253
v 0.05219029 0.72692305 -0.01615385
v 0.04846154 0.73760700 -0.01615385
v 0.04846154 0.72692305 -0.01242510
v 0.08076923 -0.52581531 -0.04846154
v 0.08076923 -0.52648604 -0.01615385
v 0.08076923 -0.52584386 0.01615385
v 0.08076923 -0.50076926 -0.06559715
v 0.10073625 -0.50076926 -0.04846154
v 0.08076923 -0.47887602 -0.04846154
v 0.10123502 -0.50076926 -0.01615385
v 0.10094392 -0.50076926 0.01615385
v 0.08076923 -0.47809437 0.01615385
v 0.08076923 -0.50076926 0.03203015
v 0.09244771 -0.46846160 -0.04846160
v 0.08076923 -0.46846154 -0.03540506
v 0.08076923 -0.46846154 0.00401973
v 0.09162777 -0.46846154 0.01615385
v 0.08076923 -0.43615386 -0.03073719
v 0.10978483 -0.43615386 -0.01615385
v 0.08076923 -0.43615386 -0.00167107
v 0.08076923 -0.40384620 -0.03551426
v 0.08076923 -0.37723494 -0.01615385
v 0.08076923 -0.40384614 0.00182611
v 0.09276421 -0.37153846 -0.01615385
v 0.08076923 0.31107000 -0.01615385
v 0.08076923 0.33923078 -0.01649566
v 0.08111098 0.33923066 -0.01615385
v 0.08076923 0.33923066 -0.01581209
v 0.08076923 0.37153846 -0.01686959
v 0.08148491 0.37153834 -0.01615385
v 0.08076923 0.37153834 -0.01543817
v 0.08076923 0.40384614 -0.01717437
v 0.08178969 0.40384614 -0.01615385
v 0.08076923 0.40384614 -0.01513326
v 0.08076923 0.43615386 -0.01750805
v 0.08212344 0.43615371 -0.01615385
v 0.08076923 0.43615371 -0.01479964
v 0.08076923 0.46846154 -0.01764645
v 0.08226184 0.46846154 -0.01615385
v 0.08076923 0.46846154 -0.01466124
v 0.08076923 0.50076926 -0.01814350
v 0.08275888 0.50076926 -0.01615385
v 0.08076923 0.50076926 -0.01416419
v 0.08076923 0.53307694 -0.01835314
v 0.08296852 0.53307694 -0.01615385
v 0.08076923 0.53307694 -0.01395456
v 0.08076923 0.56538463 -0.01840786
v 0.08302324 0.56538463 -0.01615385
v 0.08076923 0.56538463 -0.01389984
v 0.08076923 0.59769231 -0.01877463
v 0.08339001 0.59769231 -0.01615385
v 0.08076923 0.59769231 -0.01353306
v 0.08076923 0.63000000 -0.01788567
v 0.08250105 0.63000000 -0.01615385
v 0.08076923 0.63400739 -0.01615385
v 0.08076923 0.63000000 -0.01442202
v 0.11307693 -0.48707694 -0.04846154
v 0.11307693 -0.48767534 -0.01615385
v 0.11307693 -0.48728153 0.01615385
v 0.11307693 -0.46846154 -0.06237339
v 0.12926416 -0.46846154 -0.04846154
v 0.11307693 -0.44356197 -0.04846154
v 0.12899500 -0.46846154 -0.01615385
v 0.11307693 -0.43933606 -0.01615385
v 0.12903136 -0.46846154 0.01615385
v 0.11307693 -0.44392407 0.01615385
v 0.11307680 -0.46846160 0.02999995
v 0.12336965 -0.43615386 -0.04846154
v 0.11780678 -0.43615386 -0.01615385
v 0.11307693 -0.43151599 -0.01615385
v 0.12476934 -0.43615386 0.01615385
v 0.11307693 -0.40384614 -0.02761789
v 0.12694559 -0.40384614 -0.01615385
v 0.11307693 -0.40384620 -0.00468981
v 0.11307693 -0.37153846 -0.02491015
v 0.12337273 -0.37153846 -0.01615385
v 0.11307693 -0.36294287 -0.01615385
v 0.11307693 -0.37153846 -0.00755819
v 0.14538461 -0.44874975 -0.04846154
v 0.14538461 -0.44850260 -0.01615385
v 0.14538461 -0.44754654 0.01615385
v 0.14538461 -0.43615386 -0.05895811
v 0.15588120 -0.43615386 -0.04846160
v 0.14538461 -0.42413601 -0.04846154
v 0.15672529 -0.43615386 -0.01615385
v 0.14538461 -0.42246684 -0.01615385
v 0.15487860 -0.43615386 0.01615385
v 0.14538461 -0.42538467 0.01615385
v 0.14538461 -0.43615386 0.02568961
f 5 1 10
f 7 2 5
f 5 2 1
f 9 3 7
f 7 3 2
f 17 3 9
f 1 12 10
f 2 14 1
f 1 14 12
f 3 16 2
f 2 16 14
f 17 16 3
f 21 4 26
f 23 6 21
f 21 6 4
f 25 8 23
f 23 8 6
f 32 8 25
f 28 26 4
f 10 11 5
f 11 13 5
f 13 7 5
f 4 29 28
f 4 6 29
f 13 15 7
f 15 9 7
f 6 31 29
f 6 8 31
f 8 32 31
f 17 9 15
f 10 12 11
f 11 12 13
f 12 14 13
f 35 34 18
f 16 15 14
f 15 13 14
f 36 18 34
f 16 17 15
f 35 18 37
f 37 18 19
f 40 19 36
f 36 19 18
f 19 39 37
f 40 39 19
f 73 20 78
f 75 22 73
f 73 22 20
f 77 24 75
f 75 24 22
f 83 24 77
f 80 78 20
f 26 27 21
f 84 23 21
f 27 84 21
f 84 22 23
f 20 84 80
f 84 20 22
f 85 22 24
f 82 85 24
f 85 23 22
f 25 85 30
f 85 25 23
f 24 83 82
f 32 25 30
f 26 28 27
f 28 29 27
f 29 86 27
f 86 84 27
f 86 29 33
f 85 87 33
f 31 85 33
f 29 31 33
f 30 85 31
f 31 32 30
f 34 35 33
f 35 86 33
f 35 89 86
f 33 87 34
f 87 36 34
f 87 91 36
f 90 89 38
f 89 37 38
f 89 35 37
f 38 40 90
f 40 91 90
f 40 36 91
f 37 39 38
f 39 40 38
f 103 41 104
f 105 41 103
f 104 41 106
f 106 41 42
f 107 42 105
f 105 42 41
f 106 42 108
f 108 42 43
f 109 43 107
f 107 43 42
f 108 43 110
f 110 43 44
f 111 44 109
f 109 44 43
f 110 44 112
f 112 44 45
f 113 45 111
f 111 45 44
f 112 45 114
f 114 45 46
f 115 46 113
f 113 46 45
f 114 46 116
f 116 46 47
f 117 47 115
f 115 47 46
f 116 47 118
f 118 47 48
f 119 48 117
f 117 48 47
f 118 48 120
f 120 48 49
f 121 49 119
f 119 49 48
f 120 49 122
f 122 49 50
f 123 50 121
f 121 50 49
f 122 50 124
f 124 50 51
f 125 51 123
f 123 51 50
f 124 51 126
f 126 51 52
f 127 52 125
f 125 52 51
f 126 52 128
f 128 52 53
f 129 53 127
f 127 53 52
f 128 53 130
f 130 53 54
f 131 54 129
f 129 54 53
f 130 54 132
f 132 54 55
f 133 55 131
f 131 55 54
f 132 55 134
f 134 55 56
f 135 56 133
f 133 56 55
f 134 56 136
f 136 56 57
f 137 57 135
f 135 57 56
f 136 57 138
f 138 57 58
f 139 58 137
f 137 58 57
f 138 58 140
f 140 58 59
f 141 59 139
f 139 59 58
f 140 59 142
f 142 59 60
f 143 60 141
f 141 60 59
f 142 60 144
f 144 60 61
f 145 61 143
f 143 61 60
f 144 61 146
f 146 61 62
f 148 62 145
f 145 62 61
f 62 147 146
f 148 147 62
f 157 63 160
f 158 64 157
f 157 64 63
f 159 65 158
f 158 65 64
f 161 65 159
f 160 63 162
f 162 63 66
f 64 66 63
f 67 66 64
f 65 67 64
f 68 67 65
f 166 68 161
f 161 68 65
f 66 163 162
f 67 164 66
f 66 164 163
f 68 165 67
f 67 165 164
f 166 165 68
f 168 69 173
f 170 70 168
f 168 70 69
f 171 71 170
f 170 71 70
f 174 71 171
f 173 69 175
f 175 69 72
f 70 72 69
f 74 72 70
f 71 74 70
f 76 74 71
f 178 76 174
f 174 76 71
f 176 175 72
f 78 79 73
f 180 75 73
f 79 180 73
f 180 74 75
f 72 180 176
f 180 72 74
f 181 74 76
f 177 181 76
f 181 75 74
f 77 181 81
f 181 77 75
f 76 178 177
f 83 77 81
f 78 80 79
f 180 79 80
f 84 180 80
f 184 180 84
f 85 82 81
f 181 85 81
f 185 85 181
f 82 83 81
f 84 189 184
f 84 86 189
f 190 85 185
f 87 85 190
f 188 88 193
f 89 88 188
f 189 89 188
f 86 89 189
f 190 192 92
f 91 190 92
f 87 190 91
f 196 92 192
f 88 194 193
f 90 93 197
f 90 197 194
f 89 90 194
f 88 89 194
f 195 198 93
f 195 93 90
f 92 195 90
f 91 92 90
f 196 195 92
f 197 93 199
f 199 93 94
f 200 94 198
f 198 94 93
f 199 94 201
f 201 94 95
f 202 95 200
f 200 95 94
f 201 95 203
f 203 95 96
f 204 96 202
f 202 96 95
f 203 96 205
f 205 96 97
f 206 97 204
f 204 97 96
f 205 97 207
f 207 97 98
f 208 98 206
f 206 98 97
f 207 98 209
f 209 98 99
f 210 99 208
f 208 99 98
f 209 99 211
f 211 99 100
f 212 100 210
f 210 100 99
f 211 100 213
f 213 100 101
f 214 101 212
f 212 101 100
f 213 101 215
f 215 101 102
f 216 102 214
f 214 102 101
f 103 104 102
f 104 215 102
f 104 217 215
f 102 216 103
f 216 105 103
f 216 218 105
f 104 219 217
f 104 106 219
f 220 105 218
f 107 105 220
f 106 221 219
f 106 108 221
f 222 107 220
f 109 107 222
f 108 223 221
f 108 110 223
f 224 109 222
f 111 109 224
f 110 225 223
f 110 112 225
f 226 111 224
f 113 111 226
f 112 227 225
f 112 114 227
f 228 113 226
f 115 113 228
f 114 229 227
f 114 116 229
f 230 115 228
f 117 115 230
f 116 231 229
f 116 118 231
f 232 117 230
f 119 117 232
f 118 233 231
f 118 120 233
f 234 119 232
f 121 119 234
f 120 235 233
f 120 122 235
f 236 121 234
f 123 121 236
f 122 237 235
f 122 124 237
f 238 123 236
f 125 123 238
f 124 239 237
f 124 126 239
f 240 125 238
f 127 125 240
f 126 241 239
f 126 128 241
f 242 127 240
f 129 127 242
f 128 243 241
f 128 130 243
f 244 129 242
f 131 129 244
f 130 245 243
f 130 132 245
f 246 131 244
f 133 131 246
f 132 247 245
f 132 134 247
f 248 133 246
f 135 133 248
f 134 249 247
f 134 136 249
f 250 135 248
f 137 135 250
f 136 251 249
f 136 138 251
f 252 137 250
f 139 137 252
f 138 253 251
f 138 140 253
f 254 139 252
f 141 139 254
f 140 255 253
f 140 142 255
f 256 141 254
f 143 141 256
f 142 257 255
f 142 144 257
f 258 143 256
f 145 143 258
f 144 259 257
f 144 146 259
f 260 145 258
f 148 145 260
f 149 261 147
f 261 146 147
f 261 259 146
f 147 148 149
f 148 262 149
f 148 260 262
f 261 149 263
f 263 149 150
f 264 150 262
f 262 150 149
f 263 150 265
f 265 150 151
f 267 151 264
f 264 151 150
f 151 266 265
f 267 266 151
f 271 152 274
f 275 152 271
f 273 153 278
f 274 152 273
f 152 153 273
f 152 154 153
f 277 155 275
f 155 152 275
f 155 154 152
f 281 155 277
f 153 279 278
f 279 153 283
f 153 156 283
f 153 154 156
f 285 156 280
f 156 155 280
f 156 154 155
f 281 280 155
f 156 284 283
f 285 284 156
f 296 292 160
f 160 292 157
f 294 157 292
f 294 158 157
f 295 158 294
f 295 159 158
f 295 297 159
f 159 297 161
f 160 298 296
f 160 162 298
f 301 161 297
f 166 161 301
f 162 163 298
f 298 163 299
f 164 167 303
f 299 164 303
f 163 164 299
f 300 304 167
f 164 300 167
f 165 300 164
f 165 166 300
f 300 166 301
f 303 167 309
f 309 167 169
f 310 169 304
f 304 169 167
f 306 172 313
f 172 306 173
f 306 168 173
f 306 308 168
f 308 309 169
f 170 308 169
f 168 308 170
f 170 169 310
f 312 170 310
f 171 170 312
f 312 315 171
f 171 315 174
f 172 314 313
f 319 314 172
f 173 319 172
f 175 319 173
f 320 174 315
f 178 174 320
f 179 325 176
f 325 175 176
f 325 319 175
f 180 179 176
f 182 181 177
f 177 178 182
f 178 326 182
f 178 320 326
f 325 179 330
f 330 179 183
f 184 183 179
f 184 179 180
f 181 182 186
f 181 186 185
f 331 186 326
f 326 186 182
f 330 183 333
f 333 183 187
f 189 187 183
f 189 183 184
f 185 186 191
f 185 191 190
f 334 191 331
f 331 191 186
f 188 193 187
f 193 333 187
f 193 335 333
f 189 188 187
f 192 190 191
f 191 334 192
f 334 196 192
f 334 338 196
f 193 194 335
f 335 194 336
f 339 336 194
f 339 194 197
f 337 340 198
f 337 198 195
f 195 196 337
f 337 196 338
f 197 341 339
f 197 199 341
f 342 198 340
f 200 198 342
f 199 343 341
f 199 201 343
f 344 200 342
f 202 200 344
f 201 345 343
f 201 203 345
f 346 202 344
f 204 202 346
f 203 347 345
f 203 205 347
f 348 204 346
f 206 204 348
f 205 349 347
f 205 207 349
f 350 206 348
f 208 206 350
f 207 351 349
f 207 209 351
f 352 208 350
f 210 208 352
f 209 353 351
f 209 211 353
f 354 210 352
f 212 210 354
f 211 355 353
f 211 213 355
f 356 212 354
f 214 212 356
f 213 357 355
f 213 215 357
f 358 214 356
f 216 214 358
f 215 359 357
f 215 217 359
f 360 216 358
f 218 216 360
f 217 361 359
f 217 219 361
f 362 218 360
f 220 218 362
f 219 363 361
f 219 221 363
f 364 220 362
f 222 220 364
f 221 365 363
f 221 223 365
f 366 222 364
f 224 222 366
f 223 367 365
f 223 225 367
f 368 224 366
f 226 224 368
f 225 369 367
f 225 227 369
f 370 226 368
f 228 226 370
f 227 371 369
f 227 229 371
f 372 228 370
f 230 228 372
f 229 373 371
f 229 231 373
f 374 230 372
f 232 230 374
f 231 375 373
f 231 233 375
f 376 232 374
f 234 232 376
f 233 377 375
f 233 235 377
f 378 234 376
f 236 234 378
f 235 379 377
f 235 237 379
f 380 236 378
f 238 236 380
f 237 381 379
f 237 239 381
f 382 238 380
f 240 238 382
f 239 383 381
f 239 241 383
f 384 240 382
f 242 240 384
f 241 385 383
f 241 243 385
f 386 242 384
f 244 242 386
f 243 387 385
f 243 245 387
f 388 244 386
f 246 244 388
f 245 389 387
f 245 247 389
f 390 246 388
f 248 246 390
f 247 391 389
f 247 249 391
f 392 248 390
f 250 248 392
f 249 393 391
f 249 251 393
f 394 250 392
f 252 250 394
f 251 395 393
f 251 253 395
f 396 252 394
f 254 252 396
f 253 397 395
f 253 255 397
f 398 254 396
f 256 254 398
f 255 399 397
f 255 257 399
f 400 256 398
f 258 256 400
f 257 401 399
f 257 259 401
f 402 258 400
f 260 258 402
f 259 403 401
f 259 261 403
f 404 260 402
f 262 260 404
f 261 405 403
f 261 263 405
f 406 262 404
f 264 262 406
f 263 407 405
f 263 265 407
f 408 264 406
f 267 264 408
f 268 409 266
f 409 265 266
f 409 407 265
f 266 267 268
f 267 410 268
f 267 408 410
f 409 268 411
f 411 268 269
f 412 269 410
f 410 269 268
f 411 269 413
f 413 269 270
f 415 270 412
f 412 270 269
f 270 414 413
f 415 414 270
f 419 272 422
f 272 419 274
f 419 271 274
f 419 420 271
f 275 271 276
f 271 421 276
f 271 420 421
f 425 276 421
f 273 278 272
f 278 422 272
f 278 426 422
f 274 273 272
f 277 275 276
f 276 425 277
f 425 281 277
f 425 427 281
f 282 428 279
f 428 278 279
f 428 426 278
f 283 282 279
f 286 285 280
f 280 281 286
f 281 431 286
f 281 427 431
f 428 282 432
f 432 282 287
f 282 283 284
f 288 282 284
f 287 282 288
f 288 284 285
f 286 288 285
f 289 288 286
f 437 289 431
f 431 289 286
f 287 434 432
f 434 287 438
f 287 290 438
f 287 288 290
f 440 290 436
f 290 289 436
f 290 288 289
f 437 436 289
f 438 290 441
f 441 290 291
f 443 291 440
f 440 291 290
f 441 291 445
f 445 291 293
f 447 293 443
f 443 293 291
f 449 444 296
f 296 444 292
f 444 445 293
f 294 444 293
f 292 444 294
f 294 293 447
f 448 294 447
f 295 294 448
f 448 450 295
f 295 450 297
f 296 451 449
f 296 298 451
f 452 297 450
f 301 297 452
f 302 453 299
f 453 298 299
f 453 451 298
f 303 302 299
f 305 304 300
f 300 301 305
f 301 456 305
f 301 452 456
f 453 302 458
f 458 302 307
f 309 307 302
f 309 302 303
f 304 305 311
f 304 311 310
f 461 311 456
f 456 311 305
f 464 457 313
f 313 457 306
f 457 458 307
f 308 457 307
f 306 457 308
f 309 308 307
f 312 310 311
f 316 315 312
f 316 312 311
f 462 316 311
f 461 462 311
f 465 316 462
f 463 317 467
f 318 317 463
f 313 318 463
f 464 313 463
f 314 318 313
f 319 318 314
f 315 316 321
f 315 321 320
f 466 322 465
f 322 316 465
f 322 321 316
f 472 322 466
f 467 317 473
f 473 317 323
f 318 323 317
f 324 323 318
f 325 324 318
f 325 318 319
f 320 321 327
f 320 327 326
f 322 327 321
f 328 327 322
f 480 328 472
f 472 328 322
f 323 475 473
f 475 323 481
f 323 329 481
f 323 324 329
f 330 329 324
f 330 324 325
f 326 327 332
f 326 332 331
f 486 332 479
f 332 328 479
f 332 327 328
f 480 479 328
f 329 483 481
f 487 483 329
f 330 487 329
f 333 487 330
f 331 332 485
f 488 331 485
f 334 331 488
f 486 485 332
f 333 489 487
f 333 335 489
f 492 334 488
f 338 334 492
f 335 336 489
f 489 336 490
f 493 490 336
f 493 336 339
f 491 494 340
f 491 340 337
f 337 338 491
f 491 338 492
f 339 495 493
f 339 341 495
f 496 340 494
f 342 340 496
f 341 497 495
f 341 343 497
f 498 342 496
f 344 342 498
f 343 499 497
f 343 345 499
f 500 344 498
f 346 344 500
f 345 501 499
f 345 347 501
f 502 346 500
f 348 346 502
f 347 503 501
f 347 349 503
f 504 348 502
f 350 348 504
f 349 505 503
f 349 351 505
f 506 350 504
f 352 350 506
f 351 507 505
f 351 353 507
f 508 352 506
f 354 352 508
f 353 509 507
f 353 355 509
f 510 354 508
f 356 354 510
f 355 511 509
f 355 357 511
f 512 356 510
f 358 356 512
f 357 513 511
f 357 359 513
f 514 358 512
f 360 358 514
f 359 515 513
f 359 361 515
f 516 360 514
f 362 360 516
f 361 517 515
f 361 363 517
f 518 362 516
f 364 362 518
f 363 519 517
f 363 365 519
f 520 364 518
f 366 364 520
f 365 521 519
f 365 367 521
f 522 366 520
f 368 366 522
f 367 523 521
f 367 369 523
f 524 368 522
f 370 368 524
f 369 525 523
f 369 371 525
f 526 370 524
f 372 370 526
f 371 527 525
f 371 373 527
f 528 372 526
f 374 372 528
f 373 529 527
f 373 375 529
f 530 374 528
f 376 374 530
f 375 531 529
f 375 377 531
f 532 376 530
f 378 376 532
f 377 533 531
f 377 379 533
f 534 378 532
f 380 378 534
f 379 535 533
f 379 381 535
f 536 380 534
f 382 380 536
f 381 537 535
f 381 383 537
f 538 382 536
f 384 382 538
f 383 539 537
f 383 385 539
f 540 384 538
f 386 384 540
f 385 541 539
f 385 387 541
f 542 386 540
f 388 386 542
f 387 543 541
f 387 389 543
f 544 388 542
f 390 388 544
f 389 545 543
f 389 391 545
f 546 390 544
f 392 390 546
f 391 547 545
f 391 393 547
f 548 392 546
f 394 392 548
f 393 549 547
f 393 395 549
f 550 394 548
f 396 394 550
f 395 551 549
f 395 397 551
f 552 396 550
f 398 396 552
f 397 553 551
f 397 399 553
f 554 398 552
f 400 398 554
f 399 555 553
f 399 401 555
f 556 400 554
f 402 400 556
f 401 557 555
f 401 403 557
f 558 402 556
f 404 402 558
f 403 559 557
f 403 405 559
f 560 404 558
f 406 404 560
f 405 561 559
f 405 407 561
f 562 406 560
f 408 406 562
f 407 563 561
f 407 409 563
f 564 408 562
f 410 408 564
f 409 565 563
f 409 411 565
f 566 410 564
f 412 410 566
f 411 567 565
f 411 413 567
f 568 412 566
f 415 412 568
f 416 569 414
f 569 413 414
f 569 567 413
f 414 415 416
f 415 571 416
f 415 568 571
f 569 416 572
f 572 416 417
f 574 417 571
f 571 417 416
f 572 417 575
f 575 417 418
f 578 418 574
f 574 418 417
f 418 577 575
f 578 577 418
f 422 423 419
f 581 579 423
f 579 419 423
f 579 420 419
f 424 421 583
f 421 579 583
f 421 420 579
f 424 425 421
f 423 422 580
f 422 585 580
f 422 426 585
f 580 581 423
f 584 424 583
f 584 591 424
f 591 425 424
f 591 427 425
f 587 585 429
f 585 428 429
f 585 426 428
f 429 592 587
f 430 590 594
f 430 431 590
f 431 591 590
f 431 427 591
f 429 428 433
f 433 428 432
f 433 595 592
f 433 592 429
f 430 594 598
f 430 598 435
f 435 437 430
f 430 437 431
f 432 434 433
f 438 439 434
f 434 439 433
f 439 597 433
f 597 595 433
f 440 436 435
f 440 435 598
f 439 440 598
f 597 439 598
f 436 437 435
f 439 438 442
f 442 438 441
f 442 443 439
f 439 443 440
f 442 441 446
f 446 441 445
f 446 447 442
f 442 447 443
f 602 599 449
f 449 599 444
f 600 446 445
f 444 600 445
f 599 600 444
f 448 447 446
f 600 448 446
f 601 448 600
f 601 603 448
f 448 603 450
f 449 604 602
f 449 451 604
f 607 450 603
f 452 450 607
f 605 604 454
f 604 453 454
f 604 451 453
f 454 608 605
f 455 606 610
f 455 456 606
f 456 607 606
f 456 452 607
f 454 453 459
f 459 453 458
f 459 613 608
f 459 608 454
f 455 610 615
f 455 615 460
f 460 461 455
f 455 461 456
f 618 611 464
f 464 611 457
f 612 459 458
f 457 612 458
f 611 612 457
f 612 613 459
f 616 460 615
f 462 461 460
f 616 462 460
f 617 462 616
f 617 623 462
f 462 623 465
f 467 468 463
f 618 464 620
f 464 468 620
f 468 469 620
f 468 464 463
f 469 624 620
f 470 622 625
f 470 471 622
f 471 465 622
f 465 623 622
f 471 466 465
f 471 472 466
f 468 467 474
f 474 467 473
f 474 469 468
f 474 476 469
f 476 626 624
f 476 624 469
f 470 625 628
f 470 628 477
f 477 471 470
f 477 478 471
f 478 480 471
f 471 480 472
f 473 475 474
f 481 482 475
f 482 474 475
f 482 476 474
f 482 629 626
f 482 626 476
f 477 628 631
f 477 631 484
f 479 478 486
f 478 484 486
f 478 477 484
f 479 480 478
f 481 483 482
f 629 482 483
f 487 629 483
f 632 629 487
f 488 485 484
f 631 488 484
f 634 488 631
f 485 486 484
f 487 635 632
f 487 489 635
f 638 488 634
f 492 488 638
f 489 490 635
f 635 490 636
f 639 636 490
f 639 490 493
f 637 640 494
f 637 494 491
f 491 492 637
f 637 492 638
f 493 641 639
f 493 495 641
f 642 494 640
f 496 494 642
f 495 643 641
f 495 497 643
f 644 496 642
f 498 496 644
f 497 645 643
f 497 499 645
f 646 498 644
f 500 498 646
f 499 647 645
f 499 501 647
f 648 500 646
f 502 500 648
f 501 649 647
f 501 503 649
f 650 502 648
f 504 502 650
f 503 651 649
f 503 505 651
f 652 504 650
f 506 504 652
f 505 653 651
f 505 507 653
f 654 506 652
f 508 506 654
f 507 655 653
f 507 509 655
f 656 508 654
f 510 508 656
f 509 657 655
f 509 511 657
f 658 510 656
f 512 510 658
f 511 659 657
f 511 513 659
f 660 512 658
f 514 512 660
f 513 661 659
f 513 515 661
f 662 514 660
f 516 514 662
f 515 663 661
f 515 517 663
f 664 516 662
f 518 516 664
f 517 665 663
f 517 519 665
f 666 518 664
f 520 518 666
f 519 667 665
f 519 521 667
f 668 520 666
f 522 520 668
f 521 669 667
f 521 523 669
f 670 522 668
f 524 522 670
f 523 671 669
f 523 525 671
f 672 524 670
f 526 524 672
f 525 673 671
f 525 527 673
f 674 526 672
f 528 526 674
f 527 675 673
f 527 529 675
f 676 528 674
f 530 528 676
f 529 677 675
f 529 531 677
f 678 530 676
f 532 530 678
f 531 679 677
f 531 533 679
f 680 532 678
f 534 532 680
f 533 681 679
f 533 535 681
f 682 534 680
f 536 534 682
f 535 683 681
f 535 537 683
f 684 536 682
f 538 536 684
f 537 685 683
f 537 539 685
f 686 538 684
f 540 538 686
f 539 687 685
f 539 541 687
f 688 540 686
f 542 540 688
f 541 689 687
f 541 543 689
f 690 542 688
f 544 542 690
f 543 691 689
f 543 545 691
f 692 544 690
f 546 544 692
f 545 693 691
f 545 547 693
f 694 546 692
f 548 546 694
f 547 695 693
f 547 549 695
f 696 548 694
f 550 548 696
f 549 697 695
f 549 551 697
f 698 550 696
f 552 550 698
f 551 699 697
f 551 553 699
f 700 552 698
f 554 552 700
f 553 701 699
f 553 555 701
f 702 554 700
f 556 554 702
f 555 703 701
f 555 557 703
f 704 556 702
f 558 556 704
f 557 705 703
f 557 559 705
f 706 558 704
f 560 558 706
f 559 707 705
f 559 561 707
f 708 560 706
f 562 560 708
f 561 709 707
f 561 563 709
f 711 562 708
f 564 562 711
f 563 712 709
f 563 565 712
f 714 564 711
f 566 564 714
f 565 715 712
f 565 567 715
f 718 566 714
f 568 566 718
f 717 715 570
f 715 569 570
f 715 567 569
f 570 571 717
f 571 718 717
f 571 568 718
f 570 569 573
f 573 569 572
f 573 574 570
f 570 574 571
f 573 572 576
f 576 572 575
f 576 578 573
f 573 578 574
f 575 577 576
f 577 578 576
f 581 582 579
f 582 583 579
f 585 586 580
f 580 586 581
f 586 582 581
f 586 588 582
f 583 582 584
f 582 589 584
f 582 588 589
f 589 591 584
f 585 587 586
f 592 593 587
f 593 586 587
f 593 588 586
f 590 589 594
f 589 593 594
f 589 588 593
f 590 591 589
f 593 592 596
f 596 592 595
f 596 598 593
f 593 598 594
f 595 597 596
f 597 598 596
f 722 719 602
f 602 719 599
f 720 599 719
f 720 600 599
f 721 600 720
f 721 601 600
f 721 726 601
f 601 726 603
f 602 727 722
f 602 604 727
f 734 603 726
f 607 603 734
f 604 605 727
f 727 605 729
f 605 608 609
f 731 605 609
f 729 605 731
f 731 609 610
f 606 731 610
f 733 731 606
f 606 607 733
f 733 607 734
f 609 608 614
f 614 608 613
f 614 615 609
f 609 615 610
f 618 619 611
f 738 735 619
f 735 611 619
f 735 612 611
f 736 614 613
f 612 736 613
f 735 736 612
f 616 615 614
f 736 616 614
f 737 616 736
f 621 617 742
f 617 737 742
f 617 616 737
f 621 623 617
f 618 620 619
f 738 619 620
f 624 738 620
f 743 738 624
f 625 622 621
f 742 625 621
f 748 625 742
f 622 623 621
f 624 749 743
f 624 626 749
f 627 747 750
f 627 628 747
f 628 748 747
f 628 625 748
f 626 752 749
f 626 629 752
f 627 750 754
f 627 754 630
f 630 631 627
f 627 631 628
f 629 755 752
f 629 632 755
f 630 754 757
f 630 757 633
f 633 634 630
f 630 634 631
f 632 759 755
f 632 635 759
f 758 633 757
f 758 764 633
f 764 634 633
f 764 638 634
f 635 636 759
f 759 636 761
f 765 761 636
f 765 636 639
f 763 767 640
f 763 640 637
f 637 638 763
f 763 638 764
f 639 768 765
f 639 641 768
f 770 640 767
f 642 640 770
f 641 771 768
f 641 643 771
f 773 642 770
f 644 642 773
f 643 774 771
f 643 645 774
f 776 644 773
f 646 644 776
f 645 777 774
f 645 647 777
f 779 646 776
f 648 646 779
f 647 780 777
f 647 649 780
f 782 648 779
f 650 648 782
f 649 783 780
f 649 651 783
f 785 650 782
f 652 650 785
f 651 786 783
f 651 653 786
f 788 652 785
f 654 652 788
f 653 789 786
f 653 655 789
f 791 654 788
f 656 654 791
f 655 792 789
f 655 657 792
f 794 656 791
f 658 656 794
f 657 795 792
f 657 659 795
f 797 658 794
f 660 658 797
f 659 798 795
f 659 661 798
f 800 660 797
f 662 660 800
f 661 801 798
f 661 663 801
f 803 662 800
f 664 662 803
f 663 804 801
f 663 665 804
f 806 664 803
f 666 664 806
f 665 807 804
f 665 667 807
f 809 666 806
f 668 666 809
f 667 810 807
f 667 669 810
f 812 668 809
f 670 668 812
f 669 813 810
f 669 671 813
f 815 670 812
f 672 670 815
f 671 816 813
f 671 673 816
f 818 672 815
f 674 672 818
f 673 819 816
f 673 675 819
f 821 674 818
f 676 674 821
f 675 822 819
f 675 677 822
f 824 676 821
f 678 676 824
f 677 825 822
f 677 679 825
f 827 678 824
f 680 678 827
f 679 828 825
f 679 681 828
f 830 680 827
f 682 680 830
f 681 831 828
f 681 683 831
f 832 682 830
f 684 682 832
f 683 833 831
f 683 685 833
f 834 684 832
f 686 684 834
f 685 835 833
f 685 687 835
f 836 686 834
f 688 686 836
f 687 837 835
f 687 689 837
f 838 688 836
f 690 688 838
f 689 839 837
f 689 691 839
f 840 690 838
f 692 690 840
f 691 841 839
f 691 693 841
f 842 692 840
f 694 692 842
f 693 843 841
f 693 695 843
f 844 694 842
f 696 694 844
f 695 845 843
f 695 697 845
f 846 696 844
f 698 696 846
f 697 847 845
f 697 699 847
f 848 698 846
f 700 698 848
f 699 849 847
f 699 701 849
f 850 700 848
f 702 700 850
f 701 851 849
f 701 703 851
f 853 702 850
f 704 702 853
f 703 854 851
f 703 705 854
f 856 704 853
f 706 704 856
f 705 857 854
f 705 707 857
f 860 706 856
f 708 706 860
f 859 857 710
f 857 709 710
f 857 707 709
f 710 711 859
f 711 860 859
f 711 708 860
f 710 709 713
f 713 709 712
f 713 714 710
f 710 714 711
f 713 712 716
f 716 712 715
f 716 718 713
f 713 718 714
f 715 717 716
f 717 718 716
f 722 723 719
f 719 723 720
f 720 723 724
f 720 724 721
f 721 724 725
f 725 726 721
f 723 722 728
f 728 722 727
f 728 724 723
f 728 730 724
f 730 725 724
f 730 732 725
f 732 734 725
f 725 734 726
f 727 729 728
f 728 729 730
f 730 729 731
f 730 731 732
f 732 731 733
f 733 734 732
f 738 739 735
f 735 739 736
f 736 739 740
f 736 740 737
f 737 740 741
f 741 742 737
f 739 738 744
f 744 738 743
f 744 740 739
f 744 745 740
f 745 741 740
f 745 746 741
f 746 748 741
f 741 748 742
f 744 743 861
f 743 864 861
f 743 749 864
f 862 745 744
f 862 744 861
f 750 862 863
f 751 750 863
f 750 745 862
f 746 750 747
f 750 746 745
f 747 748 746
f 870 751 863
f 866 864 753
f 864 752 753
f 864 749 752
f 753 872 866
f 750 751 869
f 873 750 869
f 754 750 873
f 870 869 751
f 753 752 756
f 756 752 755
f 756 875 872
f 756 872 753
f 877 754 873
f 757 754 877
f 756 755 760
f 760 755 759
f 760 878 875
f 760 875 756
f 880 762 758
f 757 880 758
f 877 880 757
f 762 764 758
f 759 761 760
f 765 766 761
f 761 766 760
f 766 879 760
f 879 878 760
f 767 763 762
f 767 762 880
f 766 767 880
f 879 766 880
f 763 764 762
f 766 765 769
f 769 765 768
f 769 770 766
f 766 770 767
f 769 768 772
f 772 768 771
f 772 773 769
f 769 773 770
f 772 771 775
f 775 771 774
f 775 776 772
f 772 776 773
f 775 774 778
f 778 774 777
f 778 779 775
f 775 779 776
f 778 777 781
f 781 777 780
f 781 782 778
f 778 782 779
f 781 780 784
f 784 780 783
f 784 785 781
f 781 785 782
f 784 783 787
f 787 783 786
f 787 788 784
f 784 788 785
f 787 786 790
f 790 786 789
f 790 791 787
f 787 791 788
f 790 789 793
f 793 789 792
f 793 794 790
f 790 794 791
f 793 792 796
f 796 792 795
f 796 797 793
f 793 797 794
f 796 795 799
f 799 795 798
f 799 800 796
f 796 800 797
f 799 798 802
f 802 798 801
f 802 803 799
f 799 803 800
f 802 801 805
f 805 801 804
f 805 806 802
f 802 806 803
f 805 804 808
f 808 804 807
f 808 809 805
f 805 809 806
f 808 807 811
f 811 807 810
f 811 812 808
f 808 812 809
f 811 810 814
f 814 810 813
f 814 815 811
f 811 815 812
f 814 813 817
f 817 813 816
f 817 818 814
f 814 818 815
f 817 816 820
f 820 816 819
f 820 821 817
f 817 821 818
f 820 819 823
f 823 819 822
f 823 824 820
f 820 824 821
f 823 822 826
f 826 822 825
f 826 827 823
f 823 827 824
f 826 825 829
f 829 825 828
f 829 830 826
f 826 830 827
f 829 828 882
f 828 883 882
f 828 831 883
f 882 885 829
f 885 830 829
f 885 832 830
f 831 886 883
f 831 833 886
f 888 832 885
f 834 832 888
f 833 889 886
f 833 835 889
f 891 834 888
f 836 834 891
f 835 892 889
f 835 837 892
f 894 836 891
f 838 836 894
f 837 895 892
f 837 839 895
f 897 838 894
f 840 838 897
f 839 898 895
f 839 841 898
f 900 840 897
f 842 840 900
f 841 901 898
f 841 843 901
f 903 842 900
f 844 842 903
f 843 904 901
f 843 845 904
f 906 844 903
f 846 844 906
f 845 907 904
f 845 847 907
f 909 846 906
f 848 846 909
f 847 910 907
f 847 849 910
f 913 848 909
f 850 848 913
f 912 910 852
f 910 851 852
f 910 849 851
f 852 853 912
f 853 913 912
f 853 850 913
f 852 851 855
f 855 851 854
f 855 856 852
f 852 856 853
f 855 854 858
f 858 854 857
f 858 860 855
f 855 860 856
f 857 859 858
f 859 860 858
f 864 865 861
f 861 865 862
f 862 865 867
f 862 867 863
f 863 867 868
f 868 870 863
f 871 917 914
f 864 866 865
f 872 867 865
f 866 872 865
f 872 915 867
f 914 872 871
f 872 914 915
f 873 915 916
f 874 873 916
f 873 867 915
f 868 873 869
f 873 868 867
f 869 870 868
f 924 874 916
f 871 919 917
f 872 875 871
f 875 921 871
f 921 919 871
f 875 876 921
f 923 921 876
f 873 923 876
f 877 873 876
f 923 873 874
f 924 923 874
f 876 875 927
f 875 929 927
f 875 878 929
f 927 931 876
f 931 877 876
f 931 880 877
f 881 932 879
f 932 878 879
f 932 929 878
f 879 880 881
f 880 935 881
f 880 931 935
f 881 934 932
f 935 934 881
f 883 884 882
f 884 885 882
f 884 883 887
f 887 883 886
f 887 888 884
f 884 888 885
f 887 886 890
f 890 886 889
f 890 891 887
f 887 891 888
f 890 889 893
f 893 889 892
f 893 894 890
f 890 894 891
f 893 892 896
f 896 892 895
f 896 897 893
f 893 897 894
f 896 895 899
f 899 895 898
f 899 900 896
f 896 900 897
f 899 898 902
f 902 898 901
f 902 903 899
f 899 903 900
f 902 901 905
f 905 901 904
f 905 906 902
f 902 906 903
f 905 904 908
f 908 904 907
f 908 909 905
f 905 909 906
f 908 907 911
f 911 907 910
f 911 913 908
f 908 913 909
f 910 912 911
f 912 913 911
f 917 918 914
f 914 918 915
f 915 918 920
f 915 920 916
f 916 920 922
f 922 924 916
f 925 939 936
f 917 919 918
f 937 925 936
f 926 925 937
f 920 918 919
f 921 920 919
f 938 926 937
f 928 926 938
f 922 920 921
f 923 922 921
f 923 924 922
f 946 928 938
f 925 941 939
f 941 925 943
f 925 926 943
f 929 930 927
f 928 945 926
f 945 943 926
f 931 927 930
f 946 945 928
f 930 929 933
f 933 929 932
f 933 935 930
f 930 935 931
f 932 934 933
f 934 935 933
f 939 940 936
f 936 940 937
f 937 940 942
f 937 942 938
f 938 942 944
f 944 946 938
f 939 941 940
f 940 941 942
f 942 941 943
f 942 943 944
f 944 943 945
f 945 946 944

