# https://github.com/mikedh/trimesh
v -0.98823529 -0.80294120 -0.92647058
v -0.98823529 -0.80294120 -0.80294120
v -0.98823529 -0.80294120 -0.67941177
v -0.98823529 -0.80294120 -0.55588233
v -0.98823529 -0.80294120 -0.43235293
v -0.98823529 -0.80294120 -0.30882353
v -0.98823529 -0.80294120 -0.18529412
v -0.98823529 -0.80294120 -0.06176471
v -0.98823529 -0.80294120 0.06176471
v -0.98823529 -0.80294120 0.18529412
v -0.98823529 -0.80294120 0.30882353
v -0.98823529 -0.80294120 0.43235293
v -0.98823529 -0.80294120 0.55588233
v -0.98823529 -0.80294120 0.67941177
v -0.98823529 -0.80294120 0.80294120
v -0.98823529 -0.67941177 -0.92647058
v -0.98823529 -0.67941177 0.80294120
v -0.98823529 -0.55588233 -0.92647058
v -0.98823529 -0.55588233 0.80294120
v -0.98823529 -0.43235293 -0.92647058
v -0.98823529 -0.43235293 0.80294120
v -0.98823529 -0.30882353 -0.92647058
v -0.98823529 -0.30882353 0.80294120
v -0.98823529 -0.18529412 -0.92647058
v -0.98823529 -0.18529412 0.80294120
v -0.98823529 -0.06176471 -0.92647058
v -0.98823529 -0.06176471 0.80294120
v -0.98823529 0.06176471 -0.92647058
v -0.98823529 0.06176471 0.80294120
v -0.98823529 0.18529412 -0.92647058
v -0.98823529 0.18529412 0.80294120
v -0.98823529 0.30882353 -0.92647058
v -0.98823529 0.30882353 0.80294120
v -0.98823529 0.43235293 -0.92647058
v -0.98823529 0.43235293 0.80294120
v -0.98823529 0.55588233 -0.92647058
v -0.98823529 0.55588233 0.80294120
v -0.98823529 0.67941177 -0.92647058
v -0.98823529 0.67941177 -0.80294120
v -0.98823529 0.67941177 -0.67941177
v -0.98823529 0.67941177 -0.55588233
v -0.98823529 0.67941177 -0.43235293
v -0.98823529 0.67941177 -0.30882353
v -0.98823529 0.67941177 -0.18529412
v -0.98823529 0.67941177 -0.06176471
v -0.98823529 0.67941177 0.06176471
v -0.98823529 0.67941177 0.18529412
v -0.98823529 0.67941177 0.30882353
v -0.98823529 0.67941177 0.43235293
v -0.98823529 0.67941177 0.55588233
v -0.98823529 0.67941177 0.67941177
v -0.98823529 0.67941177 0.80294120
v -0.92647058 -0.92207295 -0.92647058
v -0.92647058 -0.92054451 -0.80294120
v -0.92647058 -0.91963315 -0.67941177
v -0.92647058 -0.91984886 -0.55588233
v -0.92647058 -0.91920412 -0.43235293
v -0.92647058 -0.91937536 -0.30882353
v -0.92647058 -0.91954708 -0.18529412
v -0.92647058 -0.91928971 -0.06176471
v -0.92647058 -0.91890574 0.06176471
v -0.92647058 -0.91852427 0.18529424
v -0.92647058 -0.91877830 0.30882353
v -0.92647058 -0.91937536 0.43235293
v -0.92647058 -0.91959012 0.55588233
v -0.92647058 -0.91959012 0.67941177
v -0.92647058 -0.92158133 0.80294120
v -0.92647058 -0.80294120 -0.98823529
v -0.92647058 -0.74117649 -0.80294120
v -0.92647058 -0.74117649 -0.67941177
v -0.92647058 -0.74117649 -0.55588233
v -0.92647058 -0.74117649 -0.43235293
v -0.92647058 -0.74117649 -0.30882353
v -0.92647058 -0.74117649 -0.18529412
v -0.92647058 -0.74117649 -0.06176471
v -0.92647058 -0.74117649 0.06176471
v -0.92647058 -0.74117649 0.18529412
v -0.92647058 -0.74117649 0.30882353
v -0.92647058 -0.74117649 0.43235293
v -0.92647058 -0.74117649 0.55588233
v -0.92647058 -0.74117649 0.67941177
v -0.92647058 -0.80294120 0.86470586
v -0.92647058 -0.67941177 -0.98823529
v -0.86470586 -0.67941177 -0.92647058
v -0.92647058 -0.67941177 -0.86470586
v -0.86470586 -0.67941177 -0.80294120
v -0.86470586 -0.67941177 -0.67941177
v -0.86470586 -0.67941177 -0.55588233
v -0.86470586 -0.67941177 -0.43235293
v -0.86470586 -0.67941177 -0.30882353
v -0.86470586 -0.67941177 -0.18529412
v -0.86470586 -0.67941177 -0.06176471
v -0.86470586 -0.67941177 0.06176471
v -0.86470586 -0.67941177 0.18529412
v -0.86470586 -0.67941177 0.30882353
v -0.86470586 -0.67941177 0.43235293
v -0.86470586 -0.67941177 0.55588233
v -0.86470586 -0.67941177 0.67941177
v -0.92647058 -0.67941177 0.74117649
v -0.86470586 -0.67941177 0.80294120
v -0.92647058 -0.67941177 0.86470586
v -0.92647058 -0.55588233 -0.98823529
v -0.86470586 -0.55588233 -0.92647058
v -0.92647058 -0.55588233 -0.86470586
v -0.86470586 -0.55588233 -0.80294120
v -0.86470586 -0.55588233 -0.67941177
v -0.86470586 -0.55588233 -0.55588233
v -0.86470586 -0.55588233 -0.43235293
v -0.86470586 -0.55588233 -0.30882353
v -0.86470586 -0.55588233 -0.18529412
v -0.86470586 -0.55588233 -0.06176471
v -0.86470586 -0.55588233 0.06176471
v -0.86470586 -0.55588233 0.18529412
v -0.86470586 -0.55588233 0.30882353
v -0.86470586 -0.55588233 0.43235293
v -0.86470586 -0.55588233 0.55588233
v -0.86470586 -0.55588233 0.67941177
v -0.92647058 -0.55588233 0.74117649
v -0.86470586 -0.55588233 0.80294120
v -0.92647058 -0.55588233 0.86470586
v -0.92647058 -0.43235293 -0.98823529
v -0.86470586 -0.43235293 -0.92647058
v -0.92647058 -0.43235293 -0.86470586
v -0.86470586 -0.43235293 -0.80294120
v -0.86470586 -0.43235293 -0.67941177
v -0.86470586 -0.43235293 -0.55588233
v -0.86470586 -0.43235293 -0.43235293
v -0.86470586 -0.43235293 -0.30882353
v -0.86470586 -0.43235293 -0.18529412
v -0.86470586 -0.43235293 -0.06176471
v -0.86470586 -0.43235293 0.06176471
v -0.86470586 -0.43235293 0.18529412
v -0.86470586 -0.43235293 0.30882353
v -0.86470586 -0.43235293 0.43235293
v -0.86470586 -0.43235293 0.55588233
v -0.86470586 -0.43235293 0.67941177
v -0.92647058 -0.43235293 0.74117649
v -0.86470586 -0.43235293 0.80294120
v -0.92647058 -0.43235293 0.86470586
v -0.92647058 -0.30882353 -0.98823529
v -0.86470586 -0.30882353 -0.92647058
v -0.92647058 -0.30882353 -0.86470586
v -0.86470586 -0.30882353 -0.80294120
v -0.86470586 -0.30882353 -0.67941177
v -0.86470586 -0.30882353 -0.55588233
v -0.86470586 -0.30882353 -0.43235293
v -0.86470586 -0.30882353 -0.30882353
v -0.86470586 -0.30882353 -0.18529412
v -0.86470586 -0.30882353 -0.06176471
v -0.86470586 -0.30882353 0.06176471
v -0.86470586 -0.30882353 0.18529412
v -0.86470586 -0.30882353 0.30882353
v -0.86470586 -0.30882353 0.43235293
v -0.86470586 -0.30882353 0.55588233
v -0.86470586 -0.30882353 0.67941177
v -0.92647058 -0.30882353 0.74117649
v -0.86470586 -0.30882353 0.80294120
v -0.92647058 -0.30882353 0.86470586
v -0.92647058 -0.18529412 -0.98823529
v -0.86470586 -0.18529412 -0.92647058
v -0.92647058 -0.18529412 -0.86470586
v -0.86470586 -0.18529412 -0.80294120
v -0.86470586 -0.18529412 -0.67941177
v -0.86470586 -0.18529412 -0.55588233
v -0.86470586 -0.18529412 -0.43235293
v -0.86470586 -0.18529412 -0.30882353
v -0.86470586 -0.18529412 -0.18529412
v -0.86470586 -0.18529412 -0.06176471
v -0.86470586 -0.18529412 0.06176471
v -0.86470586 -0.18529412 0.18529412
v -0.86470586 -0.18529412 0.30882353
v -0.86470586 -0.18529412 0.43235293
v -0.86470586 -0.18529412 0.55588233
v -0.86470586 -0.18529412 0.67941177
v -0.92647058 -0.18529412 0.74117649
v -0.86470586 -0.18529412 0.80294120
v -0.92647058 -0.18529412 0.86470586
v -0.92647058 -0.06176471 -0.98823529
v -0.86470586 -0.06176471 -0.92647058
v -0.92647058 -0.06176471 -0.86470586
v -0.86470586 -0.06176471 -0.80294120
v -0.86470586 -0.06176471 -0.67941177
v -0.86470586 -0.06176471 -0.55588233
v -0.86470586 -0.06176471 -0.43235293
v -0.86470586 -0.06176471 -0.30882353
v -0.86470586 -0.06176471 -0.18529412
v -0.86470586 -0.06176471 -0.06176471
v -0.86470586 -0.06176471 0.06176471
v -0.86470586 -0.06176471 0.18529412
v -0.86470586 -0.06176471 0.30882353
v -0.86470586 -0.06176471 0.43235293
v -0.86470586 -0.06176471 0.55588233
v -0.86470586 -0.06176471 0.67941177
v -0.92647058 -0.06176471 0.74117649
v -0.86470586 -0.06176471 0.80294120
v -0.92647058 -0.06176471 0.86470586
v -0.92647058 0.06176471 -0.98823529
v -0.86470586 0.06176471 -0.92647058
v -0.92647058 0.06176471 -0.86470586
v -0.86470586 0.06176471 -0.80294120
v -0.86470586 0.06176471 -0.67941177
v -0.86470586 0.06176471 -0.55588233
v -0.86470586 0.06176471 -0.43235293
v -0.86470586 0.06176471 -0.30882353
v -0.86470586 0.06176471 -0.18529412
v -0.86470586 0.06176471 -0.06176471
v -0.86470586 0.06176471 0.06176471
v -0.86470586 0.06176471 0.18529412
v -0.86470586 0.06176471 0.30882353
v -0.86470586 0.06176471 0.43235293
v -0.86470586 0.06176471 0.55588233
v -0.86470586 0.06176471 0.67941177
v -0.92647058 0.06176471 0.74117649
v -0.86470586 0.06176471 0.80294120
v -0.92647058 0.06176471 0.86470586
v -0.92647058 0.18529412 -0.98823529
v -0.86470586 0.18529412 -0.92647058
v -0.92647058 0.18529412 -0.86470586
v -0.86470586 0.18529412 -0.80294120
v -0.86470586 0.18529412 -0.67941177
v -0.86470586 0.18529412 -0.55588233
v -0.86470586 0.18529412 -0.43235293
v -0.86470586 0.18529412 -0.30882353
v -0.86470586 0.18529412 -0.18529412
v -0.86470586 0.18529412 -0.06176471
v -0.86470586 0.18529412 0.06176471
v -0.86470586 0.18529412 0.18529412
v -0.86470586 0.18529412 0.30882353
v -0.86470586 0.18529412 0.43235293
v -0.86470586 0.18529412 0.55588233
v -0.86470586 0.18529412 0.67941177
v -0.92647058 0.18529412 0.74117649
v -0.86470586 0.18529412 0.80294120
v -0.92647058 0.18529412 0.86470586
v -0.92647058 0.30882353 -0.98823529
v -0.86470586 0.30882353 -0.92647058
v -0.92647058 0.30882353 -0.86470586
v -0.86470586 0.30882353 -0.80294120
v -0.86470586 0.30882353 -0.67941177
v -0.86470586 0.30882353 -0.55588233
v -0.86470586 0.30882353 -0.43235293
v -0.86470586 0.30882353 -0.30882353
v -0.86470586 0.30882353 -0.18529412
v -0.86470586 0.30882353 -0.06176471
v -0.86470586 0.30882353 0.06176471
v -0.86470586 0.30882353 0.18529412
v -0.86470586 0.30882353 0.30882353
v -0.86470586 0.30882353 0.43235293
v -0.86470586 0.30882353 0.55588233
v -0.86470586 0.30882353 0.67941177
v -0.92647058 0.30882353 0.74117649
v -0.86470586 0.30882353 0.80294120
v -0.92647058 0.30882353 0.86470586
v -0.92647058 0.43235293 -0.98823529
v -0.86470586 0.43235293 -0.92647058
v -0.92647058 0.43235293 -0.86470586
v -0.86470586 0.43235293 -0.80294120
v -0.86470586 0.43235293 -0.67941177
v -0.86470586 0.43235293 -0.55588233
v -0.86470586 0.43235293 -0.43235293
v -0.86470586 0.43235293 -0.30882353
v -0.86470586 0.43235293 -0.18529412
v -0.86470586 0.43235293 -0.06176471
v -0.86470586 0.43235293 0.06176471
v -0.86470586 0.43235293 0.18529412
v -0.86470586 0.43235293 0.30882353
v -0.86470586 0.43235293 0.43235293
v -0.86470586 0.43235293 0.55588233
v -0.86470586 0.43235293 0.67941177
v -0.92647058 0.43235293 0.74117649
v -0.86470586 0.43235293 0.80294120
v -0.92647058 0.43235293 0.86470586
v -0.92647058 0.55588233 -0.98823529
v -0.86470586 0.55588233 -0.92647058
v -0.92647058 0.55588233 -0.86470586
v -0.86470586 0.55588233 -0.80294120
v -0.92647058 0.61764705 -0.80294120
v -0.86470586 0.55588233 -0.67941177
v -0.92647058 0.61764705 -0.67941177
v -0.86470586 0.55588233 -0.55588233
v -0.92647058 0.61764705 -0.55588233
v -0.86470586 0.55588233 -0.43235293
v -0.92647058 0.61764705 -0.43235293
v -0.86470586 0.55588233 -0.30882353
v -0.92647058 0.61764705 -0.30882353
v -0.86470586 0.55588233 -0.18529412
v -0.92647058 0.61764705 -0.18529412
v -0.86470586 0.55588233 -0.06176471
v -0.92647058 0.61764705 -0.06176471
v -0.86470586 0.55588233 0.06176471
v -0.92647058 0.61764705 0.06176471
v -0.86470586 0.55588233 0.18529412
v -0.92647058 0.61764705 0.18529412
v -0.86470586 0.55588233 0.30882353
v -0.92647058 0.61764705 0.30882353
v -0.86470586 0.55588233 0.43235293
v -0.92647058 0.61764705 0.43235293
v -0.86470586 0.55588233 0.55588233
v -0.92647058 0.61764705 0.55588233
v -0.86470586 0.55588233 0.67941177
v -0.92647058 0.61764705 0.67941177
v -0.92647058 0.55588233 0.74117649
v -0.86470586 0.55588233 0.80294120
v -0.92647058 0.55588233 0.86470586
v -0.92647058 0.67941177 -0.98823529
v -0.92647058 0.79275769 -0.92647058
v -0.92647058 0.79243362 -0.80294120
v -0.92647058 0.79131389 -0.67941177
v -0.92647058 0.79155195 -0.55588233
v -0.92647058 0.79183108 -0.43235293
v -0.92647058 0.79223204 -0.30882353
v -0.92647058 0.79239333 -0.18529412
v -0.92647058 0.79271722 -0.06176471
v -0.92647058 0.79223204 0.06176471
v -0.92647058 0.79199106 0.18529412
v -0.92647058 0.79147243 0.30882353
v -0.92647058 0.79139304 0.43235293
v -0.92647058 0.79199106 0.55588233
v -0.92647058 0.79219180 0.67941177
v -0.92647058 0.79398972 0.80294120
v -0.92647058 0.67941177 0.86470586
v -0.80294120 -0.92023915 -0.92647058
v -0.80294120 -0.86470586 -0.80294120
v -0.80294120 -0.86470586 -0.67941177
v -0.80294120 -0.86470586 -0.55588233
v -0.80294120 -0.86470586 -0.43235293
v -0.80294120 -0.86470586 -0.30882353
v -0.80294120 -0.86470586 -0.18529412
v -0.80294120 -0.86470586 -0.06176471
v -0.80294120 -0.86470586 0.06176471
v -0.80294120 -0.86470586 0.18529412
v -0.80294120 -0.86470586 0.30882353
v -0.80294120 -0.86470586 0.43235293
v -0.80294120 -0.86470586 0.55588233
v -0.80294120 -0.86470586 0.67941177
v -0.80294120 -0.92002201 0.80294120
v -0.80294120 -0.80294120 -0.98823529
v -0.80294120 -0.74117649 -0.92647058
v -0.80294120 -0.74117649 0.80294120
v -0.80294120 -0.80294120 0.86470586
v -0.80294120 -0.67941177 -0.86470586
v -0.80294120 -0.67941177 0.74117649
v -0.80294120 -0.55588233 -0.86470586
v -0.80294120 -0.55588233 0.74117649
v -0.80294120 -0.43235293 -0.86470586
v -0.80294120 -0.43235293 0.74117649
v -0.80294120 -0.30882353 -0.86470586
v -0.80294120 -0.30882353 0.74117649
v -0.80294120 -0.18529412 -0.86470586
v -0.80294120 -0.18529412 0.74117649
v -0.80294120 -0.06176471 -0.86470586
v -0.80294120 -0.06176471 0.74117649
v -0.80294120 0.06176471 -0.86470586
v -0.80294120 0.06176471 0.74117649
v -0.80294120 0.18529412 -0.86470586
v -0.80294120 0.18529412 0.74117649
v -0.80294120 0.30882353 -0.86470586
v -0.80294120 0.30882353 0.74117649
v -0.80294120 0.43235293 -0.86470586
v -0.80294120 0.43235293 0.74117649
v -0.80294120 0.61764705 -0.92647058
v -0.80294120 0.55588233 -0.86470586
v -0.80294120 0.55588233 0.74117649
v -0.80294120 0.61764705 0.80294120
v -0.80294120 0.67941177 -0.98823529
v -0.80294120 0.79187101 -0.92647058
v -0.80294120 0.74117649 -0.80294120
v -0.80294120 0.74117649 -0.67941177
v -0.80294120 0.74137002 -0.55588233
v -0.80294120 0.74117649 -0.43235293
v -0.80294120 0.74117649 -0.30882353
v -0.80294120 0.74117649 -0.18529412
v -0.80294120 0.74117649 -0.06176471
v -0.80294120 0.74117649 0.06176471
v -0.80294120 0.74117649 0.18529412
v -0.80294120 0.74137002 0.30882353
v -0.80294120 0.74117649 0.43235293
v -0.80294120 0.74117649 0.55588233
v -0.80294120 0.74117649 0.67941177
v -0.80294120 0.79444826 0.80294120
v -0.80294120 0.67941177 0.86470586
v -0.67941177 -0.92229778 -0.92647058
v -0.67941177 -0.86470586 -0.80294120
v -0.67941177 -0.86470586 -0.67941177
v -0.67941177 -0.86470586 -0.55588233
v -0.67941177 -0.86470586 -0.43235293
v -0.67941177 -0.86470586 -0.30882353
v -0.67941177 -0.86470586 -0.18529412
v -0.67941177 -0.86470586 -0.06176471
v -0.67941177 -0.86470586 0.06176471
v -0.67941177 -0.86470586 0.18529412
v -0.67941177 -0.86470586 0.30882353
v -0.67941177 -0.86470586 0.43235293
v -0.67941177 -0.86470586 0.55588233
v -0.67941177 -0.86470586 0.67941177
v -0.67941177 -0.92173731 0.80294108
v -0.67941177 -0.80294120 -0.98823529
v -0.67941177 -0.74117649 -0.92647058
v -0.67941177 -0.74117649 0.80294120
v -0.67941177 -0.80294120 0.86470586
v -0.67941177 -0.67941177 -0.86470586
v -0.67941177 -0.67941177 0.74117649
v -0.67941177 -0.55588233 -0.86470586
v -0.67941177 -0.55588233 0.74117649
v -0.67941177 -0.43235293 -0.86470586
v -0.67941177 -0.43235293 0.74117649
v -0.67941177 -0.30882353 -0.86470586
v -0.67941177 -0.30882353 0.74117649
v -0.67941177 -0.18529412 -0.86470586
v -0.67941177 -0.18529412 0.74117649
v -0.67941177 -0.06176471 -0.86470586
v -0.67941177 -0.06176471 0.74117649
v -0.67941177 0.06176471 -0.86470586
v -0.67941177 0.06176471 0.74117649
v -0.67941177 0.18529412 -0.86470586
v -0.67941177 0.18529412 0.74117649
v -0.67941177 0.30882353 -0.86470586
v -0.67941177 0.30882353 0.74117649
v -0.67941177 0.43235293 -0.86470586
v -0.67941177 0.43235293 0.74117649
v -0.67941177 0.61764705 -0.92647058
v -0.67941177 0.55588233 -0.86470586
v -0.67941177 0.55588233 0.74117649
v -0.67941177 0.61764705 0.80294120
v -0.67941177 0.67941177 -0.98823529
v -0.67941177 0.79353487 -0.92647058
v -0.67941177 0.74117649 -0.80294120
v -0.67941177 0.74117649 -0.67941177
v -0.67941177 0.74117649 -0.55588233
v -0.67941177 0.74117649 -0.43235293
v -0.67941177 0.74117649 -0.30882353
v -0.67941177 0.74117649 -0.18529412
v -0.67941177 0.74117649 -0.06176471
v -0.67941177 0.74117649 0.06176471
v -0.67941177 0.74117649 0.18529412
v -0.67941177 0.74117649 0.30882353
v -0.67941177 0.74117649 0.43235293
v -0.67941177 0.74117649 0.55588233
v -0.67941177 0.74117649 0.67941177
v -0.67941177 0.79478401 0.80294120
v -0.67941177 0.67941177 0.86470586
v -0.55588233 -0.92142576 -0.92647058
v -0.55588233 -0.86470586 -0.80294120
v -0.55588233 -0.86470586 -0.67941177
v -0.55588233 -0.86470586 -0.55588233
v -0.55588233 -0.86470586 -0.43235293
v -0.55588233 -0.86470586 -0.30882353
v -0.55588233 -0.86470586 -0.18529412
v -0.55588233 -0.86470586 -0.06176471
v -0.55588233 -0.86470586 0.06176471
v -0.55588233 -0.86470586 0.18529412
v -0.55588233 -0.86470586 0.30882353
v -0.55588233 -0.86470586 0.43235293
v -0.55588233 -0.86470586 0.55588233
v -0.55588233 -0.86470586 0.67941177
v -0.55588233 -0.92067581 0.80294120
v -0.55588233 -0.80294120 -0.98823529
v -0.55588233 -0.74117649 -0.92647058
v -0.55588233 -0.74117649 0.80294120
v -0.55588233 -0.80294120 0.86470586
v -0.55588233 -0.67941177 -0.86470586
v -0.55588233 -0.67941177 0.74117649
v -0.55588233 -0.55588233 -0.86470586
v -0.55588233 -0.55588233 0.74117649
v -0.55588233 -0.43235293 -0.86470586
v -0.55588233 -0.43235293 0.74117649
v -0.55588233 -0.30882353 -0.86470586
v -0.55588233 -0.30882353 0.74117649
v -0.55588233 -0.18529412 -0.86470586
v -0.55588233 -0.18529412 0.74117649
v -0.55588233 -0.06176471 -0.86470586
v -0.55588233 -0.06176471 0.74117649
v -0.55588233 0.06176471 -0.86470586
v -0.55588233 0.06176471 0.74117649
v -0.55588233 0.18529412 -0.86470586
v -0.55588233 0.18529412 0.74117649
v -0.55588233 0.30882353 -0.86470586
v -0.55588233 0.30882353 0.74117649
v -0.55588233 0.43235293 -0.86470586
v -0.55588233 0.43235293 0.74117649
v -0.55588233 0.61764705 -0.92647058
v -0.55588233 0.55588233 -0.86470586
v -0.55588233 0.55588233 0.74117649
v -0.55588233 0.61764705 0.80294120
v -0.55588233 0.67941177 -0.98823529
v -0.55588233 0.79263604 -0.92647058
v -0.55588233 0.74117649 -0.80294120
v -0.55588233 0.74117649 -0.67941177
v -0.55588233 0.74117649 -0.55588233
v -0.55588233 0.74117649 -0.43235293
v -0.55588233 0.74117649 -0.30882353
v -0.55588233 0.74117649 -0.18529412
v -0.55588233 0.74117649 -0.06176471
v -0.55588233 0.74117649 0.06176471
v -0.55588233 0.74117649 0.18529412
v -0.55588233 0.74117649 0.30882353
v -0.55588233 0.74117649 0.43235293
v -0.55588233 0.74117649 0.55588233
v -0.55588233 0.74117649 0.67941177
v -0.55588233 0.79357612 0.80294120
v -0.55588233 0.67941177 0.86470586
v -0.43235287 -0.92096144 -0.92647058
v -0.43235293 -0.86470586 -0.80294120
v -0.43235293 -0.86470586 -0.67941177
v -0.43235293 -0.86470586 -0.55588233
v -0.43235293 -0.86470586 -0.43235293
v -0.43235293 -0.86470586 -0.30882353
v -0.43235293 -0.86470586 -0.18529412
v -0.43235293 -0.86470586 -0.06176471
v -0.43235293 -0.86470586 0.06176471
v -0.43235293 -0.86470586 0.18529412
v -0.43235293 -0.86470586 0.30882353
v -0.43235293 -0.86470586 0.43235293
v -0.43235293 -0.86470586 0.55588233
v -0.43235293 -0.86470586 0.67941177
v -0.43235293 -0.92058825 0.80294120
v -0.43235293 -0.80294120 -0.98823529
v -0.43235293 -0.74117649 -0.92647058
v -0.43235293 -0.74117649 0.80294120
v -0.43235293 -0.80294120 0.86470586
v -0.43235293 -0.67941177 -0.86470586
v -0.43235293 -0.67941177 0.74117649
v -0.43235293 -0.55588233 -0.86470586
v -0.43235293 -0.55588233 0.74117649
v -0.43235293 -0.43235293 -0.86470586
v -0.43235293 -0.43235293 0.74117649
v -0.43235293 -0.30882353 -0.86470586
v -0.43235293 -0.30882353 0.74117649
v -0.43235293 -0.18529412 -0.86470586
v -0.43235293 -0.18529412 0.74117649
v -0.43235293 -0.06176471 -0.86470586
v -0.43235293 -0.06176471 0.74117649
v -0.43235293 0.06176471 -0.86470586
v -0.43235293 0.06176471 0.74117649
v -0.43235293 0.18529412 -0.86470586
v -0.43235293 0.18529412 0.74117649
v -0.43235293 0.30882353 -0.86470586
v -0.43235293 0.30882353 0.74117649
v -0.43235293 0.43235293 -0.86470586
v -0.43235293 0.43235293 0.74117649
v -0.43235293 0.61764705 -0.92647058
v -0.43235293 0.55588233 -0.86470586
v -0.43235293 0.55588233 0.74117649
v -0.43235293 0.61764705 0.80294120
v -0.43235293 0.67941177 -0.98823529
v -0.43235293 0.79235291 -0.92647058
v -0.43235293 0.74117649 -0.80294120
v -0.43235293 0.74117649 -0.67941177
v -0.43235293 0.74117649 -0.55588233
v -0.43235293 0.74117649 -0.43235293
v -0.43235293 0.74117649 -0.30882353
v -0.43235293 0.74117649 -0.18529412
v -0.43235293 0.74117649 -0.06176471
v -0.43235293 0.74117649 0.06176471
v -0.43235293 0.74117649 0.18529412
v -0.43235293 0.74117649 0.30882353
v -0.43235293 0.74117649 0.43235293
v -0.43235293 0.74117649 0.55588233
v -0.43235293 0.74117649 0.67941177
v -0.43235293 0.79369992 0.80294120
v -0.43235293 0.67941177 0.86470586
v -0.30882353 -0.92111582 -0.92647058
v -0.30882353 -0.86470586 -0.80294120
v -0.30882353 -0.86470586 -0.67941177
v -0.30882353 -0.86470586 -0.55588233
v -0.30882353 -0.86470586 -0.43235293
v -0.30882353 -0.86470586 -0.30882353
v -0.30882353 -0.86470586 -0.18529412
v -0.30882353 -0.86470586 -0.06176471
v -0.30882353 -0.86470586 0.06176471
v -0.30882353 -0.86470586 0.18529412
v -0.30882353 -0.86470586 0.30882353
v -0.30882353 -0.86470586 0.43235293
v -0.30882353 -0.86470586 0.55588233
v -0.30882353 -0.86470586 0.67941177
v -0.30882353 -0.92036980 0.80294120
v -0.30882353 -0.80294120 -0.98823529
v -0.30882353 -0.74117649 -0.92647058
v -0.30882353 -0.74117649 0.80294120
v -0.30882353 -0.80294120 0.86470586
v -0.30882353 -0.67941177 -0.86470586
v -0.30882353 -0.67941177 0.74117649
v -0.30882353 -0.55588233 -0.86470586
v -0.30882353 -0.55588233 0.74117649
v -0.30882353 -0.43235293 -0.86470586
v -0.30882353 -0.43235293 0.74117649
v -0.30882353 -0.30882353 -0.86470586
v -0.30882353 -0.30882353 0.74117649
v -0.30882353 -0.18529412 -0.86470586
v -0.30882353 -0.18529412 0.74117649
v -0.30882353 -0.06176471 -0.86470586
v -0.30882353 -0.06176471 0.74117649
v -0.30882353 0.06176471 -0.86470586
v -0.30882353 0.06176471 0.74117649
v -0.30882353 0.18529412 -0.86470586
v -0.30882353 0.18529412 0.74117649
v -0.30882353 0.30882353 -0.86470586
v -0.30882353 0.30882353 0.74117649
v -0.30882353 0.43235293 -0.86470586
v -0.30882353 0.43235293 0.74117649
v -0.30882353 0.61764705 -0.92647058
v -0.30882353 0.55588233 -0.86470586
v -0.30882353 0.55588233 0.74117649
v -0.30882353 0.61764705 0.80294120
v -0.30882353 0.67941177 -0.98823529
v -0.30882353 0.79337043 -0.92647058
v -0.30882353 0.74117649 -0.80294120
v -0.30882353 0.74117649 -0.67941177
v -0.30882353 0.74117649 -0.55588233
v -0.30882353 0.74117649 -0.43235293
v -0.30882353 0.74117649 -0.30882353
v -0.30882353 0.74117649 -0.18529412
v -0.30882353 0.74117649 -0.06176471
v -0.30882353 0.74117649 0.06176471
v -0.30882353 0.74117649 0.18529412
v -0.30882353 0.74117649 0.30882353
v -0.30882353 0.74117649 0.43235293
v -0.30882353 0.74117649 0.55588233
v -0.30882353 0.74117649 0.67941177
v -0.30882353 0.79419768 0.80294120
v -0.30882353 0.67941177 0.86470586
v -0.18529412 -0.92153680 -0.92647058
v -0.18529412 -0.86470586 -0.80294120
v -0.18529412 -0.86470586 -0.67941177
v -0.18529412 -0.86470586 -0.55588233
v -0.18529412 -0.86470586 -0.43235293
v -0.18529412 -0.86470586 -0.30882353
v -0.18529412 -0.86470586 -0.18529412
v -0.18529412 -0.86470586 -0.06176471
v -0.18529412 -0.86470586 0.06176471
v -0.18529412 -0.86470586 0.18529412
v -0.18529412 -0.86470586 0.30882353
v -0.18529412 -0.86470586 0.43235293
v -0.18529412 -0.86470586 0.55588233
v -0.18529412 -0.86470586 0.67941177
v -0.18529412 -0.92080748 0.80294120
v -0.18529412 -0.80294120 -0.98823529
v -0.18529412 -0.74117649 -0.92647058
v -0.18529412 -0.74117649 0.80294120
v -0.18529412 -0.80294120 0.86470586
v -0.18529412 -0.67941177 -0.86470586
v -0.18529412 -0.67941177 0.74117649
v -0.18529412 -0.55588233 -0.86470586
v -0.18529412 -0.55588233 0.74117649
v -0.18529412 -0.43235293 -0.86470586
v -0.18529412 -0.43235293 0.74117649
v -0.18529412 -0.30882353 -0.86470586
v -0.18529412 -0.30882353 0.74117649
v -0.18529412 -0.18529412 -0.86470586
v -0.18529412 -0.18529412 0.74117649
v -0.18529412 -0.06176471 -0.86470586
v -0.18529412 -0.06176471 0.74117649
v -0.18529412 0.06176471 -0.86470586
v -0.18529412 0.06176471 0.74117649
v -0.18529412 0.18529412 -0.86470586
v -0.18529412 0.18529412 0.74117649
v -0.18529412 0.30882353 -0.86470586
v -0.18529412 0.30882353 0.74117649
v -0.18529412 0.43235293 -0.86470586
v -0.18529412 0.43235293 0.74117649
v -0.18529412 0.61764705 -0.92647058
v -0.18529412 0.55588233 -0.86470586
v -0.18529412 0.55588233 0.74117649
v -0.18529412 0.61764705 0.80294120
v -0.18529412 0.67941177 -0.98823529
v -0.18529412 0.79369992 -0.92647058
v -0.18529412 0.74117649 -0.80294120
v -0.18529412 0.74117649 -0.67941177
v -0.18529412 0.74117649 -0.55588233
v -0.18529412 0.74117649 -0.43235293
v -0.18529412 0.74117649 -0.30882353
v -0.18529412 0.74117649 -0.18529412
v -0.18529412 0.74117649 -0.06176471
v -0.18529412 0.74117649 0.06176471
v -0.18529412 0.74117649 0.18529412
v -0.18529412 0.74117649 0.30882353
v -0.18529412 0.74117649 0.43235293
v -0.18529412 0.74117649 0.55588233
v -0.18529412 0.74117649 0.67941177
v -0.18529412 0.79457396 0.80294120
v -0.18529412 0.67941177 0.86470586
v -0.06176471 -0.92160356 -0.92647058
v -0.06176471 -0.86470586 -0.80294120
v -0.06176471 -0.86470586 -0.67941177
v -0.06176471 -0.86470586 -0.55588233
v -0.06176471 -0.86470586 -0.43235293
v -0.06176471 -0.86470586 -0.30882353
v -0.06176471 -0.86470586 -0.18529412
v -0.06176471 -0.86470586 -0.06176471
v -0.06176471 -0.86470586 0.06176471
v -0.06176471 -0.86470586 0.18529412
v -0.06176471 -0.86470586 0.30882353
v -0.06176471 -0.86470586 0.43235293
v -0.06176471 -0.86470586 0.55588233
v -0.06176471 -0.86470586 0.67941177
v -0.06176471 -0.92080748 0.80294120
v -0.06176471 -0.80294120 -0.98823529
v -0.06176471 -0.74117649 -0.92647058
v -0.06176471 -0.74117649 0.80294120
v -0.06176471 -0.80294120 0.86470586
v -0.06176471 -0.67941177 -0.86470586
v -0.06176471 -0.67941177 0.74117649
v -0.06176471 -0.55588233 -0.86470586
v -0.06176471 -0.55588233 0.74117649
v -0.06176471 -0.43235293 -0.86470586
v -0.06176471 -0.43235293 0.74117649
v -0.06176471 -0.30882353 -0.86470586
v -0.06176471 -0.30882353 0.74117649
v -0.06176471 -0.18529412 -0.86470586
v -0.06176471 -0.18529412 0.74117649
v -0.06176471 -0.06176471 -0.86489952
v -0.06176471 -0.06176471 0.74137002
v -0.06176471 0.06176471 -0.86489952
v -0.06176471 0.06176471 0.74117649
v -0.06176471 0.18529412 -0.86470586
v -0.06176471 0.18529412 0.74117649
v -0.06176471 0.30882353 -0.86470586
v -0.06176471 0.30882353 0.74117649
v -0.06176471 0.43235293 -0.86470586
v -0.06176471 0.43235293 0.74117649
v -0.06176471 0.61764705 -0.92647058
v -0.06176471 0.55588233 -0.86470586
v -0.06176471 0.55588233 0.74117649
v -0.06176471 0.61764705 0.80294120
v -0.06176471 0.67941177 -0.98823529
v -0.06176471 0.79308367 -0.92647058
v -0.06176471 0.74117649 -0.80294120
v -0.06176471 0.74117649 -0.67941177
v -0.06176471 0.74117649 -0.55588233
v -0.06176471 0.74117649 -0.43235293
v -0.06176471 0.74117649 -0.30882353
v -0.06176471 0.74137002 -0.18529412
v -0.06176471 0.74117649 -0.06176471
v -0.06176471 0.74117649 0.06176471
v -0.06176471 0.74117649 0.18529412
v -0.06176471 0.74117649 0.30882353
v -0.06176471 0.74117649 0.43235293
v -0.06176471 0.74117649 0.55588233
v -0.06176471 0.74117649 0.67941177
v -0.06176471 0.79465783 0.80294120
v -0.06176471 0.67941177 0.86470586
v 0.06176471 -0.92180431 -0.92647058
v 0.06176471 -0.86470586 -0.80294120
v 0.06176471 -0.86470586 -0.67941177
v 0.06176471 -0.86470586 -0.55588233
v 0.06176471 -0.86470586 -0.43235293
v 0.06176471 -0.86470586 -0.30882353
v 0.06176471 -0.86470586 -0.18529412
v 0.06176471 -0.86470586 -0.06176471
v 0.06176471 -0.86470586 0.06176471
v 0.06176471 -0.86470586 0.18529412
v 0.06176471 -0.86470586 0.30882353
v 0.06176471 -0.86470586 0.43235293
v 0.06176471 -0.86470586 0.55588233
v 0.06176471 -0.86470586 0.67941177
v 0.06176471 -0.92127055 0.80294120
v 0.06176471 -0.80294120 -0.98823529
v 0.06176471 -0.74117649 -0.92647058
v 0.06176471 -0.74117649 0.80294120
v 0.06176471 -0.80294120 0.86470586
v 0.06176471 -0.67941177 -0.86470586
v 0.06176471 -0.67941177 0.74117649
v 0.06176471 -0.55588233 -0.86470586
v 0.06176471 -0.55588233 0.74117649
v 0.06176471 -0.43235293 -0.86470586
v 0.06176471 -0.43235293 0.74117649
v 0.06176471 -0.30882353 -0.86470586
v 0.06176471 -0.30882353 0.74117649
v 0.06176471 -0.18529412 -0.86470586
v 0.06176471 -0.18529412 0.74117649
v 0.06176471 -0.06176471 -0.86470586
v 0.06176471 -0.06176471 0.74117649
v 0.06176471 0.06176471 -0.86470586
v 0.06176471 0.06176471 0.74117649
v 0.06176471 0.18529412 -0.86470586
v 0.06176471 0.18529412 0.74117649
v 0.06176471 0.30882353 -0.86470586
v 0.06176471 0.30882353 0.74117649
v 0.06176471 0.43235293 -0.86470586
v 0.06176471 0.43235293 0.74117649
v 0.06176471 0.61764705 -0.92647058
v 0.06176471 0.55588233 -0.86470586
v 0.06176471 0.55588233 0.74117649
v 0.06176471 0.61764705 0.80294120
v 0.06176471 0.67941177 -0.98823529
v 0.06176471 0.79304284 -0.92647058
v 0.06176471 0.74117649 -0.80294120
v 0.06176471 0.74117649 -0.67941177
v 0.06176471 0.74117649 -0.55588233
v 0.06176471 0.74117649 -0.43235293
v 0.06176471 0.74117649 -0.30882353
v 0.06176471 0.74117649 -0.18529412
v 0.06176471 0.74117649 -0.06176471
v 0.06176471 0.74117649 0.06176471
v 0.06176471 0.74117649 0.18529412
v 0.06176471 0.74117649 0.30882353
v 0.06176471 0.74117649 0.43235293
v 0.06176471 0.74117649 0.55588233
v 0.06176471 0.74117649 0.67941177
v 0.06176471 0.79432291 0.80294120
v 0.06176471 0.67941177 0.86470586
v 0.18529412 -0.92160356 -0.92647058
v 0.18529412 -0.86470586 -0.80294120
v 0.18529412 -0.86470586 -0.67941177
v 0.18529412 -0.86470586 -0.55588233
v 0.18529412 -0.86470586 -0.43235293
v 0.18529412 -0.86470586 -0.30882353
v 0.18529412 -0.86470586 -0.18529412
v 0.18529412 -0.86470586 -0.06176471
v 0.18529412 -0.86470586 0.06176471
v 0.18529412 -0.86470586 0.18529412
v 0.18529412 -0.86470586 0.30882353
v 0.18529412 -0.86470586 0.43235293
v 0.18529412 -0.86470586 0.55588233
v 0.18529412 -0.86470586 0.67941177
v 0.18529412 -0.92054451 0.80294132
v 0.18529412 -0.80294120 -0.98823529
v 0.18529412 -0.74117649 -0.92647058
v 0.18529412 -0.74117649 0.80294120
v 0.18529412 -0.80294120 0.86470586
v 0.18529412 -0.67941177 -0.86470586
v 0.18529412 -0.67941177 0.74117649
v 0.18529412 -0.55588233 -0.86470586
v 0.18529412 -0.55588233 0.74117649
v 0.18529412 -0.43235293 -0.86470586
v 0.18529412 -0.43235293 0.74117649
v 0.18529412 -0.30882353 -0.86470586
v 0.18529412 -0.30882353 0.74117649
v 0.18529412 -0.18529412 -0.86470586
v 0.18529412 -0.18529412 0.74117649
v 0.18529412 -0.06176471 -0.86470586
v 0.18529412 -0.06176471 0.74117649
v 0.18529412 0.06176471 -0.86470586
v 0.18529412 0.06176471 0.74117649
v 0.18529412 0.18529412 -0.86470586
v 0.18529412 0.18529412 0.74117649
v 0.18529412 0.30882353 -0.86470586
v 0.18529412 0.30882353 0.74117649
v 0.18529412 0.43235293 -0.86470586
v 0.18529412 0.43235293 0.74117649
v 0.18529412 0.61764705 -0.92647058
v 0.18529412 0.55588233 -0.86470586
v 0.18529412 0.55588233 0.74117649
v 0.18529412 0.61764705 0.80294120
v 0.18529412 0.67941177 -0.98823529
v 0.18529412 0.79341155 -0.92647058
v 0.18529412 0.74117649 -0.80294120
v 0.18529412 0.74117649 -0.67941177
v 0.18529412 0.74117649 -0.55588233
v 0.18529412 0.74117649 -0.43235293
v 0.18529412 0.74117649 -0.30882353
v 0.18529412 0.74117649 -0.18529412
v 0.18529412 0.74117649 -0.06176471
v 0.18529412 0.74117649 0.06176471
v 0.18529412 0.74117649 0.18529412
v 0.18529412 0.74117649 0.30882353
v 0.18529412 0.74117649 0.43235293
v 0.18529412 0.74117649 0.55588233
v 0.18529412 0.74117649 0.67941177
v 0.18529412 0.79465783 0.80294120
v 0.18529412 0.67941177 0.86470586
v 0.30882365 -0.92032623 -0.92647058
v 0.30882353 -0.86470586 -0.80294120
v 0.30882353 -0.86470586 -0.67941177
v 0.30882353 -0.86470586 -0.55588233
v 0.30882353 -0.86470586 -0.43235293
v 0.30882353 -0.86470586 -0.30882353
v 0.30882353 -0.86470586 -0.18529412
v 0.30882353 -0.86470586 -0.06176471
v 0.30882353 -0.86470586 0.06176471
v 0.30882353 -0.86470586 0.18529412
v 0.30882353 -0.86470586 0.30882353
v 0.30882353 -0.86470586 0.43235293
v 0.30882353 -0.86470586 0.55588233
v 0.30882353 -0.86470586 0.67941177
v 0.30882365 -0.91976249 0.80294132
v 0.30882353 -0.80294120 -0.98823529
v 0.30882353 -0.74117649 -0.92647058
v 0.30882353 -0.74117649 0.80294120
v 0.30882353 -0.80294120 0.86470586
v 0.30882353 -0.67941177 -0.86470586
v 0.30882353 -0.67941177 0.74117649
v 0.30882353 -0.55588233 -0.86470586
v 0.30882353 -0.55588233 0.74117649
v 0.30882353 -0.43235293 -0.86470586
v 0.30882353 -0.43235293 0.74117649
v 0.30882353 -0.30882353 -0.86470586
v 0.30882353 -0.30882353 0.74117649
v 0.30882353 -0.18529412 -0.86470586
v 0.30882353 -0.18529412 0.74117649
v 0.30882353 -0.06176471 -0.86470586
v 0.30882353 -0.06176471 0.74117649
v 0.30882353 0.06176471 -0.86470586
v 0.30882353 0.06176471 0.74117649
v 0.30882353 0.18529412 -0.86470586
v 0.30882353 0.18529412 0.74117649
v 0.30882353 0.30882353 -0.86470586
v 0.30882353 0.30882353 0.74117649
v 0.30882353 0.43235293 -0.86470586
v 0.30882353 0.43235293 0.74117649
v 0.30882353 0.61764705 -0.92647058
v 0.30882353 0.55588233 -0.86470586
v 0.30882353 0.55588233 0.74117649
v 0.30882353 0.61764705 0.80294120
v 0.30882353 0.67941177 -0.98823529
v 0.30882353 0.79179102 -0.92647058
v 0.30882353 0.74117649 -0.80294120
v 0.30882353 0.74117649 -0.67941177
v 0.30882353 0.74117649 -0.55588233
v 0.30882353 0.74117649 -0.43235293
v 0.30882353 0.74117649 -0.30882353
v 0.30882353 0.74117649 -0.18529412
v 0.30882353 0.74117649 -0.06176471
v 0.30882353 0.74117649 0.06176471
v 0.30882353 0.74117649 0.18529412
v 0.30882353 0.74117649 0.30882353
v 0.30882353 0.74117649 0.43235293
v 0.30882353 0.74117649 0.55588233
v 0.30882353 0.74117649 0.67941177
v 0.30882353 0.79365861 0.80294120
v 0.30882353 0.67941177 0.86470586
v 0.43235293 -0.92045707 -0.92647058
v 0.43235293 -0.86470586 -0.80294120
v 0.43235293 -0.86470586 -0.67941177
v 0.43235293 -0.86470586 -0.55588233
v 0.43235293 -0.86470586 -0.43235293
v 0.43235293 -0.86470586 -0.30882353
v 0.43235293 -0.86470586 -0.18529412
v 0.43235293 -0.86470586 -0.06176471
v 0.43235293 -0.86470586 0.06176471
v 0.43235293 -0.86470586 0.18529412
v 0.43235293 -0.86470586 0.30882353
v 0.43235293 -0.86470586 0.43235293
v 0.43235293 -0.86470586 0.55588233
v 0.43235293 -0.86470586 0.67941177
v 0.43235293 -0.91984886 0.80294120
v 0.43235293 -0.80294120 -0.98823529
v 0.43235293 -0.74117649 -0.92647058
v 0.43235293 -0.74117649 0.80294120
v 0.43235293 -0.80294120 0.86470586
v 0.43235293 -0.67941177 -0.86470586
v 0.43235293 -0.67941177 0.74117649
v 0.43235293 -0.55588233 -0.86470586
v 0.43235293 -0.55588233 0.74117649
v 0.43235293 -0.43235293 -0.86470586
v 0.43235293 -0.43235293 0.74117649
v 0.43235293 -0.30882353 -0.86470586
v 0.43235293 -0.30882353 0.74117649
v 0.43235293 -0.18529412 -0.86470586
v 0.43235293 -0.18529412 0.74117649
v 0.43235293 -0.06176471 -0.86470586
v 0.43235293 -0.06176471 0.74117649
v 0.43235293 0.06176471 -0.86470586
v 0.43235293 0.06176471 0.74117649
v 0.43235293 0.18529412 -0.86470586
v 0.43235293 0.18529412 0.74117649
v 0.43235293 0.30882353 -0.86470586
v 0.43235293 0.30882353 0.74117649
v 0.43235293 0.43235293 -0.86470586
v 0.43235293 0.43235293 0.74117649
v 0.43235293 0.61764705 -0.92647058
v 0.43235293 0.55588233 -0.86470586
v 0.43235293 0.55588233 0.74117649
v 0.43235293 0.61764705 0.80294120
v 0.43235293 0.67941177 -0.98823529
v 0.43235293 0.79263604 -0.92647058
v 0.43235293 0.74117649 -0.80294120
v 0.43235293 0.74117649 -0.67941177
v 0.43235293 0.74117649 -0.55588233
v 0.43235293 0.74117649 -0.43235293
v 0.43235293 0.74117649 -0.30882353
v 0.43235293 0.74117649 -0.18529412
v 0.43235293 0.74117649 -0.06176471
v 0.43235293 0.74117649 0.06176471
v 0.43235293 0.74117649 0.18529412
v 0.43235293 0.74117649 0.30882353
v 0.43235293 0.74117649 0.43235293
v 0.43235293 0.74117649 0.55588233
v 0.43235293 0.74117649 0.67941177
v 0.43235293 0.79382402 0.80294120
v 0.43235293 0.67941177 0.86470586
v 0.55588233 -0.92045707 -0.92647058
v 0.55588233 -0.86470586 -0.80294120
v 0.55588233 -0.86470586 -0.67941177
v 0.55588233 -0.86470586 -0.55588233
v 0.55588233 -0.86470586 -0.43235293
v 0.55588233 -0.86470586 -0.30882353
v 0.55588233 -0.86470586 -0.18529412
v 0.55588233 -0.86470586 -0.06176471
v 0.55588233 -0.86470586 0.06176471
v 0.55588233 -0.86470586 0.18529412
v 0.55588233 -0.86470586 0.30882353
v 0.55588233 -0.86470586 0.43235293
v 0.55588233 -0.86470586 0.55588233
v 0.55588233 -0.86470586 0.67941177
v 0.55588222 -0.91937536 0.80294120
v 0.55588233 -0.80294120 -0.98823529
v 0.55588233 -0.74117649 -0.92647058
v 0.55588233 -0.74117649 0.80294120
v 0.55588233 -0.80294120 0.86470586
v 0.55588233 -0.67941177 -0.86470586
v 0.55588233 -0.67941177 0.74117649
v 0.55588233 -0.55588233 -0.86470586
v 0.55588233 -0.55588233 0.74117649
v 0.55588233 -0.43235293 -0.86470586
v 0.55588233 -0.43235293 0.74117649
v 0.55588233 -0.30882353 -0.86470586
v 0.55588233 -0.30882353 0.74117649
v 0.55588233 -0.18529412 -0.86470586
v 0.55588233 -0.18529412 0.74117649
v 0.55588233 -0.06176471 -0.86470586
v 0.55588233 -0.06176471 0.74117649
v 0.55588233 0.06176471 -0.86470586
v 0.55588233 0.06176471 0.74117649
v 0.55588233 0.18529412 -0.86470586
v 0.55588233 0.18529412 0.74117649
v 0.55588233 0.30882353 -0.86470586
v 0.55588233 0.30882353 0.74117649
v 0.55588233 0.43235293 -0.86470586
v 0.55588233 0.43235293 0.74117649
v 0.55588233 0.61764705 -0.92647058
v 0.55588233 0.55588233 -0.86470586
v 0.55588233 0.55588233 0.74117649
v 0.55588233 0.61764705 0.80294120
v 0.55588233 0.67941177 -0.98823529
v 0.55588233 0.79374117 -0.92647058
v 0.55588233 0.74117649 -0.80294120
v 0.55588233 0.74117649 -0.67941177
v 0.55588233 0.74117649 -0.55588233
v 0.55588233 0.74117649 -0.43235293
v 0.55588233 0.74117649 -0.30882353
v 0.55588233 0.74117649 -0.18529412
v 0.55588233 0.74117649 -0.06176471
v 0.55588233 0.74117649 0.06176471
v 0.55588233 0.74117649 0.18529412
v 0.55588233 0.74117649 0.30882353
v 0.55588233 0.74117649 0.43235293
v 0.55588233 0.74117649 0.55588233
v 0.55588233 0.74117649 0.67941177
v 0.55588233 0.79503703 0.80294120
v 0.55588233 0.67941177 0.86470586
v 0.67941177 -0.91950411 -0.92647058
v 0.67941177 -0.86470586 -0.80294120
v 0.67941177 -0.86470586 -0.67941177
v 0.67941177 -0.86470586 -0.55588233
v 0.67941177 -0.86470586 -0.43235293
v 0.67941177 -0.86470586 -0.30882353
v 0.67941177 -0.86470586 -0.18529412
v 0.67941177 -0.86470586 -0.06176471
v 0.67941177 -0.86470586 0.06176471
v 0.67941177 -0.86470586 0.18529412
v 0.67941177 -0.86470586 0.30882353
v 0.67941177 -0.86470586 0.43235293
v 0.67941177 -0.86470586 0.55588233
v 0.67941177 -0.86470586 0.67941177
v 0.67941177 -0.91877830 0.80294120
v 0.67941177 -0.80294120 -0.98823529
v 0.67941177 -0.74117649 -0.92647058
v 0.67941177 -0.74117649 0.80294120
v 0.67941177 -0.80294120 0.86470586
v 0.74117649 -0.67941177 -0.92647058
v 0.67941177 -0.67941177 -0.86470586
v 0.74117649 -0.67941177 -0.80294120
v 0.74117649 -0.67941177 -0.67941177
v 0.74117649 -0.67941177 -0.55588233
v 0.74117649 -0.67941177 -0.43235293
v 0.74117649 -0.67941177 -0.30882353
v 0.74117649 -0.67941177 -0.18529412
v 0.74117649 -0.67941177 -0.06176471
v 0.74117649 -0.67941177 0.06176471
v 0.74117649 -0.67941177 0.18529412
v 0.74117649 -0.67941177 0.30882353
v 0.74117649 -0.67941177 0.43235293
v 0.74117649 -0.67941177 0.55588233
v 0.74117649 -0.67941177 0.67941177
v 0.67941177 -0.67941177 0.74117649
v 0.74117649 -0.67941177 0.80294120
v 0.74117649 -0.55588233 -0.92647058
v 0.67941177 -0.55588233 -0.86470586
v 0.74117649 -0.55588233 -0.80294120
v 0.74117649 -0.55588233 -0.67941177
v 0.74117649 -0.55588233 -0.55588233
v 0.74117649 -0.55588233 -0.43235293
v 0.74117649 -0.55588233 -0.30882353
v 0.74117649 -0.55588233 -0.18529412
v 0.74117649 -0.55588233 -0.06176471
v 0.74117649 -0.55588233 0.06176471
v 0.74117649 -0.55588233 0.18529412
v 0.74117649 -0.55588233 0.30882353
v 0.74117649 -0.55588233 0.43235293
v 0.74117649 -0.55588233 0.55588233
v 0.74117649 -0.55588233 0.67941177
v 0.67941177 -0.55588233 0.74117649
v 0.74117649 -0.55588233 0.80294120
v 0.74117649 -0.43235293 -0.92647058
v 0.67941177 -0.43235293 -0.86470586
v 0.74117649 -0.43235293 -0.80294120
v 0.74117649 -0.43235293 -0.67941177
v 0.74117649 -0.43235293 -0.55588233
v 0.74117649 -0.43235293 -0.43235293
v 0.74117649 -0.43235293 -0.30882353
v 0.74117649 -0.43235293 -0.18529412
v 0.74117649 -0.43235293 -0.06176471
v 0.74117649 -0.43235293 0.06176471
v 0.74117649 -0.43235293 0.18529412
v 0.74117649 -0.43235293 0.30882353
v 0.74117649 -0.43235293 0.43235293
v 0.74117649 -0.43235293 0.55588233
v 0.74117649 -0.43235293 0.67941177
v 0.67941177 -0.43235293 0.74117649
v 0.74117649 -0.43235293 0.80294120
v 0.74117649 -0.30882353 -0.92647058
v 0.67941177 -0.30882353 -0.86470586
v 0.74117649 -0.30882353 -0.80294120
v 0.74117649 -0.30882353 -0.67941177
v 0.74117649 -0.30882353 -0.55588233
v 0.74117649 -0.30882353 -0.43235293
v 0.74117649 -0.30882353 -0.30882353
v 0.74117649 -0.30882353 -0.18529412
v 0.74117649 -0.30882353 -0.06176471
v 0.74117649 -0.30882353 0.06176471
v 0.74117649 -0.30882353 0.18529412
v 0.74117649 -0.30882353 0.30882353
v 0.74117649 -0.30882353 0.43235293
v 0.74117649 -0.30882353 0.55588233
v 0.74117649 -0.30882353 0.67941177
v 0.67941177 -0.30882353 0.74117649
v 0.74117649 -0.30882353 0.80294120
v 0.74117649 -0.18529412 -0.92647058
v 0.67941177 -0.18529412 -0.86470586
v 0.74117649 -0.18529412 -0.80294120
v 0.74117649 -0.18529412 -0.67941177
v 0.74117649 -0.18529412 -0.55588233
v 0.74117649 -0.18529412 -0.43235293
v 0.74117649 -0.18529412 -0.30882353
v 0.74117649 -0.18529412 -0.18529412
v 0.74117649 -0.18529412 -0.06176471
v 0.74117649 -0.18529412 0.06176471
v 0.74117649 -0.18529412 0.18529412
v 0.74117649 -0.18529412 0.30882353
v 0.74117649 -0.18529412 0.43235293
v 0.74117649 -0.18529412 0.55588233
v 0.74117649 -0.18529412 0.67941177
v 0.67941177 -0.18529412 0.74117649
v 0.74117649 -0.18529412 0.80294120
v 0.74117649 -0.06176471 -0.92647058
v 0.67941177 -0.06176471 -0.86470586
v 0.74117649 -0.06176471 -0.80294120
v 0.74117649 -0.06176471 -0.67941177
v 0.74117649 -0.06176471 -0.55588233
v 0.74117649 -0.06176471 -0.43235293
v 0.74117649 -0.06176471 -0.30882353
v 0.74117649 -0.06176471 -0.18529412
v 0.74117649 -0.06176471 -0.06176471
v 0.74117649 -0.06176471 0.06176471
v 0.74117649 -0.06176471 0.18529412
v 0.74117649 -0.06176471 0.30882353
v 0.74117649 -0.06176471 0.43235293
v 0.74117649 -0.06176471 0.55588233
v 0.74117649 -0.06176471 0.67941177
v 0.67941177 -0.06176471 0.74117649
v 0.74117649 -0.06176471 0.80294120
v 0.74117649 0.06176471 -0.92647058
v 0.67941177 0.06176471 -0.86470586
v 0.74117649 0.06176471 -0.80294120
v 0.74117649 0.06176471 -0.67941177
v 0.74117649 0.06176471 -0.55588233
v 0.74117649 0.06176471 -0.43235293
v 0.74117649 0.06176471 -0.30882353
v 0.74117649 0.06176471 -0.18529412
v 0.74117649 0.06176471 -0.06176471
v 0.74117649 0.06176471 0.06176471
v 0.74117649 0.06176471 0.18529412
v 0.74117649 0.06176471 0.30882353
v 0.74117649 0.06176471 0.43235293
v 0.74117649 0.06176471 0.55588233
v 0.74117649 0.06176471 0.67941177
v 0.67941177 0.06176471 0.74137002
v 0.74098277 0.06176471 0.80294120
v 0.74117649 0.18529412 -0.92647058
v 0.67941177 0.18529412 -0.86470586
v 0.74117649 0.18529412 -0.80294120
v 0.74117649 0.18529412 -0.67941177
v 0.74117649 0.18529412 -0.55588233
v 0.74117649 0.18529412 -0.43235293
v 0.74117649 0.18529412 -0.30882353
v 0.74117649 0.18529412 -0.18529412
v 0.74117649 0.18529412 -0.06176471
v 0.74117649 0.18529412 0.06176471
v 0.74117649 0.18529412 0.18529412
v 0.74117649 0.18529412 0.30882353
v 0.74117649 0.18529412 0.43235293
v 0.74117649 0.18529412 0.55588233
v 0.74117649 0.18529412 0.67941177
v 0.67941177 0.18529412 0.74117649
v 0.74117649 0.18529412 0.80294120
v 0.74117649 0.30882353 -0.92647058
v 0.67941177 0.30882353 -0.86470586
v 0.74117649 0.30882353 -0.80294120
v 0.74117649 0.30882353 -0.67941177
v 0.74117649 0.30882353 -0.55588233
v 0.74117649 0.30882353 -0.43235293
v 0.74117649 0.30882353 -0.30882353
v 0.74117649 0.30882353 -0.18529412
v 0.74117649 0.30882353 -0.06176471
v 0.74117649 0.30882353 0.06176471
v 0.74117649 0.30882353 0.18529412
v 0.74117649 0.30882353 0.30882353
v 0.74117649 0.30882353 0.43235293
v 0.74117649 0.30882353 0.55588233
v 0.74117649 0.30882353 0.67941177
v 0.67941177 0.30882353 0.74117649
v 0.74117649 0.30882353 0.80294120
v 0.74117649 0.43235293 -0.92647058
v 0.67941177 0.43235293 -0.86470586
v 0.74117649 0.43235293 -0.80294120
v 0.74117649 0.43235293 -0.67941177
v 0.74117649 0.43235293 -0.55588233
v 0.74117649 0.43235293 -0.43235293
v 0.74117649 0.43235293 -0.30882353
v 0.74117649 0.43235293 -0.18529412
v 0.74117649 0.43235293 -0.06176471
v 0.74117649 0.43235293 0.06176471
v 0.74117649 0.43235293 0.18529412
v 0.74117649 0.43235293 0.30882353
v 0.74117649 0.43235293 0.43235293
v 0.74117649 0.43235293 0.55588233
v 0.74117649 0.43235293 0.67941177
v 0.67941177 0.43235293 0.74117649
v 0.74117649 0.43235293 0.80294120
v 0.74117649 0.55588233 -0.92647058
v 0.67941177 0.61764705 -0.92647058
v 0.67941177 0.55588233 -0.86470586
v 0.74117649 0.55588233 -0.80294120
v 0.74117649 0.55588233 -0.67941177
v 0.74117649 0.55588233 -0.55588233
v 0.74117649 0.55588233 -0.43235293
v 0.74117649 0.55588233 -0.30882353
v 0.74117649 0.55588233 -0.18529412
v 0.74117649 0.55588233 -0.06176471
v 0.74117649 0.55588233 0.06176471
v 0.74117649 0.55588233 0.18529412
v 0.74117649 0.55588233 0.30882353
v 0.74117649 0.55588233 0.43235293
v 0.74117649 0.55588233 0.55588233
v 0.74117649 0.55588233 0.67941177
v 0.67941177 0.55588233 0.74117649
v 0.74117649 0.55588233 0.80294120
v 0.67941177 0.61764705 0.80294120
v 0.67941177 0.67941177 -0.98823529
v 0.67941177 0.79263604 -0.92647058
v 0.67941177 0.74117649 -0.80294120
v 0.67941177 0.74117649 -0.67941177
v 0.67941177 0.74117649 -0.55588233
v 0.67941177 0.74117649 -0.43235293
v 0.67941177 0.74117649 -0.30882353
v 0.67941177 0.74117649 -0.18529412
v 0.67941177 0.74117649 -0.06176471
v 0.67941177 0.74117649 0.06176471
v 0.67941177 0.74117649 0.18529412
v 0.67941177 0.74117649 0.30882353
v 0.67941177 0.74117649 0.43235293
v 0.67941177 0.74117649 0.55588233
v 0.67941177 0.74117649 0.67941177
v 0.67941177 0.79440641 0.80294120
v 0.67941177 0.67941177 0.86470586
v 0.80294120 -0.92002201 -0.92647058
v 0.80294132 -0.91801953 -0.80294120
v 0.80294120 -0.91718805 -0.67941177
v 0.80294108 -0.91760224 -0.55588233
v 0.80294132 -0.91706431 -0.43235287
v 0.80294120 -0.91685879 -0.30882353
v 0.80294120 -0.91710556 -0.18529412
v 0.80294120 -0.91665399 -0.06176471
v 0.80294132 -0.91669488 0.06176483
v 0.80294108 -0.91592270 0.18529412
v 0.80294120 -0.91636848 0.30882353
v 0.80294120 -0.91694093 0.43235293
v 0.80294120 -0.91644990 0.55588233
v 0.80294132 -0.91781050 0.67941189
v 0.80294120 -0.91937536 0.80294120
v 0.80294120 -0.80294120 -0.98823529
v 0.86470586 -0.80294120 -0.92647058
v 0.86470586 -0.80294120 -0.80294120
v 0.80294120 -0.74117649 -0.80294120
v 0.86470586 -0.80294120 -0.67941177
v 0.80294120 -0.74117649 -0.67941177
v 0.86470586 -0.80294120 -0.55588233
v 0.80294120 -0.74117649 -0.55588233
v 0.86470586 -0.80294120 -0.43235293
v 0.80294120 -0.74117649 -0.43235293
v 0.86470586 -0.80294120 -0.30882353
v 0.80294120 -0.74117649 -0.30882353
v 0.86470586 -0.80294120 -0.18529412
v 0.80294120 -0.74117649 -0.18529412
v 0.86470586 -0.80294120 -0.06176471
v 0.80294120 -0.74117649 -0.06176471
v 0.86470586 -0.80294120 0.06176471
v 0.80294120 -0.74117649 0.06176471
v 0.86470586 -0.80294120 0.18529412
v 0.80294120 -0.74117649 0.18529412
v 0.86470586 -0.80294120 0.30882353
v 0.80294120 -0.74117649 0.30882353
v 0.86470586 -0.80294120 0.43235293
v 0.80294120 -0.74117649 0.43235293
v 0.86470586 -0.80294120 0.55588233
v 0.80294120 -0.74117649 0.55588233
v 0.86470586 -0.80294120 0.67941177
v 0.80294120 -0.74117649 0.67941177
v 0.86470586 -0.80294120 0.80294120
v 0.80294120 -0.80294120 0.86470586
v 0.80294120 -0.67941177 -0.98823529
v 0.86470586 -0.67941177 -0.92647058
v 0.80294120 -0.67941177 -0.86470586
v 0.80294120 -0.67941177 0.74117649
v 0.86470586 -0.67941177 0.80294120
v 0.80294120 -0.67941177 0.86470586
v 0.80294120 -0.55588233 -0.98823529
v 0.86470586 -0.55588233 -0.92647058
v 0.80294120 -0.55588233 -0.86470586
v 0.80294120 -0.55588233 0.74117649
v 0.86470586 -0.55588233 0.80294120
v 0.80294120 -0.55588233 0.86470586
v 0.80294120 -0.43235293 -0.98823529
v 0.86470586 -0.43235293 -0.92647058
v 0.80294120 -0.43235293 -0.86470586
v 0.80294120 -0.43235293 0.74117649
v 0.86470586 -0.43235293 0.80294120
v 0.80294120 -0.43235293 0.86470586
v 0.80294120 -0.30882353 -0.98823529
v 0.86470586 -0.30882353 -0.92647058
v 0.80294120 -0.30882353 -0.86470586
v 0.80294120 -0.30882353 0.74117649
v 0.86470586 -0.30882353 0.80294120
v 0.80294120 -0.30882353 0.86470586
v 0.80294120 -0.18529412 -0.98823529
v 0.86470586 -0.18529412 -0.92647058
v 0.80294120 -0.18529412 -0.86470586
v 0.80294120 -0.18529412 0.74117649
v 0.86470586 -0.18529412 0.80294120
v 0.80294120 -0.18529412 0.86470586
v 0.80294120 -0.06176471 -0.98823529
v 0.86470586 -0.06176471 -0.92647058
v 0.80294120 -0.06176471 -0.86470586
v 0.80294120 -0.06176471 0.74117649
v 0.86470586 -0.06176471 0.80294120
v 0.80294120 -0.06176471 0.86470586
v 0.80294120 0.06176471 -0.98823529
v 0.86470586 0.06176471 -0.92647058
v 0.80294120 0.06176471 -0.86470586
v 0.80294120 0.06176471 0.74117649
v 0.86470586 0.06176471 0.80294120
v 0.80294120 0.06176471 0.86470586
v 0.80294120 0.18529412 -0.98823529
v 0.86470586 0.18529412 -0.92647058
v 0.80294120 0.18529412 -0.86470586
v 0.80294120 0.18529412 0.74117649
v 0.86470586 0.18529412 0.80294120
v 0.80294120 0.18529412 0.86470586
v 0.80294120 0.30882353 -0.98823529
v 0.86470586 0.30882353 -0.92647058
v 0.80294120 0.30882353 -0.86470586
v 0.80294120 0.30882353 0.74117649
v 0.86470586 0.30882353 0.80294120
v 0.80294120 0.30882353 0.86470586
v 0.80294120 0.43235293 -0.98823529
v 0.86470586 0.43235293 -0.92647058
v 0.80294120 0.43235293 -0.86470586
v 0.80294120 0.43235293 0.74117649
v 0.86470586 0.43235293 0.80294120
v 0.80294120 0.43235293 0.86470586
v 0.80294120 0.55588233 -0.98823529
v 0.86470586 0.55588233 -0.92647058
v 0.80294120 0.55588233 -0.86470586
v 0.80294120 0.61764705 -0.80294120
v 0.80294120 0.61764705 -0.67941177
v 0.80294120 0.61764705 -0.55588233
v 0.80294120 0.61764705 -0.43235293
v 0.80294120 0.61764705 -0.30882353
v 0.80294120 0.61764705 -0.18529412
v 0.80294120 0.61764705 -0.06176471
v 0.80294120 0.61764705 0.06176471
v 0.80294120 0.61764705 0.18529412
v 0.80294120 0.61764705 0.30882353
v 0.80294120 0.61764705 0.43235293
v 0.80294120 0.61764705 0.55588233
v 0.80294120 0.61764705 0.67941177
v 0.80294120 0.55588233 0.74117649
v 0.86470586 0.55588233 0.80294120
v 0.80294120 0.55588233 0.86470586
v 0.80294120 0.67941177 -0.98823529
v 0.86470586 0.67941177 -0.92647058
v 0.80294120 0.79337043 -0.92647058
v 0.86470586 0.67941177 -0.80294120
v 0.80294120 0.79231262 -0.80294120
v 0.86470586 0.67941177 -0.67941177
v 0.80294120 0.79139304 -0.67941177
v 0.86470586 0.67941177 -0.55588233
v 0.80294120 0.79195100 -0.55588233
v 0.86470586 0.67941177 -0.43235293
v 0.80294120 0.79195100 -0.43235293
v 0.86470586 0.67941177 -0.30882353
v 0.80294120 0.79235291 -0.30882353
v 0.86470586 0.67941177 -0.18529412
v 0.80294120 0.79324734 -0.18529412
v 0.86470586 0.67941177 -0.06176471
v 0.80294120 0.79279834 -0.06176471
v 0.86470586 0.67941177 0.06176471
v 0.80294120 0.79296130 0.06176471
v 0.86470586 0.67941177 0.18529412
v 0.80294120 0.79219180 0.18529412
v 0.86470586 0.67941177 0.30882353
v 0.80294120 0.79163146 0.30882353
v 0.86470586 0.67941177 0.43235293
v 0.80294120 0.79179102 0.43235293
v 0.86470586 0.67941177 0.55588233
v 0.80294120 0.79243362 0.55588233
v 0.86470586 0.67941177 0.67941177
v 0.80294120 0.79316545 0.67941177
v 0.86470586 0.67941177 0.80294120
v 0.80294120 0.79398972 0.80294120
v 0.80294120 0.67941177 0.86470586
f 53 1 68
f 54 2 53
f 53 2 1
f 55 3 54
f 54 3 2
f 56 4 55
f 55 4 3
f 57 5 56
f 56 5 4
f 58 6 57
f 57 6 5
f 59 7 58
f 58 7 6
f 60 8 59
f 59 8 7
f 61 9 60
f 60 9 8
f 62 10 61
f 61 10 9
f 63 11 62
f 62 11 10
f 64 12 63
f 63 12 11
f 65 13 64
f 64 13 12
f 66 14 65
f 65 14 13
f 67 15 66
f 66 15 14
f 82 15 67
f 68 1 83
f 83 1 16
f 85 16 69
f 16 2 69
f 16 1 2
f 3 70 2
f 2 70 69
f 4 71 3
f 3 71 70
f 5 72 4
f 4 72 71
f 6 73 5
f 5 73 72
f 7 74 6
f 6 74 73
f 8 75 7
f 7 75 74
f 9 76 8
f 8 76 75
f 10 77 9
f 9 77 76
f 11 78 10
f 10 78 77
f 12 79 11
f 11 79 78
f 13 80 12
f 12 80 79
f 14 81 13
f 13 81 80
f 81 14 99
f 14 17 99
f 14 15 17
f 101 17 82
f 82 17 15
f 83 16 102
f 102 16 18
f 104 18 85
f 85 18 16
f 99 17 118
f 118 17 19
f 120 19 101
f 101 19 17
f 102 18 121
f 121 18 20
f 123 20 104
f 104 20 18
f 118 19 137
f 137 19 21
f 139 21 120
f 120 21 19
f 121 20 140
f 140 20 22
f 142 22 123
f 123 22 20
f 137 21 156
f 156 21 23
f 158 23 139
f 139 23 21
f 140 22 159
f 159 22 24
f 161 24 142
f 142 24 22
f 156 23 175
f 175 23 25
f 177 25 158
f 158 25 23
f 159 24 178
f 178 24 26
f 180 26 161
f 161 26 24
f 175 25 194
f 194 25 27
f 196 27 177
f 177 27 25
f 178 26 197
f 197 26 28
f 199 28 180
f 180 28 26
f 194 27 213
f 213 27 29
f 215 29 196
f 196 29 27
f 197 28 216
f 216 28 30
f 218 30 199
f 199 30 28
f 213 29 232
f 232 29 31
f 234 31 215
f 215 31 29
f 216 30 235
f 235 30 32
f 237 32 218
f 218 32 30
f 232 31 251
f 251 31 33
f 253 33 234
f 234 33 31
f 235 32 254
f 254 32 34
f 256 34 237
f 237 34 32
f 251 33 270
f 270 33 35
f 272 35 253
f 253 35 33
f 254 34 273
f 273 34 36
f 275 36 256
f 256 36 34
f 270 35 302
f 302 35 37
f 304 37 272
f 272 37 35
f 273 36 305
f 305 36 38
f 277 39 275
f 39 36 275
f 39 38 36
f 279 40 277
f 277 40 39
f 281 41 279
f 279 41 40
f 283 42 281
f 281 42 41
f 285 43 283
f 283 43 42
f 287 44 285
f 285 44 43
f 289 45 287
f 287 45 44
f 291 46 289
f 289 46 45
f 293 47 291
f 291 47 46
f 295 48 293
f 293 48 47
f 297 49 295
f 295 49 48
f 299 50 297
f 297 50 49
f 301 51 299
f 299 51 50
f 302 37 301
f 37 51 301
f 37 52 51
f 321 52 304
f 304 52 37
f 38 306 305
f 39 307 38
f 38 307 306
f 40 308 39
f 39 308 307
f 41 309 40
f 40 309 308
f 42 310 41
f 41 310 309
f 43 311 42
f 42 311 310
f 44 312 43
f 43 312 311
f 45 313 44
f 44 313 312
f 46 314 45
f 45 314 313
f 47 315 46
f 46 315 314
f 48 316 47
f 47 316 315
f 49 317 48
f 48 317 316
f 50 318 49
f 49 318 317
f 51 319 50
f 50 319 318
f 52 320 51
f 51 320 319
f 321 320 52
f 337 322 68
f 68 322 53
f 323 53 322
f 323 54 53
f 324 54 323
f 324 55 54
f 325 55 324
f 325 56 55
f 326 56 325
f 326 57 56
f 327 57 326
f 327 58 57
f 328 58 327
f 328 59 58
f 329 59 328
f 329 60 59
f 330 60 329
f 330 61 60
f 331 61 330
f 331 62 61
f 332 62 331
f 332 63 62
f 333 63 332
f 333 64 63
f 334 64 333
f 334 65 64
f 335 65 334
f 335 66 65
f 336 66 335
f 336 67 66
f 336 340 67
f 67 340 82
f 338 337 84
f 337 83 84
f 337 68 83
f 338 84 85
f 69 338 85
f 338 86 341
f 338 69 86
f 86 69 70
f 86 70 87
f 87 70 71
f 87 71 88
f 88 71 72
f 88 72 89
f 89 72 73
f 89 73 90
f 90 73 74
f 90 74 91
f 91 74 75
f 91 75 92
f 92 75 76
f 92 76 93
f 93 76 77
f 93 77 94
f 94 77 78
f 94 78 95
f 95 78 79
f 95 79 96
f 96 79 80
f 96 80 97
f 97 80 81
f 97 81 98
f 81 99 100
f 339 81 100
f 81 342 98
f 81 339 342
f 100 101 339
f 101 340 339
f 101 82 340
f 84 83 103
f 103 83 102
f 103 85 84
f 104 85 103
f 343 341 86
f 105 343 86
f 87 105 86
f 106 105 87
f 88 106 87
f 107 106 88
f 89 107 88
f 108 107 89
f 90 108 89
f 109 108 90
f 91 109 90
f 110 109 91
f 92 110 91
f 111 110 92
f 93 111 92
f 112 111 93
f 94 112 93
f 113 112 94
f 95 113 94
f 114 113 95
f 96 114 95
f 115 114 96
f 97 115 96
f 116 115 97
f 98 116 97
f 117 116 98
f 99 118 100
f 118 119 100
f 342 117 98
f 342 344 117
f 119 120 100
f 100 120 101
f 103 102 122
f 122 102 121
f 122 104 103
f 123 104 122
f 345 343 105
f 124 345 105
f 106 124 105
f 125 124 106
f 107 125 106
f 126 125 107
f 108 126 107
f 127 126 108
f 109 127 108
f 128 127 109
f 110 128 109
f 129 128 110
f 111 129 110
f 130 129 111
f 112 130 111
f 131 130 112
f 113 131 112
f 132 131 113
f 114 132 113
f 133 132 114
f 115 133 114
f 134 133 115
f 116 134 115
f 135 134 116
f 117 135 116
f 136 135 117
f 118 137 119
f 137 138 119
f 344 136 117
f 344 346 136
f 138 139 119
f 119 139 120
f 122 121 141
f 141 121 140
f 141 123 122
f 142 123 141
f 347 345 124
f 143 347 124
f 125 143 124
f 144 143 125
f 126 144 125
f 145 144 126
f 127 145 126
f 146 145 127
f 128 146 127
f 147 146 128
f 129 147 128
f 148 147 129
f 130 148 129
f 149 148 130
f 131 149 130
f 150 149 131
f 132 150 131
f 151 150 132
f 133 151 132
f 152 151 133
f 134 152 133
f 153 152 134
f 135 153 134
f 154 153 135
f 136 154 135
f 155 154 136
f 137 156 138
f 156 157 138
f 346 155 136
f 346 348 155
f 157 158 138
f 138 158 139
f 141 140 160
f 160 140 159
f 160 142 141
f 161 142 160
f 349 347 143
f 162 349 143
f 144 162 143
f 163 162 144
f 145 163 144
f 164 163 145
f 146 164 145
f 165 164 146
f 147 165 146
f 166 165 147
f 148 166 147
f 167 166 148
f 149 167 148
f 168 167 149
f 150 168 149
f 169 168 150
f 151 169 150
f 170 169 151
f 152 170 151
f 171 170 152
f 153 171 152
f 172 171 153
f 154 172 153
f 173 172 154
f 155 173 154
f 174 173 155
f 156 175 157
f 175 176 157
f 348 174 155
f 348 350 174
f 176 177 157
f 157 177 158
f 160 159 179
f 179 159 178
f 179 161 160
f 180 161 179
f 351 349 162
f 181 351 162
f 163 181 162
f 182 181 163
f 164 182 163
f 183 182 164
f 165 183 164
f 184 183 165
f 166 184 165
f 185 184 166
f 167 185 166
f 186 185 167
f 168 186 167
f 187 186 168
f 169 187 168
f 188 187 169
f 170 188 169
f 189 188 170
f 171 189 170
f 190 189 171
f 172 190 171
f 191 190 172
f 173 191 172
f 192 191 173
f 174 192 173
f 193 192 174
f 175 194 176
f 194 195 176
f 350 193 174
f 350 352 193
f 195 196 176
f 176 196 177
f 179 178 198
f 198 178 197
f 198 180 179
f 199 180 198
f 353 351 181
f 200 353 181
f 182 200 181
f 201 200 182
f 183 201 182
f 202 201 183
f 184 202 183
f 203 202 184
f 185 203 184
f 204 203 185
f 186 204 185
f 205 204 186
f 187 205 186
f 206 205 187
f 188 206 187
f 207 206 188
f 189 207 188
f 208 207 189
f 190 208 189
f 209 208 190
f 191 209 190
f 210 209 191
f 192 210 191
f 211 210 192
f 193 211 192
f 212 211 193
f 194 213 195
f 213 214 195
f 352 212 193
f 352 354 212
f 214 215 195
f 195 215 196
f 198 197 217
f 217 197 216
f 217 199 198
f 218 199 217
f 355 353 200
f 219 355 200
f 201 219 200
f 220 219 201
f 202 220 201
f 221 220 202
f 203 221 202
f 222 221 203
f 204 222 203
f 223 222 204
f 205 223 204
f 224 223 205
f 206 224 205
f 225 224 206
f 207 225 206
f 226 225 207
f 208 226 207
f 227 226 208
f 209 227 208
f 228 227 209
f 210 228 209
f 229 228 210
f 211 229 210
f 230 229 211
f 212 230 211
f 231 230 212
f 213 232 214
f 232 233 214
f 354 231 212
f 354 356 231
f 233 234 214
f 214 234 215
f 217 216 236
f 236 216 235
f 236 218 217
f 237 218 236
f 357 355 219
f 238 357 219
f 220 238 219
f 239 238 220
f 221 239 220
f 240 239 221
f 222 240 221
f 241 240 222
f 223 241 222
f 242 241 223
f 224 242 223
f 243 242 224
f 225 243 224
f 244 243 225
f 226 244 225
f 245 244 226
f 227 245 226
f 246 245 227
f 228 246 227
f 247 246 228
f 229 247 228
f 248 247 229
f 230 248 229
f 249 248 230
f 231 249 230
f 250 249 231
f 232 251 233
f 251 252 233
f 356 250 231
f 356 358 250
f 252 253 233
f 233 253 234
f 236 235 255
f 255 235 254
f 255 237 236
f 256 237 255
f 359 357 238
f 257 359 238
f 239 257 238
f 258 257 239
f 240 258 239
f 259 258 240
f 241 259 240
f 260 259 241
f 242 260 241
f 261 260 242
f 243 261 242
f 262 261 243
f 244 262 243
f 263 262 244
f 245 263 244
f 264 263 245
f 246 264 245
f 265 264 246
f 247 265 246
f 266 265 247
f 248 266 247
f 267 266 248
f 249 267 248
f 268 267 249
f 250 268 249
f 269 268 250
f 251 270 252
f 270 271 252
f 358 269 250
f 358 360 269
f 271 272 252
f 252 272 253
f 255 254 274
f 274 254 273
f 274 256 255
f 275 256 274
f 362 359 257
f 276 362 257
f 258 276 257
f 278 276 258
f 259 278 258
f 280 278 259
f 260 280 259
f 282 280 260
f 261 282 260
f 284 282 261
f 262 284 261
f 286 284 262
f 263 286 262
f 288 286 263
f 264 288 263
f 290 288 264
f 265 290 264
f 292 290 265
f 266 292 265
f 294 292 266
f 267 294 266
f 296 294 267
f 268 296 267
f 298 296 268
f 269 298 268
f 300 298 269
f 270 302 271
f 302 303 271
f 360 300 269
f 360 363 300
f 303 304 271
f 271 304 272
f 274 273 361
f 273 365 361
f 273 305 365
f 361 362 276
f 277 361 276
f 361 275 274
f 361 277 275
f 277 276 278
f 277 278 279
f 279 278 280
f 279 280 281
f 281 280 282
f 281 282 283
f 283 282 284
f 283 284 285
f 285 284 286
f 285 286 287
f 287 286 288
f 287 288 289
f 289 288 290
f 289 290 291
f 291 290 292
f 291 292 293
f 293 292 294
f 293 294 295
f 295 294 296
f 295 296 297
f 297 296 298
f 297 298 299
f 299 298 300
f 299 300 301
f 364 303 302
f 301 364 302
f 364 300 363
f 364 301 300
f 364 381 303
f 381 304 303
f 381 321 304
f 305 306 365
f 365 306 366
f 306 367 366
f 307 367 306
f 307 368 367
f 308 368 307
f 308 369 368
f 309 369 308
f 309 370 369
f 310 370 309
f 310 371 370
f 311 371 310
f 311 372 371
f 312 372 311
f 312 373 372
f 313 373 312
f 313 374 373
f 314 374 313
f 314 375 374
f 315 375 314
f 315 376 375
f 316 376 315
f 316 377 376
f 317 377 316
f 317 378 377
f 318 378 317
f 318 379 378
f 319 379 318
f 319 380 379
f 320 380 319
f 320 321 380
f 380 321 381
f 397 382 337
f 337 382 322
f 383 322 382
f 383 323 322
f 384 323 383
f 384 324 323
f 385 324 384
f 385 325 324
f 386 325 385
f 386 326 325
f 387 326 386
f 387 327 326
f 388 327 387
f 388 328 327
f 389 328 388
f 389 329 328
f 390 329 389
f 390 330 329
f 391 330 390
f 391 331 330
f 392 331 391
f 392 332 331
f 393 332 392
f 393 333 332
f 394 333 393
f 394 334 333
f 395 334 394
f 395 335 334
f 396 335 395
f 396 336 335
f 396 400 336
f 336 400 340
f 337 338 397
f 397 338 398
f 401 398 338
f 401 338 341
f 399 402 342
f 399 342 339
f 339 340 399
f 399 340 400
f 341 403 401
f 341 343 403
f 404 342 402
f 344 342 404
f 343 405 403
f 343 345 405
f 406 344 404
f 346 344 406
f 345 407 405
f 345 347 407
f 408 346 406
f 348 346 408
f 347 409 407
f 347 349 409
f 410 348 408
f 350 348 410
f 349 411 409
f 349 351 411
f 412 350 410
f 352 350 412
f 351 413 411
f 351 353 413
f 414 352 412
f 354 352 414
f 353 415 413
f 353 355 415
f 416 354 414
f 356 354 416
f 355 417 415
f 355 357 417
f 418 356 416
f 358 356 418
f 357 419 417
f 357 359 419
f 420 358 418
f 360 358 420
f 359 422 419
f 359 362 422
f 423 360 420
f 363 360 423
f 425 421 365
f 365 421 361
f 362 361 421
f 362 421 422
f 364 363 423
f 364 423 424
f 424 441 364
f 364 441 381
f 365 366 425
f 425 366 426
f 366 427 426
f 367 427 366
f 367 428 427
f 368 428 367
f 368 429 428
f 369 429 368
f 369 430 429
f 370 430 369
f 370 431 430
f 371 431 370
f 371 432 431
f 372 432 371
f 372 433 432
f 373 433 372
f 373 434 433
f 374 434 373
f 374 435 434
f 375 435 374
f 375 436 435
f 376 436 375
f 376 437 436
f 377 437 376
f 377 438 437
f 378 438 377
f 378 439 438
f 379 439 378
f 379 440 439
f 380 440 379
f 380 381 440
f 440 381 441
f 457 442 397
f 397 442 382
f 443 382 442
f 443 383 382
f 444 383 443
f 444 384 383
f 445 384 444
f 445 385 384
f 446 385 445
f 446 386 385
f 447 386 446
f 447 387 386
f 448 387 447
f 448 388 387
f 449 388 448
f 449 389 388
f 450 389 449
f 450 390 389
f 451 390 450
f 451 391 390
f 452 391 451
f 452 392 391
f 453 392 452
f 453 393 392
f 454 393 453
f 454 394 393
f 455 394 454
f 455 395 394
f 456 395 455
f 456 396 395
f 456 460 396
f 396 460 400
f 397 398 457
f 457 398 458
f 461 458 398
f 461 398 401
f 459 462 402
f 459 402 399
f 399 400 459
f 459 400 460
f 401 463 461
f 401 403 463
f 464 402 462
f 404 402 464
f 403 465 463
f 403 405 465
f 466 404 464
f 406 404 466
f 405 467 465
f 405 407 467
f 468 406 466
f 408 406 468
f 407 469 467
f 407 409 469
f 470 408 468
f 410 408 470
f 409 471 469
f 409 411 471
f 472 410 470
f 412 410 472
f 411 473 471
f 411 413 473
f 474 412 472
f 414 412 474
f 413 475 473
f 413 415 475
f 476 414 474
f 416 414 476
f 415 477 475
f 415 417 477
f 478 416 476
f 418 416 478
f 417 479 477
f 417 419 479
f 480 418 478
f 420 418 480
f 419 482 479
f 419 422 482
f 483 420 480
f 423 420 483
f 485 481 425
f 425 481 421
f 422 421 481
f 422 481 482
f 424 423 483
f 424 483 484
f 484 501 424
f 424 501 441
f 425 426 485
f 485 426 486
f 426 487 486
f 427 487 426
f 427 488 487
f 428 488 427
f 428 489 488
f 429 489 428
f 429 490 489
f 430 490 429
f 430 491 490
f 431 491 430
f 431 492 491
f 432 492 431
f 432 493 492
f 433 493 432
f 433 494 493
f 434 494 433
f 434 495 494
f 435 495 434
f 435 496 495
f 436 496 435
f 436 497 496
f 437 497 436
f 437 498 497
f 438 498 437
f 438 499 498
f 439 499 438
f 439 500 499
f 440 500 439
f 440 441 500
f 500 441 501
f 517 502 457
f 457 502 442
f 503 442 502
f 503 443 442
f 504 443 503
f 504 444 443
f 505 444 504
f 505 445 444
f 506 445 505
f 506 446 445
f 507 446 506
f 507 447 446
f 508 447 507
f 508 448 447
f 509 448 508
f 509 449 448
f 510 449 509
f 510 450 449
f 511 450 510
f 511 451 450
f 512 451 511
f 512 452 451
f 513 452 512
f 513 453 452
f 514 453 513
f 514 454 453
f 515 454 514
f 515 455 454
f 516 455 515
f 516 456 455
f 516 520 456
f 456 520 460
f 457 458 517
f 517 458 518
f 521 518 458
f 521 458 461
f 519 522 462
f 519 462 459
f 459 460 519
f 519 460 520
f 461 523 521
f 461 463 523
f 524 462 522
f 464 462 524
f 463 525 523
f 463 465 525
f 526 464 524
f 466 464 526
f 465 527 525
f 465 467 527
f 528 466 526
f 468 466 528
f 467 529 527
f 467 469 529
f 530 468 528
f 470 468 530
f 469 531 529
f 469 471 531
f 532 470 530
f 472 470 532
f 471 533 531
f 471 473 533
f 534 472 532
f 474 472 534
f 473 535 533
f 473 475 535
f 536 474 534
f 476 474 536
f 475 537 535
f 475 477 537
f 538 476 536
f 478 476 538
f 477 539 537
f 477 479 539
f 540 478 538
f 480 478 540
f 479 542 539
f 479 482 542
f 543 480 540
f 483 480 543
f 545 541 485
f 485 541 481
f 482 481 541
f 482 541 542
f 484 483 543
f 484 543 544
f 544 561 484
f 484 561 501
f 485 486 545
f 545 486 546
f 486 547 546
f 487 547 486
f 487 548 547
f 488 548 487
f 488 549 548
f 489 549 488
f 489 550 549
f 490 550 489
f 490 551 550
f 491 551 490
f 491 552 551
f 492 552 491
f 492 553 552
f 493 553 492
f 493 554 553
f 494 554 493
f 494 555 554
f 495 555 494
f 495 556 555
f 496 556 495
f 496 557 556
f 497 557 496
f 497 558 557
f 498 558 497
f 498 559 558
f 499 559 498
f 499 560 559
f 500 560 499
f 500 501 560
f 560 501 561
f 577 562 517
f 517 562 502
f 563 502 562
f 563 503 502
f 564 503 563
f 564 504 503
f 565 504 564
f 565 505 504
f 566 505 565
f 566 506 505
f 567 506 566
f 567 507 506
f 568 507 567
f 568 508 507
f 569 508 568
f 569 509 508
f 570 509 569
f 570 510 509
f 571 510 570
f 571 511 510
f 572 511 571
f 572 512 511
f 573 512 572
f 573 513 512
f 574 513 573
f 574 514 513
f 575 514 574
f 575 515 514
f 576 515 575
f 576 516 515
f 576 580 516
f 516 580 520
f 517 518 577
f 577 518 578
f 581 578 518
f 581 518 521
f 579 582 522
f 579 522 519
f 519 520 579
f 579 520 580
f 521 583 581
f 521 523 583
f 584 522 582
f 524 522 584
f 523 585 583
f 523 525 585
f 586 524 584
f 526 524 586
f 525 587 585
f 525 527 587
f 588 526 586
f 528 526 588
f 527 589 587
f 527 529 589
f 590 528 588
f 530 528 590
f 529 591 589
f 529 531 591
f 592 530 590
f 532 530 592
f 531 593 591
f 531 533 593
f 594 532 592
f 534 532 594
f 533 595 593
f 533 535 595
f 596 534 594
f 536 534 596
f 535 597 595
f 535 537 597
f 598 536 596
f 538 536 598
f 537 599 597
f 537 539 599
f 600 538 598
f 540 538 600
f 539 602 599
f 539 542 602
f 603 540 600
f 543 540 603
f 605 601 545
f 545 601 541
f 542 541 601
f 542 601 602
f 544 543 603
f 544 603 604
f 604 621 544
f 544 621 561
f 545 546 605
f 605 546 606
f 546 607 606
f 547 607 546
f 547 608 607
f 548 608 547
f 548 609 608
f 549 609 548
f 549 610 609
f 550 610 549
f 550 611 610
f 551 611 550
f 551 612 611
f 552 612 551
f 552 613 612
f 553 613 552
f 553 614 613
f 554 614 553
f 554 615 614
f 555 615 554
f 555 616 615
f 556 616 555
f 556 617 616
f 557 617 556
f 557 618 617
f 558 618 557
f 558 619 618
f 559 619 558
f 559 620 619
f 560 620 559
f 560 561 620
f 620 561 621
f 637 622 577
f 577 622 562
f 623 562 622
f 623 563 562
f 624 563 623
f 624 564 563
f 625 564 624
f 625 565 564
f 626 565 625
f 626 566 565
f 627 566 626
f 627 567 566
f 628 567 627
f 628 568 567
f 629 568 628
f 629 569 568
f 630 569 629
f 630 570 569
f 631 570 630
f 631 571 570
f 632 571 631
f 632 572 571
f 633 572 632
f 633 573 572
f 634 573 633
f 634 574 573
f 635 574 634
f 635 575 574
f 636 575 635
f 636 576 575
f 636 640 576
f 576 640 580
f 577 578 637
f 637 578 638
f 641 638 578
f 641 578 581
f 639 642 582
f 639 582 579
f 579 580 639
f 639 580 640
f 581 643 641
f 581 583 643
f 644 582 642
f 584 582 644
f 583 645 643
f 583 585 645
f 646 584 644
f 586 584 646
f 585 647 645
f 585 587 647
f 648 586 646
f 588 586 648
f 587 649 647
f 587 589 649
f 650 588 648
f 590 588 650
f 589 651 649
f 589 591 651
f 652 590 650
f 592 590 652
f 591 653 651
f 591 593 653
f 654 592 652
f 594 592 654
f 593 655 653
f 593 595 655
f 656 594 654
f 596 594 656
f 595 657 655
f 595 597 657
f 658 596 656
f 598 596 658
f 597 659 657
f 597 599 659
f 660 598 658
f 600 598 660
f 599 662 659
f 599 602 662
f 663 600 660
f 603 600 663
f 665 661 605
f 605 661 601
f 602 601 661
f 602 661 662
f 604 603 663
f 604 663 664
f 664 681 604
f 604 681 621
f 605 606 665
f 665 606 666
f 606 667 666
f 607 667 606
f 607 668 667
f 608 668 607
f 608 669 668
f 609 669 608
f 609 670 669
f 610 670 609
f 610 671 670
f 611 671 610
f 611 672 671
f 612 672 611
f 612 673 672
f 613 673 612
f 613 674 673
f 614 674 613
f 614 675 674
f 615 675 614
f 615 676 675
f 616 676 615
f 616 677 676
f 617 677 616
f 617 678 677
f 618 678 617
f 618 679 678
f 619 679 618
f 619 680 679
f 620 680 619
f 620 621 680
f 680 621 681
f 697 682 637
f 637 682 622
f 683 622 682
f 683 623 622
f 684 623 683
f 684 624 623
f 685 624 684
f 685 625 624
f 686 625 685
f 686 626 625
f 687 626 686
f 687 627 626
f 688 627 687
f 688 628 627
f 689 628 688
f 689 629 628
f 690 629 689
f 690 630 629
f 691 630 690
f 691 631 630
f 692 631 691
f 692 632 631
f 693 632 692
f 693 633 632
f 694 633 693
f 694 634 633
f 695 634 694
f 695 635 634
f 696 635 695
f 696 636 635
f 696 700 636
f 636 700 640
f 637 638 697
f 697 638 698
f 701 698 638
f 701 638 641
f 699 702 642
f 699 642 639
f 639 640 699
f 699 640 700
f 641 703 701
f 641 643 703
f 704 642 702
f 644 642 704
f 643 705 703
f 643 645 705
f 706 644 704
f 646 644 706
f 645 707 705
f 645 647 707
f 708 646 706
f 648 646 708
f 647 709 707
f 647 649 709
f 710 648 708
f 650 648 710
f 649 711 709
f 649 651 711
f 712 650 710
f 652 650 712
f 651 713 711
f 651 653 713
f 714 652 712
f 654 652 714
f 653 715 713
f 653 655 715
f 716 654 714
f 656 654 716
f 655 717 715
f 655 657 717
f 718 656 716
f 658 656 718
f 657 719 717
f 657 659 719
f 720 658 718
f 660 658 720
f 659 722 719
f 659 662 722
f 723 660 720
f 663 660 723
f 725 721 665
f 665 721 661
f 662 661 721
f 662 721 722
f 664 663 723
f 664 723 724
f 724 741 664
f 664 741 681
f 665 666 725
f 725 666 726
f 666 727 726
f 667 727 666
f 667 728 727
f 668 728 667
f 668 729 728
f 669 729 668
f 669 730 729
f 670 730 669
f 670 731 730
f 671 731 670
f 671 732 731
f 672 732 671
f 672 733 732
f 673 733 672
f 673 734 733
f 674 734 673
f 674 735 734
f 675 735 674
f 675 736 735
f 676 736 675
f 676 737 736
f 677 737 676
f 677 738 737
f 678 738 677
f 678 739 738
f 679 739 678
f 679 740 739
f 680 740 679
f 680 681 740
f 740 681 741
f 757 742 697
f 697 742 682
f 743 682 742
f 743 683 682
f 744 683 743
f 744 684 683
f 745 684 744
f 745 685 684
f 746 685 745
f 746 686 685
f 747 686 746
f 747 687 686
f 748 687 747
f 748 688 687
f 749 688 748
f 749 689 688
f 750 689 749
f 750 690 689
f 751 690 750
f 751 691 690
f 752 691 751
f 752 692 691
f 753 692 752
f 753 693 692
f 754 693 753
f 754 694 693
f 755 694 754
f 755 695 694
f 756 695 755
f 756 696 695
f 756 760 696
f 696 760 700
f 697 698 757
f 757 698 758
f 761 758 698
f 761 698 701
f 759 762 702
f 759 702 699
f 699 700 759
f 759 700 760
f 701 763 761
f 701 703 763
f 764 702 762
f 704 702 764
f 703 765 763
f 703 705 765
f 766 704 764
f 706 704 766
f 705 767 765
f 705 707 767
f 768 706 766
f 708 706 768
f 707 769 767
f 707 709 769
f 770 708 768
f 710 708 770
f 709 771 769
f 709 711 771
f 772 710 770
f 712 710 772
f 711 773 771
f 711 713 773
f 774 712 772
f 714 712 774
f 713 775 773
f 713 715 775
f 776 714 774
f 716 714 776
f 715 777 775
f 715 717 777
f 778 716 776
f 718 716 778
f 717 779 777
f 717 719 779
f 780 718 778
f 720 718 780
f 719 782 779
f 719 722 782
f 783 720 780
f 723 720 783
f 785 781 725
f 725 781 721
f 722 721 781
f 722 781 782
f 724 723 783
f 724 783 784
f 784 801 724
f 724 801 741
f 725 726 785
f 785 726 786
f 726 787 786
f 727 787 726
f 727 788 787
f 728 788 727
f 728 789 788
f 729 789 728
f 729 790 789
f 730 790 729
f 730 791 790
f 731 791 730
f 731 792 791
f 732 792 731
f 732 793 792
f 733 793 732
f 733 794 793
f 734 794 733
f 734 795 794
f 735 795 734
f 735 796 795
f 736 796 735
f 736 797 796
f 737 797 736
f 737 798 797
f 738 798 737
f 738 799 798
f 739 799 738
f 739 800 799
f 740 800 739
f 740 741 800
f 800 741 801
f 817 802 757
f 757 802 742
f 803 742 802
f 803 743 742
f 804 743 803
f 804 744 743
f 805 744 804
f 805 745 744
f 806 745 805
f 806 746 745
f 807 746 806
f 807 747 746
f 808 747 807
f 808 748 747
f 809 748 808
f 809 749 748
f 810 749 809
f 810 750 749
f 811 750 810
f 811 751 750
f 812 751 811
f 812 752 751
f 813 752 812
f 813 753 752
f 814 753 813
f 814 754 753
f 815 754 814
f 815 755 754
f 816 755 815
f 816 756 755
f 816 820 756
f 756 820 760
f 757 758 817
f 817 758 818
f 821 818 758
f 821 758 761
f 819 822 762
f 819 762 759
f 759 760 819
f 819 760 820
f 761 823 821
f 761 763 823
f 824 762 822
f 764 762 824
f 763 825 823
f 763 765 825
f 826 764 824
f 766 764 826
f 765 827 825
f 765 767 827
f 828 766 826
f 768 766 828
f 767 829 827
f 767 769 829
f 830 768 828
f 770 768 830
f 769 831 829
f 769 771 831
f 832 770 830
f 772 770 832
f 771 833 831
f 771 773 833
f 834 772 832
f 774 772 834
f 773 835 833
f 773 775 835
f 836 774 834
f 776 774 836
f 775 837 835
f 775 777 837
f 838 776 836
f 778 776 838
f 777 839 837
f 777 779 839
f 840 778 838
f 780 778 840
f 779 842 839
f 779 782 842
f 843 780 840
f 783 780 843
f 845 841 785
f 785 841 781
f 782 781 841
f 782 841 842
f 784 783 843
f 784 843 844
f 844 861 784
f 784 861 801
f 785 786 845
f 845 786 846
f 786 847 846
f 787 847 786
f 787 848 847
f 788 848 787
f 788 849 848
f 789 849 788
f 789 850 849
f 790 850 789
f 790 851 850
f 791 851 790
f 791 852 851
f 792 852 791
f 792 853 852
f 793 853 792
f 793 854 853
f 794 854 793
f 794 855 854
f 795 855 794
f 795 856 855
f 796 856 795
f 796 857 856
f 797 857 796
f 797 858 857
f 798 858 797
f 798 859 858
f 799 859 798
f 799 860 859
f 800 860 799
f 800 801 860
f 860 801 861
f 877 862 817
f 817 862 802
f 863 802 862
f 863 803 802
f 864 803 863
f 864 804 803
f 865 804 864
f 865 805 804
f 866 805 865
f 866 806 805
f 867 806 866
f 867 807 806
f 868 807 867
f 868 808 807
f 869 808 868
f 869 809 808
f 870 809 869
f 870 810 809
f 871 810 870
f 871 811 810
f 872 811 871
f 872 812 811
f 873 812 872
f 873 813 812
f 874 813 873
f 874 814 813
f 875 814 874
f 875 815 814
f 876 815 875
f 876 816 815
f 876 880 816
f 816 880 820
f 817 818 877
f 877 818 878
f 881 878 818
f 881 818 821
f 879 882 822
f 879 822 819
f 819 820 879
f 879 820 880
f 821 883 881
f 821 823 883
f 884 822 882
f 824 822 884
f 823 885 883
f 823 825 885
f 886 824 884
f 826 824 886
f 825 887 885
f 825 827 887
f 888 826 886
f 828 826 888
f 827 889 887
f 827 829 889
f 890 828 888
f 830 828 890
f 829 891 889
f 829 831 891
f 892 830 890
f 832 830 892
f 831 893 891
f 831 833 893
f 894 832 892
f 834 832 894
f 833 895 893
f 833 835 895
f 896 834 894
f 836 834 896
f 835 897 895
f 835 837 897
f 898 836 896
f 838 836 898
f 837 899 897
f 837 839 899
f 900 838 898
f 840 838 900
f 839 902 899
f 839 842 902
f 903 840 900
f 843 840 903
f 905 901 845
f 845 901 841
f 842 841 901
f 842 901 902
f 844 843 903
f 844 903 904
f 904 921 844
f 844 921 861
f 845 846 905
f 905 846 906
f 846 907 906
f 847 907 846
f 847 908 907
f 848 908 847
f 848 909 908
f 849 909 848
f 849 910 909
f 850 910 849
f 850 911 910
f 851 911 850
f 851 912 911
f 852 912 851
f 852 913 912
f 853 913 852
f 853 914 913
f 854 914 853
f 854 915 914
f 855 915 854
f 855 916 915
f 856 916 855
f 856 917 916
f 857 917 856
f 857 918 917
f 858 918 857
f 858 919 918
f 859 919 858
f 859 920 919
f 860 920 859
f 860 861 920
f 920 861 921
f 937 922 877
f 877 922 862
f 923 862 922
f 923 863 862
f 924 863 923
f 924 864 863
f 925 864 924
f 925 865 864
f 926 865 925
f 926 866 865
f 927 866 926
f 927 867 866
f 928 867 927
f 928 868 867
f 929 868 928
f 929 869 868
f 930 869 929
f 930 870 869
f 931 870 930
f 931 871 870
f 932 871 931
f 932 872 871
f 933 872 932
f 933 873 872
f 934 873 933
f 934 874 873
f 935 874 934
f 935 875 874
f 936 875 935
f 936 876 875
f 936 940 876
f 876 940 880
f 877 878 937
f 937 878 938
f 941 938 878
f 941 878 881
f 939 942 882
f 939 882 879
f 879 880 939
f 939 880 940
f 881 943 941
f 881 883 943
f 944 882 942
f 884 882 944
f 883 945 943
f 883 885 945
f 946 884 944
f 886 884 946
f 885 947 945
f 885 887 947
f 948 886 946
f 888 886 948
f 887 949 947
f 887 889 949
f 950 888 948
f 890 888 950
f 889 951 949
f 889 891 951
f 952 890 950
f 892 890 952
f 891 953 951
f 891 893 953
f 954 892 952
f 894 892 954
f 893 955 953
f 893 895 955
f 956 894 954
f 896 894 956
f 895 957 955
f 895 897 957
f 958 896 956
f 898 896 958
f 897 959 957
f 897 899 959
f 960 898 958
f 900 898 960
f 899 962 959
f 899 902 962
f 963 900 960
f 903 900 963
f 965 961 905
f 905 961 901
f 902 901 961
f 902 961 962
f 904 903 963
f 904 963 964
f 964 981 904
f 904 981 921
f 905 906 965
f 965 906 966
f 906 967 966
f 907 967 906
f 907 968 967
f 908 968 907
f 908 969 968
f 909 969 908
f 909 970 969
f 910 970 909
f 910 971 970
f 911 971 910
f 911 972 971
f 912 972 911
f 912 973 972
f 913 973 912
f 913 974 973
f 914 974 913
f 914 975 974
f 915 975 914
f 915 976 975
f 916 976 915
f 916 977 976
f 917 977 916
f 917 978 977
f 918 978 917
f 918 979 978
f 919 979 918
f 919 980 979
f 920 980 919
f 920 921 980
f 980 921 981
f 997 982 937
f 937 982 922
f 983 922 982
f 983 923 922
f 984 923 983
f 984 924 923
f 985 924 984
f 985 925 924
f 986 925 985
f 986 926 925
f 987 926 986
f 987 927 926
f 988 927 987
f 988 928 927
f 989 928 988
f 989 929 928
f 990 929 989
f 990 930 929
f 991 930 990
f 991 931 930
f 992 931 991
f 992 932 931
f 993 932 992
f 993 933 932
f 994 933 993
f 994 934 933
f 995 934 994
f 995 935 934
f 996 935 995
f 996 936 935
f 996 1000 936
f 936 1000 940
f 937 938 997
f 997 938 998
f 1001 998 938
f 1001 938 941
f 999 1002 942
f 999 942 939
f 939 940 999
f 999 940 1000
f 941 1003 1001
f 941 943 1003
f 1004 942 1002
f 944 942 1004
f 943 1005 1003
f 943 945 1005
f 1006 944 1004
f 946 944 1006
f 945 1007 1005
f 945 947 1007
f 1008 946 1006
f 948 946 1008
f 947 1009 1007
f 947 949 1009
f 1010 948 1008
f 950 948 1010
f 949 1011 1009
f 949 951 1011
f 1012 950 1010
f 952 950 1012
f 951 1013 1011
f 951 953 1013
f 1014 952 1012
f 954 952 1014
f 953 1015 1013
f 953 955 1015
f 1016 954 1014
f 956 954 1016
f 955 1017 1015
f 955 957 1017
f 1018 956 1016
f 958 956 1018
f 957 1019 1017
f 957 959 1019
f 1020 958 1018
f 960 958 1020
f 959 1022 1019
f 959 962 1022
f 1023 960 1020
f 963 960 1023
f 1025 1021 965
f 965 1021 961
f 962 961 1021
f 962 1021 1022
f 964 963 1023
f 964 1023 1024
f 1024 1041 964
f 964 1041 981
f 965 966 1025
f 1025 966 1026
f 966 1027 1026
f 967 1027 966
f 967 1028 1027
f 968 1028 967
f 968 1029 1028
f 969 1029 968
f 969 1030 1029
f 970 1030 969
f 970 1031 1030
f 971 1031 970
f 971 1032 1031
f 972 1032 971
f 972 1033 1032
f 973 1033 972
f 973 1034 1033
f 974 1034 973
f 974 1035 1034
f 975 1035 974
f 975 1036 1035
f 976 1036 975
f 976 1037 1036
f 977 1037 976
f 977 1038 1037
f 978 1038 977
f 978 1039 1038
f 979 1039 978
f 979 1040 1039
f 980 1040 979
f 980 981 1040
f 1040 981 1041
f 1057 1042 997
f 997 1042 982
f 1043 982 1042
f 1043 983 982
f 1044 983 1043
f 1044 984 983
f 1045 984 1044
f 1045 985 984
f 1046 985 1045
f 1046 986 985
f 1047 986 1046
f 1047 987 986
f 1048 987 1047
f 1048 988 987
f 1049 988 1048
f 1049 989 988
f 1050 989 1049
f 1050 990 989
f 1051 990 1050
f 1051 991 990
f 1052 991 1051
f 1052 992 991
f 1053 992 1052
f 1053 993 992
f 1054 993 1053
f 1054 994 993
f 1055 994 1054
f 1055 995 994
f 1056 995 1055
f 1056 996 995
f 1056 1060 996
f 996 1060 1000
f 997 998 1057
f 1057 998 1058
f 1062 1058 998
f 1062 998 1001
f 1059 1076 1002
f 1059 1002 999
f 999 1000 1059
f 1059 1000 1060
f 1001 1079 1062
f 1001 1003 1079
f 1093 1002 1076
f 1004 1002 1093
f 1003 1096 1079
f 1003 1005 1096
f 1110 1004 1093
f 1006 1004 1110
f 1005 1113 1096
f 1005 1007 1113
f 1127 1006 1110
f 1008 1006 1127
f 1007 1130 1113
f 1007 1009 1130
f 1144 1008 1127
f 1010 1008 1144
f 1009 1147 1130
f 1009 1011 1147
f 1161 1010 1144
f 1012 1010 1161
f 1011 1164 1147
f 1011 1013 1164
f 1178 1012 1161
f 1014 1012 1178
f 1013 1181 1164
f 1013 1015 1181
f 1195 1014 1178
f 1016 1014 1195
f 1015 1198 1181
f 1015 1017 1198
f 1212 1016 1195
f 1018 1016 1212
f 1017 1215 1198
f 1017 1019 1215
f 1229 1018 1212
f 1020 1018 1229
f 1019 1233 1215
f 1019 1022 1233
f 1247 1020 1229
f 1023 1020 1247
f 1250 1232 1025
f 1025 1232 1021
f 1022 1021 1232
f 1022 1232 1233
f 1024 1023 1247
f 1024 1247 1249
f 1249 1266 1024
f 1024 1266 1041
f 1025 1026 1250
f 1250 1026 1251
f 1026 1252 1251
f 1027 1252 1026
f 1027 1253 1252
f 1028 1253 1027
f 1028 1254 1253
f 1029 1254 1028
f 1029 1255 1254
f 1030 1255 1029
f 1030 1256 1255
f 1031 1256 1030
f 1031 1257 1256
f 1032 1257 1031
f 1032 1258 1257
f 1033 1258 1032
f 1033 1259 1258
f 1034 1259 1033
f 1034 1260 1259
f 1035 1260 1034
f 1035 1261 1260
f 1036 1261 1035
f 1036 1262 1261
f 1037 1262 1036
f 1037 1263 1262
f 1038 1263 1037
f 1038 1264 1263
f 1039 1264 1038
f 1039 1265 1264
f 1040 1265 1039
f 1040 1041 1265
f 1265 1041 1266
f 1282 1267 1057
f 1057 1267 1042
f 1268 1042 1267
f 1268 1043 1042
f 1269 1043 1268
f 1269 1044 1043
f 1270 1044 1269
f 1270 1045 1044
f 1271 1045 1270
f 1271 1046 1045
f 1272 1046 1271
f 1272 1047 1046
f 1273 1047 1272
f 1273 1048 1047
f 1274 1048 1273
f 1274 1049 1048
f 1275 1049 1274
f 1275 1050 1049
f 1276 1050 1275
f 1276 1051 1050
f 1277 1051 1276
f 1277 1052 1051
f 1278 1052 1277
f 1278 1053 1052
f 1279 1053 1278
f 1279 1054 1053
f 1280 1054 1279
f 1280 1055 1054
f 1281 1055 1280
f 1281 1056 1055
f 1281 1311 1056
f 1056 1311 1060
f 1061 1312 1058
f 1312 1057 1058
f 1312 1282 1057
f 1058 1062 1063
f 1285 1058 1063
f 1058 1314 1061
f 1058 1285 1314
f 1064 1287 1285
f 1064 1285 1063
f 1065 1289 1287
f 1065 1287 1064
f 1066 1291 1289
f 1066 1289 1065
f 1067 1293 1291
f 1067 1291 1066
f 1068 1295 1293
f 1068 1293 1067
f 1069 1297 1295
f 1069 1295 1068
f 1070 1299 1297
f 1070 1297 1069
f 1071 1301 1299
f 1071 1299 1070
f 1072 1303 1301
f 1072 1301 1071
f 1073 1305 1303
f 1073 1303 1072
f 1074 1307 1305
f 1074 1305 1073
f 1075 1309 1307
f 1075 1307 1074
f 1309 1075 1076
f 1059 1309 1076
f 1309 1077 1315
f 1309 1059 1077
f 1059 1060 1077
f 1060 1317 1077
f 1060 1311 1317
f 1312 1061 1318
f 1318 1061 1078
f 1062 1079 1063
f 1079 1080 1063
f 1314 1078 1061
f 1314 1320 1078
f 1080 1064 1063
f 1080 1081 1064
f 1081 1065 1064
f 1081 1082 1065
f 1082 1066 1065
f 1082 1083 1066
f 1083 1067 1066
f 1083 1084 1067
f 1084 1068 1067
f 1084 1085 1068
f 1085 1069 1068
f 1085 1086 1069
f 1086 1070 1069
f 1086 1087 1070
f 1087 1071 1070
f 1087 1088 1071
f 1088 1072 1071
f 1088 1089 1072
f 1089 1073 1072
f 1089 1090 1073
f 1090 1074 1073
f 1090 1091 1074
f 1091 1075 1074
f 1091 1092 1075
f 1092 1076 1075
f 1093 1076 1092
f 1321 1315 1077
f 1094 1321 1077
f 1323 1094 1317
f 1317 1094 1077
f 1318 1078 1324
f 1324 1078 1095
f 1079 1096 1080
f 1096 1097 1080
f 1320 1095 1078
f 1320 1326 1095
f 1097 1081 1080
f 1097 1098 1081
f 1098 1082 1081
f 1098 1099 1082
f 1099 1083 1082
f 1099 1100 1083
f 1100 1084 1083
f 1100 1101 1084
f 1101 1085 1084
f 1101 1102 1085
f 1102 1086 1085
f 1102 1103 1086
f 1103 1087 1086
f 1103 1104 1087
f 1104 1088 1087
f 1104 1105 1088
f 1105 1089 1088
f 1105 1106 1089
f 1106 1090 1089
f 1106 1107 1090
f 1107 1091 1090
f 1107 1108 1091
f 1108 1092 1091
f 1108 1109 1092
f 1109 1093 1092
f 1110 1093 1109
f 1327 1321 1094
f 1111 1327 1094
f 1329 1111 1323
f 1323 1111 1094
f 1324 1095 1330
f 1330 1095 1112
f 1096 1113 1097
f 1113 1114 1097
f 1326 1112 1095
f 1326 1332 1112
f 1114 1098 1097
f 1114 1115 1098
f 1115 1099 1098
f 1115 1116 1099
f 1116 1100 1099
f 1116 1117 1100
f 1117 1101 1100
f 1117 1118 1101
f 1118 1102 1101
f 1118 1119 1102
f 1119 1103 1102
f 1119 1120 1103
f 1120 1104 1103
f 1120 1121 1104
f 1121 1105 1104
f 1121 1122 1105
f 1122 1106 1105
f 1122 1123 1106
f 1123 1107 1106
f 1123 1124 1107
f 1124 1108 1107
f 1124 1125 1108
f 1125 1109 1108
f 1125 1126 1109
f 1126 1110 1109
f 1127 1110 1126
f 1333 1327 1111
f 1128 1333 1111
f 1335 1128 1329
f 1329 1128 1111
f 1330 1112 1336
f 1336 1112 1129
f 1113 1130 1114
f 1130 1131 1114
f 1332 1129 1112
f 1332 1338 1129
f 1131 1115 1114
f 1131 1132 1115
f 1132 1116 1115
f 1132 1133 1116
f 1133 1117 1116
f 1133 1134 1117
f 1134 1118 1117
f 1134 1135 1118
f 1135 1119 1118
f 1135 1136 1119
f 1136 1120 1119
f 1136 1137 1120
f 1137 1121 1120
f 1137 1138 1121
f 1138 1122 1121
f 1138 1139 1122
f 1139 1123 1122
f 1139 1140 1123
f 1140 1124 1123
f 1140 1141 1124
f 1141 1125 1124
f 1141 1142 1125
f 1142 1126 1125
f 1142 1143 1126
f 1143 1127 1126
f 1144 1127 1143
f 1339 1333 1128
f 1145 1339 1128
f 1341 1145 1335
f 1335 1145 1128
f 1336 1129 1342
f 1342 1129 1146
f 1130 1147 1131
f 1147 1148 1131
f 1338 1146 1129
f 1338 1344 1146
f 1148 1132 1131
f 1148 1149 1132
f 1149 1133 1132
f 1149 1150 1133
f 1150 1134 1133
f 1150 1151 1134
f 1151 1135 1134
f 1151 1152 1135
f 1152 1136 1135
f 1152 1153 1136
f 1153 1137 1136
f 1153 1154 1137
f 1154 1138 1137
f 1154 1155 1138
f 1155 1139 1138
f 1155 1156 1139
f 1156 1140 1139
f 1156 1157 1140
f 1157 1141 1140
f 1157 1158 1141
f 1158 1142 1141
f 1158 1159 1142
f 1159 1143 1142
f 1159 1160 1143
f 1160 1144 1143
f 1161 1144 1160
f 1345 1339 1145
f 1162 1345 1145
f 1347 1162 1341
f 1341 1162 1145
f 1342 1146 1348
f 1348 1146 1163
f 1147 1164 1148
f 1164 1165 1148
f 1344 1163 1146
f 1344 1350 1163
f 1165 1149 1148
f 1165 1166 1149
f 1166 1150 1149
f 1166 1167 1150
f 1167 1151 1150
f 1167 1168 1151
f 1168 1152 1151
f 1168 1169 1152
f 1169 1153 1152
f 1169 1170 1153
f 1170 1154 1153
f 1170 1171 1154
f 1171 1155 1154
f 1171 1172 1155
f 1172 1156 1155
f 1172 1173 1156
f 1173 1157 1156
f 1173 1174 1157
f 1174 1158 1157
f 1174 1175 1158
f 1175 1159 1158
f 1175 1176 1159
f 1176 1160 1159
f 1176 1177 1160
f 1177 1161 1160
f 1178 1161 1177
f 1351 1345 1162
f 1179 1351 1162
f 1353 1179 1347
f 1347 1179 1162
f 1348 1163 1354
f 1354 1163 1180
f 1164 1181 1165
f 1181 1182 1165
f 1350 1180 1163
f 1350 1356 1180
f 1182 1166 1165
f 1182 1183 1166
f 1183 1167 1166
f 1183 1184 1167
f 1184 1168 1167
f 1184 1185 1168
f 1185 1169 1168
f 1185 1186 1169
f 1186 1170 1169
f 1186 1187 1170
f 1187 1171 1170
f 1187 1188 1171
f 1188 1172 1171
f 1188 1189 1172
f 1189 1173 1172
f 1189 1190 1173
f 1190 1174 1173
f 1190 1191 1174
f 1191 1175 1174
f 1191 1192 1175
f 1192 1176 1175
f 1192 1193 1176
f 1193 1177 1176
f 1193 1194 1177
f 1194 1178 1177
f 1195 1178 1194
f 1357 1351 1179
f 1196 1357 1179
f 1359 1196 1353
f 1353 1196 1179
f 1354 1180 1360
f 1360 1180 1197
f 1181 1198 1182
f 1198 1199 1182
f 1356 1197 1180
f 1356 1362 1197
f 1199 1183 1182
f 1199 1200 1183
f 1200 1184 1183
f 1200 1201 1184
f 1201 1185 1184
f 1201 1202 1185
f 1202 1186 1185
f 1202 1203 1186
f 1203 1187 1186
f 1203 1204 1187
f 1204 1188 1187
f 1204 1205 1188
f 1205 1189 1188
f 1205 1206 1189
f 1206 1190 1189
f 1206 1207 1190
f 1207 1191 1190
f 1207 1208 1191
f 1208 1192 1191
f 1208 1209 1192
f 1209 1193 1192
f 1209 1210 1193
f 1210 1194 1193
f 1210 1211 1194
f 1211 1195 1194
f 1212 1195 1211
f 1363 1357 1196
f 1213 1363 1196
f 1365 1213 1359
f 1359 1213 1196
f 1360 1197 1366
f 1366 1197 1214
f 1198 1215 1199
f 1215 1216 1199
f 1362 1214 1197
f 1362 1368 1214
f 1216 1200 1199
f 1216 1217 1200
f 1217 1201 1200
f 1217 1218 1201
f 1218 1202 1201
f 1218 1219 1202
f 1219 1203 1202
f 1219 1220 1203
f 1220 1204 1203
f 1220 1221 1204
f 1221 1205 1204
f 1221 1222 1205
f 1222 1206 1205
f 1222 1223 1206
f 1223 1207 1206
f 1223 1224 1207
f 1224 1208 1207
f 1224 1225 1208
f 1225 1209 1208
f 1225 1226 1209
f 1226 1210 1209
f 1226 1227 1210
f 1227 1211 1210
f 1227 1228 1211
f 1228 1212 1211
f 1229 1212 1228
f 1369 1363 1213
f 1230 1369 1213
f 1371 1230 1365
f 1365 1230 1213
f 1366 1214 1372
f 1372 1214 1231
f 1215 1233 1216
f 1233 1234 1216
f 1368 1231 1214
f 1368 1374 1231
f 1234 1217 1216
f 1234 1235 1217
f 1235 1218 1217
f 1235 1236 1218
f 1236 1219 1218
f 1236 1237 1219
f 1237 1220 1219
f 1237 1238 1220
f 1238 1221 1220
f 1238 1239 1221
f 1239 1222 1221
f 1239 1240 1222
f 1240 1223 1222
f 1240 1241 1223
f 1241 1224 1223
f 1241 1242 1224
f 1242 1225 1224
f 1242 1243 1225
f 1243 1226 1225
f 1243 1244 1226
f 1244 1227 1226
f 1244 1245 1227
f 1245 1228 1227
f 1245 1246 1228
f 1246 1229 1228
f 1247 1229 1246
f 1388 1369 1230
f 1248 1388 1230
f 1390 1248 1371
f 1371 1248 1230
f 1232 1250 1231
f 1250 1372 1231
f 1250 1391 1372
f 1375 1234 1233
f 1232 1375 1233
f 1375 1231 1374
f 1375 1232 1231
f 1376 1235 1234
f 1376 1234 1375
f 1377 1236 1235
f 1377 1235 1376
f 1378 1237 1236
f 1378 1236 1377
f 1379 1238 1237
f 1379 1237 1378
f 1380 1239 1238
f 1380 1238 1379
f 1381 1240 1239
f 1381 1239 1380
f 1382 1241 1240
f 1382 1240 1381
f 1383 1242 1241
f 1383 1241 1382
f 1384 1243 1242
f 1384 1242 1383
f 1385 1244 1243
f 1385 1243 1384
f 1386 1245 1244
f 1386 1244 1385
f 1387 1246 1245
f 1387 1245 1386
f 1387 1388 1248
f 1249 1387 1248
f 1387 1247 1246
f 1387 1249 1247
f 1248 1390 1249
f 1390 1266 1249
f 1390 1422 1266
f 1250 1251 1391
f 1391 1251 1393
f 1251 1395 1393
f 1252 1395 1251
f 1252 1397 1395
f 1253 1397 1252
f 1253 1399 1397
f 1254 1399 1253
f 1254 1401 1399
f 1255 1401 1254
f 1255 1403 1401
f 1256 1403 1255
f 1256 1405 1403
f 1257 1405 1256
f 1257 1407 1405
f 1258 1407 1257
f 1258 1409 1407
f 1259 1409 1258
f 1259 1411 1409
f 1260 1411 1259
f 1260 1413 1411
f 1261 1413 1260
f 1261 1415 1413
f 1262 1415 1261
f 1262 1417 1415
f 1263 1417 1262
f 1263 1419 1417
f 1264 1419 1263
f 1264 1421 1419
f 1265 1421 1264
f 1265 1266 1421
f 1421 1266 1422
f 1282 1283 1267
f 1267 1283 1268
f 1268 1283 1284
f 1268 1284 1269
f 1269 1284 1286
f 1269 1286 1270
f 1270 1286 1288
f 1270 1288 1271
f 1271 1288 1290
f 1271 1290 1272
f 1272 1290 1292
f 1272 1292 1273
f 1273 1292 1294
f 1273 1294 1274
f 1274 1294 1296
f 1274 1296 1275
f 1275 1296 1298
f 1275 1298 1276
f 1276 1298 1300
f 1276 1300 1277
f 1277 1300 1302
f 1277 1302 1278
f 1278 1302 1304
f 1278 1304 1279
f 1279 1304 1306
f 1279 1306 1280
f 1280 1306 1308
f 1280 1308 1281
f 1281 1308 1310
f 1310 1311 1281
f 1283 1282 1313
f 1313 1282 1312
f 1285 1284 1314
f 1284 1313 1314
f 1284 1283 1313
f 1284 1285 1286
f 1286 1285 1287
f 1286 1287 1288
f 1288 1287 1289
f 1288 1289 1290
f 1290 1289 1291
f 1290 1291 1292
f 1292 1291 1293
f 1292 1293 1294
f 1294 1293 1295
f 1294 1295 1296
f 1296 1295 1297
f 1296 1297 1298
f 1298 1297 1299
f 1298 1299 1300
f 1300 1299 1301
f 1300 1301 1302
f 1302 1301 1303
f 1302 1303 1304
f 1304 1303 1305
f 1304 1305 1306
f 1306 1305 1307
f 1306 1307 1308
f 1308 1307 1309
f 1315 1316 1309
f 1316 1308 1309
f 1316 1310 1308
f 1316 1317 1310
f 1310 1317 1311
f 1313 1312 1319
f 1319 1312 1318
f 1319 1320 1313
f 1313 1320 1314
f 1316 1315 1322
f 1322 1315 1321
f 1322 1323 1316
f 1316 1323 1317
f 1319 1318 1325
f 1325 1318 1324
f 1325 1326 1319
f 1319 1326 1320
f 1322 1321 1328
f 1328 1321 1327
f 1328 1329 1322
f 1322 1329 1323
f 1325 1324 1331
f 1331 1324 1330
f 1331 1332 1325
f 1325 1332 1326
f 1328 1327 1334
f 1334 1327 1333
f 1334 1335 1328
f 1328 1335 1329
f 1331 1330 1337
f 1337 1330 1336
f 1337 1338 1331
f 1331 1338 1332
f 1334 1333 1340
f 1340 1333 1339
f 1340 1341 1334
f 1334 1341 1335
f 1337 1336 1343
f 1343 1336 1342
f 1343 1344 1337
f 1337 1344 1338
f 1340 1339 1346
f 1346 1339 1345
f 1346 1347 1340
f 1340 1347 1341
f 1343 1342 1349
f 1349 1342 1348
f 1349 1350 1343
f 1343 1350 1344
f 1346 1345 1352
f 1352 1345 1351
f 1352 1353 1346
f 1346 1353 1347
f 1349 1348 1355
f 1355 1348 1354
f 1355 1356 1349
f 1349 1356 1350
f 1352 1351 1358
f 1358 1351 1357
f 1358 1359 1352
f 1352 1359 1353
f 1355 1354 1361
f 1361 1354 1360
f 1361 1362 1355
f 1355 1362 1356
f 1358 1357 1364
f 1364 1357 1363
f 1364 1365 1358
f 1358 1365 1359
f 1361 1360 1367
f 1367 1360 1366
f 1367 1368 1361
f 1361 1368 1362
f 1364 1363 1370
f 1370 1363 1369
f 1370 1371 1364
f 1364 1371 1365
f 1367 1366 1373
f 1373 1366 1372
f 1373 1374 1367
f 1367 1374 1368
f 1370 1369 1389
f 1389 1369 1388
f 1389 1390 1370
f 1370 1390 1371
f 1373 1372 1392
f 1392 1372 1391
f 1374 1373 1375
f 1373 1394 1375
f 1373 1392 1394
f 1375 1394 1376
f 1376 1394 1396
f 1376 1396 1377
f 1377 1396 1398
f 1377 1398 1378
f 1378 1398 1400
f 1378 1400 1379
f 1379 1400 1402
f 1379 1402 1380
f 1380 1402 1404
f 1380 1404 1381
f 1381 1404 1406
f 1381 1406 1382
f 1382 1406 1408
f 1382 1408 1383
f 1383 1408 1410
f 1383 1410 1384
f 1384 1410 1412
f 1384 1412 1385
f 1385 1412 1414
f 1385 1414 1386
f 1386 1414 1416
f 1386 1416 1387
f 1387 1416 1418
f 1387 1418 1388
f 1418 1389 1388
f 1418 1420 1389
f 1420 1422 1389
f 1389 1422 1390
f 1391 1393 1392
f 1392 1393 1394
f 1394 1393 1395
f 1394 1395 1396
f 1396 1395 1397
f 1396 1397 1398
f 1398 1397 1399
f 1398 1399 1400
f 1400 1399 1401
f 1400 1401 1402
f 1402 1401 1403
f 1402 1403 1404
f 1404 1403 1405
f 1404 1405 1406
f 1406 1405 1407
f 1406 1407 1408
f 1408 1407 1409
f 1408 1409 1410
f 1410 1409 1411
f 1410 1411 1412
f 1412 1411 1413
f 1412 1413 1414
f 1414 1413 1415
f 1414 1415 1416
f 1416 1415 1417
f 1416 1417 1418
f 1418 1417 1419
f 1418 1419 1420
f 1420 1419 1421
f 1421 1422 1420

